<svg width="130" height="122" viewBox="0 0 130 122" fill="none" xmlns="http://www.w3.org/2000/svg">
<path d="M66.4789 7.45847L69.4437 7.57717C69.4922 7.5793 69.5389 7.59605 69.5775 7.62519C69.6162 7.65434 69.645 7.6945 69.6601 7.74033C69.6752 7.78616 69.6759 7.83549 69.6622 7.88174C69.6484 7.92799 69.6208 7.96897 69.583 7.99923L67.2417 9.81934C67.2051 9.84867 67.178 9.8881 67.1638 9.93268C67.1497 9.97726 67.1491 10.025 67.1621 10.0699L67.9646 12.9122C67.9757 12.958 67.9729 13.006 67.9564 13.0502C67.94 13.0943 67.9107 13.1326 67.8723 13.1602C67.8339 13.1878 67.7881 13.2034 67.7408 13.205C67.6935 13.2066 67.6467 13.1942 67.6065 13.1694L65.1391 11.5207C65.0999 11.4947 65.0537 11.4807 65.0065 11.4807C64.9593 11.4807 64.9131 11.4947 64.8738 11.5207L62.4065 13.1628C62.3657 13.1885 62.3181 13.2014 62.2699 13.1997C62.2217 13.198 62.1751 13.1818 62.1363 13.1532C62.0975 13.1246 62.0683 13.0851 62.0526 13.0397C62.0369 12.9943 62.0354 12.9453 62.0483 12.899L62.8641 10.0633C62.8764 10.0178 62.8748 9.96961 62.8594 9.92497C62.8441 9.88034 62.8157 9.84127 62.7779 9.81274L60.4498 7.98604C60.4095 7.95651 60.3795 7.91511 60.3641 7.86768C60.3487 7.82026 60.3487 7.76922 60.3641 7.7218C60.3795 7.67438 60.4095 7.63298 60.4499 7.60348C60.4903 7.57397 60.539 7.55784 60.5891 7.55739L63.5539 7.45188C63.6015 7.45112 63.6477 7.43629 63.6867 7.40927C63.7257 7.38225 63.7557 7.34427 63.7728 7.3002L64.7942 4.53047C64.8105 4.48391 64.841 4.44356 64.8814 4.415C64.9218 4.38644 64.9702 4.37109 65.0197 4.37109C65.0693 4.37109 65.1177 4.38644 65.1581 4.415C65.1985 4.44356 65.229 4.48391 65.2453 4.53047L66.2667 7.3002C66.2824 7.34449 66.3109 7.38317 66.3487 7.41134C66.3864 7.43951 66.4318 7.45591 66.4789 7.45847Z" fill="#9B744D"/>
<path d="M75.7781 15.0555C75.6764 14.8005 75.515 14.5763 75.2939 14.3828C74.9844 14.1103 75.0286 13.919 75.4266 13.8091C76.1076 13.6289 76.6536 13.2398 77.0649 12.6419C77.2152 12.4221 77.339 12.4374 77.4363 12.688C77.6441 13.2244 78.0222 13.6025 78.5705 13.8223C78.9729 13.9806 79.0502 14.2378 78.8026 14.5939C78.5683 14.928 78.4268 15.3017 78.3781 15.715C78.3295 16.1194 78.1128 16.2579 77.7281 16.1304C77.2108 15.959 76.7266 16.0425 76.2756 16.381C76.0059 16.5832 75.8356 16.5217 75.7649 16.1964C75.7295 16.0513 75.7383 15.9084 75.7914 15.7677C75.8754 15.5303 75.871 15.2929 75.7781 15.0555Z" fill="#9B744D"/>
<path d="M50.8792 13.7958C51.6 13.8046 52.1394 13.499 52.4976 12.8791C52.5264 12.8291 52.5669 12.7866 52.6155 12.7552C52.6642 12.7238 52.7197 12.7044 52.7774 12.6986C52.8351 12.6928 52.8934 12.7008 52.9474 12.7219C53.0014 12.7429 53.0496 12.7765 53.0879 12.8198C53.5124 13.2946 54.0165 13.6046 54.6001 13.7496C55.0114 13.8551 55.0755 14.0662 54.7925 14.3827C54.3813 14.8399 54.1867 15.3675 54.2088 15.9654C54.2265 16.5062 54.043 16.5875 53.6583 16.2094C53.1188 15.6906 52.617 15.7324 52.1527 16.3347C52.0333 16.4886 51.8785 16.5457 51.6884 16.5062C51.6177 16.493 51.5602 16.4644 51.516 16.4204C51.4673 16.3677 51.4518 16.3083 51.4695 16.2424C51.6906 15.3895 51.4452 14.7388 50.7333 14.2904C50.6834 14.2584 50.645 14.2109 50.6241 14.1554C50.6031 14.0998 50.6008 14.0392 50.6174 13.9829C50.634 13.9267 50.6686 13.8779 50.7159 13.844C50.7633 13.8102 50.8206 13.7933 50.8792 13.7958Z" fill="#9B744D"/>
<path d="M82.6498 48.4638L81.907 49.2023C81.8367 49.2714 81.7497 49.3211 81.6544 49.3466C81.559 49.3722 81.4586 49.3727 81.3631 49.3481C81.2675 49.3235 81.1799 49.2747 81.109 49.2063C81.0381 49.138 80.9862 49.0526 80.9585 48.9583C79.3401 43.3002 75.5728 38.3608 69.7427 36.9562C59.5881 34.5096 51.9473 39.3764 48.9427 49.176C48.9274 49.227 48.8998 49.2736 48.8621 49.3114C48.8244 49.3493 48.7779 49.3773 48.7267 49.393C48.6755 49.4086 48.6212 49.4115 48.5686 49.4012C48.516 49.391 48.4668 49.368 48.4253 49.3342L37.8728 40.7679C37.8314 40.7339 37.7995 40.6899 37.7803 40.6401C37.7611 40.5903 37.7552 40.5367 37.7633 40.4845C37.7714 40.4323 37.7931 40.3835 37.8263 40.3429C37.8595 40.3023 37.903 40.2715 37.9524 40.2535C49.0156 35.9142 57.8105 27.6776 64.6886 18.0231C64.7243 17.9724 64.7716 17.9308 64.8267 17.9019C64.8818 17.873 64.943 17.8576 65.0053 17.857C65.0675 17.8563 65.129 17.8705 65.1847 17.8982C65.2404 17.926 65.2886 17.9665 65.3253 18.0165C72.3228 27.6446 81.0845 36.0263 92.234 40.3194C92.2661 40.3311 92.2946 40.3511 92.3163 40.3774C92.3381 40.4037 92.3524 40.4352 92.3578 40.4688C92.3633 40.5024 92.3595 40.5368 92.3471 40.5685C92.3347 40.6002 92.3139 40.6281 92.2871 40.6492L84.7524 46.7953C84.584 46.9344 84.4512 47.1108 84.3647 47.3103C84.2782 47.5097 84.2406 47.7265 84.2549 47.9428L84.6197 53.502C84.6551 54.0076 84.4163 54.256 83.9034 54.2472L83.5983 54.2406C83.4955 54.2399 83.394 54.2184 83.2999 54.1774C83.2057 54.1363 83.121 54.0766 83.0509 54.002C82.9807 53.9273 82.9266 53.8392 82.8919 53.743C82.8572 53.6469 82.8425 53.5447 82.8488 53.4427L83.1605 48.6946C83.1959 48.1714 83.0257 48.0945 82.6498 48.4638Z" fill="#16374A"/>
<path d="M63.4147 101.26C62.0948 98.0616 59.7933 95.6347 56.8152 93.1288C45.1462 83.3072 36.2938 71.7535 30.2581 58.4676C24.952 46.7908 22.761 34.3907 23.6851 21.2675C23.6887 21.2014 23.7123 21.1381 23.7526 21.0862C23.793 21.0343 23.8481 20.9963 23.9106 20.9773C24.0035 20.9466 24.0875 20.9641 24.1627 21.0301C24.198 21.0565 24.2224 21.0916 24.2356 21.1356C30.7821 41.902 43.7423 63.8752 64.2305 73.5165C64.7832 73.7759 65.3448 73.7671 65.9152 73.4901C86.7815 63.4663 98.4019 42.4757 105.811 21.4192C105.826 21.3784 105.853 21.3429 105.888 21.3168C105.924 21.2907 105.965 21.275 106.009 21.2715C106.053 21.2681 106.097 21.277 106.135 21.2973C106.174 21.3176 106.207 21.3484 106.228 21.3862L106.361 21.6302C106.414 21.7269 106.441 21.8324 106.441 21.9467C106.445 24.8747 106.41 27.8907 106.335 30.9945C106.248 34.6084 105.559 38.0244 105.154 41.4865C104.867 43.9881 104.349 46.1885 103.602 48.0877C102.368 51.2267 101.506 54.5042 100.166 57.5971C93.9514 71.9074 83.7173 84.6745 71.6724 94.4477C68.1637 97.29 67.1423 100.277 65.431 104.26C65.1127 104.999 64.8186 104.988 64.5489 104.228C64.1863 103.203 63.8082 102.214 63.4147 101.26Z" fill="#16374A"/>
<path d="M78.1655 53.5678C78.1655 57.0361 76.7797 60.3623 74.3132 62.8147C71.8466 65.2671 68.5012 66.6449 65.0129 66.6449C61.5246 66.6449 58.1792 65.2671 55.7126 62.8147C53.2461 60.3623 51.8604 57.0361 51.8604 53.5678C51.8604 50.0995 53.2461 46.7733 55.7126 44.3209C58.1792 41.8685 61.5246 40.4907 65.0129 40.4907C68.5012 40.4907 71.8466 41.8685 74.3132 44.3209C76.7797 46.7733 78.1655 50.0995 78.1655 53.5678Z" fill="#16374A"/>
<path d="M54.9186 98.998L24.3619 82.3203C24.2996 82.2857 24.2475 82.2354 24.211 82.1743C24.1746 82.1133 24.155 82.0437 24.1543 81.9727C24.1536 81.9017 24.1719 81.8318 24.2072 81.7701C24.2425 81.7083 24.2936 81.657 24.3553 81.6213L34.2512 76.0159C34.3247 75.9735 34.4097 75.9551 34.4942 75.9634C34.5787 75.9717 34.6585 76.0062 34.7221 76.062L59.8533 98.4903C59.9163 98.5448 59.9608 98.6173 59.9807 98.698C60.0006 98.7787 59.9949 98.8635 59.9644 98.9408C59.9339 99.0181 59.88 99.0841 59.8103 99.1298C59.7405 99.1755 59.6582 99.1986 59.5747 99.1959L55.1043 99.0442C55.0396 99.0438 54.9759 99.028 54.9186 98.998Z" fill="#9B744D"/>
<path d="M105.592 82.4061C96.0273 87.4641 86.5824 92.7332 77.0579 97.9495C75.696 98.6925 74.5464 99.086 73.6089 99.13C72.4062 99.1827 71.1969 99.1871 69.9809 99.1432C69.8615 99.1388 69.7996 99.0772 69.7952 98.9585C69.7933 98.909 69.8024 98.8597 69.8219 98.8141C69.8414 98.7685 69.8707 98.7277 69.9079 98.6947L94.2365 76.9326C94.6003 76.6091 95.0586 76.4092 95.545 76.3618C96.0314 76.3144 96.5209 76.4219 96.9426 76.6688L105.611 81.7796C105.666 81.8116 105.712 81.8576 105.742 81.9131C105.773 81.9686 105.788 82.0315 105.786 82.0953C105.784 82.159 105.765 82.2215 105.731 82.2761C105.697 82.3307 105.649 82.3756 105.592 82.4061Z" fill="#9B744D"/>
<path d="M48.5114 99.2024C43.7094 99.1101 39.0334 98.9386 34.4038 98.1736C26.763 96.9163 19.1022 95.7337 11.4216 94.6258C11.2315 94.5994 11.059 94.529 10.9043 94.4147C10.852 94.3754 10.8088 94.3254 10.7777 94.268C10.7465 94.2107 10.7281 94.1474 10.7237 94.0823C10.7193 94.0173 10.729 93.9521 10.7521 93.8911C10.7753 93.8301 10.8113 93.7748 10.8579 93.7289L18.5318 86.244C18.7336 86.0489 18.9898 85.9183 19.2675 85.8689C19.5452 85.8196 19.8318 85.8537 20.0905 85.9671C28.7616 89.8139 37.5963 93.7443 46.5946 97.7582C47.2844 98.0681 48.1201 98.266 48.6839 98.7803C49.0022 99.0705 48.9448 99.2112 48.5114 99.2024Z" fill="#9B744D"/>
<path d="M89.03 95.2259C96.3834 92.0736 103.109 89.0951 109.207 86.2902C109.697 86.0647 110.245 85.9963 110.777 86.0943C111.308 86.1924 111.795 86.4521 112.171 86.8375L119.282 94.0586C119.319 94.0957 119.345 94.1424 119.358 94.1935C119.37 94.2447 119.368 94.2982 119.351 94.3481C119.335 94.3981 119.305 94.4425 119.264 94.4763C119.224 94.5102 119.175 94.5323 119.122 94.54C110.606 95.7974 102.49 97.0526 94.7739 98.3055C90.2416 99.0397 85.8685 99.3277 81.6545 99.1694C80.9426 99.1431 80.905 98.9738 81.5418 98.6616C84.0754 97.4219 86.5715 96.2766 89.03 95.2259Z" fill="#9B744D"/>
<path d="M74.4182 108.91C74.7233 113.104 73.7615 115.966 69.0192 115.933C66.0875 115.911 63.2421 115.896 60.483 115.887C55.8268 115.867 55.3559 112.385 55.5549 108.686C55.5576 108.638 55.5505 108.59 55.5341 108.546C55.5176 108.501 55.4922 108.46 55.4592 108.426C55.4263 108.391 55.3867 108.363 55.3427 108.345C55.2987 108.326 55.2513 108.316 55.2034 108.316H1.96306C1.8953 108.316 1.82868 108.299 1.76972 108.266C1.71076 108.233 1.66148 108.185 1.62672 108.127C1.59195 108.069 1.57288 108.003 1.57138 107.936C1.56989 107.868 1.58601 107.802 1.61816 107.743C2.6197 105.889 3.90643 102.988 5.41867 101.484C5.57786 101.33 5.76578 101.238 5.98245 101.207C7.29572 101.027 8.54486 100.937 9.7299 100.937C22.0534 100.933 38.9578 100.946 60.4432 100.977C60.5564 100.977 60.6684 101 60.7726 101.044C60.8769 101.088 60.9715 101.152 61.0509 101.232C61.1304 101.313 61.1932 101.407 61.2357 101.512C61.2782 101.616 61.2996 101.728 61.2988 101.84C61.2722 103.41 61.2546 104.99 61.2457 106.582C61.2126 111.145 68.5682 111.323 68.7406 106.978C68.8069 105.399 68.8401 103.636 68.8401 101.689C68.8401 101.591 68.8595 101.495 68.8973 101.405C68.935 101.315 68.9903 101.233 69.06 101.164C69.1297 101.095 69.2124 101.041 69.3033 101.004C69.3942 100.968 69.4915 100.949 69.5896 100.95C76.1626 101.003 82.9942 100.765 89.5207 100.897C100.845 101.139 112.165 101.155 123.48 100.944C124.161 100.93 124.676 101.225 125.025 101.827C126.095 103.674 127.192 105.577 128.315 107.538C128.523 107.899 128.419 108.081 128.003 108.085L75.0018 108.283C74.9211 108.283 74.8412 108.299 74.7672 108.331C74.6932 108.363 74.6266 108.41 74.5718 108.469C74.5169 108.528 74.475 108.598 74.4485 108.674C74.4221 108.749 74.4117 108.83 74.4182 108.91Z" fill="#9B744D"/>
</svg>
