<svg width="184" height="60" viewBox="0 0 184 60" fill="none" xmlns="http://www.w3.org/2000/svg">
<path d="M7.58414 25.133C7.88467 19.6128 9.74368 14.7475 13.1612 10.5372C19.4429 2.79706 29.8647 -0.38965 39.4603 2.19887C44.0971 3.44963 48.4045 6.06533 51.6393 9.68346C55.0985 13.5542 57.1544 18.1101 57.8069 23.3511C57.9014 24.1004 57.9413 24.8514 57.9265 25.6043C57.9081 26.5977 57.9578 27.5675 57.8548 28.5717C57.3383 33.5227 55.472 37.9614 52.2557 41.8877C50.7738 43.6955 49.0492 45.2684 47.0816 46.6061C47.0632 46.6182 47.0472 46.6158 47.0337 46.5989L47.0319 46.5971C47.0221 46.585 47.0227 46.5729 47.0337 46.5608C47.8409 45.7983 48.537 45.0732 49.1221 44.3856C53.3284 39.4442 55.4168 32.9729 54.5649 26.4744C53.819 20.791 51.3455 16.0079 47.1441 12.1252C41.304 6.73059 32.8786 4.64237 25.2205 6.59102C20.5702 7.7741 16.6486 10.0998 13.4556 13.5681C10.4331 16.8526 8.50352 20.7185 7.66694 25.1656C7.66448 25.1765 7.65896 25.1801 7.65038 25.1765L7.60254 25.1584C7.58904 25.1548 7.58291 25.1463 7.58414 25.133Z" fill="#34BFB4"/>
<path d="M13.5605 6.18124C7.80126 11.3909 4.49478 18.6616 4.3899 26.3583C4.26662 35.3184 8.69917 43.9178 16.0408 49.1184C23.7265 54.5637 33.495 55.8906 42.3804 52.6096C51.5068 49.2417 58.0756 41.5595 60.083 32.1263C60.1309 31.8997 60.1143 31.6785 60.1695 31.4646C60.194 31.368 60.2179 31.368 60.2413 31.4646C60.2891 31.658 60.305 31.8525 60.2891 32.0483C60.1217 34.1075 59.8125 36.2229 59.2329 38.2078C57.4261 44.4036 54.0202 49.4725 49.0154 53.4145C44.5865 56.9039 39.2082 59.0356 33.5944 59.6338C21.1689 60.9571 9.25301 54.4223 3.73485 43.4991C-2.94066 30.2828 1.33918 14.5087 13.4924 6.11417C13.5071 6.10329 13.5194 6.10511 13.5292 6.11961L13.5623 6.1613C13.5684 6.16855 13.5678 6.1752 13.5605 6.18124Z" fill="#1075BD"/>
<path d="M78.6431 36.5256C78.5217 36.5256 78.4346 36.58 78.3818 36.6888L74.8067 44.003C74.7832 44.0505 74.7447 44.0893 74.6969 44.1135C74.6491 44.1377 74.5947 44.146 74.5418 44.1371L67.2388 42.919C67.2265 42.9168 67.2148 42.9117 67.2049 42.9042C67.1949 42.8967 67.1869 42.887 67.1815 42.8758C67.1761 42.8647 67.1735 42.8524 67.1739 42.84C67.1742 42.8277 67.1776 42.8156 67.1836 42.8048C73.6886 31.2241 79.4116 20.9788 84.3526 12.0688C84.4127 11.9589 84.4735 11.8477 84.5348 11.7353C84.5434 11.7194 84.5563 11.7061 84.572 11.6968C84.5877 11.6875 84.6057 11.6826 84.624 11.6826C84.6424 11.6826 84.6603 11.6875 84.676 11.6968C84.6918 11.7061 84.7046 11.7194 84.7133 11.7353C90.3596 21.9516 96.0041 32.1643 101.647 42.3734C101.728 42.5196 101.773 42.6441 101.781 42.7468C101.785 42.7948 101.771 42.8427 101.742 42.8814C101.712 42.9201 101.669 42.947 101.621 42.957L95.2601 44.2948C95.0982 44.3287 94.9786 44.2731 94.9014 44.128L90.9693 36.6453C90.9504 36.6092 90.9218 36.5789 90.8867 36.5578C90.8517 36.5367 90.8115 36.5256 90.7706 36.5256H78.6431ZM81.3682 30.5256C81.3636 30.5364 81.3618 30.5481 81.363 30.5596C81.3641 30.5712 81.3681 30.5823 81.3747 30.592C81.3812 30.6017 81.3901 30.6097 81.4005 30.6152C81.4109 30.6206 81.4226 30.6235 81.4344 30.6235L87.8781 30.6453C87.8899 30.6453 87.9015 30.6424 87.9119 30.6369C87.9223 30.6314 87.9312 30.6235 87.9378 30.6138C87.9443 30.6041 87.9484 30.593 87.9495 30.5814C87.9506 30.5698 87.9489 30.5581 87.9443 30.5474L84.7501 22.7438C84.7448 22.7308 84.7358 22.7197 84.7241 22.7118C84.7124 22.7039 84.6986 22.6995 84.6844 22.6993C84.6703 22.6991 84.6564 22.7031 84.6445 22.7107C84.6326 22.7183 84.6232 22.7291 84.6176 22.7419L81.3682 30.5256Z" fill="#34BFB4"/>
<path d="M155.695 24.8883C156.731 29.9711 155.435 34.8871 151.838 38.614C148.074 42.5161 143.367 44.3391 137.72 44.0829C132.991 43.8678 129.018 41.9542 125.8 38.3421C123.752 36.0436 122.297 33.0182 122.078 29.9548C122.012 29.0315 121.998 28.0666 122.038 27.0599C122.168 23.7282 123.648 20.4635 125.918 17.9312C129.618 13.8067 134.353 11.9282 140.123 12.2956C144.362 12.5663 148.018 14.1397 151.091 17.0158C153.387 19.1656 155.08 21.8774 155.695 24.8883ZM149.112 28.3212C149.128 27.0656 148.879 25.8191 148.38 24.6529C147.882 23.4867 147.143 22.4236 146.205 21.5244C145.268 20.6251 144.151 19.9073 142.918 19.4119C141.685 18.9165 140.361 18.6532 139.02 18.6371C137.679 18.6209 136.348 18.8522 135.103 19.3178C133.858 19.7834 132.724 20.4741 131.765 21.3506C130.805 22.227 130.04 23.272 129.513 24.4258C128.985 25.5797 128.705 26.8198 128.69 28.0754C128.674 29.331 128.923 30.5775 129.422 31.7437C129.921 32.9099 130.66 33.9729 131.597 34.8722C132.534 35.7714 133.651 36.4893 134.884 36.9847C136.117 37.4801 137.442 37.7434 138.783 37.7595C140.124 37.7756 141.454 37.5443 142.699 37.0787C143.944 36.6131 145.079 35.9224 146.038 35.046C146.997 34.1696 147.762 33.1246 148.29 31.9707C148.817 30.8169 149.097 29.5768 149.112 28.3212Z" fill="#34BFB4"/>
<path d="M175.212 30.8684C175.303 30.9578 175.349 30.9391 175.349 30.8122L175.352 13.4666C175.352 13.3784 175.396 13.3312 175.485 13.3252L181.498 12.8919C181.507 12.8915 181.516 12.8928 181.524 12.8958C181.533 12.8989 181.541 12.9036 181.547 12.9097C181.554 12.9158 181.559 12.9232 181.562 12.9314C181.566 12.9395 181.568 12.9483 181.568 12.9572C181.563 23.2545 181.562 33.5064 181.566 43.7131C181.566 43.7395 181.56 43.7656 181.55 43.7898C181.54 43.8141 181.524 43.8361 181.505 43.8545C181.473 43.8835 181.431 43.8726 181.378 43.8219C175.489 38.2424 169.331 32.4249 162.903 26.3693C162.899 26.3661 162.894 26.3639 162.89 26.363C162.885 26.3621 162.88 26.3625 162.875 26.3642C162.871 26.366 162.867 26.3689 162.864 26.3727C162.862 26.3765 162.86 26.381 162.86 26.3856L162.881 42.8829C162.881 42.9216 162.861 42.9433 162.822 42.9481L156.915 43.5572C156.896 43.559 156.876 43.5568 156.858 43.5507C156.839 43.5447 156.822 43.535 156.808 43.5222C156.794 43.5094 156.782 43.4938 156.774 43.4764C156.767 43.459 156.763 43.4402 156.763 43.4212L156.765 13.0134C156.764 12.9976 156.769 12.9822 156.778 12.9692C156.787 12.9561 156.8 12.9459 156.814 12.9399C156.829 12.9339 156.846 12.9323 156.862 12.9354C156.878 12.9385 156.893 12.9461 156.904 12.9572L175.212 30.8684Z" fill="#34BFB4"/>
<path d="M108.882 19.6151C108.844 19.736 108.826 19.8701 108.827 20.0176C108.838 21.7964 108.841 23.3753 108.836 24.7541C108.836 24.8007 108.855 24.8455 108.888 24.8784C108.922 24.9114 108.967 24.9299 109.015 24.9299L117.574 24.9245C117.599 24.9245 117.622 24.9339 117.639 24.9505C117.657 24.9672 117.666 24.9898 117.666 25.0133L117.668 30.7233C117.668 30.7473 117.659 30.7704 117.642 30.7874C117.625 30.8044 117.602 30.8139 117.578 30.8139L108.926 30.8212C108.866 30.8212 108.836 30.8502 108.836 30.9082L108.838 37.1602C108.838 37.2082 108.857 37.2543 108.891 37.2883C108.925 37.3223 108.972 37.3414 109.02 37.3414L121.589 37.3396C121.606 37.3395 121.623 37.3433 121.639 37.3509C121.654 37.3584 121.668 37.3694 121.678 37.3829C121.689 37.3965 121.696 37.4123 121.699 37.429C121.702 37.4457 121.701 37.4629 121.696 37.4792L119.972 43.3034C119.962 43.3358 119.942 43.3643 119.915 43.3846C119.888 43.4049 119.855 43.4158 119.821 43.4157L102.072 43.4139C102.047 43.4139 102.023 43.4042 102.005 43.3869C101.987 43.3695 101.977 43.346 101.977 43.3215L101.98 13.8671C101.98 13.8431 101.99 13.82 102.008 13.803C102.025 13.786 102.049 13.7765 102.074 13.7765L119.142 13.7747C119.209 13.7747 119.25 13.8073 119.265 13.8725L120.533 19.4701C120.542 19.5088 120.525 19.5287 120.483 19.5299L108.985 19.539C108.931 19.539 108.897 19.5644 108.882 19.6151Z" fill="#34BFB4"/>
<path d="M36.6635 37.5155C36.6647 39.2074 36.6702 40.7777 36.68 42.2267C36.6948 44.1699 35.5429 45.8285 33.6937 46.4339C33.0804 46.6357 32.134 46.7191 30.8546 46.6841C29.8818 46.6587 28.8956 46.6599 27.8959 46.6877C26.9587 46.7143 26.1988 46.6533 25.6161 46.5046C24.1754 46.1367 22.9481 44.9584 22.5525 43.5228C22.4372 43.1034 22.3808 42.5373 22.3832 41.8243C22.3894 39.3699 22.3986 37.2212 22.4108 35.3783C22.417 34.3959 22.6132 33.3953 22.9996 32.3765C23.9896 29.7626 26.3227 29.2206 28.8803 29.237C29.896 29.243 30.8436 29.2019 31.7231 29.1137C34.1592 28.8672 34.4003 26.5632 34.4389 24.6799C34.4794 22.6629 34.4825 20.5904 34.4481 18.4623C34.4346 17.5391 34.0599 16.875 33.3239 16.4702C32.9412 16.2587 32.3836 16.1572 31.6513 16.1657C29.8984 16.185 28.3393 16.1898 26.974 16.1802C25.5388 16.1711 24.6262 17.1264 24.6446 18.5077C24.6642 20.156 24.6654 21.7312 24.6483 23.2333C24.648 23.2452 24.6502 23.2571 24.6546 23.2682C24.659 23.2792 24.6655 23.2894 24.6739 23.298C24.6823 23.3065 24.6923 23.3134 24.7034 23.3182C24.7144 23.323 24.7263 23.3255 24.7384 23.3258C27.3844 23.4237 29.8408 24.5584 30.4406 27.3373C30.4436 27.3509 30.4435 27.365 30.4403 27.3786C30.4371 27.3922 30.4308 27.4049 30.422 27.4158C30.4132 27.4267 30.4021 27.4356 30.3894 27.4418C30.3767 27.4479 30.3627 27.4512 30.3486 27.4515L28.2915 27.4714C28.2557 27.4719 28.2206 27.4615 28.191 27.4418C28.1614 27.422 28.1387 27.3937 28.1259 27.3608C27.8033 26.5669 27.1807 26.0454 26.2583 25.7965C25.4842 25.5886 24.7225 25.4823 23.973 25.4774C21.8018 25.4654 19.6668 25.4623 17.568 25.4684C16.1346 25.4738 15.2017 26.3203 15.222 27.8104C15.2404 29.3427 15.2367 30.846 15.2109 32.3203C15.1888 33.4932 15.4041 34.5681 16.5523 34.9995C16.8835 35.1252 17.2662 35.1838 17.7004 35.1753C18.6523 35.1584 19.5877 35.1572 20.5064 35.1717C20.5825 35.1729 20.6205 35.2116 20.6205 35.2877L20.604 37.2563C20.6027 37.3397 20.5598 37.382 20.4752 37.3832C19.5368 37.3916 18.5517 37.3928 17.5201 37.3868C16.0187 37.3771 14.8239 36.8339 13.9358 35.7572C13.152 34.8092 12.9477 33.7904 12.9532 32.5596C12.9643 30.6986 12.9698 29.0339 12.9698 27.5657C12.9716 25.0986 14.9791 23.2932 17.4704 23.2605C19.1203 23.2388 20.7236 23.2358 22.2802 23.2515C22.3095 23.2515 22.3376 23.2402 22.3583 23.2201C22.379 23.2001 22.3906 23.1729 22.3906 23.1445C22.4065 21.7741 22.4029 20.3765 22.3796 18.9518C22.3648 18.1095 22.444 17.4273 22.6169 16.9052C23.2223 15.0708 25.0016 13.9596 26.9501 13.9904C28.6024 14.017 30.2026 14.0055 31.7507 13.956C33.2877 13.9077 34.5107 14.3463 35.4196 15.272C36.3212 16.1892 36.6764 17.1735 36.6764 18.4569C36.6764 20.7844 36.6702 23.0339 36.658 25.2055C36.6377 28.637 34.9854 31.2382 31.2576 31.3832C30.1695 31.4255 29.087 31.4545 28.01 31.4702C26.4938 31.4919 25.3972 32.0086 24.9408 33.5765C24.7532 34.2182 24.6593 34.8394 24.6593 35.44C24.6593 37.5802 24.6569 39.8575 24.652 42.272C24.6483 43.7348 25.7357 44.4726 27.1212 44.4654C28.8496 44.4545 30.4786 44.4509 32.0083 44.4545C33.0522 44.4581 33.7753 44.0835 34.1776 43.3306C34.3874 42.9379 34.4874 42.3077 34.4776 41.44C34.4616 40.0841 34.4634 38.7596 34.4831 37.4666C34.4843 37.382 34.442 37.3373 34.3561 37.3324C31.7047 37.1475 29.2188 36.1777 28.6337 33.3064C28.6304 33.2899 28.6309 33.2728 28.635 33.2564C28.6391 33.24 28.6469 33.2248 28.6576 33.2118C28.6683 33.1988 28.6818 33.1883 28.6971 33.1812C28.7124 33.174 28.7291 33.1704 28.746 33.1705L30.7608 33.1632C30.8017 33.1632 30.8417 33.175 30.8761 33.1972C30.9104 33.2194 30.9375 33.2511 30.954 33.2883C31.6605 34.9034 33.5134 35.1572 35.1087 35.1608C37.0591 35.1645 39.1696 35.1681 41.4401 35.1717C42.9544 35.1753 43.8708 34.2925 43.8524 32.788C43.8315 31.1808 43.8315 29.5439 43.8524 27.8774C43.8744 26.101 42.7392 25.4122 41.074 25.4557C40.176 25.4799 39.3333 25.4805 38.5458 25.4575C38.5183 25.4565 38.4923 25.4452 38.4734 25.4259C38.4544 25.4065 38.4441 25.3808 38.4446 25.3542L38.4575 23.3276C38.4575 23.3087 38.465 23.2905 38.4784 23.277C38.4918 23.2634 38.51 23.2556 38.5292 23.2551C39.6369 23.2345 40.6906 23.2364 41.6904 23.2605C43.0446 23.2944 44.1645 23.8025 45.0502 24.785C45.9132 25.7403 46.1321 26.8297 46.1266 28.1149C46.118 29.8672 46.1149 31.4684 46.1174 32.9185C46.1211 35.4563 44.1872 37.3669 41.6076 37.3796C39.8301 37.3892 38.2269 37.3904 36.7978 37.3832C36.7082 37.3832 36.6635 37.4273 36.6635 37.5155Z" fill="#1CA19A"/>
<path d="M155.885 53.0374C156.471 54.4241 157.978 54.7631 159.34 54.4712C159.866 54.3588 160.232 54.1057 160.437 53.7117C160.994 52.6422 160.188 51.9334 159.204 51.7232C158.506 51.5757 157.781 51.4053 157.029 51.212C156.448 51.0634 156.01 50.8072 155.715 50.4434C154.744 49.2452 155.25 47.6464 156.679 47.1081C158.483 46.4319 160.678 46.8054 161.489 48.7268C161.525 48.8138 161.497 48.8688 161.405 48.8918L160.667 49.0785C160.55 49.1075 160.469 49.0676 160.422 48.9588C160.217 48.4815 159.884 48.1389 159.423 47.931C158.63 47.5721 157.252 47.5322 156.626 48.2936C155.973 49.0857 156.473 49.9105 157.358 50.1425C158.127 50.3431 158.899 50.5286 159.673 50.699C161.147 51.0217 162.163 52.0585 161.682 53.6156C161.029 55.7238 157.92 55.7365 156.328 54.9334C155.702 54.6192 155.196 54.0555 154.81 53.2422C154.771 53.16 154.796 53.1093 154.885 53.0899L155.651 52.9196C155.762 52.8942 155.84 52.9334 155.885 53.0374Z" fill="#1075BD"/>
<path d="M181.486 54.4677C181.483 54.4562 181.476 54.4458 181.468 54.4376C181.459 54.4294 181.448 54.4238 181.436 54.4212C181.424 54.4186 181.411 54.4192 181.399 54.4229C181.387 54.4266 181.377 54.4333 181.368 54.4424C180.672 55.2182 179.684 55.5336 178.404 55.3886C173.762 54.8593 174.119 46.5481 179.339 46.82C180.862 46.8998 181.86 47.6828 182.331 49.1692C182.339 49.1958 182.329 49.2121 182.301 49.2182L181.376 49.4303C181.361 49.4338 181.346 49.4318 181.333 49.4247C181.32 49.4177 181.31 49.4061 181.306 49.3922C180.934 48.2828 180.167 47.7106 179.004 47.6756C177.593 47.6321 176.77 48.6526 176.5 49.9052C176.106 51.7451 176.505 54.3046 178.759 54.5475C179.413 54.6176 179.993 54.4726 180.498 54.1124C181.11 53.675 181.371 52.9892 181.28 52.055C181.271 51.9729 181.225 51.9318 181.142 51.9318L179.171 51.9372C179.077 51.9372 179.03 51.8907 179.03 51.7976V51.2085C179.03 51.1155 179.076 51.0689 179.17 51.0689L182.345 51.078C182.369 51.078 182.392 51.0872 182.409 51.1035C182.426 51.1198 182.436 51.1419 182.436 51.165L182.437 55.2345C182.437 55.3046 182.403 55.3487 182.334 55.3668C182.161 55.4128 182.002 55.4073 181.856 55.3505C181.812 55.3337 181.773 55.3068 181.741 55.2722C181.71 55.2375 181.688 55.196 181.676 55.1511L181.486 54.4677Z" fill="#1075BD"/>
<path d="M131.278 48.2882C131.28 48.6055 131.346 48.9317 131.346 49.2562C131.339 51.1861 131.342 53.1293 131.356 55.0858C131.357 55.191 131.303 55.2435 131.196 55.2435L130.544 55.2399C130.451 55.2387 130.404 55.1928 130.404 55.1021L130.414 47.1064C130.414 47.0339 130.451 46.997 130.526 46.9958L131.654 46.994C131.714 46.994 131.772 47.0088 131.825 47.037C131.877 47.0652 131.921 47.1059 131.954 47.1553L136.062 53.507C136.147 53.6387 136.189 53.6266 136.189 53.4707L136.165 47.1698C136.165 47.1458 136.17 47.1221 136.179 47.1C136.189 47.0779 136.202 47.0578 136.219 47.041C136.236 47.0241 136.257 47.0108 136.279 47.0018C136.301 46.9928 136.325 46.9883 136.349 46.9885L136.903 46.9903C137.033 46.9903 137.098 47.0544 137.098 47.1825L137.095 55.1656C137.095 55.2163 137.069 55.2417 137.017 55.2417L136.167 55.2399C136.108 55.2393 136.051 55.2245 135.999 55.1966C135.948 55.1688 135.904 55.1288 135.873 55.0804L131.438 48.2411C131.33 48.0743 131.277 48.09 131.278 48.2882Z" fill="#1075BD"/>
<path d="M140.3 52.8453C140.306 54.5365 142.149 54.8248 143.379 54.3752C144.304 54.0362 144.448 53.0121 144.446 52.18C144.444 50.4616 144.443 48.7752 144.442 47.1208C144.442 47.1042 144.445 47.0877 144.452 47.0723C144.458 47.0569 144.468 47.0429 144.48 47.0311C144.492 47.0193 144.506 47.01 144.522 47.0036C144.537 46.9972 144.554 46.9939 144.571 46.9939L145.224 46.9903C145.242 46.9901 145.261 46.9935 145.278 47.0003C145.295 47.0071 145.31 47.0173 145.323 47.0301C145.337 47.043 145.347 47.0582 145.354 47.0751C145.361 47.0919 145.364 47.1099 145.364 47.1281C145.353 48.4284 145.358 49.9462 145.38 51.6815C145.393 52.6121 145.307 53.3178 145.125 53.7988C144.462 55.5335 142.011 55.7365 140.527 55.1093C139.434 54.6489 139.124 53.4181 139.119 52.3251C139.112 50.6272 139.115 48.8967 139.13 47.1335C139.13 47.1138 139.134 47.0942 139.142 47.0761C139.15 47.0579 139.162 47.0415 139.176 47.0277C139.19 47.0138 139.207 47.003 139.226 46.9956C139.245 46.9883 139.264 46.9846 139.285 46.9849L140.12 46.9939C140.235 46.9964 140.293 47.0544 140.293 47.168C140.292 49.0942 140.294 50.9867 140.3 52.8453Z" fill="#1075BD"/>
<path d="M152.297 51.5347L153.962 55.1601C153.986 55.2145 153.969 55.2417 153.908 55.2417H152.92C152.839 55.2429 152.783 55.2072 152.751 55.1347L151.251 51.8193C151.23 51.7728 151.195 51.7335 151.152 51.7058C151.109 51.6782 151.058 51.6635 151.007 51.6634L148.709 51.6616C148.67 51.6616 148.632 51.6769 148.605 51.7041C148.577 51.7313 148.561 51.7682 148.561 51.8066L148.572 55.1111C148.572 55.2018 148.527 55.2465 148.436 55.2453L147.629 55.2326C147.554 55.2314 147.516 55.1939 147.516 55.1202L147.511 47.0483C147.511 47.0193 147.525 47.0042 147.555 47.003C148.875 46.9909 150.135 46.9897 151.334 46.9994C152.884 47.0102 154.107 48.1359 153.85 49.7039C153.715 50.5269 153.185 51.1305 152.376 51.3625C152.281 51.3891 152.255 51.4465 152.297 51.5347ZM148.556 47.9927L148.571 50.6719C148.571 50.707 148.585 50.7406 148.61 50.7654C148.635 50.7903 148.669 50.8042 148.705 50.8042L151.183 50.7897C151.597 50.7876 151.993 50.6384 152.284 50.375C152.575 50.1115 152.738 49.7554 152.736 49.3849V49.2362C152.734 48.8657 152.568 48.5114 152.274 48.251C151.98 47.9906 151.582 47.8456 151.169 47.8477L148.69 47.8604C148.673 47.8604 148.655 47.8638 148.639 47.8705C148.622 47.8771 148.608 47.8869 148.595 47.8991C148.583 47.9114 148.573 47.926 148.566 47.9421C148.559 47.9581 148.556 47.9753 148.556 47.9927Z" fill="#1075BD"/>
<path d="M164.656 55.1384C164.656 55.1653 164.645 55.1912 164.626 55.2102C164.606 55.2292 164.58 55.2399 164.553 55.2399H163.592C163.565 55.2399 163.539 55.2292 163.519 55.2102C163.5 55.1912 163.489 55.1653 163.489 55.1384V47.0937C163.489 47.0668 163.5 47.041 163.519 47.0219C163.539 47.0029 163.565 46.9922 163.592 46.9922H164.553C164.58 46.9922 164.606 47.0029 164.626 47.0219C164.645 47.041 164.656 47.0668 164.656 47.0937V55.1384Z" fill="#1075BD"/>
<path d="M167.769 55.2416H166.95C166.934 55.2416 166.919 55.2353 166.907 55.2241C166.896 55.2129 166.89 55.1977 166.89 55.1818V47.0573C166.89 47.0415 166.896 47.0263 166.907 47.015C166.919 47.0038 166.934 46.9975 166.95 46.9975L168.306 46.9993C168.317 46.9992 168.327 47.0017 168.336 47.0064C168.345 47.0112 168.352 47.0181 168.358 47.0265L172.555 53.5141C172.562 53.5244 172.573 53.5322 172.585 53.5363C172.597 53.5404 172.61 53.5407 172.622 53.5371C172.634 53.5335 172.645 53.5262 172.653 53.5162C172.661 53.5062 172.665 53.4941 172.665 53.4815L172.632 47.0537C172.632 47.0378 172.639 47.0226 172.65 47.0114C172.661 47.0002 172.677 46.9939 172.693 46.9939L173.503 46.9993C173.519 46.9993 173.534 47.0056 173.546 47.0169C173.557 47.0281 173.563 47.0433 173.563 47.0592L173.561 55.1873C173.561 55.1953 173.56 55.2032 173.557 55.2106C173.554 55.2179 173.549 55.2246 173.543 55.2302C173.537 55.2358 173.53 55.2401 173.523 55.243C173.515 55.2459 173.507 55.2473 173.499 55.2471L172.48 55.2308C172.469 55.2309 172.459 55.2284 172.45 55.2237C172.441 55.2189 172.434 55.212 172.428 55.2036L167.905 48.2066C167.898 48.1963 167.888 48.1885 167.876 48.1844C167.863 48.1803 167.85 48.18 167.838 48.1836C167.826 48.1873 167.815 48.1946 167.807 48.2045C167.8 48.2145 167.795 48.2266 167.795 48.2392L167.83 55.1818C167.83 55.1977 167.823 55.2129 167.812 55.2241C167.801 55.2353 167.785 55.2416 167.769 55.2416Z" fill="#1075BD"/>
</svg>
