<svg width="217" height="66" viewBox="0 0 217 66" fill="none" xmlns="http://www.w3.org/2000/svg">
<path d="M42.3698 1.32432C42.3581 1.32599 42.3461 1.32531 42.3346 1.3223C42.3231 1.31929 42.3123 1.31402 42.3028 1.3068C42.2934 1.29957 42.2855 1.29054 42.2795 1.28022C42.2736 1.2699 42.2698 1.25851 42.2683 1.2467L42.2624 1.15715C42.23 0.881107 42.286 0.606132 42.418 0.392414C42.5501 0.178696 42.7474 0.0436452 42.9669 0.016823L43.0624 0.00488239C43.1714 -0.00839646 43.2826 0.00547582 43.3897 0.0457064C43.4967 0.0859369 43.5975 0.151737 43.6862 0.239344C43.7749 0.326951 43.8498 0.434648 43.9067 0.556276C43.9636 0.677905 44.0013 0.81108 44.0176 0.948189L44.0236 1.03774C44.0253 1.04952 44.0246 1.06151 44.0216 1.07302C44.0186 1.08453 44.0133 1.09532 44.0061 1.10477C43.9989 1.11422 43.9898 1.12213 43.9795 1.12805C43.9692 1.13397 43.9578 1.13777 43.946 1.13924L42.3698 1.32432Z" fill="white"/>
<path d="M41.3374 4.36358C41.3341 4.37352 41.3287 4.38268 41.3218 4.39051C41.3148 4.39834 41.3063 4.40468 41.2968 4.40914C41.2874 4.41361 41.2771 4.4161 41.2666 4.41648C41.2561 4.41686 41.2457 4.41511 41.2359 4.41134L41.2001 4.39343C41.1036 4.36011 41.0189 4.29613 40.9508 4.20516C40.8827 4.11418 40.8325 3.998 40.8031 3.86324C40.7737 3.72849 40.7657 3.57782 40.7795 3.41986C40.7933 3.26189 40.8287 3.09973 40.8836 2.94265L40.9493 2.76354C41.0601 2.44827 41.2428 2.17279 41.4575 1.99719C41.6723 1.8216 41.9016 1.76013 42.0956 1.8262L42.1374 1.83814C42.1473 1.84147 42.1565 1.84678 42.1643 1.85375C42.1722 1.86072 42.1785 1.8692 42.183 1.87869C42.1874 1.88817 42.1899 1.89846 42.1903 1.90894C42.1907 1.91941 42.1889 1.92986 42.1852 1.93964L41.3374 4.36358Z" fill="white"/>
<path d="M43.821 3.53961C43.7414 3.73862 43.614 3.89982 43.4389 4.0232C43.3273 4.09859 43.1913 4.12881 43.0583 4.10775C42.9253 4.08669 42.8052 4.01593 42.7224 3.90977C42.396 3.48787 42.3403 3.05801 42.5553 2.62018C42.6468 2.43311 42.7961 2.32366 43.003 2.29182C43.2259 2.256 43.4329 2.28983 43.6239 2.39331C43.8269 2.50078 44.0001 2.46496 44.1434 2.28585L44.2568 2.13062C44.3108 2.06318 44.3889 2.01929 44.4746 2.00816C44.5603 1.99703 44.647 2.01952 44.7165 2.07092C45.1663 2.40525 45.4747 2.83909 45.6419 3.37244C45.6718 3.46972 45.6725 3.57364 45.6438 3.67128C45.6151 3.76893 45.5584 3.85601 45.4807 3.92171C45.3573 4.02917 45.224 4.08689 45.0807 4.09485C44.8697 4.10679 44.7006 4.02917 44.5732 3.86201L44.2747 3.47394C44.0837 3.22716 43.9324 3.24906 43.821 3.53961Z" fill="white"/>
<path d="M38.8775 8.4896C39.4148 9.21797 38.9074 10.1135 38.5193 10.7882C38.1372 11.4568 37.5461 11.6897 36.7461 11.4867C36.6666 11.4671 36.5937 11.4263 36.5349 11.3685C36.4761 11.3108 36.4336 11.2382 36.4118 11.1583C36.1053 9.9961 36.2745 8.9115 36.9193 7.90451C36.9764 7.81583 37.0541 7.74223 37.1458 7.68994C37.2374 7.63765 37.3403 7.60821 37.4457 7.60411C37.5511 7.60001 37.656 7.62137 37.7514 7.66639C37.8469 7.7114 37.93 7.77875 37.9939 7.86272C38.1133 8.02192 38.2646 8.12939 38.4476 8.18511C38.7462 8.2687 38.7979 8.18909 38.6029 7.9463C37.7969 6.92538 37.8506 4.68652 39.4327 4.38203C39.5267 4.36385 39.6235 4.3674 39.7159 4.39243C39.8084 4.41745 39.894 4.46329 39.9664 4.5265C40.0388 4.58971 40.0961 4.66864 40.134 4.75737C40.1718 4.8461 40.1893 4.94231 40.185 5.03877C40.1492 5.75122 40.1173 6.50149 40.0895 7.28957C40.0576 8.06571 39.6875 8.40999 38.979 8.32243C38.8158 8.30253 38.782 8.35825 38.8775 8.4896Z" fill="white"/>
<path d="M46.4176 7.43196C46.4414 6.76329 46.4713 5.3125 46.7101 4.74533C46.7421 4.67064 46.7939 4.60609 46.8599 4.55858C46.9258 4.51108 47.0034 4.48242 47.0844 4.47567C47.1654 4.46892 47.2467 4.48434 47.3196 4.52027C47.3925 4.55621 47.4542 4.6113 47.4982 4.67965C48.1131 5.62296 49.2714 7.92153 47.2056 8.15437C46.6603 8.21805 46.3977 7.97725 46.4176 7.43196Z" fill="white"/>
<path d="M40.7463 9.53984C41.3115 10.523 42.1374 11.2274 43.224 11.6533C43.2914 11.6793 43.3518 11.7206 43.4005 11.774C43.4491 11.8274 43.4847 11.8914 43.5044 11.9608C43.5241 12.0303 43.5274 12.1035 43.5139 12.1744C43.5005 12.2454 43.4707 12.3123 43.427 12.3698L41.6777 14.6564C41.5344 14.8435 41.3473 14.925 41.1165 14.9012C40.6906 14.8574 40.3304 14.6683 40.0359 14.334C39.2239 13.4146 38.4298 12.8713 39.009 11.4742C39.3234 10.714 39.6836 10.0354 40.0896 9.43835C40.7821 8.41146 41.0747 7.14177 40.9672 5.6293C40.9598 5.5257 40.9758 5.42177 41.0139 5.32518C41.0521 5.22859 41.1115 5.14183 41.1878 5.07131C41.264 5.00079 41.3552 4.94833 41.4544 4.9178C41.5537 4.88727 41.6586 4.87946 41.7613 4.89495C42.6688 5.03028 43.5802 5.04222 44.4957 4.93077C44.6404 4.91461 44.7869 4.93327 44.9228 4.98519C45.0588 5.03711 45.1802 5.12076 45.2768 5.22907C45.3734 5.33739 45.4423 5.46718 45.4778 5.6075C45.5133 5.74782 45.5144 5.89454 45.4808 6.03528L44.9136 8.45922C44.8748 8.62212 44.9004 8.79368 44.9849 8.93824C45.0694 9.08279 45.2064 9.18921 45.3673 9.23536C46.9196 9.67318 48.3187 9.72293 49.5645 9.38461C49.711 9.34449 49.8647 9.3374 50.0144 9.36386C50.164 9.39032 50.3059 9.44967 50.4299 9.53763C50.5538 9.62559 50.6567 9.73996 50.7311 9.8725C50.8055 10.005 50.8495 10.1524 50.86 10.304C50.9675 11.8384 49.6839 11.928 48.6271 11.5877C47.2141 11.1339 45.7594 11.0881 44.2628 11.4503C44.036 11.5061 43.8151 11.4842 43.6001 11.3847C42.5772 10.911 41.7115 10.1886 41.003 9.21745C40.9911 9.19754 40.9752 9.19356 40.9553 9.20551L40.818 9.28312C40.7105 9.3468 40.6866 9.43238 40.7463 9.53984Z" fill="white"/>
<path d="M24.6034 21.6067L28.5796 23.8336C28.8021 23.9564 28.9876 24.137 29.1168 24.3565C29.2459 24.5759 29.314 24.8263 29.314 25.0814V31.9233C29.314 32.0636 29.2804 32.2019 29.216 32.3266C29.1516 32.4512 29.0583 32.5586 28.9438 32.6398L23.6302 36.419C23.3742 36.6014 23.0653 36.6995 22.7466 36.6996H6.91937C6.76414 36.6996 6.68652 36.622 6.68652 36.4667L6.69846 6.87197C6.69841 6.78058 6.73388 6.69275 6.79738 6.62702C6.86088 6.56129 6.94743 6.52282 7.03877 6.51972C11.421 6.43216 16.436 6.41624 22.0839 6.47196C23.881 6.48987 26.7169 8.99142 28.2214 10.084C28.3339 10.1652 28.4256 10.2719 28.4889 10.3954C28.5523 10.5189 28.5854 10.6557 28.5856 10.7945V17.8394C28.5854 17.9498 28.558 18.0583 28.5059 18.1552C28.4538 18.2521 28.3786 18.3344 28.2871 18.3946L24.5735 20.8604C24.5107 20.9017 24.4597 20.9585 24.4253 21.0254C24.391 21.0922 24.3745 21.1668 24.3775 21.242C24.3805 21.3171 24.4029 21.3901 24.4425 21.454C24.482 21.5179 24.5375 21.5705 24.6034 21.6067ZM19.8787 12.5002C19.8778 12.3783 19.8286 12.2617 19.7418 12.1761C19.655 12.0905 19.5377 12.0429 19.4158 12.0437L16.4068 12.0648C16.3465 12.0652 16.2868 12.0775 16.2311 12.101C16.1755 12.1245 16.1251 12.1587 16.0827 12.2017C16.0403 12.2447 16.0068 12.2956 15.9841 12.3515C15.9614 12.4075 15.9499 12.4673 15.9503 12.5277L15.9905 18.271C15.9913 18.3929 16.0406 18.5095 16.1274 18.5951C16.2142 18.6807 16.3314 18.7283 16.4533 18.7275L19.4623 18.7065C19.5227 18.706 19.5824 18.6937 19.638 18.6702C19.6936 18.6468 19.744 18.6125 19.7864 18.5695C19.8288 18.5266 19.8623 18.4756 19.885 18.4197C19.9077 18.3638 19.9192 18.3039 19.9188 18.2435L19.8787 12.5002ZM19.8943 24.7044C19.8938 24.5714 19.8406 24.444 19.7462 24.3503C19.6518 24.2566 19.5241 24.2042 19.3911 24.2046L16.4656 24.2148C16.3998 24.2151 16.3346 24.2283 16.2738 24.2537C16.2131 24.2791 16.1579 24.3162 16.1115 24.363C16.0651 24.4097 16.0284 24.4651 16.0034 24.526C15.9784 24.587 15.9656 24.6522 15.9659 24.7181L15.9868 30.7003C15.9872 30.8333 16.0405 30.9607 16.1349 31.0544C16.2293 31.1481 16.357 31.2005 16.49 31.2L19.4154 31.1898C19.4813 31.1896 19.5465 31.1764 19.6072 31.151C19.668 31.1256 19.7231 31.0884 19.7695 31.0417C19.816 30.995 19.8527 30.9396 19.8777 30.8786C19.9027 30.8177 19.9154 30.7524 19.9152 30.6866L19.8943 24.7044Z" fill="white"/>
<path d="M69.858 26.6749L68.5565 26.6093C68.4213 26.6031 68.2938 26.5451 68.2003 26.4472C68.1069 26.3493 68.0549 26.2192 68.055 26.0839V21.5345C68.055 21.3952 68.1103 21.2615 68.2089 21.163C68.3074 21.0645 68.441 21.0091 68.5804 21.0091L79.2194 20.9912C79.3588 20.9912 79.4924 21.0466 79.5909 21.1451C79.6895 21.2436 79.7448 21.3773 79.7448 21.5166L79.7389 32.1019C79.7385 32.1866 79.7176 32.2698 79.6781 32.3447C79.6386 32.4195 79.5816 32.4837 79.512 32.5318L73.6492 36.6035C73.56 36.6662 73.4536 36.6996 73.3447 36.6991L63.2429 36.6931C63.1387 36.6929 63.0369 36.6618 62.9504 36.6035L56.8428 32.502C56.7712 32.454 56.7125 32.3891 56.6719 32.3131C56.6313 32.2371 56.61 32.1523 56.6099 32.0661L56.5801 11.1999C56.5808 11.1168 56.6011 11.0351 56.6395 10.9614C56.6779 10.8877 56.7333 10.8242 56.801 10.776L62.6758 6.58489C62.7649 6.52225 62.8713 6.48887 62.9802 6.48937L73.1118 6.4834C73.2187 6.48413 73.3229 6.51745 73.4103 6.57892L79.4941 10.7701C79.5637 10.8182 79.6207 10.8823 79.6602 10.9572C79.6997 11.032 79.7205 11.1153 79.7209 11.1999L79.7627 17.224C79.7635 17.2935 79.7505 17.3624 79.7245 17.4269C79.6984 17.4913 79.6599 17.5499 79.611 17.5993C79.5621 17.6488 79.5039 17.688 79.4398 17.7148C79.3757 17.7415 79.3069 17.7553 79.2374 17.7553L70.867 17.7255C70.798 17.7247 70.7298 17.7103 70.6664 17.6832C70.6029 17.6561 70.5455 17.6167 70.4972 17.5674C70.449 17.518 70.411 17.4597 70.3853 17.3956C70.3596 17.3316 70.3468 17.2631 70.3476 17.1941L70.4192 12.597C70.4208 12.527 70.4084 12.4574 70.3827 12.3923C70.357 12.3271 70.3186 12.2678 70.2696 12.2177C70.2207 12.1677 70.1622 12.1279 70.0977 12.1008C70.0332 12.0736 69.9639 12.0596 69.8938 12.0597L66.3654 12.0776C66.2261 12.0776 66.0924 12.1329 65.9939 12.2314C65.8954 12.33 65.84 12.4636 65.84 12.603L65.8579 30.6512C65.8579 30.7207 65.8717 30.7895 65.8985 30.8536C65.9252 30.9177 65.9645 30.9759 66.0139 31.0248C66.0633 31.0737 66.122 31.1122 66.1864 31.1383C66.2508 31.1643 66.3198 31.1773 66.3893 31.1765L69.8282 31.1586C69.9665 31.1571 70.0986 31.101 70.1958 31.0027C70.2931 30.9043 70.3476 30.7716 70.3476 30.6333L70.3595 27.2003C70.3597 27.065 70.3076 26.9349 70.2142 26.837C70.1208 26.7392 69.9932 26.6811 69.858 26.6749Z" fill="white"/>
<path d="M121.727 21.5282L126.378 24.1432C126.426 24.17 126.465 24.209 126.493 24.2563C126.52 24.3036 126.534 24.3573 126.534 24.4119L126.569 32.2091C126.569 32.2584 126.558 32.307 126.535 32.3507C126.512 32.3944 126.479 32.4318 126.438 32.4599L120.521 36.651C120.471 36.6861 120.41 36.7048 120.348 36.7047L104.217 36.7107C104.136 36.7107 104.058 36.6786 104.001 36.6215C103.944 36.5644 103.912 36.487 103.912 36.4062L103.93 6.75175C103.93 6.671 103.962 6.59355 104.019 6.53645C104.076 6.47935 104.154 6.44727 104.235 6.44727L120.211 6.48309C120.273 6.483 120.333 6.50175 120.384 6.53682L125.728 10.2563C125.768 10.2844 125.801 10.3218 125.824 10.3655C125.847 10.4092 125.859 10.4578 125.859 10.5071L125.865 18.0356C125.865 18.0849 125.853 18.1335 125.83 18.1772C125.807 18.2209 125.774 18.2583 125.734 18.2864L121.704 21.0148C121.662 21.0443 121.628 21.0838 121.605 21.1299C121.583 21.1759 121.572 21.2269 121.574 21.2781C121.577 21.3293 121.592 21.3791 121.619 21.4228C121.646 21.4665 121.683 21.5028 121.727 21.5282ZM117.3 12.5893C117.301 12.5219 117.288 12.4551 117.262 12.3926C117.237 12.3302 117.199 12.2734 117.152 12.2255C117.104 12.1776 117.048 12.1394 116.986 12.1133C116.924 12.0872 116.857 12.0735 116.79 12.0732L113.804 12.0576C113.737 12.0572 113.67 12.0701 113.608 12.0956C113.545 12.1211 113.488 12.1586 113.441 12.206C113.393 12.2535 113.355 12.3099 113.328 12.372C113.302 12.4342 113.289 12.5009 113.288 12.5683L113.259 18.1922C113.258 18.2596 113.271 18.3265 113.297 18.3889C113.322 18.4513 113.36 18.5081 113.407 18.5561C113.455 18.604 113.511 18.6421 113.573 18.6682C113.635 18.6944 113.702 18.708 113.77 18.7083L116.755 18.724C116.822 18.7243 116.889 18.7114 116.951 18.6859C117.014 18.6605 117.071 18.6229 117.119 18.5755C117.166 18.5281 117.205 18.4717 117.231 18.4095C117.257 18.3474 117.27 18.2807 117.271 18.2132L117.3 12.5893ZM117.259 24.7025C117.258 24.639 117.245 24.5762 117.221 24.5177C117.196 24.4592 117.16 24.4062 117.115 24.3616C117.07 24.317 117.016 24.2817 116.957 24.2578C116.898 24.234 116.835 24.2219 116.772 24.2223L113.751 24.2434C113.687 24.2438 113.625 24.2568 113.566 24.2815C113.508 24.3062 113.455 24.3422 113.41 24.3874C113.365 24.4326 113.33 24.4862 113.306 24.545C113.282 24.6039 113.27 24.6668 113.271 24.7303L113.312 30.6886C113.313 30.7521 113.326 30.8149 113.35 30.8734C113.375 30.9319 113.411 30.985 113.456 31.0295C113.502 31.0741 113.555 31.1094 113.614 31.1333C113.673 31.1572 113.736 31.1692 113.799 31.1688L116.82 31.1477C116.884 31.1473 116.946 31.1343 117.005 31.1096C117.063 31.0849 117.117 31.0489 117.161 31.0037C117.206 30.9585 117.241 30.9049 117.265 30.8461C117.289 30.7872 117.301 30.7243 117.3 30.6608L117.259 24.7025Z" fill="white"/>
<path d="M145.818 16.8829C145.85 16.895 145.884 16.9004 145.919 16.8988C145.953 16.8972 145.986 16.8885 146.017 16.8734C146.048 16.8583 146.075 16.8371 146.098 16.811C146.12 16.7849 146.136 16.7545 146.146 16.7217L149.12 7.08564C149.243 6.68364 149.514 6.48264 149.932 6.48264L157.944 6.48861C158.006 6.489 158.068 6.50505 158.123 6.53531C158.178 6.56557 158.224 6.60908 158.258 6.66188C158.292 6.71468 158.312 6.7751 158.317 6.83764C158.321 6.90018 158.31 6.96286 158.284 7.01997L150.75 23.3905C150.537 23.8546 150.429 24.3559 150.433 24.8592L150.481 36.3998C150.481 36.479 150.449 36.5549 150.393 36.6109C150.337 36.6669 150.262 36.6983 150.182 36.6983L141.215 36.7103C141.167 36.7103 141.122 36.692 141.088 36.6596C141.055 36.6271 141.036 36.583 141.036 36.5371L141.072 24.7697C141.072 24.2898 140.968 23.8153 140.767 23.3786L133.143 7.00803C133.117 6.95261 133.105 6.89149 133.109 6.83034C133.113 6.76919 133.132 6.70998 133.165 6.65819C133.197 6.60641 133.243 6.56372 133.296 6.53407C133.35 6.50443 133.41 6.4888 133.472 6.48861L141.693 6.4707C141.857 6.47106 142.017 6.52398 142.149 6.62173C142.281 6.71948 142.379 6.85694 142.427 7.014C143.358 10.0549 144.363 13.2112 145.442 16.4829C145.506 16.6819 145.631 16.8152 145.818 16.8829Z" fill="white"/>
<path d="M177.371 12.5014L177.377 36.2274C177.377 36.3477 177.33 36.4631 177.244 36.5482C177.159 36.6333 177.044 36.6811 176.924 36.6811L168.553 36.7229C168.494 36.7229 168.435 36.7112 168.38 36.6884C168.325 36.6656 168.275 36.6321 168.232 36.59C168.19 36.5479 168.157 36.4979 168.134 36.4428C168.111 36.3878 168.099 36.3288 168.099 36.2692L168.141 12.5313C168.141 12.4712 168.129 12.4117 168.106 12.3562C168.083 12.3008 168.049 12.2505 168.006 12.2083C167.963 12.1661 167.913 12.1328 167.857 12.1103C167.801 12.0879 167.742 12.0767 167.682 12.0775L163.252 12.1074C163.131 12.1074 163.016 12.0596 162.931 11.9745C162.846 11.8894 162.798 11.774 162.798 11.6536L162.834 6.91321C162.835 6.79391 162.884 6.68003 162.969 6.59622C163.054 6.51242 163.168 6.46543 163.287 6.46544L182.225 6.45947C182.346 6.45947 182.461 6.50728 182.546 6.59237C182.631 6.67746 182.679 6.79287 182.679 6.91321L182.697 11.6178C182.698 11.6784 182.686 11.7385 182.663 11.7947C182.641 11.8508 182.607 11.9018 182.564 11.9447C182.521 11.9875 182.47 12.0213 182.414 12.0442C182.358 12.067 182.298 12.0783 182.237 12.0775L177.825 12.0477C177.705 12.0477 177.589 12.0955 177.504 12.1806C177.419 12.2657 177.371 12.3811 177.371 12.5014Z" fill="white"/>
<path d="M198.81 12.4296L198.852 17.6417C198.852 17.743 198.892 17.8402 198.963 17.9119C199.035 17.9835 199.132 18.0238 199.234 18.0238L205.031 18.0118C205.132 18.0118 205.229 18.0521 205.301 18.1238C205.373 18.1954 205.413 18.2926 205.413 18.3939L205.431 23.1284C205.432 23.1796 205.422 23.2304 205.403 23.2778C205.384 23.3253 205.355 23.3684 205.319 23.4046C205.283 23.4408 205.24 23.4693 205.192 23.4886C205.145 23.5078 205.094 23.5173 205.043 23.5165L199.186 23.4687C199.135 23.4679 199.084 23.4774 199.036 23.4966C198.989 23.5158 198.946 23.5444 198.91 23.5806C198.874 23.6168 198.845 23.6599 198.826 23.7073C198.807 23.7548 198.797 23.8056 198.798 23.8568L198.852 30.8181C198.852 30.9195 198.892 31.0167 198.963 31.0883C199.035 31.16 199.132 31.2002 199.234 31.2002L206.703 31.1525C206.804 31.1525 206.901 31.1927 206.973 31.2644C207.044 31.336 207.085 31.4332 207.085 31.5346L207.126 36.3108C207.126 36.4121 207.086 36.5093 207.014 36.581C206.943 36.6526 206.846 36.6929 206.744 36.6929L189.824 36.7108C189.723 36.7108 189.626 36.6706 189.554 36.5989C189.483 36.5272 189.442 36.4301 189.442 36.3287L189.502 6.82351C189.502 6.72217 189.542 6.62498 189.614 6.55332C189.686 6.48166 189.783 6.44141 189.884 6.44141L206.38 6.45335C206.48 6.45333 206.577 6.49277 206.648 6.56314C206.72 6.63351 206.761 6.72918 206.762 6.82948L206.81 11.7132C206.811 11.7639 206.801 11.8142 206.783 11.8612C206.764 11.9083 206.736 11.9511 206.7 11.9872C206.665 12.0233 206.622 12.052 206.575 12.0716C206.529 12.0912 206.479 12.1013 206.428 12.1012L199.198 12.0415C199.147 12.0407 199.096 12.0502 199.048 12.0694C199.001 12.0887 198.958 12.1172 198.922 12.1534C198.885 12.1896 198.857 12.2327 198.838 12.2802C198.818 12.3276 198.809 12.3784 198.81 12.4296Z" fill="white"/>
<path d="M47.6361 13.3966L45.0271 15.8683C44.9027 15.9853 44.7473 16.0641 44.5793 16.0952L42.7644 16.4415C42.5836 16.4754 42.3967 16.4525 42.2295 16.3759C42.0623 16.2993 41.9229 16.1727 41.8306 16.0136C41.7383 15.8545 41.6976 15.6707 41.714 15.4875C41.7305 15.3043 41.8033 15.1308 41.9226 14.9907L44.2211 12.31C44.2985 12.2193 44.3934 12.145 44.5 12.0917C44.6067 12.0384 44.723 12.007 44.842 11.9995L46.9675 11.8622C47.1501 11.8503 47.332 11.8951 47.4883 11.9903C47.6445 12.0856 47.7676 12.2267 47.8408 12.3945C47.9139 12.5623 47.9335 12.7486 47.8969 12.9279C47.8602 13.1072 47.7692 13.2709 47.6361 13.3966Z" fill="white"/>
<path d="M49.8819 13.0921L49.5714 12.9847C49.1575 12.8414 49.1595 12.7021 49.5774 12.5667C49.9117 12.4593 50.258 12.4473 50.6162 12.5309C50.6561 12.5397 50.6936 12.5568 50.7265 12.581C50.7593 12.6052 50.7867 12.636 50.807 12.6714C50.8272 12.7068 50.8398 12.7461 50.844 12.7867C50.8482 12.8273 50.8438 12.8683 50.8312 12.9071C50.7555 13.1299 50.66 13.2235 50.5446 13.1877C50.3655 13.1359 50.3555 13.1598 50.5147 13.2593C51.1476 13.6613 51.3406 14.2146 51.0939 14.919C50.4769 16.7022 49.0719 17.6315 46.8788 17.7072C46.2102 17.7311 45.6828 18.0037 45.2967 18.5251C45.2128 18.6405 45.0931 18.7256 44.9555 18.7675C44.8178 18.8095 44.6694 18.8061 44.5325 18.7579C43.9514 18.555 43.5275 18.1191 43.2608 17.4505C43.1733 17.2236 43.2489 17.1002 43.4877 17.0803L44.4429 16.9848C44.6499 16.9649 44.835 16.8873 44.9982 16.7519C45.9494 15.9479 46.7773 15.1758 47.4818 14.4355C48.0789 13.8026 48.8749 13.4046 49.8699 13.2414C50.0769 13.2095 50.0809 13.1598 49.8819 13.0921Z" fill="white"/>
<path d="M40.9253 18.6449C39.5043 18.4419 36.1013 16.8777 35.8684 15.1822C35.8205 14.8376 35.897 14.4873 36.0841 14.1941C36.2712 13.9008 36.5567 13.6839 36.8893 13.5821C38.6028 13.0687 40.8297 15.7255 41.7014 16.9912C41.8209 17.1645 41.9994 17.2877 42.2029 17.3374C43.1402 17.5762 43.6656 18.3882 43.2776 19.2957C43.0945 19.7216 42.7203 19.9106 42.1551 19.8629C41.6059 19.8111 41.3193 19.5405 41.2954 19.0509C41.2835 18.8161 41.1601 18.6808 40.9253 18.6449Z" fill="white"/>
<path d="M47.9582 36.5516C47.9581 36.5928 47.9417 36.6322 47.9125 36.6613C47.8834 36.6903 47.8439 36.7066 47.8027 36.7066L38.8234 36.6909C38.803 36.6909 38.7828 36.6868 38.764 36.679C38.7452 36.6712 38.7281 36.6597 38.7137 36.6453C38.6993 36.6308 38.6879 36.6137 38.6802 36.5948C38.6724 36.576 38.6684 36.5558 38.6685 36.5354L38.6935 22.2067C38.6936 22.1655 38.71 22.1261 38.7391 22.097C38.7683 22.068 38.8078 22.0517 38.8489 22.0518L47.8283 22.0674C47.8487 22.0674 47.8688 22.0715 47.8876 22.0793C47.9065 22.0872 47.9236 22.0986 47.9379 22.1131C47.9523 22.1275 47.9637 22.1447 47.9715 22.1635C47.9793 22.1823 47.9832 22.2025 47.9832 22.2229L47.9582 36.5516Z" fill="white"/>
<path d="M75.9842 51.6303C76.0359 51.6882 76.1019 51.7317 76.1755 51.7565C76.2492 51.7812 76.3278 51.7862 76.4035 51.7711C76.4792 51.756 76.5493 51.7212 76.6067 51.6702C76.6641 51.6193 76.7068 51.5541 76.7305 51.4811C77.1245 50.3029 77.2758 49.1327 77.1842 47.9705C77.1604 47.6999 77.2817 47.5466 77.5484 47.5108L78.9813 47.3078C79.0786 47.2944 79.1776 47.3173 79.26 47.3722C79.3423 47.4271 79.4024 47.5103 79.4291 47.6063C79.9246 49.4332 78.9276 51.4034 77.8111 52.8244C77.7529 52.9005 77.7244 52.9952 77.731 53.0908C77.7376 53.1864 77.7788 53.2764 77.8469 53.3438C78.6748 54.1677 79.6122 54.7468 80.659 55.0811C82.2152 55.5826 82.2033 56.0424 80.6231 56.4603C79.1743 56.8424 77.64 56.4006 76.02 55.1349C75.9283 55.062 75.8156 55.0204 75.6986 55.0161C75.5815 55.0118 75.4661 55.045 75.3693 55.111C73.6777 56.2732 71.8468 56.6871 69.8766 56.3528C66.7541 55.8215 65.8586 52.0661 67.6497 49.7258C68.0676 49.1825 68.7542 48.8123 69.3154 48.4063C69.5542 48.2392 69.6179 48.0203 69.5064 47.7496C69.2199 47.0391 68.8497 46.269 68.8139 45.4988C68.6865 42.7604 70.0895 41.4032 73.0229 41.4271C74.1036 41.439 75.4528 41.8629 75.9066 42.9555C76.8678 45.2481 74.9513 46.7227 73.3215 47.9108C73.0548 48.1058 73.0309 48.3248 73.2498 48.5675L75.9842 51.6303ZM72.2417 46.6893C72.4219 46.7192 72.609 46.6966 72.7923 46.623C72.9755 46.5493 73.1514 46.4259 73.3098 46.26C73.4682 46.094 73.606 45.8887 73.7155 45.6557C73.8249 45.4227 73.9038 45.1666 73.9476 44.9021C74.036 44.3678 73.9762 43.8315 73.7814 43.4111C73.5866 42.9908 73.2726 42.7207 72.9087 42.6605C72.7284 42.6306 72.5414 42.6532 72.3581 42.7269C72.1748 42.8005 71.999 42.9239 71.8405 43.0898C71.6821 43.2558 71.5443 43.4611 71.4349 43.6941C71.3254 43.9271 71.2466 44.1832 71.2028 44.4477C71.1143 44.982 71.1741 45.5183 71.3689 45.9387C71.5638 46.3591 71.8777 46.6291 72.2417 46.6893ZM74.4021 53.7916L70.8975 49.7437C70.8745 49.7176 70.8421 49.7017 70.8074 49.6995C70.7727 49.6972 70.7386 49.7088 70.7124 49.7318L70.6408 49.7974C70.3539 50.0459 70.117 50.3465 69.9438 50.682C69.7705 51.0176 69.6642 51.3815 69.6309 51.7529C69.5976 52.1244 69.6381 52.4961 69.7499 52.847C69.8617 53.1978 70.0427 53.5208 70.2826 53.7975L70.3065 53.8214C70.7906 54.3792 71.4844 54.7151 72.2354 54.7554C72.9865 54.7957 73.7335 54.5371 74.3125 54.0363L74.3842 53.9766C74.3975 53.9657 74.4086 53.9522 74.4167 53.9369C74.4248 53.9217 74.4298 53.905 74.4315 53.8878C74.4332 53.8706 74.4314 53.8533 74.4264 53.8368C74.4213 53.8202 74.4131 53.8049 74.4021 53.7916Z" fill="white"/>
<path d="M121.321 49.2071C121.329 49.828 121.526 49.8937 121.913 49.4041C122.947 48.0907 123.992 46.8429 125.047 45.6608C125.883 44.7214 126.854 44.3314 127.96 44.4906C128.749 44.606 128.782 44.8329 128.062 45.1712C126.613 45.8518 125.254 47.0976 123.984 48.9086C123.909 49.02 123.899 49.1375 123.954 49.2608C124.969 51.3803 126.414 54.658 128.725 55.5058C129.166 55.665 129.473 55.5257 129.644 55.0879L133.531 45.0995C133.67 44.7453 133.925 44.5383 134.295 44.4786L135.638 44.2577C135.737 44.2406 135.838 44.2588 135.924 44.309C136.01 44.3593 136.076 44.4384 136.11 44.5324L140.104 55.9297C140.215 56.2401 140.106 56.3973 139.776 56.4013L138.253 56.4192C137.935 56.4192 137.726 56.266 137.626 55.9595L136.594 52.6699C136.526 52.4549 136.379 52.3475 136.152 52.3475L132.378 52.3654C132.14 52.3654 131.978 52.4788 131.895 52.7057L130.689 56.061C130.613 56.272 130.464 56.3834 130.241 56.3953C129.083 56.4471 127.992 56.4491 126.969 56.4013C124.713 56.2938 123.28 52.9087 122.474 51.0639C122.378 50.8489 122.231 50.8052 122.032 50.9325C120.832 51.7087 121.268 54.7416 121.262 55.9655C121.262 56.26 121.115 56.4053 120.82 56.4013L119.333 56.3894C119.075 56.3894 118.945 56.26 118.945 56.0013V44.9264C118.945 44.612 119.103 44.4547 119.417 44.4547L120.862 44.4607C120.961 44.4607 121.057 44.5 121.128 44.5702C121.199 44.6404 121.241 44.736 121.244 44.8368L121.321 49.2071ZM132.552 50.8549C132.535 50.9008 132.53 50.9499 132.537 50.9981C132.544 51.0463 132.562 51.0922 132.59 51.132C132.618 51.1718 132.655 51.2042 132.698 51.2266C132.742 51.2491 132.79 51.2608 132.838 51.2609L135.632 51.2669C135.68 51.2665 135.727 51.2547 135.77 51.2326C135.813 51.2105 135.849 51.1787 135.877 51.1397C135.905 51.1007 135.924 51.0557 135.931 51.0083C135.938 50.9608 135.934 50.9124 135.919 50.8669L134.54 46.7653C134.52 46.7041 134.481 46.6508 134.429 46.6131C134.377 46.5753 134.314 46.5549 134.25 46.5549C134.186 46.5549 134.123 46.5753 134.071 46.6131C134.019 46.6508 133.98 46.7041 133.961 46.7653L132.552 50.8549Z" fill="white"/>
<path d="M5.95726 53.8937C6.12044 52.7514 5.64282 52.0051 4.52438 51.6549C2.18403 50.9146 -0.938437 49.3324 0.697424 46.2995C1.86163 44.1442 4.60797 44.2039 6.84086 44.5144C7.16326 44.5582 7.2946 44.7373 7.2349 45.0517L7.07967 45.9174C7.03191 46.1682 6.88464 46.2657 6.63787 46.21C5.58113 45.9592 2.72733 45.1174 2.31537 46.6936C2.07656 47.5931 2.41886 48.2339 3.34227 48.616C4.32538 49.022 5.2647 49.4598 6.16025 49.9295C7.98716 50.8907 8.40508 53.2967 7.16923 54.8729C5.62292 56.8371 2.75718 56.8251 0.60787 56.0968C0.0705431 55.9137 -0.110556 55.5515 0.0645726 55.0102L0.154127 54.7475C0.313335 54.2539 0.62578 54.1186 1.09146 54.3415C2.17806 54.855 5.65874 55.9595 5.95726 53.8937Z" fill="white"/>
<path d="M58.2162 51.8036C56.2102 50.9319 53.028 50.1438 53.6967 47.1169C54.3474 44.1914 57.7923 44.0959 60.2879 44.5437C60.3446 44.5543 60.3985 44.5763 60.4462 44.6084C60.494 44.6405 60.5346 44.682 60.5654 44.7302C60.5963 44.7784 60.6167 44.8324 60.6254 44.8886C60.6342 44.9449 60.6311 45.0023 60.6163 45.0571L60.3894 45.9527C60.3217 46.2154 60.1585 46.3109 59.8998 46.2393C57.1734 45.495 55.7226 45.6422 55.5475 46.6811C55.3922 47.6423 55.9117 48.4363 56.8072 48.7289C57.9018 49.0911 58.8888 49.5448 59.7685 50.0901C61.4163 51.117 61.673 53.3559 60.5207 54.8425C58.9685 56.8485 56.1505 56.8007 53.9474 56.1261C53.3703 55.9509 53.1812 55.5808 53.3803 55.0156L53.4698 54.7589C53.6569 54.2255 53.9992 54.0922 54.4967 54.3589C55.5276 54.9161 56.7336 55.1529 58.1147 55.0693C58.3427 55.0539 58.5577 54.9612 58.7237 54.8066C59.6132 53.9708 59.4043 52.317 58.2162 51.8036Z" fill="white"/>
<path d="M102.421 52.3299L98.4206 52.3836C98.3642 52.3851 98.3095 52.4035 98.2637 52.4365C98.2179 52.4696 98.1831 52.5156 98.1639 52.5687L96.8445 56.1867C96.826 56.2352 96.7945 56.2776 96.7534 56.3092C96.7123 56.3408 96.6632 56.3604 96.6116 56.3658L95.7698 56.4614C95.7224 56.4663 95.6745 56.4591 95.6306 56.4404C95.5867 56.4218 95.5484 56.3922 95.5191 56.3546C95.4898 56.3169 95.4706 56.2724 95.4633 56.2253C95.456 56.1782 95.4608 56.13 95.4773 56.0852L99.8834 44.682C99.9022 44.6355 99.9332 44.5949 99.9731 44.5644C100.013 44.5339 100.06 44.5148 100.11 44.5088L102.027 44.276C102.09 44.2683 102.154 44.2824 102.208 44.316C102.263 44.3497 102.304 44.4009 102.325 44.4611L106.331 56.0494C106.346 56.0923 106.35 56.1381 106.343 56.1828C106.336 56.2276 106.318 56.2699 106.291 56.3063C106.264 56.3427 106.228 56.372 106.188 56.3917C106.147 56.4114 106.102 56.421 106.057 56.4196L104.17 56.3718C104.113 56.3699 104.058 56.3506 104.012 56.3165C103.966 56.2823 103.932 56.235 103.913 56.1808L102.689 52.5269C102.672 52.4697 102.636 52.4197 102.587 52.3842C102.539 52.3488 102.481 52.3297 102.421 52.3299ZM98.7371 50.8493C98.721 50.8947 98.7159 50.9433 98.7223 50.991C98.7286 51.0388 98.7462 51.0843 98.7736 51.124C98.801 51.1636 98.8374 51.1962 98.8798 51.219C98.9223 51.2418 98.9695 51.2542 99.0177 51.2553L101.818 51.2791C101.866 51.2787 101.913 51.267 101.955 51.2449C101.998 51.2228 102.035 51.191 102.063 51.152C102.091 51.113 102.109 51.068 102.116 51.0205C102.123 50.9731 102.119 50.9247 102.104 50.8791L100.743 46.8432C100.723 46.784 100.684 46.7325 100.633 46.6959C100.582 46.6593 100.521 46.6393 100.459 46.6386C100.396 46.6379 100.335 46.6567 100.283 46.6922C100.231 46.7278 100.192 46.7784 100.17 46.8372L98.7371 50.8493Z" fill="white"/>
<path d="M110.128 48.1137C109.877 49.9585 109.788 52.6034 110.862 54.2333C111.901 55.8094 114.982 55.3557 116.432 54.9139C116.47 54.9022 116.51 54.8984 116.55 54.9027C116.589 54.9069 116.628 54.9191 116.663 54.9386C116.698 54.958 116.729 54.9843 116.754 55.016C116.779 55.0476 116.797 55.0839 116.809 55.1228L116.862 55.296C116.926 55.5308 116.848 55.698 116.63 55.7975C115.424 56.3467 113.977 56.5895 112.289 56.5258C108.086 56.3706 107.208 52.3884 107.71 49.051C108.391 44.5733 112.701 43.8927 116.498 44.5852C116.709 44.6211 116.785 44.7425 116.725 44.9494L116.462 45.833C116.379 46.1077 116.196 46.2191 115.913 46.1674C113.776 45.7793 110.558 44.9375 110.128 48.1137Z" fill="white"/>
<path d="M149.137 54.466L149.143 52.2092C149.143 51.9027 148.99 51.7435 148.684 51.7316L146.689 51.654C146.566 51.646 146.5 51.5823 146.492 51.4629L146.486 51.248C146.482 51.1857 146.491 51.1232 146.513 51.0644C146.534 51.0055 146.567 50.9516 146.61 50.9058C146.653 50.8599 146.705 50.8233 146.763 50.7979C146.821 50.7726 146.883 50.7592 146.946 50.7584L150.916 50.7226C150.976 50.7218 151.035 50.7326 151.091 50.7544C151.146 50.7761 151.196 50.8085 151.239 50.8495C151.282 50.8905 151.316 50.9394 151.339 50.9935C151.363 51.0475 151.375 51.1056 151.376 51.1644L151.418 55.2302C151.422 55.469 151.311 55.6282 151.084 55.7078C147.955 56.8123 143.215 57.5287 141.919 53.5764C141.243 51.5027 141.237 49.5982 141.901 47.8628C143.209 44.4538 147.024 43.9762 150.313 44.5374C150.688 44.6011 150.853 44.822 150.809 45.2001L150.779 45.4807C150.723 45.9862 150.445 46.2011 149.943 46.1255C147.681 45.7852 144.206 44.824 143.919 48.3166C143.651 51.5525 143.43 56.6392 148.684 55.075C148.986 54.9834 149.137 54.7804 149.137 54.466Z" fill="white"/>
<path d="M179.364 51.7083L177.669 51.6725C177.58 51.671 177.495 51.6355 177.432 51.5733C177.368 51.5111 177.331 51.4269 177.328 51.3382V51.1829C177.32 50.8804 177.468 50.7292 177.77 50.7292L181.693 50.7352C181.999 50.7352 182.152 50.8884 182.152 51.1949L182.146 55.3024C182.146 55.5054 182.051 55.6427 181.86 55.7144C178.994 56.7831 174.194 57.4995 172.743 53.8815C171.292 50.2635 172.134 45.8753 176.29 44.6813C177.551 44.3191 179.129 44.2653 181.024 44.5201C181.334 44.5639 181.474 44.743 181.442 45.0574L181.37 45.6962C181.326 46.0823 181.116 46.2395 180.737 46.1679C178.791 45.7977 175.245 45.141 174.821 47.4276C174.469 49.3381 174.11 54.8726 176.606 55.2726C177.486 55.4119 178.459 55.3462 179.525 55.0756C179.728 55.0238 179.83 54.8925 179.83 54.6815L179.794 52.1441C179.79 51.8616 179.647 51.7163 179.364 51.7083Z" fill="white"/>
<path d="M193.3 55.159C194.474 55.4774 195.931 55.4038 197.671 54.9381C197.709 54.9274 197.75 54.9262 197.79 54.9347C197.829 54.9432 197.866 54.9611 197.897 54.9869C197.928 55.0127 197.953 55.0456 197.968 55.0829C197.984 55.1201 197.99 55.1606 197.987 55.2008L197.969 55.3919C197.959 55.5417 197.902 55.6844 197.808 55.8C197.714 55.9156 197.586 55.9983 197.444 56.0366C194.673 56.7949 190.733 57.1471 189.461 54.0724C188.844 52.5918 188.645 51.0156 188.864 49.3439C189.479 44.6334 193.581 43.9169 197.551 44.5319C197.846 44.5757 197.957 44.7428 197.885 45.0334L197.688 45.8155C197.613 46.1021 197.432 46.2195 197.145 46.1677C194.882 45.7737 191.605 44.902 191.264 48.2932C191.067 50.2634 190.906 54.5082 193.3 55.159Z" fill="white"/>
<path d="M20.9851 53.6185L23.2359 44.8899C23.3275 44.5317 23.5543 44.3785 23.9165 44.4302L24.2509 44.478C24.5613 44.5218 24.6748 44.6949 24.5912 44.9974L21.5224 56.0783C21.4966 56.1701 21.4414 56.2511 21.365 56.3092C21.2886 56.3673 21.1951 56.3994 21.0985 56.4007H19.5582C19.2796 56.4007 19.0945 56.2713 19.003 56.0126C18.2786 53.9946 17.6099 51.9269 16.997 49.8094C16.981 49.7497 16.9412 49.708 16.8776 49.6841C16.6427 49.6005 16.4875 49.6761 16.4119 49.9109L14.4357 55.9708C14.3442 56.2454 14.1531 56.3847 13.8625 56.3887L12.4237 56.4007C12.1531 56.4046 11.9779 56.2753 11.8983 56.0126L8.60869 44.6451C8.57685 44.5297 8.62063 44.472 8.74003 44.472L10.8714 44.466C11.0028 44.4621 11.0864 44.5237 11.1222 44.6511L13.4685 53.5469C13.6476 54.2235 13.8446 54.2295 14.0596 53.5648L16.3223 46.5556C16.3763 46.3876 16.4748 46.2374 16.6072 46.1207C16.7396 46.004 16.9011 45.9253 17.0746 45.8929C17.588 45.7934 17.9084 45.9924 18.0358 46.49C18.0716 46.6253 18.1134 46.7606 18.1612 46.8959C18.9094 48.9816 19.6398 51.2264 20.3523 53.6304C20.5791 54.3907 20.7901 54.3867 20.9851 53.6185Z" fill="white"/>
<path d="M28.5372 45.9475L28.591 49.458C28.5924 49.5104 28.6134 49.5603 28.6499 49.5979C28.6864 49.6355 28.7357 49.658 28.788 49.661L32.4 49.7864C32.4332 49.7872 32.4657 49.7959 32.4948 49.8118C32.5239 49.8277 32.5488 49.8503 32.5675 49.8777C32.5862 49.9051 32.5981 49.9366 32.6021 49.9695C32.6062 50.0024 32.6024 50.0358 32.5911 50.067L32.3821 50.67C32.3687 50.7105 32.3432 50.746 32.3091 50.7716C32.2749 50.7972 32.2337 50.8118 32.191 50.8133L28.782 50.9148C28.7276 50.9163 28.676 50.939 28.6381 50.9781C28.6002 51.0171 28.579 51.0693 28.579 51.1237L28.5492 54.9806C28.5491 55.035 28.5703 55.0872 28.6082 55.1262C28.6461 55.1653 28.6978 55.188 28.7522 55.1895L32.9911 55.3567C33.0444 55.3582 33.0952 55.3801 33.1329 55.4178C33.1707 55.4556 33.1926 55.5063 33.1941 55.5597L33.212 56.1746C33.2128 56.2026 33.2079 56.2304 33.1978 56.2564C33.1877 56.2825 33.1724 56.3062 33.1529 56.3262C33.1334 56.3463 33.1101 56.3622 33.0844 56.3731C33.0586 56.384 33.031 56.3896 33.003 56.3896L26.4536 56.4075C26.3982 56.4075 26.345 56.3854 26.3058 56.3463C26.2666 56.3071 26.2446 56.2539 26.2446 56.1985L26.2685 44.646C26.2685 44.5906 26.2905 44.5374 26.3297 44.4982C26.3689 44.459 26.4221 44.437 26.4775 44.437L32.7523 44.4728C32.7807 44.4728 32.8089 44.4786 32.8351 44.4898C32.8612 44.501 32.8848 44.5175 32.9044 44.5382C32.924 44.5589 32.9391 44.5833 32.9489 44.6101C32.9586 44.6368 32.9628 44.6653 32.9612 44.6937L32.9194 45.3505C32.9152 45.4007 32.8929 45.4478 32.8567 45.4829C32.8205 45.518 32.7728 45.5388 32.7224 45.5415L28.7402 45.7326C28.7128 45.7333 28.6857 45.7395 28.6607 45.7507C28.6356 45.762 28.613 45.778 28.5942 45.798C28.5753 45.8179 28.5606 45.8414 28.5508 45.8671C28.541 45.8927 28.5364 45.9201 28.5372 45.9475Z" fill="white"/>
<path d="M37.8216 49.6668L41.4694 49.7742C41.4974 49.7757 41.5248 49.7828 41.55 49.7952C41.5752 49.8075 41.5976 49.8247 41.616 49.8459C41.6344 49.8671 41.6484 49.8917 41.657 49.9184C41.6657 49.945 41.6689 49.9732 41.6664 50.0011L41.6127 50.5922C41.6083 50.6434 41.5852 50.6912 41.5477 50.7265C41.5103 50.7617 41.4611 50.7819 41.4097 50.7832L37.8096 50.9146C37.7552 50.9161 37.7036 50.9388 37.6657 50.9778C37.6278 51.0169 37.6066 51.0691 37.6066 51.1235L37.6007 54.9624C37.6006 55.0168 37.6218 55.0691 37.6597 55.1081C37.6976 55.1471 37.7493 55.1698 37.8036 55.1714L42.1441 55.3505C42.1726 55.3512 42.2006 55.3577 42.2265 55.3697C42.2524 55.3817 42.2756 55.3988 42.2946 55.4201C42.3136 55.4413 42.3281 55.4662 42.3371 55.4933C42.3461 55.5203 42.3495 55.549 42.347 55.5774L42.2933 56.2102C42.2888 56.2625 42.2648 56.3111 42.2261 56.3465C42.1874 56.3819 42.1368 56.4015 42.0843 56.4013L35.4931 56.3953C35.4377 56.3953 35.3846 56.3733 35.3454 56.3341C35.3062 56.2949 35.2842 56.2418 35.2842 56.1863L35.2901 44.6577C35.2901 44.6023 35.3122 44.5491 35.3514 44.5099C35.3905 44.4707 35.4437 44.4487 35.4991 44.4487L41.8276 44.4607C41.8556 44.4607 41.8832 44.4663 41.909 44.4771C41.9347 44.488 41.9581 44.5039 41.9775 44.524C41.997 44.544 42.0123 44.5678 42.0224 44.5938C42.0326 44.6198 42.0374 44.6477 42.0366 44.6756L42.0067 45.3383C42.0053 45.3907 41.9843 45.4406 41.9478 45.4782C41.9113 45.5158 41.862 45.5383 41.8097 45.5413L37.7798 45.7443C37.7523 45.7451 37.7253 45.7512 37.7002 45.7625C37.6752 45.7737 37.6526 45.7897 37.6337 45.8097C37.6149 45.8296 37.6001 45.8531 37.5904 45.8788C37.5806 45.9044 37.576 45.9318 37.5768 45.9592L37.6186 49.4578C37.6185 49.5122 37.6397 49.5645 37.6776 49.6035C37.7155 49.6425 37.7672 49.6652 37.8216 49.6668Z" fill="white"/>
<path d="M43.0991 45.2666L43.2365 44.6516C43.2499 44.5969 43.2813 44.5483 43.3257 44.5136C43.3701 44.479 43.4249 44.4603 43.4812 44.4606L52.3352 44.4546C52.3697 44.4545 52.4038 44.4615 52.4355 44.4752C52.4671 44.4889 52.4956 44.509 52.5192 44.5343C52.5427 44.5595 52.5608 44.5893 52.5723 44.6218C52.5838 44.6543 52.5884 44.6889 52.586 44.7233L52.5442 45.374C52.5398 45.4354 52.5131 45.493 52.4691 45.5359C52.4251 45.5788 52.3668 45.6041 52.3053 45.6069L49.3202 45.6904C49.2547 45.692 49.1925 45.7191 49.1467 45.766C49.101 45.8128 49.0754 45.8757 49.0754 45.9412L49.0635 56.1325C49.0635 56.199 49.0371 56.2628 48.99 56.3098C48.943 56.3568 48.8792 56.3832 48.8127 56.3832L46.95 56.3892C46.8835 56.3892 46.8197 56.3628 46.7727 56.3158C46.7257 56.2687 46.6992 56.205 46.6992 56.1385L46.6933 45.9591C46.6933 45.8946 46.6686 45.8326 46.6241 45.7859C46.5796 45.7392 46.5189 45.7114 46.4545 45.7084L43.332 45.571C43.2955 45.5693 43.2599 45.5596 43.2276 45.5426C43.1952 45.5257 43.167 45.5019 43.1448 45.4729C43.1227 45.4439 43.1071 45.4104 43.0992 45.3748C43.0913 45.3391 43.0913 45.3022 43.0991 45.2666Z" fill="white"/>
<path d="M89.2256 46.1612L89.2436 55.8928C89.2436 56.2271 89.0784 56.3943 88.748 56.3943L87.351 56.4002C87.0564 56.4002 86.9092 56.253 86.9092 55.9584L86.9211 44.9194C86.9211 44.6686 87.0465 44.5333 87.2972 44.5134C89.6436 44.3044 93.5541 43.8507 94.4198 46.6328C95.3034 49.4986 93.2019 51.8509 90.2585 51.6658C89.4744 51.618 89.4067 51.3713 90.0555 50.9255C90.4058 50.6827 90.7879 50.4956 91.2018 50.3643C91.4028 50.2987 91.5755 50.166 91.6914 49.9881C92.2765 49.0727 92.3939 47.9821 92.0436 46.7164C91.7212 45.5701 90.6944 45.4985 89.7093 45.6119C89.3829 45.6517 89.2217 45.8348 89.2256 46.1612Z" fill="white"/>
<path d="M156.346 56.0287C156.346 56.0765 156.337 56.1239 156.319 56.1681C156.301 56.2123 156.274 56.2525 156.24 56.2864C156.206 56.3203 156.166 56.3472 156.122 56.3655C156.078 56.3839 156.031 56.3934 155.983 56.3935L154.419 56.3962C154.371 56.3963 154.323 56.387 154.279 56.3688C154.235 56.3505 154.195 56.3238 154.161 56.29C154.127 56.2562 154.1 56.2161 154.082 56.172C154.063 56.1278 154.054 56.0805 154.054 56.0327L154.034 44.8324C154.034 44.7846 154.043 44.7372 154.062 44.693C154.08 44.6488 154.107 44.6086 154.14 44.5747C154.174 44.5408 154.214 44.5139 154.258 44.4955C154.303 44.4772 154.35 44.4677 154.398 44.4676L155.962 44.4648C156.01 44.4648 156.057 44.4741 156.101 44.4923C156.146 44.5106 156.186 44.5373 156.22 44.5711C156.254 44.6049 156.28 44.645 156.299 44.6891C156.317 44.7333 156.327 44.7806 156.327 44.8284L156.346 56.0287Z" fill="white"/>
<path d="M161.186 48.8004C160.676 48.279 160.426 48.3824 160.433 49.1108L160.499 56.0841C160.503 56.2831 160.404 56.3826 160.201 56.3826L159.43 56.3946C159.227 56.3946 159.126 56.2951 159.126 56.0961V45.5227C159.126 44.1216 159.618 43.9206 160.601 44.9197L167.998 52.4184C168.265 52.693 168.398 52.6393 168.398 52.2572L168.368 44.9077C168.364 44.5933 168.521 44.4381 168.84 44.442L169.192 44.448C169.325 44.4496 169.453 44.5037 169.547 44.5987C169.641 44.6937 169.693 44.8219 169.693 44.9555L169.705 55.2423C169.709 56.7827 169.174 56.9996 168.099 55.8931L161.186 48.8004Z" fill="white"/>
<path d="M211.256 51.5131C211.25 52.174 211.114 52.8273 210.856 53.4357C210.598 54.0441 210.222 54.5957 209.751 55.0589C209.279 55.5222 208.721 55.8881 208.108 56.1357C207.496 56.3832 206.84 56.5077 206.179 56.5019L204.83 56.4902C204.169 56.4844 203.516 56.3485 202.907 56.0903C202.299 55.832 201.747 55.4565 201.284 54.985C200.821 54.5136 200.455 53.9556 200.207 53.3428C199.96 52.7299 199.835 52.0744 199.841 51.4135L199.859 49.4075C199.864 48.7466 200 48.0933 200.258 47.4849C200.517 46.8765 200.892 46.3249 201.364 45.8616C201.835 45.3984 202.393 45.0325 203.006 44.7849C203.619 44.5373 204.274 44.4129 204.935 44.4186L206.284 44.4304C206.945 44.4362 207.599 44.5721 208.207 44.8303C208.815 45.0886 209.367 45.4641 209.83 45.9355C210.294 46.407 210.659 46.965 210.907 47.5778C211.155 48.1906 211.279 48.8462 211.273 49.5071L211.256 51.5131ZM208.713 48.3847C208.698 48.0181 208.612 47.6579 208.458 47.3249C208.304 46.9918 208.086 46.6923 207.816 46.4434C207.546 46.1946 207.23 46.0013 206.886 45.8746C206.542 45.7479 206.176 45.6903 205.809 45.705L204.878 45.7424C204.138 45.7721 203.44 46.0948 202.937 46.6394C202.435 47.184 202.169 47.9059 202.199 48.6463L202.354 52.5C202.368 52.8667 202.455 53.2268 202.609 53.5599C202.763 53.893 202.981 54.1925 203.251 54.4413C203.52 54.6902 203.836 54.8835 204.181 55.0102C204.525 55.1369 204.891 55.1945 205.258 55.1798L206.188 55.1424C206.929 55.1126 207.627 54.79 208.129 54.2454C208.632 53.7008 208.898 52.9789 208.868 52.2384L208.713 48.3847Z" fill="white"/>
<path d="M216.889 54.4751C216.924 54.5107 216.952 54.5529 216.971 54.5993C216.99 54.6457 217 54.6955 217 54.7456C216.999 54.7958 216.989 54.8455 216.97 54.8918C216.951 54.9381 216.922 54.9801 216.887 55.0154L215.455 56.4373C215.419 56.4727 215.377 56.5007 215.331 56.5197C215.284 56.5388 215.234 56.5485 215.184 56.5483C215.134 56.5481 215.084 56.5381 215.038 56.5187C214.992 56.4994 214.95 56.4711 214.914 56.4355L213.509 55.0205C213.474 54.9849 213.446 54.9427 213.427 54.8963C213.408 54.8498 213.398 54.8001 213.398 54.7499C213.399 54.6998 213.409 54.6501 213.428 54.6038C213.447 54.5575 213.476 54.5155 213.511 54.4801L214.943 53.0583C214.979 53.0229 215.021 52.9949 215.067 52.9759C215.114 52.9568 215.164 52.9471 215.214 52.9473C215.264 52.9474 215.314 52.9575 215.36 52.9769C215.406 52.9962 215.448 53.0245 215.484 53.0601L216.889 54.4751Z" fill="white"/>
<path d="M204.477 64.5972C204.477 64.7555 204.414 64.9074 204.302 65.0194C204.19 65.1313 204.038 65.1942 203.88 65.1942H8.6151C8.45675 65.1942 8.3049 65.1313 8.19293 65.0194C8.08097 64.9074 8.01807 64.7555 8.01807 64.5972V63.3793C8.01807 63.2209 8.08097 63.0691 8.19293 62.9571C8.3049 62.8451 8.45675 62.7822 8.6151 62.7822H203.88C204.038 62.7822 204.19 62.8451 204.302 62.9571C204.414 63.0691 204.477 63.2209 204.477 63.3793V64.5972Z" fill="white"/>
</svg>
