<svg width="114" height="146" viewBox="0 0 114 146" fill="none" xmlns="http://www.w3.org/2000/svg">
<path d="M20.5959 7.85987C20.3625 7.87694 20.1278 7.84667 19.9054 7.77079C19.683 7.69491 19.4771 7.5749 19.2995 7.41763C19.122 7.26035 18.9762 7.06887 18.8706 6.85414C18.7649 6.6394 18.7015 6.40561 18.6838 6.16612C18.6661 5.92662 18.6946 5.68611 18.7676 5.45831C18.8406 5.23051 18.9568 5.01988 19.1093 4.83846C19.2619 4.65704 19.448 4.50838 19.6569 4.40096C19.8658 4.29353 20.0935 4.22946 20.3269 4.21239C20.5603 4.19532 20.795 4.22559 21.0174 4.30147C21.2398 4.37735 21.4457 4.49736 21.6233 4.65464C21.8008 4.81192 21.9466 5.00339 22.0522 5.21812C22.1579 5.43286 22.2214 5.66665 22.239 5.90615C22.2567 6.14564 22.2282 6.38616 22.1552 6.61396C22.0822 6.84176 21.966 7.05238 21.8135 7.2338C21.6609 7.41522 21.4748 7.56388 21.2659 7.67131C21.057 7.77873 20.8293 7.8428 20.5959 7.85987Z" fill="#45ABB7"/>
<path d="M21.5867 12.7804C21.7599 11.0257 23.3828 9.44521 25.1112 9.11853C26.5957 8.83748 27.8478 9.21313 28.8675 10.2455C29.8581 11.2483 30.4171 12.7831 30.057 14.1437C29.4338 16.4997 26.6397 17.8731 24.3936 16.9733C22.6763 16.2862 21.3988 14.6848 21.5867 12.7804Z" fill="#45ABB7"/>
<path d="M37.3256 22.6621C36.7748 24.3046 35.0511 25.4306 33.3328 25.1997C31.1151 24.9004 30.0356 23.1375 30.262 21.0269C30.4663 19.1124 32.1736 17.9709 34.0164 17.9855C35.304 17.9955 36.4449 18.9336 37.0442 20.0231C37.5269 20.9021 37.6206 21.7818 37.3256 22.6621Z" fill="#45ABB7"/>
<path d="M10.1978 26.906C11.1756 23.5234 14.1521 20.889 17.7636 20.6171C19.2903 20.5027 20.7003 20.7083 21.9937 21.2339C24.9198 22.4238 26.8726 25.2115 27.2107 28.3204C27.4111 30.1582 27.0531 31.8789 26.1367 33.4824C24.7356 35.9361 22.155 37.7292 19.2463 37.7922C18.526 37.8077 17.7819 37.8341 17.0699 37.7456C14.241 37.3943 11.8794 35.2518 10.6881 32.7305C9.7894 30.8277 9.62597 28.8862 10.1978 26.906Z" fill="#45ABB7"/>
<path d="M27.4735 56.4517C24.5035 62.6348 23.1454 69.4019 23.8794 76.2083C24.2771 79.8966 25.1871 83.4438 26.6094 86.8498C28.4886 91.3509 31.3041 95.3574 35.0558 98.8693C36.1628 99.9059 36.7832 101.253 36.7053 102.822C36.5706 105.512 36.6275 108.107 36.6577 110.799C36.662 111.201 36.6363 111.706 36.5807 112.315C36.5802 112.321 36.5782 112.327 36.5749 112.332C36.5716 112.337 36.567 112.341 36.5616 112.344C36.5563 112.347 36.5503 112.349 36.5441 112.349C36.538 112.349 36.532 112.347 36.5266 112.344C34.4916 111.233 32.5568 109.931 30.7222 108.437C20.5758 100.177 14.4369 87.4165 13.8696 74.4417C13.5214 66.481 15.2754 58.6472 18.8273 51.4978C19.0473 51.0543 19.2657 50.6385 19.4826 50.2504C19.7923 49.6974 20.069 49.1125 20.3898 48.5604C23.1262 43.8519 26.7258 39.7448 31.0118 36.2453C37.0802 31.2898 44.0063 28.0337 51.7902 26.477C59.1901 24.996 67.1729 25.4295 74.4839 27.5364C75.0912 27.7116 75.6706 27.8929 76.2223 28.0803C83.2175 30.4534 89.2455 34.3358 94.3065 39.7274C95.4178 40.9112 96.5584 42.1027 97.7283 43.3017C98.4147 44.0052 97.8557 44.4961 97.2766 44.9059C95.1957 46.3792 93.2963 47.8055 91.5784 49.1846C91.2265 49.4668 90.9507 49.6323 90.7509 49.681C90.3416 49.7807 89.9692 49.6204 89.6338 49.2001C85.8039 44.4016 80.9787 40.7783 75.1584 38.3304C74.6171 38.1029 74.0507 37.8884 73.4594 37.6871C70.7395 36.7627 68.0443 36.1906 65.2457 35.7708C61.8409 35.2604 58.4579 35.3024 55.0965 35.8967C52.4408 36.3667 49.8318 37.0574 47.3475 38.0055C38.6875 41.3124 31.4956 48.0805 27.4735 56.4517Z" fill="#135466"/>
<path d="M44.4419 46.4936C47.0124 44.7836 49.7506 43.5362 52.7866 42.9796C52.7929 42.9783 52.7993 42.9785 52.8054 42.9801C52.8116 42.9816 52.8173 42.9845 52.8222 42.9885C52.8271 42.9925 52.8311 42.9976 52.8338 43.0033C52.8365 43.009 52.8379 43.0152 52.8379 43.0215L52.837 60.0634C52.837 60.0767 52.8317 60.0895 52.8223 60.0989C52.8128 60.1083 52.8 60.1136 52.7866 60.1136L43.0682 60.1127C43.0505 60.1127 43.0335 60.1055 43.0209 60.0929C43.0084 60.0802 43.0013 60.063 43.0013 60.0451C43.0056 56.3483 42.997 52.6907 42.9757 49.0723C42.9683 47.8633 43.4898 47.1269 44.4419 46.4936Z" fill="#45ABB7"/>
<path d="M57.6633 60.5754L57.6642 43.0253C57.6642 43.02 57.6652 43.0148 57.6673 43.0099C57.6693 43.005 57.6722 43.0006 57.676 42.9969C57.6797 42.9931 57.6842 42.9902 57.6891 42.9882C57.694 42.9861 57.6992 42.9851 57.7045 42.9851H81.4273C81.438 42.9851 81.4483 42.9893 81.4558 42.9969C81.4634 43.0044 81.4676 43.0146 81.4676 43.0253V60.3436C81.4676 60.3542 81.4719 60.3645 81.4795 60.372C81.487 60.3795 81.4973 60.3837 81.508 60.3837H98.9324C98.9431 60.3837 98.9533 60.388 98.9609 60.3955C98.9684 60.403 98.9727 60.4132 98.9727 60.4239V83.9783C98.9727 83.9889 98.9684 83.9991 98.9609 84.0066C98.9533 84.0142 98.9431 84.0184 98.9324 84.0184H81.5061C81.4954 84.0184 81.4852 84.0226 81.4776 84.0302C81.4701 84.0377 81.4658 84.0479 81.4658 84.0586L81.4667 101.541C81.4667 101.546 81.4657 101.552 81.4637 101.557C81.4616 101.561 81.4587 101.566 81.4549 101.57C81.4512 101.573 81.4467 101.576 81.4418 101.578C81.4369 101.58 81.4317 101.581 81.4264 101.581L57.8438 101.582C57.8331 101.582 57.8228 101.578 57.8153 101.57C57.8077 101.563 57.8035 101.553 57.8035 101.542V84.179C57.8035 84.1684 57.7992 84.1581 57.7917 84.1506C57.7841 84.1431 57.7739 84.1389 57.7632 84.1389H40.2434C40.2328 84.1389 40.2225 84.1346 40.2149 84.1271C40.2074 84.1196 40.2031 84.1094 40.2031 84.0987V60.6548C40.2031 60.6495 40.2042 60.6443 40.2062 60.6394C40.2082 60.6345 40.2112 60.6301 40.2149 60.6264C40.2187 60.6226 40.2231 60.6197 40.228 60.6177C40.2329 60.6156 40.2382 60.6146 40.2434 60.6146L57.6229 60.6155C57.6336 60.6155 57.6439 60.6113 57.6515 60.6038C57.659 60.5962 57.6633 60.586 57.6633 60.5754Z" fill="#929292"/>
<path d="M75.4857 106.399C77.7693 105.414 80.024 104.151 82.2496 102.61C85.2731 100.516 87.8491 98.084 89.9776 95.3125C90.4386 94.7111 90.9032 94.6336 91.5025 95.0834C93.5546 96.6225 95.9874 98.4055 98.8007 100.433C98.8113 100.44 98.8201 100.45 98.8265 100.461C98.8329 100.472 98.8368 100.485 98.8378 100.498C98.8389 100.511 98.8371 100.524 98.8326 100.536C98.828 100.548 98.8209 100.559 98.8117 100.568C98.4519 100.926 98.092 101.302 97.7322 101.696C96.4107 103.147 95.2002 104.437 94.1005 105.567C90.0836 109.694 85.3886 112.928 80.0154 115.268C78.2578 116.034 76.4763 116.661 74.671 117.15C73.6611 117.424 72.6485 117.7 71.6331 117.978C67.8402 119.018 63.9464 119.49 60.015 119.367C57.586 119.291 55.2382 119.072 52.9716 118.712C51.5274 118.481 50.084 118.147 48.6416 117.71C47.8407 117.466 47.0617 117.179 46.2837 116.907C45.5946 116.666 44.9165 116.527 44.2429 116.354C43.3494 116.124 42.9874 115.414 42.9893 114.565C43.0119 104.514 43.014 94.5542 42.9957 84.6846C42.9957 84.6722 43.0006 84.6604 43.0094 84.6517C43.0181 84.6429 43.03 84.638 43.0424 84.638C46.3402 84.6307 49.5601 84.6307 52.7022 84.638C52.7339 84.6387 52.7648 84.6435 52.7947 84.6526C52.8228 84.6618 52.8369 84.6809 52.8369 84.7101C52.8387 92.001 52.8378 99.246 52.8341 106.445C52.8341 106.937 52.8598 107.392 52.9111 107.811C53.0183 108.682 53.7542 108.867 54.4791 108.966C57.6193 109.396 60.6904 109.5 63.6925 109.278C67.8121 108.974 71.7431 108.014 75.4857 106.399Z" fill="#45ABB7"/>
<path d="M14.4093 132.038C14.6577 129.711 16.1221 127.767 18.6825 128.05C20.4988 128.251 21.5316 129.592 21.7845 131.338C21.7894 131.375 21.7735 131.395 21.7368 131.398L20.2541 131.546C20.2144 131.55 20.1912 131.533 20.1845 131.494C20.0314 130.644 19.5485 129.608 18.5808 129.462C15.9186 129.063 16.0488 133.248 16.4291 134.675C16.6967 135.68 17.4289 136.514 18.5588 136.372C19.4853 136.257 20.1029 135.329 20.1964 134.435C20.1971 134.428 20.1991 134.422 20.2022 134.416C20.2054 134.41 20.2098 134.405 20.215 134.401C20.2202 134.397 20.2261 134.394 20.2325 134.392C20.2389 134.39 20.2457 134.39 20.2523 134.39L21.7414 134.555C21.7793 134.559 21.7958 134.58 21.7909 134.618C21.604 136.174 20.6005 137.455 19.0353 137.755C18.381 137.881 17.745 137.865 17.1274 137.708C16.4321 137.532 15.8462 137.114 15.3697 136.454C14.4826 135.223 14.2462 133.558 14.4093 132.038Z" fill="#135466"/>
<path d="M63.2698 136.122L67.1956 136.123C67.2414 136.123 67.2647 136.146 67.2653 136.192L67.2708 137.65C67.2708 137.659 67.2671 137.668 67.2606 137.675C67.254 137.682 67.2452 137.685 67.2359 137.685L61.4425 137.681C61.433 137.681 61.4237 137.679 61.4151 137.675C61.4065 137.671 61.3988 137.665 61.3926 137.658C61.3864 137.651 61.3817 137.643 61.3789 137.634C61.3762 137.625 61.3753 137.616 61.3765 137.607C61.3863 137.524 61.3911 137.442 61.3911 137.36C61.4003 134.271 61.4003 131.229 61.3911 128.235C61.3911 128.199 61.4086 128.182 61.4434 128.182H63.1552C63.1606 128.182 63.166 128.183 63.171 128.185C63.176 128.187 63.1805 128.19 63.1844 128.193C63.1882 128.197 63.1912 128.202 63.1933 128.206C63.1954 128.211 63.1965 128.217 63.1965 128.222L63.1937 136.046C63.1937 136.067 63.2017 136.086 63.216 136.1C63.2303 136.114 63.2496 136.122 63.2698 136.122Z" fill="#45ABB7"/>
<path d="M27.2758 136.405C26.9707 137.111 26.3961 137.61 25.6446 137.766C24.6485 137.972 23.6222 137.766 23.0045 136.93C22.7339 136.564 22.6043 136.121 22.616 135.603C22.6664 133.333 25.6291 133.179 27.2786 133.235C27.2878 133.235 27.297 133.234 27.3056 133.23C27.3142 133.227 27.322 133.222 27.3287 133.216C27.3353 133.209 27.3407 133.202 27.3443 133.193C27.348 133.185 27.3499 133.176 27.3501 133.167C27.3574 132.501 27.3473 131.886 26.5592 131.685C25.8756 131.511 24.8162 131.551 24.3892 132.204C24.2975 132.343 24.2627 132.492 24.2059 132.645C24.1925 132.68 24.1671 132.695 24.1298 132.69L22.89 132.522C22.8551 132.518 22.8405 132.498 22.846 132.464C23.1429 130.466 25.8499 130.273 27.384 130.631C28.0539 130.787 28.6697 131.318 28.8108 131.981C28.8743 132.281 28.9046 132.598 28.9015 132.932C28.8924 134.043 28.893 135.171 28.9034 136.317C28.9082 136.779 28.9742 137.22 29.1013 137.641C29.1029 137.646 29.1032 137.651 29.1023 137.657C29.1013 137.662 29.0991 137.667 29.0958 137.672C29.0925 137.676 29.0882 137.679 29.0832 137.682C29.0783 137.684 29.0729 137.685 29.0674 137.685L27.6103 137.684C27.6027 137.684 27.5953 137.681 27.5892 137.677C27.5831 137.672 27.5786 137.665 27.5764 137.658C27.4616 137.26 27.3879 136.847 27.3556 136.418C27.347 136.305 27.3204 136.301 27.2758 136.405ZM24.2737 135.36C24.1473 136.005 24.5899 136.535 25.2359 136.6C26.2849 136.704 26.9603 136.277 27.2621 135.318C27.3748 134.959 27.3391 134.539 27.3446 134.161C27.3447 134.155 27.3435 134.148 27.3411 134.142C27.3386 134.136 27.335 134.131 27.3304 134.126C27.3258 134.121 27.3203 134.118 27.3142 134.115C27.3082 134.112 27.3017 134.111 27.2951 134.111C26.397 134.099 24.5037 134.182 24.2737 135.36Z" fill="#135466"/>
<path d="M32.3202 132.158C32.8178 131.129 33.4858 130.384 34.6918 130.51C35.1647 130.56 35.5764 130.729 35.9271 131.018C36.5842 131.558 36.6676 132.457 36.6694 133.283C36.6712 134.706 36.6706 136.156 36.6676 137.634C36.6676 137.67 36.6495 137.688 36.6135 137.688L35.1161 137.678C35.1029 137.678 35.0903 137.672 35.081 137.663C35.0718 137.654 35.0666 137.641 35.0666 137.628C35.0764 136.244 35.0758 134.824 35.0648 133.365C35.0623 133.05 35.0367 132.823 34.9878 132.682C34.7853 132.094 34.2483 131.772 33.6352 131.952C32.7151 132.222 32.4219 133.118 32.4191 133.999C32.4155 135.136 32.4145 136.348 32.4164 137.635C32.4164 137.647 32.4115 137.659 32.4027 137.668C32.3939 137.677 32.382 137.682 32.3696 137.682H30.853C30.828 137.682 30.8154 137.669 30.8154 137.644V130.693C30.8154 130.663 30.8304 130.648 30.8603 130.648L32.212 130.647C32.2585 130.647 32.2817 130.67 32.2817 130.716L32.2725 132.147C32.2719 132.222 32.2878 132.226 32.3202 132.158Z" fill="#135466"/>
<path d="M42.8055 136.38C42.3693 137.271 41.7278 137.768 40.6712 137.831C39.1619 137.922 37.9733 136.965 38.1419 135.37C38.361 133.308 41.2687 133.18 42.8018 133.232C42.8083 133.232 42.8148 133.231 42.8209 133.229C42.827 133.227 42.8326 133.223 42.8374 133.219C42.8421 133.215 42.846 133.209 42.8487 133.203C42.8514 133.198 42.8529 133.191 42.8532 133.185C42.8825 132.552 42.8614 131.924 42.1301 131.708C41.634 131.563 41.1276 131.56 40.6107 131.699C40.133 131.829 39.8351 132.142 39.7172 132.64C39.7133 132.657 39.7031 132.672 39.6887 132.682C39.6742 132.691 39.6566 132.695 39.6393 132.693L38.394 132.519C38.3811 132.517 38.3696 132.51 38.3619 132.499C38.3542 132.489 38.3509 132.476 38.3527 132.463C38.4303 131.945 38.6845 131.515 39.1152 131.172C39.9527 130.504 41.1221 130.445 42.2034 130.52C43.4846 130.608 44.3854 131.249 44.3964 132.624C44.4061 133.884 44.4068 135.023 44.3982 136.044C44.3933 136.568 44.4617 137.101 44.6035 137.644C44.6047 137.649 44.6049 137.654 44.604 137.658C44.6031 137.663 44.6011 137.667 44.5981 137.671C44.5952 137.675 44.5914 137.678 44.5871 137.68C44.5828 137.682 44.578 137.683 44.5732 137.683L43.1382 137.679C43.1009 137.679 43.0777 137.661 43.0685 137.625C42.964 137.222 42.8944 136.811 42.8596 136.39C42.8541 136.322 42.836 136.319 42.8055 136.38ZM42.6717 135.595C42.8916 135.126 42.8577 134.643 42.8541 134.146C42.8541 134.122 42.8422 134.11 42.8183 134.11C41.9019 134.105 39.8061 134.189 39.764 135.525C39.7456 136.077 40.1205 136.506 40.6712 136.589C41.5354 136.721 42.2813 136.429 42.6717 135.595Z" fill="#135466"/>
<path d="M47.7658 132.148C47.7652 132.313 47.7914 132.317 47.8446 132.161C48.158 131.239 48.8453 130.446 49.8707 130.49C49.8863 130.491 49.901 130.498 49.9117 130.509C49.9225 130.52 49.9285 130.535 49.9285 130.551L49.9266 132.106C49.9266 132.123 49.92 132.14 49.9082 132.152C49.8964 132.164 49.8803 132.171 49.8634 132.171C49.2009 132.182 48.5859 132.375 48.2808 133.012C48.0486 133.495 47.931 133.947 47.928 134.368C47.9206 135.421 47.92 136.506 47.9261 137.622C47.9261 137.663 47.9057 137.684 47.8647 137.684L46.3783 137.68C46.3429 137.68 46.3252 137.662 46.3252 137.627V130.693C46.3252 130.681 46.3299 130.669 46.3383 130.661C46.3468 130.652 46.3582 130.647 46.3701 130.647H47.7126C47.7517 130.647 47.771 130.667 47.7704 130.707L47.7658 132.148Z" fill="#135466"/>
<path d="M104 131.925C103.719 132.203 103.709 132.657 104.063 132.872C104.273 132.999 104.504 133.087 104.756 133.135C105.339 133.247 105.903 133.365 106.45 133.49C107.606 133.753 108.16 134.479 108.11 135.668C108.053 137.019 106.819 137.668 105.628 137.801C104.28 137.952 102.528 137.613 102.058 136.12C102.056 136.112 102.055 136.103 102.056 136.094C102.057 136.085 102.06 136.076 102.065 136.068C102.07 136.061 102.076 136.054 102.083 136.049C102.091 136.044 102.099 136.04 102.108 136.038L103.44 135.795C103.467 135.79 103.494 135.794 103.518 135.806C103.541 135.818 103.561 135.838 103.572 135.862C103.784 136.306 104.153 136.562 104.681 136.63C105.258 136.704 106.318 136.68 106.503 135.987C106.642 135.463 106.22 135.159 105.766 135.071C105.304 134.982 104.838 134.893 104.37 134.804C103.543 134.648 102.637 134.199 102.408 133.346C102.09 132.167 102.698 131.025 103.858 130.662C104.466 130.472 105.142 130.441 105.886 130.569C106.828 130.731 107.447 131.231 107.746 132.067C107.76 132.108 107.746 132.133 107.703 132.141L106.401 132.386C106.358 132.394 106.329 132.378 106.314 132.338C106.04 131.623 105.322 131.599 104.657 131.666C104.363 131.695 104.144 131.782 104 131.925Z" fill="#45ABB7"/>
<path d="M72.2704 130.634C73.4571 130.98 74.313 132.08 74.4972 133.346C74.697 134.72 74.4258 136.195 73.2931 137.12C72.5716 137.708 71.694 137.933 70.6603 137.795C68.4747 137.504 67.7168 135.032 68.0852 133.173C68.4802 131.184 70.3606 130.077 72.2704 130.634ZM70.0289 132.532C69.8975 132.78 69.8102 133.031 69.7668 133.283C69.6028 134.225 69.6128 135.556 70.3661 136.223C70.861 136.661 71.6949 136.634 72.187 136.245C72.5297 135.975 72.7084 135.525 72.7845 135.104C72.9522 134.169 72.9705 132.262 71.8278 131.872C71.1313 131.633 70.3716 131.881 70.0289 132.532Z" fill="#45ABB7"/>
<path d="M80.1467 133.081C80.1435 133.081 80.1402 133.081 80.137 133.08C80.1339 133.08 80.1309 133.078 80.1284 133.076C80.1258 133.074 80.1237 133.072 80.1221 133.069C80.1205 133.066 80.1195 133.063 80.1192 133.06C80.0385 132.295 79.5675 131.742 78.7482 131.79C77.1784 131.881 77.1546 134.216 77.4149 135.316C77.5313 135.809 77.8584 136.27 78.3734 136.415C79.2871 136.673 79.8827 136.034 80.1091 135.197C80.1195 135.159 80.1445 135.142 80.1842 135.146L81.425 135.275C81.4337 135.276 81.4421 135.279 81.4497 135.284C81.4572 135.288 81.4638 135.294 81.469 135.301C81.4742 135.308 81.4778 135.316 81.4797 135.324C81.4816 135.332 81.4817 135.341 81.48 135.349C81.3762 135.87 81.1969 136.315 80.9421 136.687C80.2832 137.649 79.1038 137.994 77.9794 137.775C75.8093 137.352 75.2815 134.675 75.7489 132.906C76.0412 131.8 76.8641 130.816 78.0087 130.579C79.7572 130.216 81.1822 131.019 81.4782 132.83C81.4796 132.839 81.4793 132.847 81.4772 132.856C81.4752 132.864 81.4715 132.873 81.4663 132.88C81.461 132.887 81.4545 132.893 81.4469 132.897C81.4394 132.902 81.431 132.904 81.4223 132.906L80.1467 133.081Z" fill="#45ABB7"/>
<path d="M92.0385 132.032C92.5462 131.025 93.3435 130.446 94.4926 130.504C95.4823 130.553 96.0542 131.14 96.3373 132.044C96.3569 132.107 96.3828 132.11 96.4152 132.052C96.9733 131.04 97.7944 130.402 98.9876 130.512C99.9034 130.597 100.525 131.06 100.853 131.903C100.95 132.152 100.998 132.488 100.997 132.912C100.994 134.418 100.994 135.986 100.997 137.614C100.997 137.633 100.99 137.651 100.977 137.664C100.963 137.678 100.945 137.685 100.927 137.685L99.4036 137.688C99.3921 137.688 99.3807 137.686 99.3701 137.681C99.3595 137.677 99.3498 137.67 99.3417 137.662C99.3336 137.654 99.3272 137.644 99.3229 137.634C99.3186 137.623 99.3164 137.612 99.3165 137.6C99.3208 136.168 99.3202 134.716 99.3147 133.246C99.312 132.634 99.0893 132.051 98.4075 131.953C97.0448 131.758 96.5637 132.807 96.5545 133.951C96.5447 135.221 96.5441 136.45 96.5527 137.64C96.5527 137.651 96.5484 137.661 96.5407 137.669C96.533 137.677 96.5225 137.681 96.5115 137.682L94.9224 137.688C94.8827 137.689 94.8629 137.669 94.8629 137.63C94.8598 136.223 94.8598 134.802 94.8629 133.366C94.8635 133.022 94.8091 132.72 94.6997 132.461C94.4505 131.874 93.6761 131.791 93.1657 132.01C92.4032 132.337 92.0871 133.13 92.0862 133.938C92.0843 135.291 92.0834 136.517 92.0834 137.617C92.0834 137.666 92.0587 137.691 92.0092 137.691L90.5173 137.693C90.4654 137.693 90.4394 137.668 90.4394 137.616L90.4385 130.682C90.4385 130.673 90.4419 130.664 90.4481 130.658C90.4543 130.652 90.4627 130.648 90.4715 130.648L91.9148 130.647C91.9331 130.647 91.9507 130.654 91.9637 130.667C91.9768 130.68 91.9842 130.697 91.9844 130.716L91.9881 132.02C91.9881 132.095 92.0049 132.099 92.0385 132.032Z" fill="#45ABB7"/>
<path d="M53.9652 135.183L55.3948 130.704C55.407 130.665 55.4332 130.646 55.4736 130.646L56.6337 130.648C56.6398 130.648 56.6458 130.649 56.6512 130.652C56.6566 130.655 56.6613 130.659 56.6648 130.664C56.6683 130.669 56.6706 130.674 56.6714 130.68C56.6722 130.686 56.6715 130.693 56.6695 130.698C55.758 133.342 54.8367 136.016 53.9056 138.719C53.638 139.495 53.1239 140.142 52.2304 140.181C51.8688 140.197 51.5101 140.188 51.1546 140.152C51.1161 140.148 51.0968 140.127 51.0968 140.089L51.0941 138.949C51.0941 138.905 51.1164 138.883 51.161 138.884C51.6064 138.898 52.1141 138.951 52.5118 138.785C52.8527 138.643 53.0332 138.089 53.1001 137.755C53.1135 137.688 53.1086 137.623 53.0854 137.559C52.2497 135.287 51.4069 132.999 50.5571 130.696C50.5455 130.663 50.5571 130.647 50.5919 130.647H52.1626C52.1799 130.647 52.1967 130.652 52.2108 130.662C52.2249 130.672 52.2356 130.686 52.2414 130.702L53.8891 135.185C53.916 135.259 53.9413 135.258 53.9652 135.183Z" fill="#135466"/>
<path d="M87.0282 136.463C87.0331 136.23 86.9922 136.222 86.9054 136.438C86.4344 137.615 85.1579 138.13 83.9565 137.694C83.0144 137.35 82.6873 136.477 82.6882 135.552C82.6894 133.844 82.6879 132.227 82.6836 130.701C82.6836 130.688 82.6889 130.675 82.6984 130.666C82.7078 130.656 82.7206 130.651 82.734 130.651L84.2561 130.647C84.2744 130.647 84.2918 130.654 84.3047 130.667C84.3176 130.68 84.3249 130.698 84.3249 130.716C84.3304 132.13 84.3294 133.604 84.3221 135.137C84.3194 135.746 84.4193 136.219 85.0543 136.388C85.2877 136.449 85.5278 136.431 85.7746 136.333C86.3422 136.109 86.6828 135.717 86.7964 135.16C86.8721 134.787 86.9103 134.377 86.9109 133.929C86.9122 132.825 86.9119 131.745 86.91 130.691C86.91 130.681 86.914 130.672 86.921 130.665C86.9281 130.658 86.9376 130.654 86.9476 130.654L88.4322 130.648C88.4411 130.648 88.4501 130.65 88.4584 130.653C88.4667 130.656 88.4743 130.661 88.4807 130.668C88.4871 130.674 88.4922 130.681 88.4956 130.69C88.4991 130.698 88.5009 130.707 88.5009 130.716V137.635C88.5009 137.67 88.4832 137.687 88.4477 137.687L87.0942 137.684C87.0826 137.684 87.0712 137.682 87.0605 137.678C87.0498 137.673 87.0401 137.667 87.032 137.658C87.0239 137.65 87.0175 137.64 87.0133 137.63C87.009 137.619 87.0069 137.607 87.0072 137.596L87.0282 136.463Z" fill="#45ABB7"/>
</svg>
