<svg width="309" height="87" viewBox="0 0 309 87" fill="none" xmlns="http://www.w3.org/2000/svg">
<g filter="url(#filter0_d_256_2)">
<g clip-path="url(#clip0_256_2)">
<path d="M63.5685 18.0904C63.9816 18.0907 64.3947 18.0903 64.8079 18.0901C65.6052 18.0897 66.4026 18.0898 67.2 18.0901C67.8514 18.0903 68.5029 18.0903 69.1544 18.0902C69.2492 18.0902 69.344 18.0902 69.4417 18.0901C69.6347 18.0901 69.8276 18.0901 70.0206 18.0901C71.8053 18.0898 73.5901 18.0901 75.3749 18.0906C76.8868 18.0909 78.3988 18.0909 79.9107 18.0905C81.6917 18.09 83.4726 18.0899 85.2536 18.0901C85.4456 18.0901 85.6376 18.0902 85.8296 18.0902C85.924 18.0902 86.0183 18.0902 86.1155 18.0902C86.7617 18.0903 87.4079 18.0902 88.0542 18.09C88.8481 18.0897 89.642 18.0898 90.4359 18.0903C90.8364 18.0905 91.2369 18.0906 91.6373 18.0903C95.164 18.0883 98.6887 18.1441 102.215 18.1861C102.215 34.5112 102.215 50.8364 102.215 67.6563C94.0253 67.7538 94.0253 67.7538 91.4155 67.7519C91.0024 67.7517 90.5893 67.752 90.1761 67.7523C89.3788 67.7526 88.5814 67.7525 87.784 67.7523C87.1326 67.7521 86.4811 67.7521 85.8296 67.7522C85.7348 67.7522 85.64 67.7522 85.5423 67.7522C85.3494 67.7522 85.1564 67.7523 84.9635 67.7523C83.1787 67.7525 81.3939 67.7523 79.6091 67.7518C78.0972 67.7514 76.5852 67.7515 75.0733 67.7519C73.2923 67.7523 71.5114 67.7525 69.7304 67.7523C69.5384 67.7522 69.3464 67.7522 69.1544 67.7522C69.0601 67.7522 68.9657 67.7522 68.8685 67.7521C68.2223 67.7521 67.5761 67.7522 66.9299 67.7524C66.1359 67.7526 65.342 67.7525 64.5481 67.7521C64.1476 67.7519 63.7471 67.7518 63.3467 67.7521C59.8201 67.754 56.2953 67.6983 52.7686 67.6563C52.7686 51.3311 52.7686 35.0059 52.7686 18.1861C60.9588 18.0885 60.9588 18.0885 63.5685 18.0904Z" fill="#FDFDFD"/>
<path d="M95.1151 18.186C97.4581 18.186 99.8011 18.186 102.215 18.186C102.215 34.5112 102.215 50.8364 102.215 67.6563C99.8721 67.6563 97.5291 67.6563 95.1151 67.6563C95.0872 67.6284 95.0593 67.6005 95.0306 67.5717C95.0306 66.1206 95.0306 64.6694 95.0306 63.1744C87.2763 63.1744 79.522 63.1744 71.5327 63.1744C71.5327 57.7605 71.5327 52.3467 71.5327 46.7688C78.4223 46.7688 85.3119 46.7688 92.4103 46.7688C92.4103 43.9503 92.4103 41.1318 92.4103 38.2278C85.5207 38.2278 78.6311 38.2278 71.5327 38.2278C71.5327 33.4838 71.5327 28.7397 71.5327 23.8519C79.3149 23.8519 87.0971 23.8519 95.1151 23.8519C95.1151 21.9821 95.1151 20.1124 95.1151 18.186Z" fill="#245478"/>
<path d="M52.7686 18.186C55.1116 18.186 57.4546 18.186 59.8686 18.186C59.8686 34.5112 59.8686 50.8364 59.8686 67.6563C57.5256 67.6563 55.1826 67.6563 52.7686 67.6563C52.7686 51.3311 52.7686 35.0059 52.7686 18.186Z" fill="#235377"/>
<path d="M46.9365 12.3511C67.1033 12.3511 87.27 12.3511 108.048 12.3511C108.048 32.5273 108.048 52.7036 108.048 73.4912C87.8811 73.4912 67.7144 73.4912 46.9365 73.4912C46.9365 53.315 46.9365 33.1387 46.9365 12.3511ZM48.2044 13.6195C48.2044 32.9586 48.2044 52.2977 48.2044 72.2227C67.5343 72.2227 86.8643 72.2227 106.78 72.2227C106.78 52.8837 106.78 33.5446 106.78 13.6195C87.45 13.6195 68.1201 13.6195 48.2044 13.6195Z" fill="#245377"/>
<path d="M171.504 46.8214C171.564 46.8214 171.623 46.8215 171.685 46.8215C173.847 46.8291 176.156 47.1589 178.203 47.8678C177.987 48.6411 177.708 49.3889 177.429 50.1409C177.346 50.3642 177.264 50.5876 177.181 50.8111C177.129 50.9531 177.076 51.0952 177.024 51.2372C176.987 51.3374 176.987 51.3374 176.949 51.4395C176.776 51.9072 176.776 51.9072 176.681 52.0961C176.4 52.0463 176.15 51.9773 175.886 51.8672C175.817 51.8386 175.748 51.8101 175.676 51.7806C175.603 51.7504 175.531 51.7202 175.456 51.6891C174.801 51.4228 174.154 51.1758 173.469 50.9967C173.4 50.9778 173.33 50.9588 173.258 50.9393C171.466 50.5309 169.389 50.8389 167.822 51.7842C166.231 52.8615 165.551 54.6743 165.186 56.4934C164.572 59.9109 164.499 64.5568 166.519 67.539C167.413 68.7405 168.738 69.3452 170.19 69.5734C172.113 69.797 173.638 69.5326 175.413 68.7553C175.441 66.8856 175.469 65.0158 175.498 63.0895C173.657 63.0895 171.816 63.0895 169.919 63.0895C169.919 61.7779 169.919 60.4663 169.919 59.1149C173.239 59.1149 176.558 59.1149 179.978 59.1149C179.978 63.1613 179.978 67.2077 179.978 71.3768C177.639 72.5935 175.588 73.4948 172.972 73.511C172.866 73.5117 172.76 73.5124 172.651 73.5131C172.427 73.5143 172.203 73.5152 171.979 73.5159C171.752 73.5166 171.526 73.5185 171.3 73.5211C168.275 73.5546 165.413 72.9548 163.149 70.8167C160.437 68.1537 159.704 64.2047 159.662 60.5421C159.638 56.9986 160.151 53.3063 162.481 50.4893C162.568 50.3818 162.568 50.3818 162.656 50.272C164.815 47.7247 168.284 46.8118 171.504 46.8214Z" fill="#959799"/>
<path d="M191.304 47.3608C192.838 47.3608 194.372 47.3608 195.953 47.3608C196.209 47.9754 196.462 48.5872 196.697 49.2094C196.726 49.2869 196.756 49.3645 196.786 49.4443C196.884 49.7011 196.981 49.958 197.078 50.2149C197.149 50.4011 197.219 50.5872 197.29 50.7734C197.936 52.4794 198.576 54.1878 199.216 55.8964C200.047 58.1151 200.882 60.3322 201.717 62.549C202.053 63.4389 202.388 64.3289 202.723 65.219C202.869 65.6089 203.016 65.9987 203.163 66.3886C203.278 66.6955 203.394 67.0023 203.509 67.3092C203.617 67.5949 203.724 67.8805 203.832 68.1661C203.873 68.2772 203.915 68.3883 203.957 68.4995C204.207 69.1629 204.459 69.8252 204.714 70.4865C204.765 70.62 204.817 70.7536 204.868 70.8871C204.967 71.1435 205.066 71.3996 205.166 71.6555C205.211 71.7715 205.255 71.8874 205.3 72.0034C205.34 72.1051 205.379 72.2069 205.42 72.3117C205.504 72.5611 205.504 72.5611 205.504 72.8148C203.663 72.8148 201.822 72.8148 199.926 72.8148C199.377 71.1754 199.377 71.1754 199.145 70.4783C198.985 70.002 198.826 69.5258 198.667 69.0496C198.539 68.6659 198.41 68.282 198.282 67.8982C198.233 67.7515 198.184 67.6048 198.135 67.4582C198.066 67.2533 197.998 67.0484 197.93 66.8434C197.909 66.7823 197.889 66.7213 197.868 66.6584C197.728 66.238 197.728 66.238 197.728 66.0496C194.743 66.0496 191.759 66.0496 188.684 66.0496C188.628 66.3007 188.572 66.5519 188.515 66.8107C188.459 66.9909 188.401 67.1702 188.338 67.3481C188.286 67.4959 188.286 67.4959 188.234 67.6466C188.197 67.7508 188.16 67.8549 188.122 67.9622C188.083 68.0726 188.044 68.1831 188.006 68.2935C187.904 68.5827 187.802 68.8718 187.7 69.1608C187.618 69.3947 187.535 69.6288 187.453 69.8629C187.282 70.3505 187.111 70.838 186.939 71.3253C186.893 71.4539 186.893 71.4539 186.847 71.5852C186.7 71.9957 186.551 72.4051 186.402 72.8148C184.617 72.8148 182.831 72.8148 180.992 72.8148C181.575 71.2594 181.575 71.2594 181.835 70.6207C181.865 70.5469 181.894 70.473 181.925 70.3969C182.023 70.1563 182.12 69.9158 182.218 69.6753C182.288 69.5022 182.358 69.3291 182.428 69.156C183.045 67.634 183.664 66.1133 184.284 64.5926C184.752 63.444 185.219 62.2949 185.683 61.1449C186.27 59.6924 186.861 58.2414 187.452 56.7908C187.97 55.5192 188.487 54.247 189.001 52.9738C189.512 51.7077 190.027 50.443 190.543 49.179C190.594 49.0554 190.594 49.0554 190.645 48.9293C190.74 48.698 190.835 48.4668 190.929 48.2356C190.957 48.1663 190.986 48.0971 191.015 48.0258C191.21 47.5495 191.21 47.5495 191.304 47.3608ZM193.333 53.1112C193.307 53.1852 193.307 53.1852 193.28 53.2607C193.057 53.898 192.833 54.5353 192.609 55.1725C192.573 55.2752 192.537 55.3779 192.5 55.4838C191.957 57.0272 191.411 58.5691 190.858 60.1087C190.834 60.1774 190.809 60.246 190.784 60.3167C190.739 60.441 190.694 60.5653 190.65 60.6896C190.465 61.2053 190.294 61.7239 190.121 62.2442C192.213 62.2442 194.305 62.2442 196.46 62.2442C195.842 60.3274 195.215 58.4142 194.575 56.5047C194.521 56.3417 194.466 56.1788 194.411 56.0158C194.385 55.9371 194.359 55.8584 194.331 55.7773C194.192 55.3607 194.057 54.9432 193.927 54.5237C193.887 54.3944 193.887 54.3944 193.846 54.2624C193.795 54.097 193.744 53.9313 193.694 53.7654C193.671 53.6919 193.648 53.6183 193.625 53.5424C193.595 53.4448 193.595 53.4448 193.565 53.3452C193.514 53.1789 193.514 53.1789 193.333 53.1112Z" fill="#959799"/>
<path d="M140.675 47.3608C145.64 47.3608 150.605 47.3608 155.72 47.3608C155.72 48.6445 155.72 49.9282 155.72 51.2508C152.401 51.2508 149.082 51.2508 145.662 51.2508C145.662 53.3717 145.662 55.4926 145.662 57.6777C148.73 57.6777 151.798 57.6777 154.959 57.6777C154.959 58.9614 154.959 60.2451 154.959 61.5677C151.891 61.5677 148.823 61.5677 145.662 61.5677C145.662 63.9955 145.662 66.4234 145.662 68.9248C149.121 68.9248 152.579 68.9248 156.143 68.9248C156.143 70.2085 156.143 71.4922 156.143 72.8148C151.038 72.8148 145.934 72.8148 140.675 72.8148C140.675 64.415 140.675 56.0152 140.675 47.3608Z" fill="#959799"/>
<path d="M227.48 12.6895C239.711 12.6895 239.711 12.6895 242.009 14.8706C243.253 16.1849 243.681 18.0056 243.64 19.7724C243.526 21.7875 243.063 23.4986 241.596 24.9513C241.548 25.0017 241.499 25.052 241.449 25.1039C240.175 26.3225 238.276 26.5996 236.609 26.8117C236.644 26.8571 236.679 26.9025 236.714 26.9492C237.586 28.0874 238.443 29.235 239.289 30.3917C239.91 31.2392 240.538 32.0799 241.177 32.9142C241.547 33.3992 241.912 33.8879 242.272 34.3802C242.698 34.9611 243.13 35.5363 243.567 36.1085C243.624 36.1832 243.681 36.2579 243.739 36.3349C243.943 36.6013 244.146 36.8676 244.35 37.1334C244.461 37.2778 244.571 37.4225 244.681 37.5673C244.74 37.6435 244.798 37.7197 244.858 37.7982C244.977 37.9742 244.977 37.9742 244.977 38.1434C244.475 38.1707 243.973 38.1906 243.471 38.2038C243.3 38.2093 243.13 38.2167 242.959 38.2263C241.589 38.3012 241.589 38.3012 241.187 38.0439C240.883 37.7564 240.695 37.4098 240.497 37.044C240.404 36.9115 240.308 36.7803 240.21 36.6513C240.126 36.5339 240.042 36.4164 239.958 36.2988C239.608 35.8101 239.254 35.3252 238.891 34.8454C238.533 34.3705 238.182 33.891 237.835 33.4078C237.489 32.9266 237.14 32.4487 236.783 31.9754C236.066 31.0231 235.357 30.0648 234.661 29.0966C234.569 28.9691 234.476 28.8425 234.381 28.7166C234.121 28.3663 233.907 28.0289 233.736 27.6262C233.576 27.356 233.576 27.356 233.059 26.8963C232.194 26.8684 231.33 26.8405 230.439 26.8117C230.439 30.5512 230.439 34.2906 230.439 38.1434C229.463 38.1434 228.486 38.1434 227.48 38.1434C227.48 29.7436 227.48 21.3438 227.48 12.6895ZM230.439 15.0573C230.439 18.1828 230.439 21.3083 230.439 24.5285C231.757 24.5337 231.757 24.5337 233.101 24.5391C233.376 24.5406 233.65 24.5421 233.933 24.5437C234.155 24.5442 234.377 24.5446 234.599 24.545C234.682 24.5457 234.682 24.5457 234.767 24.5463C236.488 24.5593 238.094 24.4106 239.414 23.2072C240.401 22.175 240.609 20.7031 240.594 19.335C240.547 18.1806 240.224 17.0812 239.398 16.2412C238.477 15.4133 237.366 15.0456 236.139 15.0477C236.076 15.0476 236.013 15.0476 235.948 15.0476C235.746 15.0477 235.544 15.0483 235.342 15.049C235.217 15.0491 235.091 15.0492 234.966 15.0493C234.503 15.0497 234.04 15.0509 233.577 15.052C232.541 15.0537 231.506 15.0555 230.439 15.0573Z" fill="#235377"/>
<path d="M168.089 12.3228C168.177 12.3222 168.266 12.3217 168.358 12.3211C168.544 12.3202 168.731 12.3198 168.918 12.3198C169.198 12.3195 169.478 12.3164 169.758 12.3132C172.157 12.3005 174.5 12.8549 176.343 14.4653C176.4 14.51 176.457 14.5547 176.515 14.6007C178.891 16.5192 179.621 19.9403 179.938 22.8067C179.985 23.2814 179.993 23.7535 179.995 24.2302C179.995 24.3216 179.996 24.413 179.996 24.5071C179.997 24.7002 179.998 24.8933 179.998 25.0864C179.999 25.3742 180.001 25.6619 180.004 25.9497C180.012 27.5971 179.905 29.2527 179.497 30.855C179.476 30.9412 179.454 31.0275 179.432 31.1164C178.766 33.6824 177.391 36.0705 175.075 37.4668C173.534 38.3438 171.783 38.8256 170.008 38.8371C169.915 38.8379 169.915 38.8379 169.82 38.8389C167.174 38.8585 167.174 38.8585 165.947 38.5662C165.878 38.5503 165.81 38.5344 165.74 38.518C164.246 38.1551 162.848 37.5127 161.72 36.4521C161.605 36.3482 161.605 36.3482 161.488 36.2423C158.791 33.7021 158.27 29.7082 158.164 26.1899C158.09 23.1796 158.459 20.157 159.776 17.4251C159.816 17.342 159.856 17.2589 159.897 17.1733C160.917 15.1776 162.742 13.5904 164.868 12.88C165.929 12.5501 166.974 12.3253 168.089 12.3228ZM163.565 16.6897C161.585 19.0402 161.247 22.3192 161.265 25.2773C161.266 25.5432 161.265 25.8091 161.263 26.0751C161.26 28.8203 161.605 31.8394 163.326 34.0843C163.372 34.1453 163.418 34.2064 163.465 34.2692C164.546 35.6103 166.253 36.2978 167.924 36.5016C170.032 36.7141 172.277 36.4605 173.976 35.099C176.038 33.3257 176.662 30.6226 176.898 28.0168C176.957 27.2022 176.955 26.386 176.956 25.5697C176.956 25.4854 176.956 25.401 176.956 25.3142C176.955 23.9939 176.91 22.7031 176.681 21.3996C176.663 21.2938 176.663 21.2938 176.644 21.1859C176.281 19.1782 175.496 17.0221 173.752 15.8052C170.749 13.8879 166.099 14.0086 163.565 16.6897Z" fill="#235377"/>
<path d="M182.852 12.6895C183.828 12.6895 184.804 12.6895 185.81 12.6895C185.81 12.9025 185.811 13.1156 185.811 13.3351C185.816 15.348 185.822 17.361 185.83 19.374C185.834 20.4087 185.837 21.4435 185.839 22.4782C185.841 23.3809 185.844 24.2836 185.848 25.1863C185.85 25.6635 185.851 26.1407 185.852 26.618C185.852 27.0687 185.854 27.5195 185.857 27.9702C185.857 28.1342 185.858 28.2981 185.858 28.462C185.856 30.7358 186.041 33.3447 187.7 35.0749C189.275 36.4422 191.51 36.5667 193.502 36.4521C194.99 36.3157 196.41 35.8304 197.394 34.6561C199.12 32.2049 198.866 28.9661 198.869 26.1163C198.87 25.643 198.872 25.1697 198.875 24.6963C198.878 23.8033 198.881 22.9103 198.883 22.0173C198.885 20.9992 198.889 19.9811 198.892 18.9631C198.9 16.8719 198.906 14.7807 198.911 12.6895C199.887 12.6895 200.864 12.6895 201.87 12.6895C201.874 14.922 201.877 17.1545 201.878 19.3871C201.879 20.4238 201.88 21.4606 201.882 22.4973C201.884 23.4016 201.885 24.3059 201.885 25.2101C201.886 25.6883 201.886 26.1666 201.887 26.6448C201.889 27.0962 201.889 27.5475 201.889 27.9989C201.889 28.1634 201.889 28.3278 201.89 28.4923C201.895 29.8191 201.84 31.1506 201.553 32.4511C201.538 32.5167 201.524 32.5823 201.509 32.6499C201.057 34.6181 200.082 36.2845 198.421 37.4672C197.607 37.976 196.716 38.34 195.784 38.5662C195.681 38.5915 195.577 38.6168 195.471 38.6428C193.517 39.0574 191.134 39.0079 189.191 38.5662C189.128 38.5521 189.066 38.5381 189.002 38.5236C187.765 38.2311 186.603 37.7148 185.641 36.8749C185.559 36.8121 185.559 36.8121 185.475 36.7481C183.786 35.4095 183.177 33.0681 182.913 31.0303C182.824 30.2083 182.84 29.3841 182.842 28.5586C182.842 28.3852 182.842 28.2118 182.842 28.0383C182.842 27.5698 182.842 27.1013 182.843 26.6327C182.844 26.1422 182.844 25.6517 182.844 25.1613C182.844 24.2335 182.845 23.3057 182.845 22.3779C182.846 21.3212 182.847 20.2645 182.847 19.2078C182.848 17.035 182.85 14.8622 182.852 12.6895Z" fill="#235377"/>
<path d="M207.955 47.3608C209.601 47.3608 211.246 47.3608 212.942 47.3608C212.942 54.449 212.942 61.5372 212.942 68.8402C216.429 68.8402 219.915 68.8402 223.508 68.8402C223.508 70.1518 223.508 71.4634 223.508 72.8148C218.375 72.8148 213.243 72.8148 207.955 72.8148C207.955 64.415 207.955 56.0152 207.955 47.3608Z" fill="#959799"/>
<path d="M123.601 47.3608C125.246 47.3608 126.892 47.3608 128.588 47.3608C128.588 54.449 128.588 61.5372 128.588 68.8402C132.074 68.8402 135.561 68.8402 139.153 68.8402C139.153 70.1518 139.153 71.4634 139.153 72.8148C134.021 72.8148 128.888 72.8148 123.601 72.8148C123.601 64.415 123.601 56.0152 123.601 47.3608Z" fill="#959799"/>
<path d="M214.107 12.6797C214.209 12.6801 214.312 12.6806 214.417 12.681C214.527 12.6813 214.638 12.6816 214.751 12.6819C214.869 12.6826 214.986 12.6833 215.103 12.684C215.221 12.6844 215.339 12.6848 215.457 12.6852C215.746 12.6862 216.035 12.6876 216.324 12.6893C216.406 12.9076 216.488 13.1258 216.571 13.3441C216.645 13.5429 216.72 13.7417 216.795 13.9405C216.988 14.4517 217.181 14.963 217.373 15.4742C217.487 15.776 217.601 16.0777 217.714 16.3794C217.738 16.4406 217.761 16.5018 217.784 16.5649C218.068 17.3169 218.351 18.0689 218.635 18.8209C219.341 20.696 220.048 22.5711 220.754 24.4464C220.777 24.507 220.8 24.5676 220.824 24.63C221.056 25.2459 221.287 25.8619 221.519 26.4778C221.988 27.7234 222.458 28.9689 222.927 30.2143C223.664 32.1675 224.4 34.1207 225.134 36.0749C225.201 36.2544 225.269 36.4338 225.336 36.6132C225.428 36.8567 225.519 37.1002 225.611 37.3438C225.651 37.4517 225.651 37.4517 225.693 37.5618C225.875 38.049 225.875 38.049 225.875 38.1432C224.759 38.1432 223.644 38.1432 222.494 38.1432C222.39 37.8459 222.286 37.5487 222.178 37.2424C222.037 36.8397 221.896 36.437 221.754 36.0344C221.718 35.9307 221.682 35.827 221.644 35.7202C221.156 34.3307 220.664 32.9429 220.153 31.5617C220.097 31.4087 220.097 31.4087 220.039 31.2525C219.991 31.1221 219.991 31.1221 219.941 30.989C219.874 30.7861 219.874 30.7861 219.874 30.617C216.443 30.617 213.012 30.617 209.477 30.617C209.394 30.896 209.31 31.1751 209.224 31.4626C209.163 31.6361 209.1 31.8089 209.035 31.9807C209 32.0731 208.965 32.1655 208.929 32.2607C208.892 32.358 208.854 32.4554 208.816 32.5557C208.777 32.6591 208.737 32.7626 208.697 32.8692C208.593 33.1432 208.488 33.417 208.384 33.6908C208.28 33.9635 208.176 34.2363 208.072 34.5091C207.874 35.0313 207.675 35.5534 207.475 36.0754C207.306 36.521 207.136 36.9666 206.966 37.4122C206.874 37.6534 206.783 37.8947 206.688 38.1432C205.656 38.1432 204.624 38.1432 203.561 38.1432C203.719 37.6161 203.873 37.1211 204.084 36.6184C204.11 36.5562 204.136 36.4939 204.162 36.4298C204.218 36.2958 204.273 36.1618 204.329 36.028C204.482 35.6597 204.634 35.2909 204.786 34.9222C204.818 34.8456 204.849 34.769 204.882 34.6901C205.21 33.8961 205.532 33.0997 205.853 32.303C206.411 30.9224 206.971 29.5433 207.533 28.1646C208.113 26.7417 208.692 25.3182 209.267 23.8935C209.821 22.5221 210.379 21.1523 210.937 19.7827C211.579 18.2093 212.217 16.6347 212.852 15.0588C213.806 12.692 213.806 12.692 214.107 12.6797ZM214.887 16.4947C213.986 18.8145 213.088 21.1353 212.197 23.4588C211.874 24.3003 211.55 25.1413 211.221 25.9804C211.193 26.0528 211.164 26.1252 211.135 26.1998C211.004 26.5331 210.874 26.8663 210.742 27.1991C210.697 27.3141 210.652 27.429 210.606 27.5439C210.548 27.6912 210.548 27.6912 210.489 27.8415C210.393 28.078 210.393 28.078 210.407 28.3337C213.252 28.3337 216.097 28.3337 219.029 28.3337C218.906 27.7533 218.906 27.7533 218.738 27.1982C218.715 27.134 218.692 27.0697 218.669 27.0036C218.644 26.9356 218.619 26.8677 218.594 26.7977C218.567 26.7231 218.541 26.6486 218.513 26.5717C218.455 26.4093 218.397 26.247 218.339 26.0847C218.178 25.6361 218.018 25.1869 217.858 24.7377C217.823 24.6413 217.789 24.5449 217.754 24.4455C217.33 23.2577 216.916 22.0669 216.501 20.8762C216.421 20.6476 216.341 20.419 216.262 20.1904C216.131 19.8143 215.999 19.4381 215.868 19.062C215.57 18.206 215.271 17.3502 214.971 16.4947C214.943 16.4947 214.916 16.4947 214.887 16.4947Z" fill="#235377"/>
<path d="M123.685 12.6895C128.343 12.6895 133.001 12.6895 137.8 12.6895C137.8 13.4708 137.8 14.2522 137.8 15.0573C134.118 15.0573 130.436 15.0573 126.643 15.0573C126.643 17.9595 126.643 20.8618 126.643 23.852C130.074 23.852 133.505 23.852 137.039 23.852C137.039 24.6054 137.039 25.3589 137.039 26.1352C133.609 26.1352 130.178 26.1352 126.643 26.1352C126.643 29.3444 126.643 32.5536 126.643 35.8601C130.464 35.8601 134.286 35.8601 138.223 35.8601C138.223 36.6136 138.223 37.3671 138.223 38.1434C133.425 38.1434 128.628 38.1434 123.685 38.1434C123.685 29.7436 123.685 21.3438 123.685 12.6895Z" fill="#235377"/>
<path d="M247.176 12.6895C251.834 12.6895 256.492 12.6895 261.291 12.6895C261.291 13.4708 261.291 14.2522 261.291 15.0573C257.61 15.0573 253.928 15.0573 250.134 15.0573C250.134 17.9595 250.134 20.8618 250.134 23.852C253.537 23.852 256.94 23.852 260.446 23.852C260.446 24.6054 260.446 25.3589 260.446 26.1352C257.043 26.1352 253.64 26.1352 250.134 26.1352C250.134 29.3444 250.134 32.5536 250.134 35.8601C253.9 35.8601 257.665 35.8601 261.545 35.8601C261.545 36.6136 261.545 37.3671 261.545 38.1434C256.803 38.1434 252.061 38.1434 247.176 38.1434C247.176 29.7436 247.176 21.3438 247.176 12.6895Z" fill="#235377"/>
<path d="M147.992 12.3229C148.129 12.322 148.129 12.322 148.268 12.3211C148.461 12.3203 148.653 12.3199 148.846 12.3199C149.133 12.3196 149.419 12.3165 149.706 12.3133C151.358 12.3047 152.985 12.4877 154.573 12.9538C154.651 12.975 154.729 12.9963 154.809 13.0182C155.358 13.173 155.358 13.173 155.551 13.366C155.216 14.2032 154.881 15.0404 154.536 15.903C154.232 15.8015 153.943 15.7025 153.648 15.5812C152.38 15.0706 151.095 14.6825 149.719 14.6345C149.636 14.6311 149.554 14.6277 149.469 14.6243C147.718 14.5876 145.676 14.8521 144.35 16.1028C143.53 17.0068 143.299 18.0732 143.347 19.2647C143.413 20.1931 143.84 20.8861 144.516 21.5047C145.708 22.4668 147.188 22.9463 148.608 23.4626C152.5 24.878 152.5 24.878 153.945 26.0507C154.017 26.1077 154.088 26.1647 154.162 26.2235C155.448 27.3046 156.179 28.8814 156.375 30.5379C156.384 30.677 156.391 30.8162 156.396 30.9555C156.399 31.0436 156.403 31.1318 156.406 31.2227C156.444 33.2043 156.035 35.0491 154.635 36.5222C154.575 36.5828 154.514 36.6434 154.452 36.7058C154.406 36.7525 154.361 36.7992 154.314 36.8472C152.492 38.5545 149.664 38.8584 147.288 38.8517C147.221 38.8516 147.153 38.8515 147.083 38.8514C144.985 38.8429 142.173 38.6817 140.252 37.7206C140.302 37.3553 140.391 37.0423 140.529 36.7012C140.567 36.6075 140.605 36.5137 140.644 36.4171C140.684 36.3206 140.723 36.224 140.764 36.1245C140.804 36.0259 140.844 35.9274 140.885 35.8258C140.984 35.5834 141.082 35.3412 141.182 35.0991C141.602 35.2216 142.019 35.3476 142.432 35.4922C145.129 36.4359 148.105 36.9916 150.817 35.7756C151.114 35.6245 151.39 35.4587 151.663 35.2682C151.743 35.2127 151.743 35.2127 151.825 35.1559C152.699 34.4829 153.126 33.3733 153.269 32.3085C153.344 31.0351 153.161 29.9107 152.347 28.8945C151.659 28.1555 150.792 27.6562 149.876 27.2528C149.81 27.2239 149.745 27.1951 149.678 27.1653C148.955 26.8509 148.216 26.583 147.475 26.3154C142.041 24.346 142.041 24.346 140.738 21.7168C139.994 20.0002 140.033 17.999 140.711 16.2696C141.454 14.6307 142.913 13.5718 144.563 12.9432C145.68 12.5624 146.809 12.3255 147.992 12.3229Z" fill="#235377"/>
<path d="M169.356 39.625C169.432 39.6282 169.508 39.6313 169.586 39.6345C169.722 39.6396 169.722 39.6396 169.86 39.6448C169.963 39.6517 170.067 39.6585 170.173 39.6656C170.23 39.6693 170.287 39.6731 170.346 39.677C170.821 39.7095 171.296 39.7505 171.771 39.7921C171.923 39.8052 172.076 39.8183 172.229 39.8313C172.547 39.8585 172.865 39.8861 173.183 39.9138C173.59 39.9493 173.997 39.9843 174.404 40.019C174.719 40.0459 175.033 40.073 175.348 40.1002C175.498 40.1132 175.648 40.1261 175.798 40.139C176.007 40.157 176.217 40.1752 176.426 40.1936C176.519 40.2014 176.519 40.2014 176.612 40.2094C176.949 40.2392 177.279 40.2819 177.611 40.3421C177.443 40.8773 177.246 41.393 177.02 41.9065C176.991 41.975 176.962 42.0435 176.932 42.114C176.903 42.179 176.875 42.2439 176.845 42.3109C176.82 42.3693 176.795 42.4278 176.768 42.4881C176.682 42.6253 176.682 42.6253 176.428 42.7099C176.27 42.7023 176.27 42.7023 176.091 42.6763C176.022 42.6667 175.954 42.6571 175.883 42.6472C175.809 42.6361 175.734 42.625 175.657 42.6135C175.539 42.5966 175.539 42.5966 175.418 42.5794C175.157 42.5419 174.895 42.5035 174.634 42.4651C174.453 42.4388 174.272 42.4126 174.091 42.3863C173.711 42.3312 173.331 42.2756 172.951 42.2198C172.464 42.1481 171.976 42.0775 171.488 42.0074C171.114 41.9534 170.74 41.8987 170.366 41.8439C170.186 41.8176 170.006 41.7916 169.826 41.7657C169.575 41.7296 169.325 41.6925 169.074 41.6552C168.961 41.6393 168.961 41.6393 168.847 41.6231C168.333 41.5453 168.333 41.5453 168.145 41.3569C168.286 41.0714 168.436 40.7913 168.588 40.5112C168.628 40.4306 168.668 40.3499 168.709 40.2668C169.029 39.6923 169.029 39.6923 169.356 39.625Z" fill="#235377"/>
</g>
</g>
<defs>
<filter id="filter0_d_256_2" x="-4" y="0" width="316.789" height="94.1519" filterUnits="userSpaceOnUse" color-interpolation-filters="sRGB">
<feFlood flood-opacity="0" result="BackgroundImageFix"/>
<feColorMatrix in="SourceAlpha" type="matrix" values="0 0 0 0 0 0 0 0 0 0 0 0 0 0 0 0 0 0 127 0" result="hardAlpha"/>
<feOffset dy="4"/>
<feGaussianBlur stdDeviation="2"/>
<feComposite in2="hardAlpha" operator="out"/>
<feColorMatrix type="matrix" values="0 0 0 0 0 0 0 0 0 0 0 0 0 0 0 0 0 0 0.25 0"/>
<feBlend mode="normal" in2="BackgroundImageFix" result="effect1_dropShadow_256_2"/>
<feBlend mode="normal" in="SourceGraphic" in2="effect1_dropShadow_256_2" result="shape"/>
</filter>
<clipPath id="clip0_256_2">
<rect width="214.608" height="61.1401" fill="white" transform="translate(46.9365 12.3511)"/>
</clipPath>
</defs>
</svg>
