<svg width="184" height="104" viewBox="0 0 184 104" fill="none" xmlns="http://www.w3.org/2000/svg">
<path d="M24.1667 13.5551C24.2379 13.6253 24.3397 13.6604 24.4722 13.6604C26.0865 13.6567 27.6634 13.6431 29.2028 13.6197C29.5512 13.6148 29.726 13.7872 29.7272 14.1369V14.7096C29.7272 15.0729 29.5469 15.2551 29.1863 15.2564L21.2559 15.2693C21.1846 15.2699 21.1149 15.2482 21.0565 15.2071C20.9981 15.1661 20.9539 15.1077 20.9302 15.0403C20.783 14.632 21.197 14.0483 21.473 13.7971C23.1388 12.286 24.8561 10.7454 26.625 9.17524C26.7857 9.03362 26.7587 8.96342 26.544 8.96466L21.7361 8.99606C21.3681 8.99729 21.1774 8.81318 21.1639 8.44373L21.1455 7.92835C21.132 7.55767 21.3104 7.37171 21.6809 7.37048L29.6499 7.34277C29.7085 7.34284 29.7658 7.35929 29.8156 7.3903C29.8653 7.4213 29.9054 7.46561 29.9315 7.51826C30.1302 7.91727 29.764 8.47144 29.4788 8.73006C28.0019 10.0798 26.2324 11.6549 24.1704 13.4553C24.1631 13.4613 24.1572 13.4688 24.153 13.4772C24.1488 13.4857 24.1465 13.4949 24.1461 13.5044C24.1458 13.5138 24.1474 13.5232 24.151 13.5319C24.1545 13.5407 24.1599 13.5486 24.1667 13.5551Z" fill="#A1A1A1"/>
<path d="M132.286 67.7904C132.286 67.9776 132.38 68.0712 132.568 68.0712L162.464 68.0545C162.869 68.0545 163.071 68.2577 163.071 68.6641L163.07 82.3966C163.07 82.6909 162.924 82.8405 162.632 82.8454C161.572 82.8615 160.537 82.8701 159.528 82.8713C145.226 82.8947 129.91 82.8879 113.579 82.851C113.238 82.8497 113.068 82.6786 113.069 82.3374C113.084 71.8488 113.079 61.5578 113.053 51.4644C113.052 51.0235 113.067 50.5999 113.099 50.1935C113.102 50.1307 113.136 50.0993 113.2 50.0993L127.734 50.0771C127.895 50.0771 127.975 49.9971 127.975 49.837V35.1477C127.975 35.0258 127.914 34.9648 127.791 34.9648L113.298 34.9722C113.147 34.9722 113.071 34.8964 113.071 34.745C113.064 26.2316 113.063 17.6056 113.068 8.86689C113.068 8.62675 113.087 8.41062 113.125 8.21851C113.137 8.15307 113.172 8.09402 113.223 8.05154C113.275 8.00905 113.339 7.98579 113.406 7.98576L131.727 7.96729C132.1 7.96729 132.286 8.15386 132.286 8.527V67.7904Z" fill="#2F78E9"/>
<path d="M80.053 35.1161L80.0512 49.9329C80.0512 50.0031 80.0868 50.04 80.1579 50.0437C80.5958 50.0671 81.0325 50.08 81.468 50.0825C86.0042 50.1182 90.6999 50.1127 95.555 50.0659C95.5675 50.0656 95.5799 50.0679 95.5915 50.0725C95.6031 50.0771 95.6137 50.084 95.6226 50.0928C95.6315 50.1016 95.6386 50.1121 95.6434 50.1236C95.6482 50.1352 95.6507 50.1476 95.6507 50.1601L95.6562 82.3595C95.6562 82.7043 95.4845 82.8767 95.141 82.8767L76.9894 82.8804C76.8557 82.8804 76.7275 82.827 76.6329 82.7321C76.5384 82.6372 76.4853 82.5085 76.4853 82.3742L76.4945 50.0585C76.4945 50.0345 76.485 50.0115 76.4681 49.9945C76.4512 49.9775 76.4282 49.968 76.4043 49.968L51.8826 49.9606C51.8115 49.9606 51.7759 49.9957 51.7759 50.0659L51.7906 82.3336C51.7906 82.6944 51.6109 82.8748 51.2515 82.8748L33.1091 82.873C32.7779 82.873 32.6123 82.7073 32.6123 82.3761V8.40492C32.6123 8.1266 32.7509 7.98744 33.0281 7.98744H51.3343C51.6336 7.98744 51.7833 8.13769 51.7833 8.43817C51.7925 16.1209 51.8182 23.4618 51.7538 30.7086C51.7403 32.1728 51.7532 33.6112 51.7925 35.0238C51.7937 35.0964 51.8311 35.134 51.9047 35.1364C52.4125 35.1524 52.9388 35.1623 53.4834 35.166C60.8606 35.2079 68.4684 35.1992 76.3068 35.1401C76.3548 35.1396 76.4006 35.1202 76.4344 35.0859C76.4682 35.0517 76.4871 35.0054 76.4871 34.9572V8.36243C76.4871 8.11244 76.6122 7.98744 76.8625 7.98744L95.1318 7.9856C95.4912 7.9856 95.671 8.16601 95.671 8.52684V34.8483C95.671 34.8645 95.6678 34.8806 95.6616 34.8956C95.6554 34.9106 95.6463 34.9243 95.6348 34.9358C95.6234 34.9473 95.6098 34.9564 95.5948 34.9626C95.5799 34.9688 95.5639 34.972 95.5477 34.972L80.1597 35.009C80.0886 35.009 80.053 35.0447 80.053 35.1161Z" fill="#0B4AB1"/>
<path d="M25.4622 30.1545C24.3008 30.1545 23.1869 29.6722 22.3656 28.8138C21.5444 27.9553 21.083 26.791 21.083 25.577C21.083 24.363 21.5444 23.1987 22.3656 22.3402C23.1869 21.4818 24.3008 20.9995 25.4622 20.9995C26.6236 20.9995 27.7375 21.4818 28.5588 22.3402C29.38 23.1987 29.8414 24.363 29.8414 25.577C29.8414 26.791 29.38 27.9553 28.5588 28.8138C27.7375 29.6722 26.6236 30.1545 25.4622 30.1545ZM28.34 25.5714C28.34 24.8047 28.0366 24.0694 27.4966 23.5272C26.9565 22.9851 26.2241 22.6805 25.4604 22.6805C24.6966 22.6805 23.9642 22.9851 23.4242 23.5272C22.8842 24.0694 22.5808 24.8047 22.5808 25.5714C22.5808 26.3382 22.8842 27.0735 23.4242 27.6157C23.9642 28.1578 24.6966 28.4624 25.4604 28.4624C26.2241 28.4624 26.9565 28.1578 27.4966 27.6157C28.0366 27.0735 28.34 26.3382 28.34 25.5714Z" fill="#A1A1A1"/>
<path d="M21.6018 43.4824C21.4935 43.4824 21.3896 43.4392 21.313 43.3623C21.2364 43.2854 21.1934 43.1811 21.1934 43.0723V39.823C21.1934 38.7104 21.6158 37.6434 22.3677 36.8566C23.1196 36.0699 24.1394 35.6279 25.2027 35.6279H25.7069C26.7702 35.6279 27.79 36.0699 28.5419 36.8566C29.2938 37.6434 29.7162 38.7104 29.7162 39.823V43.0723C29.7162 43.1811 29.6732 43.2854 29.5966 43.3623C29.52 43.4392 29.4161 43.4824 29.3078 43.4824H21.6018ZM22.9082 38.953C22.6555 39.7387 22.5685 40.666 22.647 41.7349C22.6519 41.8051 22.6893 41.8402 22.7592 41.8402L28.178 41.8698C28.1947 41.8698 28.2107 41.8636 28.223 41.8523C28.2353 41.841 28.2429 41.8255 28.2442 41.8088C28.3841 40.2387 28.2516 37.9278 26.3601 37.4271C25.0132 37.0706 23.3903 37.4567 22.9082 38.953Z" fill="#A1A1A1"/>
<path d="M24.2692 55.7056C24.0975 55.8608 24.1275 55.9408 24.3594 55.9457C26.0227 55.9802 27.6499 55.9728 29.2409 55.9236C29.566 55.9137 29.7273 56.0726 29.7248 56.4002L29.7193 57.0541C29.7168 57.4051 29.5402 57.5806 29.1894 57.5806L21.1927 57.5584C21.1436 57.5578 21.0955 57.5448 21.0527 57.5205C21.01 57.4963 20.974 57.4617 20.948 57.4199C20.6886 57.0005 21.2792 56.2653 21.5791 55.9975C23.2768 54.4889 24.9739 52.9754 26.6704 51.4569C26.6873 51.4421 26.6986 51.422 26.7026 51.3998C26.7066 51.3777 26.7031 51.3549 26.6925 51.335C26.6778 51.3079 26.6551 51.2944 26.6244 51.2944C25.0126 51.2784 23.3584 51.2759 21.6619 51.287C21.3565 51.2895 21.2038 51.1374 21.2038 50.8307L21.2019 50.1362C21.2019 49.8381 21.3504 49.6873 21.6472 49.6836C24.4833 49.6466 27.1353 49.6417 29.6034 49.6688C29.9162 49.6725 30.0431 49.8246 29.9843 50.1251C29.9033 50.5327 29.6347 50.936 29.1783 51.335C27.3739 52.915 25.7375 54.3719 24.2692 55.7056Z" fill="#A1A1A1"/>
<path d="M25.466 72.447C24.3036 72.449 23.188 71.9687 22.3645 71.1117C21.5411 70.2547 21.0773 69.0912 21.0752 67.8772C21.0742 67.276 21.1865 66.6806 21.4058 66.1248C21.6251 65.5691 21.947 65.0639 22.3533 64.6381C22.7595 64.2124 23.2421 63.8743 23.7735 63.6434C24.3048 63.4124 24.8746 63.293 25.4501 63.292C26.6125 63.29 27.7282 63.7703 28.5516 64.6273C29.3751 65.4843 29.8389 66.6478 29.841 67.8618C29.842 68.4629 29.7297 69.0584 29.5104 69.6141C29.2911 70.1699 28.9691 70.675 28.5629 71.1008C28.1566 71.5266 27.674 71.8646 27.1427 72.0956C26.6113 72.3265 26.0416 72.4459 25.466 72.447ZM28.3322 67.8676C28.3322 67.1034 28.0297 66.3704 27.4914 65.83C26.9531 65.2895 26.223 64.9859 25.4618 64.9859C24.7005 64.9859 23.9704 65.2895 23.4321 65.83C22.8938 66.3704 22.5914 67.1034 22.5914 67.8676C22.5914 68.6319 22.8938 69.3649 23.4321 69.9053C23.9704 70.4457 24.7005 70.7493 25.4618 70.7493C26.223 70.7493 26.9531 70.4457 27.4914 69.9053C28.0297 69.3649 28.3322 68.6319 28.3322 67.8676Z" fill="#A1A1A1"/>
<path d="M28.2776 81.1496L28.2665 78.0887C28.2665 77.9176 28.3451 77.7981 28.5021 77.7304C28.8369 77.5863 29.1307 77.4798 29.3834 77.4108C29.6055 77.3505 29.7165 77.4361 29.7165 77.6676L29.7146 82.3817C29.7146 82.5055 29.6659 82.6243 29.579 82.7122C29.4922 82.8001 29.3743 82.85 29.2509 82.8509C26.7645 82.8731 24.2327 82.87 21.6554 82.8417C21.3439 82.838 21.1905 82.6767 21.1954 82.3577C21.1954 82.3368 21.1985 82.1102 21.2046 81.6779C21.2083 81.3738 21.3616 81.2235 21.6646 81.2272L28.1433 81.2826C28.1608 81.2829 28.1782 81.2796 28.1945 81.273C28.2108 81.2665 28.2256 81.2567 28.2381 81.2443C28.2506 81.232 28.2606 81.2172 28.2673 81.201C28.2741 81.1847 28.2776 81.1673 28.2776 81.1496Z" fill="#A1A1A1"/>
<path d="M130.815 92.514C131.987 94.376 134.569 94.8175 136.294 93.4579C136.394 93.3804 136.495 93.3052 136.598 93.2326C136.63 93.2102 136.668 93.1983 136.707 93.1983C136.745 93.1983 136.783 93.2102 136.815 93.2326C136.959 93.3311 137.082 93.4505 137.185 93.5909C137.238 93.6625 137.262 93.751 137.254 93.84C137.247 93.929 137.207 94.0124 137.143 94.0749C136.729 94.4788 136.296 94.7627 135.844 94.9265C133.845 95.6506 132.096 95.3089 130.596 93.9013C129.516 92.8871 128.94 91.341 129.144 89.8595C129.406 87.9519 130.388 86.6342 132.092 85.9064C133.797 85.1773 135.449 85.4039 137.047 86.5862C137.253 86.7389 137.299 86.9298 137.183 87.1588C137.134 87.2549 137.077 87.3485 137.012 87.4396C136.871 87.6342 136.703 87.6613 136.508 87.5209C136.173 87.2826 135.851 87.0092 135.465 86.8577C131.939 85.4649 128.762 89.2518 130.815 92.514Z" fill="#A1A1A1"/>
<path d="M55.8114 94.1707L58.6726 94.1356C58.7702 94.1344 58.8648 94.1656 58.9412 94.2243C59.1142 94.3561 59.1951 94.5026 59.1841 94.6639C59.1595 95.0408 58.9584 95.2292 58.5806 95.2292L55.0183 95.2218C54.9549 95.2212 54.8932 95.2009 54.8418 95.1639C54.7904 95.1268 54.7518 95.0748 54.7313 95.0149C54.665 94.8216 54.6331 94.6159 54.6356 94.3979C54.6663 91.6628 54.6534 88.9258 54.597 86.1869C54.5884 85.7978 54.7767 85.5779 55.1618 85.5275C55.3336 85.5053 55.4967 85.6044 55.6513 85.8249C55.7097 85.9074 55.7395 86.0068 55.7359 86.1075C55.6574 88.85 55.639 91.4959 55.6807 94.0451C55.6817 94.0791 55.6959 94.1113 55.7204 94.1348C55.7448 94.1583 55.7775 94.1712 55.8114 94.1707Z" fill="#A1A1A1"/>
<path d="M77.7046 94.9597C75.526 94.1229 74.2693 91.9247 74.6465 89.5879C75.0035 87.3823 76.7717 85.7567 78.9816 85.5313C80.1947 85.407 81.368 85.7469 82.5015 86.551C82.7898 86.7555 82.8296 86.9999 82.6211 87.2844L82.564 87.362C82.3666 87.6317 82.1378 87.6624 81.8777 87.4543C80.6498 86.4704 79.298 86.293 77.8224 86.9223C75.4745 87.9254 74.9593 91.1691 76.5822 92.9628C77.9364 94.4628 80.3045 94.69 81.8501 93.3674C82.109 93.1457 82.3402 93.1722 82.5438 93.4468C82.5536 93.4603 82.5634 93.4733 82.5732 93.4856C82.7916 93.7701 82.7572 94.0194 82.4702 94.2337C80.9614 95.3593 79.3729 95.6013 77.7046 94.9597Z" fill="#A1A1A1"/>
<path d="M127.374 90.4228C127.374 91.0673 127.248 91.7056 127.002 92.301C126.757 92.8965 126.396 93.4376 125.943 93.8934C125.489 94.3491 124.95 94.7107 124.356 94.9573C123.763 95.204 123.128 95.3309 122.486 95.3309C121.189 95.3309 119.945 94.8138 119.029 93.8934C118.112 92.9729 117.597 91.7245 117.597 90.4228C117.597 89.1211 118.112 87.8727 119.029 86.9522C119.945 86.0318 121.189 85.5146 122.486 85.5146C123.128 85.5146 123.763 85.6416 124.356 85.8883C124.95 86.1349 125.489 86.4964 125.943 86.9522C126.396 87.408 126.757 87.949 127.002 88.5445C127.248 89.14 127.374 89.7782 127.374 90.4228ZM126.311 90.4191C126.311 89.9152 126.212 89.4163 126.02 88.9508C125.828 88.4853 125.546 88.0624 125.192 87.7061C124.837 87.3498 124.415 87.0672 123.952 86.8744C123.488 86.6816 122.991 86.5824 122.489 86.5824C121.987 86.5824 121.49 86.6816 121.027 86.8744C120.563 87.0672 120.142 87.3498 119.787 87.7061C119.432 88.0624 119.151 88.4853 118.958 88.9508C118.766 89.4163 118.668 89.9152 118.668 90.4191C118.668 90.9229 118.766 91.4219 118.958 91.8873C119.151 92.3528 119.432 92.7758 119.787 93.1321C120.142 93.4883 120.563 93.771 121.027 93.9638C121.49 94.1566 121.987 94.2558 122.489 94.2558C123.503 94.2558 124.475 93.8516 125.192 93.1321C125.908 92.4125 126.311 91.4367 126.311 90.4191Z" fill="#A1A1A1"/>
<path d="M160.998 90.4502C159.948 89.8813 158.811 89.6042 158.329 88.3905C157.983 87.5223 158.347 86.51 159.07 85.9595C160.285 85.0359 161.889 85.5846 162.43 87.0051C162.459 87.0839 162.44 87.1486 162.373 87.199C162.077 87.417 161.67 87.5094 161.407 87.1658C161.113 86.7834 160.901 86.5063 160.343 86.5359C159.967 86.5568 159.672 86.7077 159.458 86.9885C158.917 87.7033 159.385 88.5623 160.121 88.8948C160.526 89.0771 160.924 89.2587 161.315 89.4398C162.85 90.1546 163.821 91.8892 163.065 93.5314C162.532 94.6866 161.616 95.2678 160.316 95.2752C159.028 95.2845 157.348 94.0948 157.504 92.6577C157.512 92.5899 157.545 92.5394 157.604 92.5062C157.847 92.3707 158.077 92.3516 158.296 92.4489C158.356 92.476 158.4 92.5191 158.43 92.5782C158.656 93.0216 158.829 93.5591 159.219 93.8676C160.272 94.7026 161.845 94.1188 162.196 92.8609C162.482 91.8412 161.869 90.9231 160.998 90.4502Z" fill="#A1A1A1"/>
<path d="M62.4257 86.7284L60.7292 86.7414C60.6679 86.7419 60.6072 86.7301 60.5505 86.7068C60.4938 86.6835 60.4423 86.6491 60.3989 86.6056C60.3556 86.5621 60.3213 86.5104 60.2981 86.4534C60.2749 86.3965 60.2632 86.3355 60.2637 86.274V86.1798C60.2674 85.8374 60.4391 85.657 60.7789 85.6386C62.2497 85.5573 63.8088 85.556 65.4562 85.6349C65.7101 85.6472 65.861 85.7796 65.9088 86.032C65.9174 86.0801 65.9205 86.1287 65.918 86.178C65.8972 86.5523 65.6997 86.7371 65.3255 86.7321L63.7026 86.7118C63.6719 86.7118 63.6424 86.7241 63.6207 86.7459C63.5989 86.7677 63.5867 86.7973 63.5867 86.8282L63.6143 94.5829C63.6143 94.6705 63.5955 94.7563 63.5591 94.8342C63.4242 95.1186 63.2666 95.2584 63.0862 95.2535C62.7281 95.2436 62.549 95.0589 62.549 94.6993L62.5692 86.8707C62.5692 86.7746 62.5214 86.7272 62.4257 86.7284Z" fill="#A1A1A1"/>
<path d="M71.6242 90.0386C71.6586 89.6667 71.6696 89.3446 71.6574 89.0725C71.6083 88.0232 71.5997 87.0245 71.6316 86.0762C71.6348 85.985 71.6641 85.8967 71.716 85.822C71.7679 85.7472 71.8402 85.6893 71.9242 85.6551C72.0407 85.607 72.1548 85.591 72.2664 85.607C72.5399 85.6452 72.6767 85.8028 72.6767 86.0799L72.6786 94.8026C72.6786 94.8615 72.6668 94.9199 72.6439 94.9741C72.6209 95.0283 72.5873 95.0773 72.545 95.1182C72.5028 95.1591 72.4527 95.191 72.3979 95.212C72.3431 95.233 72.2846 95.2427 72.2259 95.2404L72.0658 95.2349C71.7555 95.2226 71.6015 95.0606 71.604 94.749L71.6224 91.3926C71.6226 91.3682 71.6181 91.344 71.6089 91.3213C71.5998 91.2987 71.5863 91.2781 71.5692 91.2608C71.5521 91.2434 71.5317 91.2297 71.5092 91.2203C71.4868 91.2109 71.4627 91.206 71.4384 91.206L68.4944 91.2079C68.4824 91.2079 68.4705 91.2103 68.4595 91.2149C68.4484 91.2196 68.4384 91.2264 68.43 91.235C68.4216 91.2436 68.415 91.2538 68.4106 91.265C68.4062 91.2762 68.404 91.2882 68.4042 91.3002L68.4502 94.7361C68.4509 94.8016 68.4374 94.8666 68.4107 94.9265C68.384 94.9864 68.3448 95.0399 68.2957 95.0834C68.1804 95.1844 68.0565 95.2336 67.924 95.2312C67.5646 95.225 67.3855 95.0415 67.3867 94.6807L67.3996 86.0892C67.4008 85.9756 67.4463 85.8668 67.5266 85.7862C67.8148 85.5017 68.0829 85.5196 68.3306 85.8398C68.3856 85.9104 68.4154 85.9969 68.4153 86.0855L68.4098 90.009C68.4098 90.032 68.4189 90.0541 68.4351 90.0704C68.4513 90.0867 68.4733 90.0958 68.4962 90.0958L71.5304 90.1235C71.5881 90.1235 71.6193 90.0952 71.6242 90.0386Z" fill="#A1A1A1"/>
<path d="M86.2188 91.9058L85.1627 94.8522C85.0572 95.1465 84.8499 95.2758 84.5407 95.2401C84.4868 95.234 84.4346 95.2173 84.3843 95.1902C84.1316 95.0548 84.0544 94.8516 84.1525 94.5806L87.24 86.1332C87.5234 85.3586 87.8061 85.358 88.0883 86.1313L91.1923 94.6065C91.2807 94.8479 91.2163 95.0375 90.9991 95.1755C90.9378 95.2136 90.8703 95.2389 90.7967 95.2512C90.4533 95.3103 90.2251 95.1742 90.1123 94.8429L89.0947 91.88C89.0829 91.8459 89.0607 91.8164 89.0314 91.7955C89.002 91.7746 88.9669 91.7635 88.931 91.7636L86.4231 91.7617C86.3212 91.7617 86.2532 91.8098 86.2188 91.9058ZM86.7303 90.5924C86.7268 90.602 86.7255 90.6122 86.7268 90.6223C86.728 90.6325 86.7317 90.6421 86.7375 90.6505C86.7433 90.6588 86.751 90.6657 86.7601 90.6704C86.7691 90.675 86.7791 90.6775 86.7892 90.6774L88.4728 90.6848C88.4829 90.685 88.4929 90.6828 88.5019 90.6784C88.511 90.6739 88.5188 90.6673 88.5248 90.6591C88.5308 90.651 88.5347 90.6415 88.5362 90.6315C88.5377 90.6215 88.5368 90.6112 88.5335 90.6017L87.7019 88.2778C87.6977 88.2656 87.6899 88.2549 87.6794 88.2473C87.669 88.2397 87.6565 88.2355 87.6436 88.2353C87.6307 88.2351 87.6181 88.2389 87.6075 88.2462C87.5968 88.2535 87.5886 88.2639 87.5841 88.276L86.7303 90.5924Z" fill="#A1A1A1"/>
<path d="M96.2524 92.0207L97.9102 94.5348C98.1138 94.8427 98.0464 95.0705 97.7078 95.2183C97.6833 95.2294 97.6581 95.2368 97.6324 95.2404C97.2644 95.3082 96.9963 95.2004 96.8283 94.9172C96.3008 94.0231 95.758 93.1358 95.1999 92.2553C95.1671 92.2043 95.1222 92.1623 95.0695 92.1333C95.0168 92.1042 94.9579 92.089 94.8981 92.089L93.9377 92.0927C93.853 92.0927 93.8107 92.1346 93.8107 92.2183L93.8125 94.6623C93.8125 95.012 93.6396 95.2084 93.2937 95.2515C93.2507 95.2565 93.2072 95.2534 93.163 95.2423C92.887 95.1758 92.7509 95.0003 92.7545 94.7158C92.7877 91.9856 92.7852 89.1218 92.7472 86.1243C92.7423 85.7893 92.9073 85.6114 93.2421 85.5904C94.1155 85.5387 94.9539 85.5867 95.7574 85.7345C96.3106 85.8355 96.8019 86.0953 97.2313 86.5141C98.5229 87.7739 98.5965 89.6895 97.4024 91.0324C97.0988 91.3723 96.6848 91.6161 96.291 91.8507C96.2186 91.8939 96.2058 91.9505 96.2524 92.0207ZM93.807 86.8613L93.8217 90.8588C93.8217 90.9029 93.8392 90.9452 93.8702 90.9763C93.9013 91.0075 93.9434 91.025 93.9873 91.025L94.9129 91.0213C95.5203 91.0192 96.1021 90.7915 96.5303 90.3883C96.9586 89.9851 97.1981 89.4394 97.1963 88.8711V88.8268C97.1954 88.5454 97.1353 88.2669 97.0193 88.0072C96.9033 87.7476 96.7338 87.5119 96.5203 87.3136C96.3069 87.1153 96.0538 86.9583 95.7755 86.8515C95.4971 86.7448 95.199 86.6903 94.8981 86.6914L93.9726 86.6951C93.9287 86.6951 93.8866 86.7126 93.8555 86.7438C93.8245 86.775 93.807 86.8172 93.807 86.8613Z" fill="#A1A1A1"/>
<path d="M100.77 91.18L100.768 94.0562C100.768 94.151 100.815 94.1978 100.91 94.1966L104.264 94.1449C104.641 94.1387 104.81 94.3235 104.774 94.6991L104.759 94.8431C104.734 95.0968 104.595 95.2237 104.341 95.2237L100.196 95.2292C100.074 95.2292 99.9573 95.1808 99.8711 95.0946C99.7849 95.0084 99.7362 94.8914 99.7357 94.7693C99.7222 91.6646 99.7222 88.8765 99.7357 86.4049C99.7369 86.2559 99.7461 86.1057 99.7633 85.9542C99.7854 85.7596 99.894 85.658 100.089 85.6494C101.495 85.5903 102.873 85.5804 104.223 85.6198C104.499 85.6272 104.68 85.7627 104.764 86.0262C104.785 86.0903 104.791 86.1537 104.783 86.2165C104.737 86.5552 104.544 86.7233 104.203 86.7208L100.893 86.6968C100.819 86.6968 100.783 86.7331 100.783 86.8058L100.788 89.7761C100.788 89.8006 100.798 89.8241 100.815 89.8415C100.832 89.8588 100.854 89.8685 100.878 89.8685L104.286 89.8722C104.351 89.8721 104.416 89.8854 104.476 89.9111C104.536 89.9369 104.59 89.9746 104.636 90.0221C104.681 90.0696 104.716 90.1258 104.739 90.1873C104.762 90.2488 104.773 90.3145 104.77 90.3802L104.766 90.4412C104.749 90.8081 104.558 90.9886 104.192 90.9824L101.02 90.9325C100.854 90.9301 100.771 91.0126 100.77 91.18Z" fill="#A1A1A1"/>
<path d="M148.673 88.1691C148.643 88.5632 148.63 88.9505 148.635 89.3311C148.656 90.9788 148.682 92.7565 148.714 94.6641C148.72 94.9769 148.575 95.1807 148.278 95.2755C148.234 95.289 148.189 95.2952 148.145 95.294C147.77 95.2743 147.584 95.0766 147.586 94.701L147.623 86.1021C147.623 85.9955 147.662 85.8926 147.732 85.8125C147.802 85.7324 147.898 85.6804 148.004 85.6661L148.414 85.6089C148.507 85.5965 148.577 85.631 148.624 85.7123L151.704 91.0638C151.716 91.0845 151.733 91.1018 151.753 91.1138C151.774 91.1258 151.797 91.1321 151.821 91.1321C151.844 91.1321 151.868 91.1258 151.888 91.1138C151.909 91.1018 151.926 91.0845 151.938 91.0638L154.902 85.8804C154.967 85.7649 155.072 85.6775 155.196 85.6347C155.708 85.4555 156 85.7991 155.997 86.2683C155.983 89.1008 155.996 91.903 156.035 94.6751C156.036 94.7681 156.012 94.8596 155.963 94.9393C155.686 95.3962 155.382 95.4257 155.051 95.028C154.976 94.9385 154.936 94.8252 154.937 94.7084C154.959 92.4597 154.971 90.2805 154.974 88.171C154.974 88.1377 154.967 88.1076 154.953 88.0805C154.947 88.0686 154.938 88.0587 154.927 88.0517C154.916 88.0447 154.903 88.0409 154.89 88.0407C154.876 88.0405 154.863 88.044 154.851 88.0506C154.839 88.0573 154.83 88.067 154.823 88.0786L152.184 92.7189C152.148 92.7822 152.096 92.8348 152.033 92.8714C151.97 92.9079 151.898 92.9272 151.825 92.9272C151.753 92.9272 151.681 92.9079 151.618 92.8714C151.555 92.8348 151.503 92.7822 151.467 92.7189L148.845 88.1303C148.745 87.9567 148.688 87.9696 148.673 88.1691Z" fill="#A1A1A1"/>
<path d="M36.331 90.0661C36.3569 90.0661 36.3817 90.056 36.4 90.038C36.4182 90.02 36.4285 89.9955 36.4285 89.9701L36.4432 86.222C36.4432 86.1202 36.4768 86.0208 36.5389 85.9394C36.8971 85.464 37.1995 85.4825 37.446 85.9948C37.4727 86.0508 37.4865 86.1126 37.4865 86.1758L37.4884 94.7212C37.4884 95.0611 37.3191 95.231 36.9805 95.231H36.8848C36.5855 95.231 36.4353 95.0808 36.434 94.7803L36.4267 91.2945C36.4267 91.2009 36.3807 91.1541 36.2887 91.1541L33.3649 91.156C33.346 91.1559 33.3273 91.1598 33.3099 91.1675C33.2925 91.1751 33.2769 91.1863 33.2639 91.2003C33.251 91.2143 33.241 91.2309 33.2347 91.249C33.2283 91.2672 33.2257 91.2864 33.2269 91.3056C33.2797 92.2009 33.2748 93.3481 33.2122 94.747C33.1975 95.0845 33.0221 95.2433 32.686 95.2236L32.5995 95.2199C32.3333 95.2039 32.2002 95.0623 32.2002 94.7951L32.2057 86.1075C32.2057 85.8255 32.3449 85.6617 32.6234 85.6161C32.67 85.6087 32.7154 85.6099 32.7596 85.6198C33.0957 85.6912 33.2637 85.8994 33.2637 86.2442L33.2582 89.8962C33.2582 90.007 33.3134 90.0624 33.4238 90.0624L36.331 90.0661Z" fill="#A1A1A1"/>
<path d="M40.7417 94.1654L44.1347 94.1635C44.4548 94.1635 44.6217 94.3242 44.6352 94.6456L44.6407 94.7897C44.653 95.0804 44.5143 95.2257 44.2248 95.2257L40.0186 95.222C39.7438 95.222 39.6064 95.0841 39.6064 94.8082L39.6101 85.9673C39.6101 85.7887 39.6978 85.6877 39.8732 85.6643C40.0609 85.6397 40.2449 85.6262 40.4252 85.6237C41.7562 85.6052 42.997 85.6083 44.1476 85.6329C44.4518 85.6391 44.6204 85.7943 44.6536 86.0984C44.6683 86.2327 44.6204 86.3718 44.51 86.5159C44.4656 86.575 44.408 86.6227 44.3419 86.6555C44.2757 86.6882 44.2029 86.7049 44.1292 86.7043L40.876 86.6877C40.8233 86.6877 40.7728 86.7085 40.7355 86.7456C40.6983 86.7827 40.6773 86.8329 40.6773 86.8854L40.6608 89.8206C40.6605 89.8298 40.6621 89.8388 40.6655 89.8474C40.669 89.8559 40.6741 89.8636 40.6806 89.8701C40.6871 89.8767 40.6949 89.8819 40.7035 89.8854C40.7121 89.889 40.7213 89.8908 40.7307 89.8908L44.1016 89.8797C44.4855 89.8785 44.6609 90.0706 44.6278 90.4561L44.6223 90.5152C44.5978 90.7997 44.4438 90.9425 44.1604 90.9438L40.7344 90.9678C40.7211 90.9678 40.7079 90.9704 40.6956 90.9755C40.6834 90.9806 40.6722 90.9881 40.6628 90.9975C40.6534 91.007 40.646 91.0182 40.6409 91.0305C40.6358 91.0428 40.6332 91.056 40.6332 91.0694L40.6276 94.0508C40.6276 94.1272 40.6657 94.1654 40.7417 94.1654Z" fill="#A1A1A1"/>
<path d="M48.3756 91.7544C48.3094 91.755 48.2449 91.7758 48.1909 91.8141C48.137 91.8525 48.0961 91.9064 48.0739 91.9687L46.9975 94.9964C46.9276 95.1946 46.7896 95.2765 46.5835 95.242C46.4571 95.2211 46.3357 95.1934 46.2192 95.1589C45.9898 95.0936 45.9156 94.9483 45.9965 94.723C47.038 91.8216 48.1015 88.8746 49.1871 85.882C49.2742 85.6419 49.4447 85.5557 49.6986 85.6234C49.7624 85.6407 49.8059 85.6807 49.8292 85.7435L53.0327 94.6177C53.121 94.8627 53.0535 95.0524 52.8303 95.1866C52.7824 95.2162 52.7303 95.234 52.6739 95.2402C52.3451 95.2771 52.1243 95.1398 52.0115 94.8283L50.9572 91.9188C50.9371 91.8648 50.9012 91.8183 50.8541 91.7855C50.807 91.7528 50.7511 91.7355 50.694 91.736L48.3756 91.7544ZM48.624 90.5722C48.6188 90.5876 48.6173 90.6041 48.6196 90.6202C48.6219 90.6363 48.628 90.6516 48.6373 90.6649C48.6466 90.6783 48.659 90.6892 48.6733 90.6968C48.6876 90.7045 48.7035 90.7086 48.7197 90.7089H50.3684C50.3846 90.7086 50.4005 90.7045 50.4148 90.6968C50.4291 90.6892 50.4415 90.6783 50.4508 90.6649C50.4601 90.6516 50.4662 90.6363 50.4685 90.6202C50.4708 90.6041 50.4693 90.5876 50.464 90.5722L49.6416 88.2151C49.6346 88.1947 49.6215 88.1769 49.604 88.1644C49.5865 88.1518 49.5655 88.1451 49.544 88.1451C49.5225 88.1451 49.5016 88.1518 49.4841 88.1644C49.4666 88.1769 49.4535 88.1947 49.4465 88.2151L48.624 90.5722Z" fill="#A1A1A1"/>
<path d="M112.711 94.1692L115.618 94.147C115.912 94.1446 116.058 94.2911 116.056 94.5867V94.7363C116.053 95.0528 115.894 95.2123 115.579 95.2147L112.135 95.2461C111.742 95.2498 111.546 95.054 111.546 94.6587V86.0838C111.546 85.7759 111.7 85.6214 112.008 85.6201H112.144C112.415 85.6189 112.555 85.7544 112.563 86.0265C112.621 87.9649 112.629 89.6798 112.587 91.1711C112.562 92.128 112.561 93.0867 112.586 94.0473C112.587 94.1298 112.628 94.1704 112.711 94.1692Z" fill="#A1A1A1"/>
<path d="M143.272 94.0138C144.48 93.4097 144.508 92.4104 144.495 91.1376C144.478 89.4406 144.484 87.7461 144.512 86.054C144.517 85.7683 144.661 85.6242 144.946 85.6218L145.034 85.6199C145.37 85.6162 145.539 85.7831 145.54 86.1205C145.546 88.0293 145.553 90.0164 145.561 92.0816C145.568 93.9842 143.936 95.4306 142.133 95.2736C141.27 95.1985 140.591 94.9005 140.096 94.3795C139.5 93.7515 139.192 93.0569 139.172 92.2959C139.132 90.6186 139.133 88.5386 139.176 86.0559C139.181 85.7677 139.327 85.6211 139.615 85.6162L139.665 85.6144C140.01 85.6094 140.182 85.78 140.182 86.126C140.179 87.8649 140.176 89.5896 140.175 91.3002C140.175 91.6918 140.201 92.0945 140.254 92.5083C140.434 93.9196 142.046 94.6289 143.272 94.0138Z" fill="#A1A1A1"/>
</svg>
