<svg width="300" height="84" viewBox="0 0 300 84" fill="none" xmlns="http://www.w3.org/2000/svg">
<path d="M50.1295 45.6617L57.1496 28.6953H67.6798V29.3974H66.8404C66.0774 29.3974 65.4669 29.5303 65.0091 29.796C64.6912 29.9731 64.4368 30.2704 64.246 30.688C64.1061 30.9916 64.0362 31.7824 64.0362 33.0602V50.0267C64.0362 51.3425 64.1061 52.1649 64.246 52.4938C64.3859 52.8228 64.6721 53.1138 65.1045 53.3668C65.5369 53.6072 66.1155 53.7274 66.8404 53.7274H67.6798V54.4296H54.1737V53.7274H55.013C55.7761 53.7274 56.3865 53.5945 56.8444 53.3288C57.1623 53.1517 57.4167 52.8481 57.6074 52.4179C57.7473 52.1143 57.8173 51.3172 57.8173 50.0267V30.9537L47.8975 54.4296H47.4397L37.3673 31.1245V49.2486C37.3673 50.5138 37.3991 51.2919 37.4627 51.5829C37.628 52.2155 37.9841 52.7342 38.531 53.1391C39.0905 53.5313 39.9617 53.7274 41.1444 53.7274V54.4296H32.293V53.7274H32.56C33.1323 53.74 33.6665 53.6515 34.1625 53.4617C34.6584 53.2593 35.0336 52.9936 35.288 52.6646C35.5423 52.3357 35.7394 51.8739 35.8793 51.2792C35.9048 51.14 35.9175 50.4948 35.9175 49.3434V33.0602C35.9175 31.7571 35.8475 30.9473 35.7077 30.631C35.5678 30.3021 35.2816 30.0174 34.8492 29.777C34.4168 29.524 33.8382 29.3974 33.1133 29.3974H32.293V28.6953H42.8613L50.1295 45.6617Z" fill="white"/>
<path d="M95.2148 28.3347C99.3353 28.1828 102.68 29.3785 105.249 31.9215C107.831 34.4646 109.122 37.6466 109.122 41.4675C109.122 44.7318 108.161 47.6038 106.241 50.0836C103.697 53.3731 100.105 55.0179 95.4628 55.0179C90.8081 55.0179 87.209 53.449 84.6655 50.3113C82.6561 47.8315 81.6514 44.8899 81.6514 41.4865C81.6514 37.6656 82.955 34.4836 85.5621 31.9405C88.1819 29.3848 91.3995 28.1828 95.2148 28.3347ZM95.4437 29.5493C93.0782 29.5493 91.2787 30.7512 90.0451 33.1551C89.0404 35.1288 88.538 37.9629 88.538 41.6573C88.538 46.0476 89.3138 49.2928 90.8653 51.3931C91.9463 52.8607 93.4597 53.5945 95.4055 53.5945C96.7155 53.5945 97.8092 53.2782 98.6867 52.6456C99.8058 51.8359 100.677 50.5454 101.3 48.7741C101.923 46.9902 102.235 44.6685 102.235 41.8091C102.235 38.4057 101.917 35.8627 101.281 34.1799C100.645 32.4846 99.8313 31.2889 98.8393 30.5931C97.86 29.8972 96.7282 29.5493 95.4437 29.5493Z" fill="white"/>
<path d="M148.331 28.1069V37.0266H147.587C147.028 34.6987 145.985 32.9147 144.459 31.6748C142.933 30.4349 141.203 29.815 139.27 29.815C137.655 29.815 136.173 30.2768 134.825 31.2004C133.477 32.124 132.491 33.3322 131.868 34.8252C131.067 36.7357 130.666 38.8612 130.666 41.2018C130.666 43.5045 130.959 45.6048 131.544 47.5026C132.129 49.3877 133.045 50.8174 134.291 51.7916C135.537 52.7532 137.152 53.234 139.136 53.234C140.764 53.234 142.252 52.8797 143.6 52.1712C144.961 51.4627 146.392 50.2417 147.893 48.5084V50.7288C146.443 52.2344 144.929 53.3288 143.352 54.0121C141.788 54.6826 139.957 55.0179 137.858 55.0179C135.099 55.0179 132.644 54.4675 130.495 53.3668C128.358 52.2661 126.705 50.6846 125.535 48.6223C124.378 46.56 123.799 44.3649 123.799 42.0369C123.799 39.5824 124.441 37.2544 125.726 35.0529C127.023 32.8515 128.765 31.1434 130.953 29.9288C133.153 28.7142 135.486 28.1069 137.954 28.1069C139.772 28.1069 141.693 28.4991 143.715 29.2836C144.885 29.7391 145.629 29.9668 145.947 29.9668C146.354 29.9668 146.703 29.8213 146.996 29.5303C147.301 29.2266 147.498 28.7522 147.587 28.1069H148.331Z" fill="white"/>
<path d="M172.89 42.0558V50.0267C172.89 51.3425 172.96 52.1649 173.1 52.4938C173.253 52.8228 173.539 53.1138 173.959 53.3668C174.391 53.6072 174.97 53.7274 175.695 53.7274H176.553V54.4296H163.028V53.7274H163.886C164.637 53.7274 165.241 53.5945 165.698 53.3288C166.029 53.1517 166.283 52.8481 166.462 52.4179C166.601 52.1143 166.671 51.3172 166.671 50.0267V33.0982C166.671 31.7824 166.601 30.96 166.462 30.631C166.322 30.3021 166.035 30.0174 165.603 29.777C165.183 29.524 164.611 29.3974 163.886 29.3974H163.028V28.6953H176.553V29.3974H175.695C174.944 29.3974 174.34 29.5303 173.882 29.796C173.552 29.9731 173.291 30.2768 173.1 30.7069C172.96 31.0106 172.89 31.8077 172.89 33.0982V40.3858H182.028V33.0982C182.028 31.7824 181.958 30.96 181.818 30.631C181.678 30.3021 181.392 30.0174 180.96 29.777C180.527 29.524 179.949 29.3974 179.224 29.3974H178.384V28.6953H191.89V29.3974H191.051C190.288 29.3974 189.684 29.5303 189.239 29.796C188.908 29.9731 188.647 30.2768 188.457 30.7069C188.317 31.0106 188.247 31.8077 188.247 33.0982V50.0267C188.247 51.3425 188.317 52.1649 188.457 52.4938C188.597 52.8228 188.883 53.1138 189.315 53.3668C189.748 53.6072 190.326 53.7274 191.051 53.7274H191.89V54.4296H178.384V53.7274H179.224C179.987 53.7274 180.591 53.5945 181.036 53.3288C181.367 53.1517 181.627 52.8481 181.818 52.4179C181.958 52.1143 182.028 51.3172 182.028 50.0267V42.0558H172.89Z" fill="white"/>
<path d="M214.981 30.1755V40.6515H215.496C217.136 40.6515 218.325 40.1391 219.063 39.1142C219.801 38.0894 220.271 36.5775 220.475 34.5785H221.2V48.0529H220.475C220.322 46.5853 219.998 45.3833 219.502 44.4471C219.018 43.5108 218.453 42.8846 217.804 42.5683C217.155 42.2393 216.214 42.0748 214.981 42.0748V49.3245C214.981 50.7415 215.038 51.6082 215.152 51.9245C215.279 52.2408 215.508 52.5001 215.839 52.7026C216.17 52.905 216.704 53.0062 217.441 53.0062H218.987C221.403 53.0062 223.336 52.4495 224.786 51.3361C226.248 50.2228 227.298 48.5274 227.934 46.25H228.639L227.476 54.4296H205.118V53.7274H205.977C206.727 53.7274 207.331 53.5945 207.789 53.3288C208.119 53.1517 208.374 52.8481 208.552 52.4179C208.692 52.1143 208.762 51.3172 208.762 50.0267V33.0982C208.762 31.9342 208.73 31.2193 208.666 30.9537C208.539 30.5108 208.304 30.1692 207.96 29.9288C207.477 29.5746 206.816 29.3974 205.977 29.3974H205.118V28.6953H226.77V36.3055H226.045C225.676 34.4456 225.155 33.1108 224.481 32.3011C223.819 31.4914 222.878 30.8967 221.657 30.5172C220.945 30.2894 219.61 30.1755 217.651 30.1755H214.981Z" fill="white"/>
<path d="M252.76 30.1755V40.6515H253.275C254.915 40.6515 256.104 40.1391 256.842 39.1142C257.58 38.0894 258.05 36.5775 258.254 34.5785H258.979V48.0529H258.254C258.101 46.5853 257.777 45.3833 257.281 44.4471C256.797 43.5108 256.232 42.8846 255.583 42.5683C254.934 42.2393 253.993 42.0748 252.76 42.0748V49.3245C252.76 50.7415 252.817 51.6082 252.931 51.9245C253.059 52.2408 253.287 52.5001 253.618 52.7026C253.949 52.905 254.483 53.0062 255.221 53.0062H256.766C259.182 53.0062 261.115 52.4495 262.565 51.3361C264.027 50.2228 265.077 48.5274 265.713 46.25H266.418L265.255 54.4296H242.897V53.7274H243.756C244.506 53.7274 245.11 53.5945 245.568 53.3288C245.898 53.1517 246.153 52.8481 246.331 52.4179C246.471 52.1143 246.541 51.3172 246.541 50.0267V33.0982C246.541 31.9342 246.509 31.2193 246.445 30.9537C246.318 30.5108 246.083 30.1692 245.74 29.9288C245.256 29.5746 244.595 29.3974 243.756 29.3974H242.897V28.6953H264.549V36.3055H263.824C263.455 34.4456 262.934 33.1108 262.26 32.3011C261.598 31.4914 260.657 30.8967 259.436 30.5172C258.724 30.2894 257.389 30.1755 255.43 30.1755H252.76Z" fill="white"/>
</svg>
