<svg width="174" height="87" viewBox="0 0 174 87" fill="none" xmlns="http://www.w3.org/2000/svg">
<path d="M99.2297 10.5294L100.177 10.461C100.276 10.4534 100.344 10.4961 100.38 10.5892C100.612 11.1791 99.7935 11.7262 99.6218 12.1023C99.3394 12.7273 99.4653 12.8242 99.9996 12.393C100.11 12.3037 100.228 12.1869 100.352 12.0425C100.722 11.6075 101.29 11.3025 102.058 11.1278C102.081 11.1228 102.104 11.1228 102.127 11.1276C102.151 11.1324 102.172 11.1419 102.191 11.1556C102.211 11.1693 102.227 11.1868 102.239 11.2071C102.251 11.2273 102.258 11.2498 102.261 11.2731C102.398 12.4728 101.68 12.7292 101.013 13.4416C100.53 13.9603 100.615 14.079 101.268 13.7978C101.809 13.5642 102.365 13.6174 102.933 13.9574C102.95 13.9679 102.965 13.9819 102.976 13.9985C102.987 14.0151 102.995 14.0339 102.998 14.0536C103.001 14.0734 103 14.0935 102.995 14.1128C102.99 14.1321 102.981 14.1501 102.968 14.1654C102.256 15.0032 101.39 15.5323 100.369 15.7527C100.277 15.7736 100.257 15.823 100.309 15.9009L100.377 16.0006C100.4 16.0322 100.432 16.0561 100.469 16.0688C100.506 16.0816 100.546 16.0826 100.583 16.0718C101.169 15.8933 101.692 15.9825 102.152 16.3397C102.175 16.3572 102.193 16.3802 102.205 16.4066C102.216 16.433 102.221 16.4619 102.219 16.4907C102.216 16.5194 102.206 16.547 102.19 16.5709C102.174 16.5948 102.152 16.6143 102.126 16.6275C101.338 17.0264 100.444 17.3 99.4443 17.4482C99.3852 17.4558 99.3642 17.4881 99.3814 17.5451L99.4071 17.6277C99.4172 17.6624 99.4396 17.6923 99.4701 17.7117C99.5007 17.7311 99.5373 17.7387 99.5731 17.7332L102.106 17.357C102.261 17.3342 102.295 17.3864 102.209 17.5137L101.82 18.0951C101.763 18.1824 101.768 18.2651 101.837 18.343C101.885 18.4 101.946 18.4332 102.02 18.4427C102.133 18.456 102.175 18.5177 102.146 18.6279C101.823 19.8561 99.0637 20.9304 97.9045 20.5942C97.5248 20.4821 97.1317 20.4327 96.7253 20.446C96.7126 20.4464 96.7003 20.4496 96.6891 20.4555C96.6779 20.4613 96.6682 20.4697 96.6607 20.4799C96.6533 20.49 96.6482 20.5018 96.646 20.5142C96.6438 20.5266 96.6445 20.5393 96.648 20.5514L96.6709 20.6369C96.7091 20.7718 96.7968 20.8563 96.9342 20.8905C97.9856 21.1527 99.0789 21.1413 100.214 20.8563C100.939 20.6739 101.52 20.7784 101.957 21.1698C102.072 21.2743 102.08 21.3854 101.983 21.5032C101.27 22.3609 99.8336 22.5119 98.8032 22.7769C98.7661 22.7869 98.7322 22.8063 98.7048 22.8331C98.6775 22.8599 98.6576 22.8933 98.6472 22.9299C98.6367 22.9664 98.6362 23.005 98.6455 23.0416C98.6548 23.0783 98.6736 23.1118 98.7002 23.1388L98.9835 23.4267C99.0272 23.4707 99.0585 23.5254 99.0744 23.5852C99.0904 23.645 99.0904 23.7079 99.0746 23.7677C99.0587 23.8275 99.0274 23.8822 98.9838 23.9263C98.9403 23.9705 98.8859 24.0025 98.8261 24.0194C96.8035 24.5874 94.7971 24.5257 92.807 23.8342C92.6028 23.7639 92.4015 23.78 92.203 23.8826C92.0885 23.9434 92.0905 23.9975 92.2088 24.045C93.0979 24.4117 93.9299 24.8458 94.7046 25.3473C94.8897 25.4689 94.8725 25.5401 94.6531 25.561C93.762 25.6465 92.8213 25.6588 91.831 25.5981C91.6745 25.5886 91.6411 25.6474 91.7308 25.7747C91.9626 26.111 92.6696 26.2307 93.0474 26.2307C94.759 26.225 96.7281 25.7605 98.351 26.225C98.4483 26.2535 98.5428 26.2449 98.6344 26.1993C98.9702 26.0321 99.3241 25.8992 99.6962 25.8004C100.278 25.6484 100.368 25.7947 99.9653 26.2392C99.7115 26.5223 99.7258 26.7521 100.008 26.9288C100.041 26.949 100.068 26.9762 100.088 27.0083C100.109 27.0405 100.122 27.0767 100.126 27.1145C100.13 27.1523 100.126 27.1905 100.114 27.2264C100.101 27.2624 100.081 27.295 100.054 27.3221C99.3184 28.0544 97.9245 27.8977 96.9485 27.8977C96.9245 27.8973 96.9007 27.9031 96.8797 27.9147C96.8586 27.9262 96.841 27.9431 96.8285 27.9636C96.8161 27.9841 96.8092 28.0075 96.8087 28.0314C96.8081 28.0553 96.8139 28.079 96.8255 28.1L96.8712 28.1855C96.9323 28.3014 97.0287 28.3603 97.1603 28.3622C97.8702 28.3736 98.5504 28.384 99.2011 28.3935C99.7649 28.4021 100.346 28.8979 100.074 29.502C99.8422 30.0178 99.1324 30.4538 98.5828 30.0919C98.3329 29.9285 98.0648 29.8259 97.7786 29.7841C97.3912 29.7309 97.3359 29.8411 97.6126 30.1147C97.9808 30.4813 98.4655 30.8062 99.0665 31.0892C99.0871 31.0994 99.1045 31.1149 99.1171 31.1341C99.1296 31.1532 99.1367 31.1753 99.1375 31.1979C99.1384 31.2205 99.1331 31.2428 99.1221 31.2623C99.1111 31.2818 99.0948 31.2979 99.0751 31.3087L98.3539 31.7048C98.2528 31.7603 98.1751 31.85 98.1346 31.9577C98.0942 32.0653 98.0938 32.1838 98.1335 32.2918L98.4483 33.1324C98.457 33.1543 98.4593 33.1781 98.4551 33.2012C98.4508 33.2243 98.4401 33.2458 98.4242 33.2635C98.4083 33.2811 98.3877 33.2942 98.3647 33.3012C98.3417 33.3082 98.3171 33.309 98.2938 33.3034C97.6145 33.1286 97.1002 32.8598 96.751 32.4969C96.1862 31.9137 95.9096 32.0249 95.921 32.8304C95.921 32.931 95.9181 33.0308 95.9124 33.1296C95.9076 33.2085 95.8818 33.2847 95.8378 33.3505C95.7937 33.4163 95.733 33.4692 95.6618 33.5037C95.5907 33.5383 95.5116 33.5532 95.4329 33.5471C95.3542 33.5409 95.2787 33.5138 95.214 33.4687C94.4737 32.9576 93.741 32.4229 93.0159 31.8643C92.806 31.7048 92.7011 31.7561 92.7011 32.0182C92.7011 32.0771 92.7354 32.1749 92.8041 32.3117C93.0636 32.8209 93.3536 33.3404 93.6742 33.8705C93.741 33.9806 93.7114 34.0205 93.5855 33.9901C93.1199 33.8781 92.6762 33.7109 92.2546 33.4886C92.1649 33.4411 92.0876 33.4563 92.0227 33.5342C91.788 33.8154 91.4245 33.8838 90.9322 33.7394C90.0812 33.4943 89.7225 32.9852 89.856 32.212C89.8713 32.1265 89.8427 32.06 89.7702 32.0125C89.7339 31.9897 89.6977 31.984 89.6614 31.9954C89.6118 32.0106 89.5622 32.0515 89.5126 32.118L89.0718 32.7107C88.9917 32.8209 88.9029 32.8275 88.8056 32.7306C88.4183 32.3431 88.2389 31.8843 88.2675 31.3543C88.2714 31.2593 88.2513 31.1709 88.2074 31.0892C88.0739 30.8347 87.8764 30.6248 87.615 30.4595C87.523 30.4015 87.448 30.321 87.3974 30.2258C87.1933 29.8497 87.0845 29.4868 87.0712 29.1373C87.0234 27.9518 86.9767 27.1929 86.9309 26.8604C86.8431 26.2278 86.5798 25.712 86.1409 25.3131C86.0902 25.267 86.0302 25.2322 85.9649 25.211C85.8996 25.1899 85.8306 25.1828 85.7625 25.1904C85.6945 25.1979 85.6289 25.2199 85.5702 25.2549C85.5116 25.2898 85.4612 25.3369 85.4225 25.3929C85.0447 25.94 84.8243 26.5612 84.8215 27.2337C84.8177 28.5066 84.7337 29.7993 84.5696 31.112C84.5104 31.5832 84.3502 32.0401 84.0888 32.4827C83.9247 32.7563 83.7214 32.7895 83.4791 32.5824C83.3513 32.4742 83.2053 32.4295 83.0412 32.4485C82.921 32.4637 82.8771 32.4134 82.9095 32.2975C83.0259 31.8738 83.1681 31.4359 83.336 30.9838C83.3417 30.9686 83.3379 30.9553 83.3246 30.9439L83.273 30.8926C83.2177 30.8432 83.171 30.8489 83.1328 30.9097C82.8599 31.3391 82.6395 31.7997 82.4716 32.2918C82.2656 32.8921 81.8753 33.1115 81.301 32.95C81.2349 32.932 81.1658 32.9275 81.0979 32.9368C81.03 32.9461 80.9648 32.969 80.906 33.0042C80.5435 33.2245 80.1695 33.3509 79.784 33.3832C79.7072 33.3898 79.63 33.3774 79.5592 33.347C79.4884 33.3166 79.4263 33.2692 79.3783 33.2091C79.3304 33.149 79.2982 33.078 79.2846 33.0024C79.271 32.9269 79.2764 32.8492 79.3003 32.7762L79.8728 31.0038C79.9682 30.7074 79.8794 30.6352 79.6066 30.7872C79.3604 30.924 79.1372 31.36 79.0571 31.6278C78.7975 32.496 78.2251 32.8607 77.3397 32.7221C77.1413 32.6917 76.9457 32.7078 76.753 32.7705C76.4954 32.8579 76.2359 32.8911 75.9745 32.8702C75.905 32.8648 75.8383 32.8406 75.7817 32.8003C75.725 32.76 75.6805 32.7051 75.653 32.6416C75.6255 32.5781 75.6162 32.5084 75.6259 32.4402C75.6357 32.372 75.6642 32.3078 75.7083 32.2547L76.8875 30.8014C76.9448 30.7311 76.9553 30.6552 76.919 30.5735L76.8818 30.4823C76.8779 30.4739 76.872 30.4667 76.8647 30.4611C76.8574 30.4555 76.849 30.4518 76.8401 30.4504C76.8312 30.449 76.8222 30.4498 76.814 30.4529C76.8058 30.456 76.7986 30.4612 76.7931 30.468C75.818 31.6041 74.9422 31.9926 74.1656 31.6335C74.1269 31.616 74.0964 31.5844 74.0804 31.5451C74.0644 31.5059 74.0642 31.4621 74.0797 31.4226C74.4947 30.3626 73.3813 29.975 72.6372 29.6901C72.555 29.6588 72.4822 29.6068 72.4256 29.539C72.369 29.4712 72.3305 29.3898 72.3138 29.3025C72.2107 28.7811 72.64 28.2938 73.1839 28.4933C73.5025 28.6129 73.8212 28.7402 74.1398 28.8751C74.2333 28.9131 74.302 28.8874 74.3459 28.7982L74.3831 28.7184C74.3874 28.7094 74.3899 28.6997 74.3903 28.6898C74.3907 28.6799 74.3892 28.67 74.3857 28.6607C74.3822 28.6514 74.3769 28.6428 74.3701 28.6356C74.3633 28.6284 74.355 28.6226 74.3459 28.6186C73.68 28.3204 73.0894 27.9841 72.5742 27.6099C72.4972 27.5543 72.4344 27.4814 72.391 27.3971C72.3477 27.3128 72.3249 27.2195 72.3246 27.1247C72.3244 27.03 72.3466 26.9366 72.3894 26.852C72.4323 26.7675 72.4946 26.6942 72.5714 26.6382L73.1552 26.2136C73.1787 26.1969 73.1984 26.1755 73.213 26.1506C73.2275 26.1258 73.2365 26.0982 73.2395 26.0696C73.2425 26.041 73.2393 26.0122 73.2302 25.9849C73.2211 25.9576 73.2063 25.9326 73.1867 25.9115L72.6 25.2789C72.5677 25.244 72.5437 25.2024 72.5296 25.157C72.5155 25.1117 72.5118 25.0638 72.5186 25.0169C72.5255 24.9699 72.5428 24.9251 72.5692 24.8856C72.5957 24.8462 72.6306 24.8131 72.6715 24.7888C73.1352 24.5095 73.6676 24.4696 74.1913 24.6292C74.8859 24.8382 75.6243 24.7764 76.4067 24.444C77.7519 23.8712 78.3014 25.0224 79.4005 25.182C79.5703 25.2067 79.6676 25.2162 79.6925 25.2105C80.1924 25.1269 80.2038 24.9987 79.7268 24.8258C78.519 24.387 77.9408 23.2215 76.4725 23.0505C74.8296 22.8567 73.2182 22.6174 71.6869 21.9506C71.5858 21.9069 71.5581 21.8347 71.6039 21.734C71.6726 21.582 71.7986 21.507 71.9817 21.5089C72.1993 21.5108 72.2498 21.4205 72.1334 21.2382C71.2977 19.933 68.862 19.933 68.4412 18.2404C68.4323 18.2057 68.4339 18.1693 68.4459 18.1356C68.4579 18.1019 68.4798 18.0725 68.5087 18.0509C68.5377 18.0294 68.5725 18.0167 68.6088 18.0144C68.6452 18.0121 68.6814 18.0203 68.7131 18.0381C69.5184 18.4959 70.2444 18.8245 70.8913 19.024C71.3816 19.1722 71.4694 19.0459 71.1546 18.645C70.4648 17.7702 68.4326 17.5565 68.258 16.3197C68.2425 16.2078 68.2582 16.0937 68.3035 15.9901C68.3488 15.8865 68.4218 15.7972 68.5146 15.7322C68.6075 15.6671 68.7165 15.6288 68.8298 15.6213C68.943 15.6139 69.0562 15.6376 69.1568 15.69C70.252 16.2656 71.4312 16.7567 72.6944 17.1632C73.3699 17.3798 74.2429 17.7559 74.8897 17.7958C75.6969 17.8471 75.7322 17.7066 74.9956 17.3741C74.7237 17.2516 74.2829 17.0378 73.9566 16.9581C72.3176 16.5553 70.7825 16.0072 69.3514 15.3138C68.7103 15.0042 68.2657 14.5501 68.0176 13.9517C68.0013 13.9117 67.9962 13.8681 68.0028 13.8255C68.0093 13.7829 68.0274 13.7428 68.0549 13.7095C68.0825 13.6762 68.1186 13.651 68.1594 13.6364C68.2002 13.6219 68.2442 13.6186 68.2867 13.6269L68.6702 13.7067C68.7421 13.7208 68.8165 13.7167 68.8864 13.6946C68.9562 13.6726 69.0194 13.6333 69.0699 13.5804C69.1205 13.5275 69.1568 13.4628 69.1755 13.3922C69.1941 13.3216 69.1946 13.2474 69.1768 13.1766L68.882 12.0026C68.8613 11.9175 68.8668 11.828 68.8979 11.746C68.9289 11.664 68.9841 11.5934 69.056 11.5433C69.128 11.4933 69.2134 11.4663 69.3008 11.4659C69.3883 11.4655 69.4738 11.4916 69.546 11.541C70.0841 11.9 70.8397 12.6637 71.4723 12.7777C71.6669 12.8138 71.6936 12.7625 71.5524 12.6238C70.7596 11.8373 69.9095 11.3101 70.2158 9.99078C70.2444 9.87109 70.3102 9.84545 70.4133 9.91384C70.6155 10.0468 70.7958 10.0402 70.9542 9.89389C71.0248 9.8274 71.0582 9.74666 71.0544 9.65167L71.0029 8.31806C70.9991 8.21547 71.0477 8.16418 71.1488 8.16418C72.8604 8.14423 72.3939 9.39236 73.2669 10.2045C73.2836 10.2194 73.3057 10.2272 73.3281 10.2261C73.3506 10.2251 73.3718 10.2152 73.3871 10.1988L73.4386 10.1447C73.4558 10.1276 73.4567 10.1086 73.4415 10.0877C73.2812 9.86349 73.2201 9.63552 73.2583 9.40376C73.306 9.1036 73.4815 8.97632 73.7849 9.02191C74.4804 9.1245 75.0786 9.4522 75.2961 10.1447C75.3896 10.4391 75.5137 10.707 75.6682 10.9482C75.8648 11.2503 75.9516 11.2218 75.9287 10.8628C75.8943 10.3356 75.7512 9.89959 76.2807 9.51774C76.3336 9.47978 76.3955 9.45657 76.46 9.45056C76.5245 9.44454 76.5891 9.45593 76.6471 9.48355C78.6277 10.4325 79.5207 13.4217 80.2449 15.3195C80.5559 16.1288 81.113 16.485 81.9164 16.3881C83.1614 16.2343 82.4659 14.7183 82.0108 14.1199C81.2924 13.1795 80.491 12.2619 80.2048 11.0708C80.0426 10.3907 79.9615 9.72766 79.9615 9.08175C79.9615 8.86138 80.0617 8.79774 80.262 8.89083C80.4414 8.97252 80.5759 9.0998 80.6656 9.27268C81.1903 10.2985 81.7542 11.1639 82.3571 11.8687C82.4489 11.9767 82.5689 12.0567 82.7035 12.0995C82.7569 12.1166 82.8122 12.1213 82.8695 12.1137C82.9801 12.0985 83.0049 12.0434 82.9439 11.9485C82.2074 10.8257 81.53 9.74191 80.9117 8.69705C80.5654 8.11004 80.056 6.48006 81.3726 6.64819C82.443 6.78782 82.8237 7.84787 83.3331 8.66571C83.3737 8.73004 83.4311 8.7821 83.4992 8.81626C83.5673 8.85041 83.6435 8.86536 83.7195 8.85948L83.8169 8.85093C83.8379 8.84981 83.8583 8.84305 83.8758 8.83137C83.8934 8.81969 83.9074 8.80352 83.9165 8.78456C83.9256 8.7656 83.9293 8.74456 83.9274 8.72365C83.9255 8.70273 83.918 8.68272 83.9056 8.66571C83.1414 7.60851 82.2312 6.14096 82.1196 4.84724C82.0833 4.4255 82.2083 4.37136 82.4945 4.68481C82.733 4.94888 82.9744 5.03911 83.2187 4.95552C83.2641 4.94004 83.3041 4.91197 83.334 4.87462C83.3639 4.83726 83.3825 4.79217 83.3875 4.74465L83.5936 2.71004C83.6022 2.62457 83.6331 2.54284 83.6834 2.47304C83.7336 2.40324 83.8015 2.34781 83.88 2.31231C83.9586 2.27682 84.0451 2.2625 84.131 2.27078C84.2168 2.27907 84.299 2.30968 84.3693 2.35953L84.8501 2.70149C84.8872 2.72731 84.9308 2.7422 84.976 2.74444C85.0212 2.74668 85.066 2.73619 85.1055 2.71416C85.145 2.69214 85.1774 2.65948 85.199 2.61994C85.2207 2.58039 85.2307 2.53557 85.2279 2.49062C85.2184 2.35953 85.2394 2.23225 85.2909 2.10877C85.558 1.47236 85.8137 0.863493 86.0579 0.282174C86.2182 -0.0996733 86.3642 -0.0939741 86.4959 0.299271C86.7992 1.2026 87.3316 2.99215 88.6511 2.26835C88.7484 2.21516 88.799 2.24365 88.8028 2.35384C88.8199 2.80407 88.9277 3.26096 89.1262 3.7245C89.1663 3.82138 89.2388 3.86983 89.3437 3.86983L89.6929 3.87267C89.794 3.87267 89.8694 3.91542 89.919 4.00091C90.2653 4.58508 90.1795 5.20914 90.2854 5.85315C90.3064 5.97853 90.3731 6.07162 90.4857 6.13241L90.7548 6.28059C90.7919 6.30047 90.8247 6.32733 90.8512 6.3596C90.8777 6.39188 90.8975 6.42895 90.9093 6.46866C91.0944 7.06328 91.228 7.59616 91.31 8.06729C91.394 8.54603 91.2375 9.20523 90.8406 10.0449C90.7758 10.1798 90.8053 10.2909 90.9294 10.3783L91.0124 10.4353C91.0257 10.4451 91.041 10.4517 91.0573 10.4547C91.0736 10.4577 91.0905 10.457 91.1066 10.4526C91.1228 10.4483 91.1379 10.4404 91.1508 10.4295C91.1637 10.4186 91.1741 10.405 91.1812 10.3897L91.9483 8.7056C92.1849 8.18888 92.452 8.17273 92.7497 8.65716L92.8785 8.86518C92.9986 9.06101 93.0716 9.2817 93.092 9.51006C93.1123 9.73842 93.0794 9.96827 92.9959 10.1817C92.5417 11.3424 92.2193 12.0567 92.0284 12.3246C91.3568 13.265 90.6756 14.2234 89.9848 15.1999C89.8284 15.4183 89.7349 15.6548 89.7044 15.9094C89.691 16.0158 89.7215 16.107 89.7959 16.183C90.1995 16.5905 90.7805 16.713 91.2442 16.3226C91.6812 15.9578 92.1448 15.632 92.6352 15.3452C93.0703 15.0916 92.8499 14.6071 92.9243 14.2196C93.2535 12.5782 95.1425 11.293 96.6509 10.9026C96.6789 10.8951 96.7084 10.896 96.7359 10.9052C96.7633 10.9144 96.7875 10.9316 96.8054 10.9546C96.8233 10.9776 96.8342 11.0054 96.8368 11.0346C96.8393 11.0639 96.8334 11.0933 96.8197 11.1192L95.7779 13.0598C95.6501 13.2992 95.7178 13.3856 95.9811 13.3191C96.149 13.2773 96.2826 13.1633 96.3818 12.9772C96.7997 12.185 97.2223 11.3861 97.6498 10.5806C97.9799 9.96323 98.4474 9.50919 99.0522 9.21853C99.0739 9.20836 99.098 9.20428 99.1219 9.20674C99.1457 9.20919 99.1684 9.21808 99.1876 9.23245C99.2067 9.24682 99.2216 9.26613 99.2305 9.28828C99.2394 9.31044 99.2421 9.3346 99.2383 9.35816L99.0551 10.3384C99.0303 10.4771 99.0885 10.5407 99.2297 10.5294ZM80.7801 20.6568C79.9749 20.7556 79.0628 20.653 78.0438 20.3491C76.6891 19.9444 75.3429 19.5303 74.0053 19.1067C73.7859 19.0364 73.5655 18.9813 73.3441 18.9414C73.2335 18.9205 73.1686 18.9651 73.1495 19.0753C73.1247 19.2064 73.1724 19.309 73.2926 19.3831C74.3574 20.0356 75.8199 20.2607 77.0135 20.5771C77.2024 20.6283 77.209 20.6948 77.0335 20.7765C76.6652 20.9494 76.2512 21.0586 75.7913 21.1042C75.7016 21.1137 75.6463 21.1631 75.6253 21.2524C75.6158 21.2904 75.6253 21.3236 75.6539 21.3521C75.6921 21.392 75.7369 21.4186 75.7884 21.4319C76.1071 21.5155 76.4162 21.4965 76.7158 21.3749C77.3913 21.1014 78.0038 20.976 78.5533 20.9988C80.594 21.0814 82.3543 21.3237 83.8627 22.9622C84.4809 23.6347 83.9256 24.2787 83.1843 24.3613C82.6376 24.4212 82.0652 24.4269 81.5529 24.253C81.0625 24.0878 80.5673 23.95 80.0674 23.8399C80.0413 23.8348 80.0142 23.8368 79.9891 23.8456C79.964 23.8545 79.9419 23.8699 79.925 23.8902C79.9082 23.9104 79.8974 23.9348 79.8937 23.9606C79.8901 23.9864 79.8937 24.0126 79.9043 24.0365C80.0989 24.4981 81.3869 24.8999 81.8448 25.0395C82.0833 25.1117 82.1291 25.2485 81.9822 25.4499C81.0091 26.7863 78.5991 26.3105 77.2596 25.789C77.2376 25.7803 77.2139 25.7766 77.1902 25.7782C77.1665 25.7799 77.1435 25.7868 77.1227 25.7985C77.1018 25.8103 77.0838 25.8265 77.0699 25.846C77.056 25.8655 77.0465 25.8879 77.0421 25.9115L77.0192 26.0511C77.012 26.0925 77.0206 26.135 77.0433 26.1707C77.066 26.2065 77.1012 26.2329 77.1423 26.2449L79.1744 26.8405C79.3194 26.8842 79.328 26.945 79.2002 27.0229C78.9731 27.1615 78.7241 27.2831 78.4531 27.3876C78.4192 27.4012 78.39 27.4247 78.3696 27.455C78.3491 27.4853 78.3383 27.5209 78.3386 27.5571C78.3389 27.5934 78.3503 27.6285 78.3713 27.6578C78.3923 27.687 78.4218 27.7091 78.456 27.721C78.5438 27.7533 78.6315 27.7609 78.7193 27.7438C78.8624 27.7172 78.9187 27.7752 78.8882 27.9176C78.705 28.7744 78.393 29.6749 77.9522 30.6191C77.9463 30.6318 77.9435 30.6458 77.9439 30.6599C77.9443 30.674 77.948 30.6877 77.9546 30.7002C77.9613 30.7126 77.9707 30.7233 77.9822 30.7315C77.9937 30.7397 78.007 30.7451 78.0209 30.7473L78.1326 30.7615C78.2852 30.7843 78.3921 30.7254 78.4531 30.5849L79.5436 28.0658C79.8127 27.4389 80.2477 26.9611 80.8488 26.6325C81.1655 26.4577 81.4975 26.2706 81.8448 26.0711C82.3161 25.7975 82.4993 25.9267 82.3944 26.4586C82.1692 27.6213 81.9593 28.821 81.7647 30.0577C81.7265 30.3085 81.7265 30.5573 81.7647 30.8043C81.7857 30.9449 81.8362 30.9572 81.9164 30.8413C83.3131 28.8438 82.2856 26.1908 84.4437 24.595C85.5656 23.7658 86.9624 24.0251 87.7295 25.1792C88.1817 25.8545 88.299 26.698 88.5795 27.4588C89.0174 28.6329 89.899 29.7328 90.6374 30.7815C90.7977 31.0076 90.9485 31.1586 91.0897 31.2346C91.4159 31.4093 91.478 31.3429 91.2757 31.0351C90.3369 29.6046 89.4067 28.3308 88.8629 26.641C88.8228 26.5156 88.8009 26.3855 88.797 26.2506C88.7875 25.8479 88.9144 25.7994 89.1777 26.1053L89.7816 26.8091C89.879 26.9231 89.9992 27.001 90.1423 27.0428C90.5811 27.1701 91.9559 27.3601 94.2667 27.6127C94.5014 27.6393 94.5433 27.5614 94.3926 27.3791C94.3754 27.3601 94.3583 27.342 94.3411 27.3249C94.114 27.1045 93.8316 26.983 93.4939 26.9602C91.1679 26.8006 89.441 25.9334 88.3133 24.3585C87.6464 23.4267 88.6711 22.8282 89.4782 22.8795C90.6785 22.9574 91.85 22.9821 92.993 22.9536C93.3403 22.946 93.6274 22.8558 93.8545 22.6829C93.9003 22.6468 93.9223 22.5993 93.9203 22.5404C93.9165 22.3999 93.8459 22.3419 93.7085 22.3666C92.7488 22.5433 91.6564 22.5775 90.4313 22.4692C89.6185 22.397 89.4954 22.0683 90.0621 21.4832L90.9208 20.5942C91.4627 20.0337 92.121 19.8029 92.8957 19.9017C93.9929 20.0423 95.1663 19.8931 96.4162 19.4543C96.4305 19.4488 96.4433 19.4401 96.4537 19.4289C96.464 19.4178 96.4716 19.4044 96.4758 19.39C96.48 19.3755 96.4807 19.3604 96.4778 19.3458C96.4748 19.3313 96.4685 19.3177 96.4591 19.3061L96.4047 19.2377C96.3855 19.2118 96.3598 19.1914 96.3302 19.1784C96.3005 19.1654 96.268 19.1603 96.2358 19.1637L92.8356 19.5256C92.7946 19.5296 92.7532 19.5218 92.7165 19.503C92.6798 19.4843 92.6494 19.4554 92.629 19.42C92.6086 19.3846 92.5992 19.3441 92.6018 19.3036C92.6044 19.2632 92.619 19.2244 92.6438 19.1921L93.0932 18.5852C93.1504 18.5092 93.1313 18.4712 93.0359 18.4712C92.4234 18.4655 91.31 19.4971 90.855 19.9444C89.8856 20.9 88.9573 21.7777 88.07 22.5775C87.7571 22.8605 87.3812 23.0819 86.9424 23.2414C86.8949 23.2582 86.8439 23.2624 86.7943 23.2538C86.7447 23.2451 86.6983 23.2238 86.6594 23.192C86.6205 23.1602 86.5905 23.1189 86.5724 23.0721C86.5543 23.0253 86.5486 22.9747 86.556 22.9251C86.6017 22.6402 86.6561 22.3609 86.8794 22.1614C87.2248 21.8499 87.5797 21.5203 87.9441 21.1726C88.5375 20.6065 88.9039 20.1743 89.0432 19.8761C89.4553 18.9946 89.3304 18.9024 88.6682 19.5996L86.971 21.3863C86.9266 21.4323 86.8705 21.4653 86.8087 21.4818C86.7469 21.4983 86.6817 21.4978 86.6202 21.4802C86.5586 21.4626 86.5031 21.4287 86.4595 21.382C86.4159 21.3353 86.3859 21.2777 86.3728 21.2154C86.264 20.6929 86.2192 20.1325 86.2383 19.5341C86.2812 18.095 87.5978 17.3314 88.3019 16.2172C89.151 14.8645 89.8828 13.4188 90.4972 11.8801C90.5201 11.8212 90.5029 11.7765 90.4457 11.7461L90.3798 11.7119C90.3474 11.6967 90.3226 11.7043 90.3054 11.7347C89.8227 12.6333 89.358 13.5034 88.9115 14.345C88.3162 15.4696 87.6035 16.4461 86.7735 17.2744C86.493 17.5536 86.3069 17.5014 86.2154 17.1176C85.9864 16.1507 86.1562 15.3509 86.7248 14.7183C86.8202 14.6119 86.8517 14.4932 86.8193 14.3621C86.7887 14.2348 86.7229 14.2129 86.6218 14.2965L86.3985 14.4846C86.265 14.5948 86.1858 14.5644 86.161 14.3934C86.0999 13.9679 86.1867 13.5898 86.4214 13.2593C87.0855 12.3331 88.1244 11.3814 88.382 10.2358C88.5156 9.63743 88.4278 9.60323 88.1187 10.1333C87.6283 10.9748 87.1093 11.6749 86.5617 12.2334C86.2831 12.5165 86.0961 12.4661 86.0007 12.0824C85.9778 11.9912 85.9644 11.9 85.9606 11.8088C85.9421 11.3941 86.0563 10.984 86.2869 10.6376C87.3516 9.05041 88.6253 7.51162 89.3552 5.73632C89.3651 5.71209 89.3671 5.68546 89.3609 5.66034C89.3547 5.63521 89.3407 5.6129 89.3208 5.59669L89.2464 5.53114C89.2356 5.52172 89.2229 5.51477 89.2091 5.51078C89.1953 5.50678 89.1807 5.50584 89.1663 5.508C89.1519 5.51016 89.1381 5.51538 89.1257 5.5233C89.1134 5.53123 89.1028 5.54168 89.0947 5.55394C88.4898 6.45062 87.9613 7.37959 87.5091 8.34085C87.2362 8.92407 86.8298 9.418 86.2898 9.82265C86.1906 9.90054 86.1343 9.87679 86.1209 9.75141C85.9234 7.82793 87.6579 7.09558 88.0758 5.41431C88.0796 5.39531 88.0739 5.38107 88.0586 5.37157L87.9899 5.31742C87.9727 5.30413 87.9584 5.30698 87.947 5.32597C87.6264 5.91584 87.0397 6.97874 86.3985 7.2922C86.3745 7.30426 86.3477 7.30949 86.3209 7.30732C86.2941 7.30516 86.2683 7.29569 86.2463 7.27991C86.2243 7.26414 86.2069 7.24265 86.1959 7.21772C86.1849 7.19279 86.1807 7.16536 86.1839 7.13832C86.2201 6.84386 86.2402 6.56555 86.244 6.30339C86.2478 5.99183 86.1514 5.95764 85.9549 6.2008C85.7546 6.44967 85.6582 6.80397 85.6658 7.2637C85.6735 7.67595 85.5675 7.70729 85.3481 7.35774C85.0371 6.86001 84.6641 6.38413 84.229 5.93009C84.2214 5.92059 84.2118 5.91964 84.2004 5.92724L84.1202 5.98993C84.0783 6.02223 84.0735 6.05832 84.1059 6.09822C84.8472 7.04428 85.5885 8.27246 85.5599 9.47785C85.5389 10.4011 85.5342 11.3367 85.5456 12.2847C85.5475 12.4253 85.4865 12.4604 85.3624 12.3901C84.4494 11.863 83.9056 10.8913 83.3589 9.99362C83.3284 9.94613 83.2845 9.91954 83.2272 9.91384C83.1853 9.91194 83.1586 9.93093 83.1471 9.97083C83.1159 10.0822 83.1125 10.2029 83.1373 10.3242C83.1621 10.4455 83.2143 10.5643 83.2902 10.6718C83.8855 11.5153 84.4971 12.3398 85.1249 13.1453C85.371 13.4587 85.5227 13.9631 85.5542 14.3507C85.6534 15.4753 85.6944 16.638 85.6773 17.8386C85.6735 18.0286 85.6105 18.0504 85.4884 17.9041L84.1803 16.3425C84.1078 16.2552 84.0143 16.2039 83.8999 16.1887C83.8006 16.1754 83.7243 16.2067 83.6709 16.2827C83.6098 16.3682 83.6051 16.4556 83.6566 16.5449C84.3435 17.7844 85.2966 18.4484 85.5513 19.9558C85.7059 20.8772 85.6906 21.8518 85.5055 22.8795C85.4846 23.0011 85.4178 23.0344 85.3052 22.9793C84.5267 22.6003 82.38 21.1071 82.36 20.0755C82.3447 19.3156 82.3152 18.5643 82.2713 17.8215C82.2698 17.8004 82.2631 17.7801 82.2519 17.7622C82.2406 17.7444 82.2251 17.7297 82.2068 17.7194C82.1886 17.7092 82.1681 17.7038 82.1474 17.7037C82.1266 17.7036 82.1062 17.7088 82.0881 17.7189L81.9593 17.7873C81.9087 17.8144 81.867 17.8554 81.8391 17.9054C81.8112 17.9554 81.7983 18.0123 81.8019 18.0694L81.8935 19.5398C81.8979 19.613 81.8835 19.6862 81.8516 19.7523C81.8196 19.8184 81.7713 19.8753 81.711 19.9175C81.6508 19.9598 81.5807 19.986 81.5075 19.9937C81.4342 20.0014 81.3602 19.9903 81.2924 19.9615C81.1016 19.878 80.9461 19.7535 80.8259 19.5882C80.4271 19.0392 80.0102 18.5215 79.5751 18.0352C79.5434 17.9993 79.5016 17.9737 79.4552 17.9617C79.4087 17.9496 79.3597 17.9517 79.3144 17.9676C79.2691 17.9836 79.2297 18.0126 79.2012 18.0511C79.1727 18.0896 79.1564 18.1356 79.1544 18.1834C79.1057 19.0753 80.2105 19.9359 80.8402 20.4431C80.989 20.5628 80.969 20.634 80.7801 20.6568Z" fill="white"/>
<path d="M121.543 18.8541C121.632 18.4195 121.7 17.9926 121.749 17.5735C121.846 16.7324 122.747 16.29 123.42 15.9524C123.514 15.9039 123.6 15.9165 123.678 15.9902C124.12 16.421 124.609 16.4258 125.142 16.0048C125.398 15.8049 125.547 15.869 125.589 16.1969C125.641 16.6121 125.843 16.7411 126.194 16.584C126.416 16.485 126.636 16.3666 126.852 16.2289C126.99 16.1396 127.031 16.1746 126.977 16.3337C126.796 16.843 125.778 17.6463 125.343 18.0479C124.43 18.889 123.692 19.8553 122.815 20.743C122.663 20.8962 122.604 20.8652 122.64 20.6498C122.759 19.9164 122.887 19.1946 123.024 18.4845C123.211 17.5337 123.089 17.4891 122.66 18.3506C122.072 19.5293 121.848 20.903 121.407 22.1109C121.161 22.7919 120.599 23.6495 119.722 24.6837C118.759 25.8207 117.844 26.9519 116.977 28.0772C115.353 30.1902 113.888 32.6738 112.584 35.5279C112.394 35.9451 112.094 36.0858 111.685 35.95C111.589 35.9189 111.565 35.8578 111.612 35.7666C113.097 32.7805 114.928 29.806 117.105 26.8432C117.806 25.8915 118.685 25.3356 119.352 24.4479C119.458 24.3082 119.529 24.153 119.567 23.9823C119.593 23.862 119.47 23.8193 119.197 23.8542C119.142 23.8599 119.092 23.8869 119.055 23.9299L115.298 28.3479C115.242 28.4158 115.188 28.4119 115.137 28.3363C114.947 28.0414 114.845 27.7047 114.832 27.3264C114.79 26.1699 114.77 24.9514 114.772 23.6709C114.772 23.6363 114.759 23.6031 114.736 23.5782C114.713 23.5532 114.681 23.5385 114.648 23.537L114.538 23.5312C114.413 23.5234 114.339 23.5826 114.314 23.7087C114.231 24.1627 114.206 24.5944 114.238 25.0038C114.281 25.5277 114.123 25.6034 113.763 25.2308C113.318 24.7691 112.926 24.1879 112.587 23.4875C112.425 23.1499 112.323 23.1683 112.282 23.5428C112.205 24.2471 113.014 25.1435 113.475 25.5946C114.475 26.5784 114.515 27.7862 114.427 29.1134C114.36 30.1116 113.452 31.9219 112.154 31.2409C111.001 30.6355 110.078 29.8924 109.387 29.0115C109.215 28.7942 109.152 28.8233 109.197 29.0988C109.319 29.8351 110.939 31.1885 111.493 31.6222C111.659 31.7502 111.639 31.8288 111.434 31.8579C110.423 32.0034 109.538 31.8957 108.779 31.5348C108.432 31.3719 108.128 31.0294 107.866 30.5075C107.826 30.4291 107.758 30.3697 107.676 30.3416L107.529 30.295C107.507 30.2882 107.483 30.2883 107.461 30.2954C107.438 30.3025 107.419 30.3162 107.404 30.3349C107.389 30.3535 107.38 30.3763 107.378 30.4003C107.375 30.4242 107.38 30.4484 107.391 30.4696L107.874 31.3719C107.882 31.3859 107.885 31.4018 107.884 31.4178C107.883 31.4338 107.878 31.4492 107.87 31.4624C107.861 31.4756 107.849 31.4861 107.835 31.4927C107.821 31.4993 107.805 31.5018 107.789 31.4999C106.789 31.3563 105.846 31.1002 104.962 30.7316C104.929 30.7176 104.891 30.7154 104.857 30.7254C104.822 30.7354 104.791 30.7571 104.77 30.7869C104.736 30.8354 104.737 30.88 104.773 30.9207C105.029 31.2098 105.362 31.4029 105.771 31.4999C106.627 31.7036 107.426 31.886 108.168 32.0471C108.387 32.0956 108.606 32.1848 108.824 32.3148C109.028 32.4351 109.017 32.5292 108.793 32.5971C107.575 32.9639 106.642 33.4906 105.31 33.3975C105.173 33.3878 105.097 33.4538 105.084 33.5954L105.076 33.7206C105.072 33.7536 105.081 33.7866 105.101 33.8131C105.12 33.8396 105.148 33.8575 105.18 33.8632C106.766 34.1368 109.002 33.3189 110.622 32.6874C111.193 32.4642 111.81 32.3963 112.474 32.4836C112.604 32.5011 112.64 32.57 112.581 32.6903C112.157 33.577 111.654 34.487 111.072 35.4203C110.881 35.7268 110.614 35.852 110.269 35.7957C109.865 35.7317 109.842 35.5978 110.198 35.3941C110.466 35.2408 110.682 35.0535 110.846 34.8324C110.936 34.7101 110.907 34.648 110.758 34.6461C110.503 34.6403 110.267 34.6946 110.048 34.8091C109.441 35.1253 108.824 35.3863 108.197 35.592C107.763 35.7356 107.721 35.655 108.069 35.3504C108.508 34.9691 109.438 34.55 109.751 34.096C109.816 34.0048 109.793 33.9631 109.684 33.9709C109.388 33.9903 109.121 34.0669 108.884 34.2008C107.891 34.7567 107.063 35.3941 105.864 35.2893C104.601 35.1816 101.398 35.9529 101.019 34.0203C100.951 33.673 101.068 33.4635 101.369 33.3917C101.703 33.3141 101.952 33.0803 102.116 32.6903C102.165 32.5739 102.133 32.4885 102.022 32.4342C101.892 32.3721 101.781 32.2848 101.689 32.1722C101.633 32.1053 101.596 32.0241 101.581 31.9372C101.567 31.8503 101.575 31.7609 101.606 31.6786C101.637 31.5962 101.688 31.524 101.756 31.4695C101.823 31.415 101.903 31.3802 101.988 31.3689L103.136 31.2205C103.181 31.2148 103.224 31.1967 103.26 31.168C103.296 31.1393 103.323 31.1012 103.34 31.0576C103.357 31.014 103.361 30.9667 103.354 30.9205C103.346 30.8744 103.327 30.8312 103.297 30.7956C103.056 30.5065 102.965 30.2009 103.023 29.8788C103.035 29.8191 103.068 29.7663 103.116 29.7312C103.164 29.696 103.223 29.6811 103.28 29.6896C103.894 29.7857 103.945 29.1512 103.764 28.735C103.558 28.2577 103.373 27.794 103.207 27.3438C103.16 27.2177 103.202 27.1517 103.334 27.1459C103.541 27.1362 103.769 27.1721 104.018 27.2536C104.135 27.2905 104.19 27.2468 104.182 27.1226C104.173 26.9325 104.149 26.7307 104.111 26.5173C104.032 26.0807 104.089 25.6005 104.179 25.1872C104.257 24.8302 104.393 24.803 104.589 25.1057C104.827 25.4685 105.014 25.8692 105.152 26.3077C105.359 26.9655 105.723 27.5146 106.243 27.955C106.284 27.9892 106.334 28.0095 106.386 28.0131C106.439 28.0168 106.492 28.0036 106.537 27.9754C106.582 27.9463 106.619 27.9084 106.647 27.8619C106.736 27.7067 106.723 27.5621 106.608 27.4282C106.295 27.0576 106.004 26.6909 105.734 26.3281C105.194 25.6005 105.474 24.5731 105.641 23.7669C105.645 23.7467 105.654 23.7279 105.668 23.7124C105.681 23.6968 105.698 23.685 105.717 23.678C105.736 23.671 105.756 23.6691 105.776 23.6725C105.796 23.6758 105.815 23.6842 105.83 23.697L106.353 24.122C106.432 24.186 106.514 24.1909 106.599 24.1365C106.939 23.9289 107.278 23.9503 107.617 24.2006C107.691 24.2549 107.737 24.3276 107.756 24.4188C108.046 25.8178 108.685 27.0702 109.672 28.1762C109.795 28.314 109.945 28.3809 110.122 28.377C110.14 28.3766 110.157 28.3713 110.172 28.3615C110.188 28.3517 110.2 28.3378 110.208 28.3214C110.216 28.305 110.22 28.2866 110.218 28.2682C110.217 28.2498 110.211 28.2321 110.201 28.2169C109.573 27.2837 109.038 26.3504 108.595 25.4171C108.529 25.2755 108.564 25.2405 108.7 25.3123C109.93 25.9555 110.95 27.4166 111.696 28.6215C111.774 28.7437 111.881 28.7864 112.019 28.7496L112.092 28.7321C112.106 28.7288 112.119 28.7223 112.13 28.7132C112.141 28.704 112.15 28.6924 112.156 28.6793C112.162 28.6661 112.165 28.6517 112.164 28.6371C112.164 28.6226 112.161 28.6083 112.154 28.5953C111.853 27.9375 111.484 27.3312 111.046 26.7763C110.86 26.5357 110.913 26.4406 111.207 26.4911C111.398 26.524 111.564 26.4823 111.705 26.3659C111.731 26.3442 111.751 26.3155 111.762 26.2831C111.773 26.2506 111.775 26.2158 111.767 26.1826C111.487 24.8903 110.718 23.9124 109.975 22.9025C109.914 22.8229 109.88 22.7327 109.87 22.6318L109.794 21.8344C109.791 21.8008 109.797 21.767 109.812 21.7369C109.826 21.7067 109.849 21.6814 109.877 21.6638C109.905 21.6463 109.937 21.6371 109.97 21.6374C110.003 21.6377 110.035 21.6475 110.062 21.6656C110.225 21.7781 110.399 21.8392 110.585 21.8489C110.604 21.8501 110.623 21.8456 110.64 21.8361C110.656 21.8266 110.67 21.8125 110.678 21.7953C110.687 21.7782 110.691 21.7588 110.69 21.7394C110.688 21.72 110.682 21.7015 110.67 21.6859C110.284 21.1465 110.101 20.5606 110.122 19.928C110.124 19.8252 110.163 19.7389 110.241 19.669C110.401 19.5274 110.584 19.4207 110.789 19.3489C110.893 19.3139 110.939 19.2412 110.928 19.1306L110.877 18.6853C110.863 18.5689 110.903 18.5466 110.995 18.6183C111.097 18.6998 111.173 18.7949 111.222 18.9036C111.525 19.6021 111.827 20.2695 112.126 20.9059C112.234 21.133 112.312 21.1233 112.361 20.8768C112.4 20.6809 112.361 20.4684 112.242 20.2395C111.795 19.3838 111.004 18.1731 111.411 17.2155C111.456 17.1107 111.533 17.0671 111.643 17.0845L112.123 17.1631C112.235 17.1808 112.348 17.1556 112.443 17.0923C112.538 17.029 112.607 16.932 112.638 16.8197L112.878 15.932C112.903 15.8408 112.96 15.7991 113.051 15.8069C113.086 15.8108 113.115 15.8234 113.135 15.8447C113.164 15.8719 113.179 15.9058 113.181 15.9466C113.241 16.81 113.494 17.4998 113.941 18.0159C114.154 18.2642 114.222 18.2274 114.145 17.9053C113.877 16.8013 114.053 15.5886 114.673 14.2673C114.732 14.1411 114.791 14.1411 114.851 14.2673L114.936 14.4361C114.965 14.4971 115.01 14.5489 115.065 14.5861C115.12 14.6233 115.184 14.6445 115.25 14.6475C115.316 14.6505 115.382 14.6351 115.44 14.603C115.498 14.571 115.547 14.5233 115.581 14.4652L116.958 12.1368C117.074 11.9408 117.153 11.9554 117.192 12.1805C117.345 13.0332 117.387 14.0839 117.987 14.7591C118.064 14.8445 118.155 14.8658 118.261 14.8231L118.532 14.7155C118.643 14.6708 118.722 14.7048 118.767 14.8173C118.829 14.9822 118.848 15.1559 118.823 15.3383C118.808 15.4625 118.861 15.5187 118.982 15.5071L119.406 15.4664C119.489 15.4586 119.568 15.4731 119.643 15.51C119.93 15.6478 120.105 15.8699 120.169 16.1765C120.18 16.2309 120.176 16.2874 120.157 16.3395C120.138 16.3915 120.106 16.4372 120.063 16.4711C120.02 16.5051 119.969 16.526 119.915 16.5316C119.862 16.5371 119.808 16.527 119.759 16.5025L119.474 16.3599C119.395 16.3191 119.324 16.3298 119.262 16.3919C118.323 17.3174 117.461 18.3205 116.675 19.4013C116.488 19.6554 116.545 19.7427 116.845 19.6632C117.613 19.4566 118.267 18.1847 118.713 17.5328C118.836 17.3562 118.884 17.3746 118.857 17.5881C118.688 18.988 117.992 19.7272 117.062 20.6586C116.706 21.0136 116.46 21.619 116.412 22.1225C116.335 22.9238 116.181 23.667 115.951 24.3519C115.876 24.5789 115.929 24.6167 116.11 24.4654C116.845 23.8484 117.572 23.2032 118.292 22.53C118.688 22.1574 118.86 21.6336 118.872 21.098C118.897 19.963 118.857 18.662 119.219 17.5939C119.285 17.4037 119.401 17.2795 119.567 17.2213C119.771 17.1495 119.934 17.2097 120.059 17.4018C120.072 17.4221 120.09 17.4386 120.111 17.45C120.131 17.4614 120.155 17.4672 120.178 17.4669C120.202 17.4666 120.225 17.4602 120.246 17.4484C120.266 17.4365 120.284 17.4195 120.296 17.3989C120.538 16.9972 120.86 16.6849 121.263 16.4617C121.279 16.4522 121.298 16.4478 121.317 16.4489C121.335 16.4501 121.353 16.4567 121.368 16.4682C121.383 16.4796 121.394 16.4952 121.401 16.5132C121.407 16.5312 121.409 16.5507 121.405 16.5694C121.233 17.394 121.186 18.1517 121.263 18.8425C121.331 19.4304 121.424 19.4342 121.543 18.8541ZM115.982 18.1439C115.586 18.6213 115.481 18.5601 115.666 17.9606L116.344 15.7458C116.359 15.6972 116.344 15.6633 116.299 15.6439L116.22 15.609C116.107 15.5605 116.022 15.5925 115.965 15.705C115.123 17.4047 114.851 19.2907 114.594 21.1621C114.572 21.3367 114.509 21.3532 114.408 21.2115C113.974 20.612 113.669 19.9028 113.492 19.084C113.489 19.0717 113.484 19.0603 113.476 19.0511C113.468 19.0419 113.458 19.0352 113.446 19.0316C113.343 19.0025 113.259 19.0307 113.195 19.116C113.155 19.1676 113.129 19.2288 113.118 19.294C113.108 19.3592 113.114 19.4262 113.135 19.4886C113.42 20.2918 113.75 21.0621 114.125 21.7994C114.283 22.1138 114.523 22.2302 114.843 22.1487C114.904 22.1336 114.962 22.1055 115.012 22.0661C115.062 22.0268 115.104 21.9772 115.134 21.9203C115.165 21.8634 115.183 21.8005 115.189 21.7356C115.195 21.6707 115.188 21.6053 115.168 21.5433C115.027 21.1106 115.036 20.7216 115.196 20.3762C115.541 19.6399 115.923 18.7551 116.46 18.1585C116.779 17.8034 117.062 17.4251 117.311 17.0234C117.471 16.7693 117.413 16.6946 117.136 16.7993C116.675 16.974 116.302 17.7598 115.982 18.1439Z" fill="white"/>
<path d="M55.381 16.9158C54.9175 16.2916 54.3248 15.719 54.1429 14.9546C54.1314 14.9031 54.1354 14.8494 54.1543 14.7999C54.1733 14.7505 54.2064 14.7075 54.2496 14.6763C54.2928 14.645 54.3443 14.6268 54.3978 14.6239C54.4513 14.6209 54.5044 14.6334 54.5507 14.6597L55.4162 15.1522C55.4332 15.1617 55.4524 15.1667 55.472 15.1667C55.4915 15.1667 55.5108 15.1617 55.5277 15.1522C55.5864 15.1178 55.6157 15.0672 55.6157 15.0004C55.6156 14.9614 55.6023 14.9232 55.5776 14.8916C55.1844 14.3744 55.025 13.7894 55.0994 13.1366C55.1033 13.1076 55.1155 13.0803 55.1345 13.0577C55.1534 13.0351 55.1785 13.0181 55.2068 13.0086C55.2351 12.9991 55.2656 12.9974 55.2948 13.0039C55.324 13.0103 55.3508 13.0245 55.3722 13.045L56.2407 13.8867C56.2754 13.9213 56.3192 13.946 56.3673 13.9581C56.4154 13.9702 56.4659 13.9693 56.5135 13.9554L56.7629 13.881C56.8607 13.8523 56.9448 13.8743 57.0152 13.9468C57.3614 14.2999 57.5678 14.6893 57.6343 15.1149C57.6499 15.218 57.7105 15.2648 57.8162 15.2552C58.5536 15.1903 59.0347 15.3745 59.2597 15.8078C59.5061 16.2811 59.7623 16.765 60.0283 17.2593C60.0481 17.2953 60.0771 17.3256 60.1125 17.3473C60.1478 17.369 60.1884 17.3813 60.2302 17.383C60.2719 17.3847 60.3134 17.3758 60.3506 17.3572C60.3877 17.3385 60.4192 17.3107 60.442 17.2765C60.5085 17.1754 60.5956 17.1019 60.7031 17.0561C60.8166 17.0064 60.8753 17.0427 60.8792 17.1649L60.8909 17.5084C60.8948 17.6115 60.9379 17.6945 61.02 17.7575C61.2273 17.9159 61.4141 17.8988 61.5804 17.706C61.6586 17.6163 61.7388 17.6144 61.821 17.7003C61.8953 17.7747 61.9266 17.8634 61.9148 17.9665C61.8659 18.4341 61.7682 18.9046 61.6215 19.378C61.6092 19.4176 61.6055 19.4593 61.6105 19.5004C61.6155 19.5416 61.6291 19.5813 61.6505 19.6172C61.672 19.6532 61.7007 19.6845 61.7351 19.7093C61.7695 19.7342 61.8087 19.752 61.8503 19.7616C62.3452 19.8704 62.4997 20.2025 62.3139 20.758C61.777 22.3784 61.287 23.704 60.2836 25.1155C60.2366 25.1823 60.2445 25.2415 60.3071 25.293L60.3745 25.3445C60.3902 25.3579 60.4039 25.3569 60.4156 25.3417L61.2576 24.3768C61.2722 24.3599 61.2912 24.3471 61.3126 24.3398C61.334 24.3325 61.3571 24.331 61.3793 24.3354C61.4015 24.3398 61.4221 24.3499 61.4389 24.3648C61.4557 24.3796 61.4681 24.3986 61.4748 24.4198C61.777 25.3359 61.0816 26.2378 60.5564 26.9679C60.5232 27.0118 60.5144 27.0604 60.53 27.1139C60.5418 27.1559 60.5672 27.1645 60.6063 27.1396C60.8958 26.9679 61.1178 26.7531 61.2723 26.4955C61.9295 25.4104 62.308 24.3282 63.5109 23.6382C63.5579 23.6108 63.6117 23.5965 63.6665 23.5969C63.7212 23.5973 63.7748 23.6123 63.8214 23.6404C63.868 23.6684 63.9058 23.7084 63.9307 23.756C63.9556 23.8035 63.9667 23.8569 63.9627 23.9102C63.9451 24.185 63.8287 24.4264 63.6136 24.6345C63.5935 24.6535 63.5788 24.6773 63.571 24.7036C63.5632 24.7298 63.5625 24.7576 63.569 24.7841C63.5755 24.8107 63.589 24.8352 63.6081 24.8551C63.6273 24.875 63.6514 24.8898 63.6781 24.8979C63.9109 24.9723 64.0537 24.8779 64.1065 24.6145C64.2004 24.143 64.3314 23.6391 64.4996 23.1028C64.6639 22.5817 65.0512 22.4099 65.5148 22.2238C65.6341 22.1742 65.6898 22.2133 65.682 22.3412C65.635 23.0312 65.4121 23.7069 65.6057 24.394C65.637 24.5047 65.7035 24.5305 65.8052 24.4713C66.2981 24.185 67.3866 23.7269 67.9206 24.1478C68.6716 24.7404 67.8355 25.8599 67.2047 26.1605C66.704 26.401 66.1827 26.6453 65.6409 26.8934C65.4551 26.9774 65.28 27.1215 65.1157 27.3257C65.0747 27.3754 65.062 27.4317 65.0776 27.4947C65.0825 27.5145 65.0919 27.533 65.1051 27.5488C65.1183 27.5647 65.135 27.5776 65.154 27.5866C65.173 27.5956 65.1938 27.6005 65.2151 27.6009C65.2363 27.6014 65.2575 27.5973 65.2771 27.5891C65.9832 27.2914 66.656 27.0289 67.2956 26.8018C67.7123 26.6548 68.1494 26.6587 68.6071 26.8133C68.7108 26.8495 68.743 26.9173 68.7039 27.0165C68.3284 27.9804 67.5939 28.6179 66.5006 28.929C66.082 29.0474 65.6624 29.1724 65.2419 29.3041C64.7079 29.4682 64.7187 29.5789 65.2742 29.6362C65.415 29.6515 65.6556 29.5894 65.9959 29.4501C66.6785 29.1753 67.368 28.868 68.0643 28.5282C68.5279 28.303 69.0159 28.2219 69.5284 28.2849C69.5547 28.2885 69.5796 28.2988 69.6005 28.3148C69.6215 28.3308 69.6379 28.3518 69.6479 28.3758C69.658 28.3998 69.6615 28.426 69.658 28.4517C69.6545 28.4774 69.6442 28.5018 69.6281 28.5225C69.2232 29.034 68.6853 29.4052 68.0145 29.6362C68.0085 29.6382 68.0029 29.6413 67.9982 29.6453C67.9935 29.6493 67.9896 29.6542 67.9869 29.6595C67.9841 29.6649 67.9826 29.6706 67.9823 29.6765C67.982 29.6823 67.9829 29.6881 67.9851 29.6935L68.0145 29.765C68.0399 29.828 68.0849 29.8442 68.1494 29.8137C68.5543 29.6247 68.9592 29.5971 69.3641 29.7307C69.4834 29.7708 69.6027 29.7698 69.722 29.7278L71.1068 29.2296C71.2378 29.1819 71.2828 29.223 71.2418 29.3528C71.0804 29.8652 69.9508 30.2976 69.4022 30.4865C69.3611 30.4999 69.3425 30.5304 69.3464 30.5781C69.3483 30.5933 69.3535 30.6079 69.3619 30.6208C69.3702 30.6338 69.3813 30.6448 69.3945 30.653C69.4077 30.6612 69.4226 30.6665 69.4382 30.6684C69.4537 30.6703 69.4695 30.6688 69.4843 30.664L70.9425 30.1945C70.9673 30.187 70.9937 30.186 71.0191 30.1915C71.0445 30.197 71.068 30.2088 71.0872 30.2259C71.1064 30.2429 71.1208 30.2646 71.1289 30.2887C71.1369 30.3128 71.1384 30.3386 71.1332 30.3634L71.1097 30.4665C71.0808 30.5949 71.0196 30.7143 70.9314 30.8138C70.8433 30.9133 70.7311 30.9897 70.6051 31.0362C70.0848 31.2252 69.5861 31.459 69.1088 31.7377C69.0952 31.7454 69.0837 31.7561 69.075 31.7689C69.0664 31.7817 69.0608 31.7963 69.0589 31.8115C69.0569 31.8267 69.0585 31.8421 69.0636 31.8566C69.0687 31.8711 69.0771 31.8843 69.0883 31.8951L69.1645 31.9696C69.2799 32.0822 69.4149 32.1108 69.5694 32.0555L71.3239 31.4199C71.4705 31.3668 71.6303 31.3587 71.7818 31.3965C71.9333 31.4344 72.0693 31.5164 72.1718 31.6317L72.8319 32.3733C73.1136 32.6882 73.0412 32.8237 72.6148 32.7798C72.0241 32.7206 71.5625 32.7559 71.23 32.8857C70.9523 32.9926 70.9542 33.0947 71.2359 33.1921C71.4941 33.2818 71.7689 33.3419 72.0603 33.3724C72.2051 33.3877 72.2305 33.4497 72.1366 33.5585C71.2721 34.5434 70.2423 34.7753 69.0472 34.2543C68.8144 34.1512 68.7616 34.2085 68.8888 34.426C68.9142 34.4661 68.923 34.5081 68.9152 34.552C68.8976 34.6532 68.8359 34.7047 68.7303 34.7066C67.0443 34.741 65.4228 34.8383 63.8659 34.9986C63.8142 35.0037 63.762 34.9944 63.7152 34.9716C63.6685 34.9488 63.6292 34.9135 63.6018 34.8698C63.0737 34.0023 62.3051 33.0575 61.909 32.1013C61.7955 31.8245 61.8904 31.7062 62.1936 31.7462C64.0361 31.9896 64.8194 32.963 66.1221 34.051C66.3372 34.2304 66.5856 34.3239 66.8673 34.3316C67.2115 34.3411 67.2526 34.238 66.9905 34.0224C66.5348 33.6463 66.0458 33.278 65.5236 32.9172C65.3964 32.8294 65.4101 32.7817 65.5646 32.7741C65.9011 32.7588 66.2267 32.7998 66.5416 32.8972C67.4277 33.1663 68.212 33.3085 68.8946 33.3238C69.6301 33.341 69.6711 33.1835 69.0179 32.8514C68.6482 32.6643 68.2482 32.5202 67.8179 32.4191C66.6619 32.1461 65.502 31.8904 64.3383 31.6518C63.9823 31.5792 63.9696 31.4695 64.3001 31.3225C64.7167 31.1355 65.1519 30.9522 65.6057 30.7728C65.6566 30.7518 65.6937 30.7165 65.7172 30.6669C65.7348 30.6268 65.7338 30.5877 65.7143 30.5495C65.7036 30.5289 65.6874 30.5118 65.6676 30.5001C65.6479 30.4884 65.6254 30.4827 65.6028 30.4837C64.5642 30.5008 63.7573 31.0276 62.8038 31.1336C61.8845 31.2347 61.0748 30.8339 60.3745 29.9311C60.3361 29.8819 60.3094 29.825 60.2962 29.7644C60.283 29.7039 60.2837 29.6412 60.2983 29.5808C60.3129 29.5204 60.3409 29.4637 60.3805 29.4149C60.42 29.3661 60.4701 29.3263 60.5271 29.2984C62.0723 28.5521 63.3652 27.6483 64.4057 26.5871C64.4204 26.5719 64.4302 26.553 64.4341 26.5325C64.438 26.512 64.4359 26.4909 64.4278 26.4716C64.4198 26.4523 64.4063 26.4357 64.3888 26.4236C64.3714 26.4116 64.3508 26.4048 64.3295 26.4038L64.2062 26.401C64.0377 26.3973 63.874 26.4533 63.7456 26.5584L62.4371 27.6264C62.0968 27.905 61.9804 27.8344 62.0879 27.4145C62.129 27.2618 62.129 27.1139 62.0879 26.9707C62.0786 26.9364 62.0591 26.9056 62.0318 26.8821C62.0046 26.8586 61.9708 26.8434 61.9348 26.8386C61.8988 26.8337 61.8621 26.8393 61.8293 26.8546C61.7966 26.87 61.7692 26.8944 61.7505 26.9249C61.2606 27.7151 60.9907 28.6685 59.9403 28.8947C59.7838 28.929 59.6665 28.8785 59.5883 28.7429C59.3829 28.3956 59.1482 28.0749 58.8841 27.781C57.9775 26.776 58.6905 25.565 59.2743 24.5543C59.9589 23.3595 60.5007 22.0645 60.8997 20.6692C60.9467 20.5032 60.9251 20.3514 60.8352 20.214C60.7491 20.0823 60.6846 20.0918 60.6415 20.2426C60.2738 21.5176 59.7291 22.7249 59.0073 23.8643C58.993 23.887 58.9722 23.9051 58.9475 23.9165C58.9228 23.9279 58.8953 23.932 58.8682 23.9283C58.8412 23.9247 58.8158 23.9134 58.7952 23.896C58.7746 23.8785 58.7596 23.8556 58.7521 23.83C58.4059 22.6161 58.3003 20.9498 58.6699 19.6786C58.8303 19.1232 58.932 18.5859 58.9751 18.0667C58.9796 18.011 58.9703 17.9549 58.9479 17.9031C58.9254 17.8513 58.8905 17.8053 58.846 17.769C58.6954 17.6468 58.6103 17.6554 58.5907 17.7947C58.5242 18.2719 58.4323 18.7433 58.3149 19.2091C58.2739 19.3751 58.224 19.378 58.1653 19.2177C58.0049 18.7806 57.8103 18.3673 57.5815 17.978C57.468 17.7871 57.425 17.8014 57.4524 18.0209C57.5374 18.6966 57.7663 19.2921 57.3555 19.9248C57.3312 19.9636 57.3227 20.0099 57.332 20.0541C57.3413 20.0983 57.3676 20.1371 57.4054 20.1625C57.9237 20.5213 58.2152 21.1225 58.2797 21.9662C58.3677 23.1305 58.3061 24.2814 58.0949 25.419C58.0747 25.5292 58.0164 25.6293 57.9298 25.7023C57.8432 25.7753 57.7337 25.8168 57.6196 25.8198C57.4279 25.8236 57.2607 25.7501 57.1179 25.5993C56.2592 24.6698 55.3155 23.7651 54.2867 22.8852C53.9855 22.6256 53.649 22.4557 53.2774 22.3756C53.1874 22.3565 53.1327 22.3021 53.1131 22.2124C52.8109 20.8152 52.2359 19.3064 51.1386 18.3244C51.0528 18.2481 50.944 18.2 50.8276 18.187L50.6926 18.1726C50.6647 18.1701 50.6366 18.1757 50.612 18.1888C50.5873 18.2019 50.5672 18.2219 50.5543 18.2462C50.5414 18.2705 50.5362 18.298 50.5394 18.3252C50.5426 18.3524 50.5541 18.378 50.5723 18.3988C51.3792 19.3093 52.1655 20.1653 52.3914 21.3821C52.3958 21.4058 52.3937 21.4303 52.3851 21.453C52.3765 21.4756 52.3619 21.4956 52.3427 21.5108C52.3235 21.5261 52.3004 21.536 52.276 21.5395C52.2515 21.5431 52.2265 21.5401 52.2036 21.531C51.5933 21.2905 51.075 20.9756 50.6486 20.5862C49.1465 19.2196 47.482 18.0658 45.6551 17.1248C45.3969 16.9912 45.1925 16.8156 45.0419 16.598C44.9637 16.4816 44.995 16.431 45.1358 16.4462C45.8311 16.5293 46.3563 16.7927 47.078 16.6037C48.3602 16.2659 48.6594 17.2049 49.2697 17.9579C49.5513 18.3072 49.6335 18.2671 49.5161 17.8377C49.3313 17.1534 48.7562 16.6896 49.6423 16.1113C49.8614 15.97 50.0423 16.0063 50.1851 16.2201C50.3278 16.4338 50.5234 16.6094 50.7718 16.7469C50.8131 16.7693 50.8589 16.7827 50.906 16.7862C50.9531 16.7897 51.0005 16.7831 51.0447 16.7669C52.2711 16.3145 53.7762 18.645 54.2163 19.5469C54.5243 20.171 54.4275 20.8467 54.4275 21.5224C54.4246 22.1981 54.9321 22.9167 55.5101 23.2144C55.6529 23.2877 55.8191 23.3045 55.9739 23.2613C56.1286 23.218 56.26 23.1182 56.3404 22.9825C56.8538 22.1179 56.5751 21.3191 55.9502 20.5633C55.4104 19.9124 54.8226 19.2472 54.1869 18.5677C53.7371 18.0868 53.5004 17.5046 53.4769 16.8213C53.4652 16.4319 53.6373 16.3241 53.9933 16.4978C54.4431 16.7154 54.8754 16.8938 55.2901 17.0332C55.4485 17.0866 55.4788 17.0475 55.381 16.9158Z" fill="white"/>
<path d="M59.0192 30.1468C58.1803 28.3416 57.0387 26.678 55.5944 25.156C54.9158 24.4399 54.2451 23.7448 53.5823 23.0706C53.3349 22.8212 53.1519 22.53 53.0332 22.1969C52.958 21.9834 53.0105 21.9435 53.1905 22.0772C55.9357 24.1238 57.9953 26.6311 59.5326 29.7249C60.1242 30.9138 60.8345 32.0936 61.6635 33.2645C61.9524 33.6734 62.0553 34.1462 61.9722 34.6828C61.9592 34.7722 61.914 34.8537 61.8452 34.9121C61.7763 34.9705 61.6885 35.0017 61.5982 34.9999C61.341 34.9939 61.161 34.8743 61.0581 34.6409C60.423 33.1967 59.7434 31.6987 59.0192 30.1468Z" fill="white"/>
<path d="M137 25.9482C137.004 26.2108 136.97 26.4721 136.899 26.7173C136.828 26.9624 136.721 27.1867 136.585 27.3771C136.449 27.5676 136.286 27.7206 136.106 27.8273C135.926 27.9341 135.731 27.9925 135.535 27.9993C135.137 28.0131 134.752 27.8156 134.464 27.4504C134.176 27.0851 134.01 26.582 134 26.0518C133.996 25.7892 134.03 25.5279 134.101 25.2827C134.172 25.0376 134.279 24.8133 134.415 24.6229C134.551 24.4324 134.714 24.2794 134.894 24.1727C135.074 24.0659 135.268 24.0075 135.465 24.0007C135.863 23.9869 136.248 24.1844 136.536 24.5496C136.824 24.9149 136.99 25.418 137 25.9482ZM136.456 25.9968C136.456 25.6385 136.355 25.2948 136.176 25.0415C135.997 24.7881 135.754 24.6457 135.5 24.6457C135.374 24.6457 135.25 24.6807 135.134 24.7486C135.018 24.8165 134.913 24.916 134.824 25.0415C134.735 25.1669 134.665 25.3159 134.617 25.4798C134.569 25.6437 134.544 25.8194 134.544 25.9968C134.544 26.1743 134.569 26.35 134.617 26.5139C134.665 26.6778 134.735 26.8268 134.824 26.9522C134.913 27.0777 135.018 27.1772 135.134 27.2451C135.25 27.313 135.374 27.348 135.5 27.348C135.754 27.348 135.997 27.2056 136.176 26.9522C136.355 26.6989 136.456 26.3552 136.456 25.9968Z" fill="white"/>
<path d="M28.1158 26.8408L29.1972 24.1424C29.2313 24.0561 29.2953 24.0119 29.3891 24.0097L29.8658 24.0065C29.9917 24.0065 30.029 24.0647 29.9778 24.1812L28.4646 27.7047C28.4263 27.7925 28.3635 27.8672 28.284 27.9196C28.2045 27.9721 28.1116 28 28.0167 28C27.9217 28 27.8288 27.9721 27.7493 27.9196C27.6698 27.8672 27.6071 27.7925 27.5688 27.7047L26.0043 24.0841C26.0012 24.0774 25.9997 24.0699 26.0001 24.0625C26.0004 24.055 26.0026 24.0478 26.0064 24.0414C26.0102 24.035 26.0155 24.0296 26.0218 24.0258C26.0282 24.0219 26.0354 24.0198 26.0427 24.0194L26.7082 24C26.7594 24 26.7935 24.0226 26.8106 24.0679L27.9271 26.8408C27.9349 26.8596 27.948 26.8756 27.9648 26.8869C27.9816 26.8982 28.0013 26.9042 28.0215 26.9042C28.0416 26.9042 28.0613 26.8982 28.0781 26.8869C28.0949 26.8756 28.108 26.8596 28.1158 26.8408Z" fill="white"/>
<path d="M32 27.8789C32 27.911 31.9829 27.9418 31.9525 27.9645C31.922 27.9872 31.8808 28 31.8377 28H31.1623C31.1192 28 31.078 27.9872 31.0475 27.9645C31.0171 27.9418 31 27.911 31 27.8789V24.1211C31 24.089 31.0171 24.0582 31.0475 24.0355C31.078 24.0128 31.1192 24 31.1623 24H31.8377C31.8808 24 31.922 24.0128 31.9525 24.0355C31.9829 24.0582 32 24.089 32 24.1211V27.8789Z" fill="white"/>
<path d="M35.4915 24.7883L35.4878 27.8566C35.4878 27.8924 35.4717 27.9267 35.443 27.9522C35.4142 27.9778 35.3751 27.9926 35.334 27.9934L34.8049 28C34.7839 28.0004 34.763 27.9972 34.7434 27.9905C34.7239 27.9838 34.706 27.9738 34.691 27.9611C34.676 27.9483 34.664 27.9331 34.6559 27.9163C34.6477 27.8995 34.6435 27.8814 34.6435 27.8632L34.6548 24.8046C34.6548 24.7688 34.6387 24.7345 34.61 24.7089C34.5812 24.6834 34.5421 24.6686 34.5009 24.6677L33.1539 24.6319C33.1332 24.6315 33.1128 24.6275 33.0939 24.6203C33.0749 24.613 33.0578 24.6026 33.0435 24.5896C33.0292 24.5765 33.0181 24.5612 33.0106 24.5445C33.0031 24.5277 32.9995 24.5098 33 24.4919L33.0113 24.1531C33.0123 24.1174 33.0293 24.0834 33.0588 24.0585C33.0882 24.0335 33.1277 24.0195 33.1689 24.0195L36.8424 24C36.8634 24 36.8842 24.0036 36.9035 24.0107C36.9229 24.0178 36.9405 24.0282 36.9551 24.0412C36.9698 24.0543 36.9814 24.0697 36.9891 24.0867C36.9967 24.1037 37.0005 24.1218 37 24.1401L36.9887 24.5277C36.9877 24.5634 36.9707 24.5974 36.9412 24.6223C36.9118 24.6473 36.8723 24.6612 36.8311 24.6612L35.6491 24.6515C35.6073 24.6515 35.5673 24.6659 35.5377 24.6915C35.5081 24.7172 35.4915 24.752 35.4915 24.7883Z" fill="white"/>
<path d="M40.0548 27.0236H38.9677C38.8813 27.0236 38.8142 27.0741 38.7664 27.1751C38.6847 27.3447 38.6315 27.538 38.6068 27.7549C38.5883 27.9031 38.5251 27.9804 38.4172 27.9869L38.098 27.9998C38.0054 28.0041 37.9785 27.9482 38.017 27.8322L39.1874 24.2885C39.2155 24.2028 39.2606 24.13 39.3175 24.0788C39.3743 24.0277 39.4405 24.0003 39.5082 24C39.5759 23.9997 39.6422 24.0264 39.6993 24.0769C39.7564 24.1275 39.8019 24.1998 39.8304 24.2853L40.9777 27.7517C41.0286 27.9085 40.9924 27.988 40.869 27.9901L40.64 27.9966C40.5536 27.9987 40.4927 27.945 40.4573 27.8355L40.2584 27.2105C40.2198 27.0859 40.1519 27.0236 40.0548 27.0236ZM39.0324 26.3117C39.0275 26.3282 39.0256 26.3462 39.0268 26.364C39.028 26.3818 39.0324 26.3989 39.0395 26.4139C39.0465 26.4288 39.0561 26.4411 39.0674 26.4497C39.0787 26.4583 39.0913 26.4629 39.1041 26.4631H39.8952C39.908 26.4629 39.9207 26.4583 39.9319 26.4497C39.9432 26.4411 39.9528 26.4288 39.9599 26.4139C39.967 26.3989 39.9713 26.3818 39.9725 26.364C39.9738 26.3462 39.9718 26.3282 39.9669 26.3117L39.5714 25.0714C39.5652 25.0521 39.5551 25.0358 39.5424 25.0244C39.5296 25.0129 39.5148 25.0068 39.4997 25.0068C39.4845 25.0068 39.4697 25.0129 39.457 25.0244C39.4443 25.0358 39.4342 25.0521 39.428 25.0714L39.0324 26.3117Z" fill="white"/>
<path d="M43.694 26.4013L43.697 27.2333C43.697 27.2627 43.708 27.2909 43.7276 27.3117C43.7472 27.3325 43.7737 27.3442 43.8014 27.3442L45.8987 27.3507C45.9258 27.3516 45.9516 27.3636 45.9705 27.3844C45.9894 27.4051 46 27.4328 46 27.4617L45.9969 27.8923C45.9961 27.9212 45.9848 27.9486 45.9653 27.9687C45.9458 27.9888 45.9197 28 45.8925 28H43.1075C43.0938 28 43.0802 27.9971 43.0675 27.9916C43.0549 27.986 43.0433 27.9778 43.0336 27.9675C43.024 27.9572 43.0163 27.945 43.011 27.9315C43.0058 27.9181 43.0031 27.9036 43.0031 27.8891L43 24.1109C43 24.0964 43.0027 24.0819 43.0079 24.0685C43.0132 24.055 43.0209 24.0428 43.0306 24.0325C43.0403 24.0222 43.0518 24.014 43.0644 24.0084C43.0771 24.0029 43.0907 24 43.1044 24L45.8342 24.0098C45.8482 24.0098 45.862 24.0128 45.8749 24.0185C45.8877 24.0243 45.8994 24.0328 45.9091 24.0434C45.9189 24.0541 45.9265 24.0667 45.9315 24.0805C45.9366 24.0944 45.939 24.1091 45.9386 24.124L45.9324 24.5416C45.9316 24.5705 45.9203 24.5978 45.9008 24.6179C45.8813 24.638 45.8552 24.6493 45.828 24.6493L43.8014 24.6591C43.7737 24.6591 43.7472 24.6707 43.7276 24.6915C43.708 24.7123 43.697 24.7406 43.697 24.77V25.5987C43.697 25.6281 43.708 25.6563 43.7276 25.6771C43.7472 25.6979 43.7737 25.7096 43.8014 25.7096L45.6039 25.7259C45.6179 25.7263 45.6316 25.7297 45.6444 25.7359C45.6571 25.7421 45.6685 25.7509 45.678 25.7619C45.6874 25.7728 45.6947 25.7857 45.6994 25.7997C45.7041 25.8137 45.7061 25.8286 45.7052 25.8434L45.6837 26.1762C45.6815 26.2033 45.6699 26.2286 45.6512 26.2473C45.6325 26.2659 45.608 26.2766 45.5824 26.2773L43.7984 26.2904C43.7707 26.2904 43.7441 26.3021 43.7245 26.3229C43.705 26.3437 43.694 26.3719 43.694 26.4013Z" fill="white"/>
<path d="M131.487 26.0166C132.367 26.5433 132.03 27.8456 131.117 27.9425C130.586 27.9985 129.941 28.0136 129.184 27.9878C129.061 27.9834 129 27.9102 129 27.768V24.2005C129 24.0842 129.05 24.026 129.15 24.026C129.797 24.026 130.766 23.8935 131.353 24.2264C131.91 24.5398 131.949 25.3735 131.47 25.7968C131.376 25.8809 131.381 25.9541 131.487 26.0166ZM129.615 24.8403L129.632 25.5965C129.633 25.616 129.636 25.6353 129.643 25.6531C129.65 25.671 129.66 25.6872 129.672 25.7007C129.684 25.7142 129.698 25.7248 129.714 25.7318C129.73 25.7389 129.746 25.7423 129.763 25.7419L130.576 25.7161C130.733 25.7114 130.881 25.6581 130.99 25.5678C131.098 25.4776 131.158 25.3577 131.156 25.2346L131.153 25.1118C131.149 24.989 131.085 24.8733 130.972 24.7898C130.86 24.7062 130.71 24.6617 130.554 24.6659L129.741 24.6885C129.724 24.6889 129.707 24.6932 129.692 24.701C129.677 24.7089 129.663 24.7202 129.651 24.7343C129.639 24.7484 129.63 24.765 129.624 24.7832C129.618 24.8014 129.615 24.8208 129.615 24.8403ZM129.629 26.3785V27.3285C129.63 27.352 129.639 27.3742 129.653 27.3904C129.668 27.4067 129.687 27.4158 129.707 27.4158H130.532C130.643 27.4156 130.752 27.4024 130.854 27.377C130.957 27.3515 131.05 27.3143 131.128 27.2675C131.206 27.2207 131.268 27.1651 131.31 27.1041C131.352 27.043 131.373 26.9776 131.373 26.9117V26.7824C131.372 26.6499 131.283 26.5232 131.125 26.4299C130.968 26.3366 130.754 26.2845 130.532 26.2848H129.707C129.697 26.2848 129.687 26.2872 129.677 26.292C129.667 26.2967 129.659 26.3037 129.651 26.3124C129.644 26.3212 129.638 26.3315 129.635 26.3429C129.631 26.3542 129.629 26.3664 129.629 26.3785Z" fill="white"/>
<path d="M141.197 26.4191L141.201 24.0833C141.201 24.0299 141.229 24.0033 141.286 24.0033L141.819 24.0001C141.94 24.0001 142 24.0545 142 24.1632L141.993 27.2958C141.993 28.1149 141.689 28.2194 141.08 27.6094C140.431 26.9588 139.75 26.2164 139.037 25.3823C138.879 25.1946 138.799 25.2192 138.799 25.4559L138.803 27.7566C138.803 27.8632 138.745 27.9176 138.629 27.9197L138.188 27.9357C138.164 27.9366 138.14 27.933 138.117 27.9252C138.094 27.9174 138.073 27.9055 138.056 27.8903C138.038 27.875 138.024 27.8567 138.014 27.8365C138.005 27.8163 138 27.7945 138 27.7726V24.16C138 24.0513 138.06 23.9979 138.181 24.0001L138.583 24.0033C138.722 24.0054 138.836 24.0555 138.924 24.1536L140.998 26.4831C141.131 26.6302 141.197 26.6089 141.197 26.4191Z" fill="white"/>
<path d="M143.982 27.2124L143.727 27.8134C143.703 27.8704 143.663 27.9186 143.612 27.9518C143.562 27.985 143.502 28.0017 143.442 27.9999L143.115 27.987C143.095 27.9862 143.076 27.9804 143.059 27.97C143.042 27.9597 143.028 27.9451 143.018 27.9277C143.008 27.9102 143.002 27.8904 143 27.8699C142.999 27.8494 143.003 27.8289 143.011 27.8102L144.561 24.2875C144.598 24.2017 144.657 24.129 144.733 24.0781C144.808 24.0271 144.896 24 144.986 24C145.076 24 145.164 24.0271 145.24 24.0781C145.316 24.129 145.377 24.2017 145.415 24.2875L146.983 27.8777C147.02 27.9592 146.996 27.9999 146.91 27.9999L146.435 27.9967C146.345 27.9945 146.282 27.9506 146.245 27.8649L145.957 27.1803C145.912 27.0774 145.837 27.026 145.731 27.026H144.251C144.194 27.0261 144.138 27.0438 144.09 27.0769C144.042 27.11 144.004 27.1571 143.982 27.2124ZM144.352 26.3124C144.345 26.3291 144.342 26.3474 144.343 26.3656C144.345 26.3838 144.35 26.4014 144.36 26.4167C144.369 26.4321 144.382 26.4447 144.397 26.4534C144.413 26.4622 144.43 26.4667 144.447 26.4667L145.498 26.4699C145.515 26.4699 145.532 26.4654 145.548 26.4566C145.563 26.4479 145.576 26.4353 145.585 26.4199C145.595 26.4046 145.6 26.387 145.602 26.3688C145.603 26.3506 145.6 26.3323 145.593 26.3157L145.069 25.0911C145.061 25.0719 145.047 25.0556 145.031 25.0442C145.014 25.0327 144.994 25.0267 144.974 25.0267C144.954 25.0267 144.934 25.0327 144.917 25.0442C144.901 25.0556 144.887 25.0719 144.879 25.0911L144.352 26.3124Z" fill="white"/>
<path d="M148.689 26.3928L148.692 27.2306C148.692 27.26 148.703 27.2882 148.723 27.309C148.743 27.3298 148.769 27.3415 148.797 27.3415L150.898 27.348C150.926 27.3489 150.952 27.3609 150.97 27.3816C150.989 27.4023 151 27.43 151 27.4588L150.997 27.8859C150.996 27.9147 150.985 27.9421 150.965 27.9622C150.946 27.9823 150.92 27.9935 150.892 27.9935L148.105 28C148.077 28 148.05 27.9883 148.031 27.9675C148.011 27.9467 148 27.9186 148 27.8892V24.1108C148 24.0814 148.011 24.0533 148.031 24.0325C148.05 24.0117 148.077 24 148.105 24L150.834 24.0098C150.862 24.0098 150.888 24.0215 150.908 24.0422C150.927 24.063 150.938 24.0912 150.938 24.1206V24.5379C150.938 24.5673 150.927 24.5955 150.908 24.6163C150.888 24.6371 150.862 24.6487 150.834 24.6487L148.794 24.6553C148.766 24.6553 148.739 24.6669 148.72 24.6877C148.7 24.7085 148.689 24.7367 148.689 24.7661L148.692 25.6039C148.692 25.6333 148.703 25.6615 148.723 25.6823C148.743 25.7031 148.769 25.7148 148.797 25.7148L150.591 25.7213C150.618 25.7213 150.644 25.7325 150.664 25.7526C150.683 25.7727 150.695 25.8 150.695 25.8289L150.702 26.1679C150.702 26.1973 150.691 26.2255 150.671 26.2463C150.651 26.2671 150.625 26.2787 150.597 26.2787L148.794 26.282C148.766 26.282 148.739 26.2937 148.72 26.3145C148.7 26.3352 148.689 26.3634 148.689 26.3928Z" fill="white"/>
<path d="M86.2227 28.8979C86.1172 28.3647 86.0783 27.8145 86.1061 27.2473C86.1094 27.189 86.1304 27.1337 86.1656 27.0902C86.2009 27.0468 86.2484 27.0177 86.3005 27.0077C86.4486 26.9777 86.5532 27.0356 86.6143 27.1814C86.7458 27.5049 86.8143 27.8475 86.8199 28.2089C86.8588 30.8332 86.918 33.2707 86.9976 35.5214C87.0124 35.9308 86.9578 36.3253 86.8338 36.7047C86.7995 36.8089 86.7304 36.8956 86.64 36.9477C86.5495 36.9998 86.4443 37.0136 86.3449 36.9863C86.0727 36.9144 85.9616 36.7207 86.0116 36.4051C86.0246 36.3253 86.0348 36.2444 86.0422 36.1625C86.2033 34.6407 86.3514 33.1338 86.4866 31.642C86.5551 30.8931 86.457 30.1262 86.1922 29.3413C86.1721 29.2823 86.1654 29.2196 86.1727 29.1586C86.1764 29.1406 86.182 29.1246 86.1894 29.1106C86.2246 29.0387 86.2357 28.9678 86.2227 28.8979Z" fill="white"/>
<path d="M44.8189 36.9116C45.3502 37.0822 45.406 36.9824 44.9864 36.6123C44.1471 35.874 43.069 35.3722 41.7523 35.1067C41.5887 35.0738 41.5829 35.0224 41.735 34.9527C42.6744 34.5187 43.6071 34.5836 44.533 35.1474C45.4436 35.6997 46.3859 36.2364 47.3599 36.7576C47.4158 36.7871 47.4769 36.805 47.5399 36.8105C47.6028 36.816 47.6663 36.8089 47.7266 36.7896L47.8364 36.7547C47.852 36.7492 47.8659 36.7393 47.8763 36.7263C47.8868 36.7133 47.8934 36.6976 47.8955 36.6811C47.8976 36.6645 47.8951 36.6476 47.8882 36.6324C47.8813 36.6172 47.8704 36.6042 47.8566 36.5948L44.3222 34.3772C43.8737 34.0963 43.9132 33.9722 44.4406 34.0052C44.8179 34.0284 45.2 34.0381 45.587 34.0342C46.2396 34.0284 46.8806 34.2668 47.4379 34.569C50.2879 36.1037 52.748 38.6003 55.0523 41.2481C56.4171 42.8176 57.8022 44.2912 59.2074 45.6688C60.8129 47.2412 62.2596 46.5727 64.1798 46.6076C64.1978 46.6081 64.2155 46.6133 64.2309 46.6227C64.2463 46.6321 64.259 46.6453 64.2675 46.6611C64.2761 46.6768 64.2802 46.6944 64.2795 46.7121C64.2788 46.7298 64.2733 46.7469 64.2635 46.7617C63.7582 47.5638 62.3202 47.7964 61.4395 47.8429C61.3009 47.8487 61.2759 47.9058 61.3644 48.0143C61.6744 48.398 62.095 48.4774 62.6263 48.2527C63.5022 47.8826 64.4387 47.3846 65.4358 46.7587C65.8074 46.5262 66.2213 46.4284 66.6775 46.4652C66.8007 46.4749 66.8411 46.5379 66.7988 46.6541C66.4869 47.5086 65.1904 48.0114 64.4656 48.4358C63.8362 48.802 63.8795 48.9812 64.5956 48.9735C64.7419 48.9715 64.9392 48.8824 65.1875 48.7061C65.9729 48.15 66.7631 47.4892 67.5582 46.7239C67.8662 46.4274 68.2685 46.2588 68.7652 46.2181C68.8787 46.2085 68.9163 46.2579 68.8778 46.3664C68.5602 47.2935 67.3734 47.901 66.6284 48.4183C65.9431 48.8969 66.0047 49.0423 66.8132 48.8543C66.9826 48.8136 67.2454 48.6799 67.6015 48.4532C68.3291 47.9882 69.0587 47.3555 69.7902 46.5553C70.1002 46.2143 70.5169 46.035 71.0405 46.0176C71.1618 46.0137 71.1907 46.0641 71.1272 46.1687C70.8577 46.6241 70.5294 47.0155 70.1425 47.3429C69.3417 48.025 68.5072 48.7109 67.639 49.4007C67.46 49.5422 67.4831 49.6323 67.7083 49.671C67.7969 49.6865 67.8835 49.6759 67.9682 49.6391C69.3369 49.049 70.567 47.7266 71.5718 46.6716C71.9126 46.3131 72.3159 46.0573 72.7817 45.9042C73.005 45.8326 73.057 45.8975 72.9376 46.099C71.4101 48.7206 68.6843 50.8656 65.9412 51.6387C64.9055 51.9293 63.685 52.0446 62.2798 51.9846C60.1276 51.8935 58.3181 51.3994 56.8512 50.5023C56.1505 50.0741 55.2438 49.3213 54.1312 48.2439C52.3159 46.4884 50.5054 44.6516 48.6997 42.7333C47.2444 41.19 45.4426 39.4548 43.4675 38.7689C41.3625 38.0394 39.6531 38.6294 37.9119 39.8355C37.8272 39.8956 37.7319 39.9208 37.6261 39.9111C37.4336 39.8917 37.2507 39.8181 37.0774 39.6902C36.9792 39.6185 36.9744 39.542 37.063 39.4606C39.0092 37.6615 40.606 37.1907 43.1614 37.7371C43.995 37.9153 44.0479 37.7826 43.3203 37.3389C42.1162 36.6065 40.837 36.7344 39.4654 37.0279C38.9572 37.1364 38.8869 37.0076 39.2546 36.6413C39.6165 36.279 40.1911 36.0339 40.9785 35.906C41.4424 35.8304 41.9188 35.8847 42.4078 36.0688C43.2298 36.3788 44.0335 36.6598 44.8189 36.9116Z" fill="white"/>
<path d="M109.094 49.5909C107.969 48.8784 107.193 48.1513 106.5 46.9443C106.439 46.8377 106.469 46.7786 106.59 46.7669C107.816 46.6477 108.59 47.9477 109.573 48.4479C110.391 48.8667 111.262 49.0558 112.188 49.0151C112.32 49.0093 112.4 48.9414 112.427 48.8115L112.45 48.7097C112.477 48.5837 112.428 48.5352 112.303 48.5643C110.886 48.8958 110.122 48.2153 109.253 47.273C109.145 47.1586 109.169 47.1101 109.325 47.1276C111.238 47.3428 112.626 47.9128 114.262 46.2841C116.908 43.6492 119.352 40.7873 121.967 38.1902C123.854 36.3114 126.638 34.485 129.405 35.1335C129.89 35.2479 129.893 35.373 129.414 35.5087C128.294 35.8286 126.549 36.3812 125.773 37.338C125.497 37.6754 125.569 37.785 125.986 37.6667C126.105 37.6318 126.217 37.5862 126.321 37.53C127.896 36.6779 129.83 35.4767 131.564 36.5121C131.754 36.6265 131.741 36.7069 131.523 36.7535C130.363 37.0065 128.687 37.1955 127.859 38.1088C127.776 38.1999 127.772 38.291 127.847 38.3821C127.909 38.4539 127.981 38.4665 128.064 38.42C129.645 37.5242 132.375 36.5324 133.673 38.1815C133.748 38.2784 133.726 38.3172 133.607 38.2978C131.943 38.0205 130.387 38.323 128.941 39.2052C128.864 39.2517 128.807 39.3138 128.771 39.3913C128.763 39.4097 128.76 39.4299 128.762 39.4498C128.765 39.4697 128.773 39.4884 128.785 39.5038C128.797 39.5193 128.814 39.5308 128.832 39.5371C128.85 39.5435 128.87 39.5443 128.889 39.5397C129.531 39.3981 130.14 39.2197 130.715 39.0045C132.865 38.2018 135.445 39.4641 136.971 41.0287C137.011 41.0733 137.01 41.115 136.965 41.1538L136.186 41.8285C136.138 41.8712 136.093 41.8673 136.051 41.8169C135.182 40.7205 133.462 40.0603 132.178 39.8334C130.314 39.5019 128.753 40.4762 127.406 41.7035C124.364 44.4751 121.427 47.5696 118.547 50.2395C115.422 53.1333 111.957 53.4998 107.859 52.4935C104.331 51.6268 102.146 49.0238 100.008 46.1213C100.004 46.1145 100.001 46.1067 100 46.0985C99.9995 46.0904 100.001 46.0822 100.005 46.0748C100.008 46.0675 100.013 46.0611 100.02 46.0565C100.027 46.0519 100.035 46.0492 100.043 46.0486L100.903 46.0282C100.922 46.0274 100.942 46.0314 100.959 46.0401C100.977 46.0487 100.992 46.0616 101.004 46.0776C101.925 47.2895 102.837 48.3374 103.739 49.2216C104.183 49.6539 104.661 49.9496 105.173 50.1086C105.256 50.1358 105.331 50.1212 105.398 50.065C105.412 50.0536 105.424 50.039 105.431 50.0222C105.439 50.0055 105.442 49.9872 105.441 49.9689C105.44 49.9506 105.434 49.9328 105.425 49.9172C105.415 49.9015 105.402 49.8883 105.387 49.8789C104.117 49.0975 103.088 47.9913 102.299 46.5604C102.149 46.289 102.226 46.1814 102.53 46.2376L102.671 46.2638C102.96 46.3181 103.197 46.4586 103.384 46.6855C104.344 47.8605 105.483 48.8949 106.801 49.7887C107.083 49.9806 107.382 50.0892 107.698 50.1144C108.079 50.1435 108.107 50.0572 107.782 49.8556C107.17 49.4736 106.574 49.0771 105.993 48.6661C105.385 48.2376 104.8 47.5531 104.238 46.6128C104.159 46.4809 104.197 46.4121 104.351 46.4063C104.837 46.385 105.264 46.5808 105.632 46.9938C106.596 48.0728 107.669 49.2332 109.048 49.6869C109.321 49.778 109.337 49.746 109.094 49.5909Z" fill="white"/>
<path d="M76.5712 36.8688C76.5167 36.8732 76.4885 36.9062 76.4866 36.9678V37.0898C76.4866 37.158 76.5158 37.1943 76.5741 37.1987C77.5472 37.2954 78.5135 37.4912 79.473 37.7859C79.7688 37.876 79.7698 37.9706 79.4759 38.0696C77.5579 38.7095 75.5174 37.9211 73.6081 37.4857C73.2734 37.4109 72.9464 37.423 72.6273 37.522C70.3171 38.2389 68.043 38.7117 65.8049 38.9404C64.7384 39.0482 63.6154 39.0097 62.436 38.825C61.6011 38.693 59.0847 37.7166 60.3487 36.2783C60.917 35.6295 61.6118 35.2799 62.4331 35.2293C63.9628 35.1369 65.4896 35.226 67.0602 35.1303C69.9503 34.9544 72.2341 34.9566 73.9117 35.1369C77.594 35.5328 81.3394 36.2563 85.1481 37.3075C85.4011 37.3779 85.6308 37.4824 85.8371 37.6209C86.0706 37.7793 86.0531 37.8826 85.7845 37.931C84.2334 38.2059 82.7008 38.1168 81.1866 37.6638C79.5869 37.1855 78.3111 36.7236 76.5712 36.8688Z" fill="white"/>
<path d="M108.31 38.7646C107.196 38.7284 106.19 38.1276 105.079 37.8609C104.162 37.6382 103.065 37.9204 102.127 38.0447C101.636 38.1086 101.133 38.125 100.618 38.0939C99.1455 38.0042 97.7086 37.898 96.3071 37.7754C94.8181 37.6459 93.2701 37.8712 91.7871 37.879C91.1325 37.8842 90.42 37.9083 89.6494 37.9515C88.9398 37.9929 88.2253 37.955 87.5059 37.8376C87.3701 37.8152 87.2467 37.7537 87.1553 37.6626C87.0639 37.5716 87.0099 37.4563 87.0017 37.3352C86.984 37.0987 87.1039 36.9424 87.3614 36.8665C87.9708 36.6887 88.6676 36.5669 89.4519 36.5013C92.3807 36.2562 95.1572 36.1284 97.7813 36.1181C99.7096 36.1129 101.664 36.03 103.593 36.0016C105.943 35.9653 108.181 36.5739 110.53 36.5143C111.353 36.4936 114.708 36.5091 113.865 38.0654C113.486 38.7681 112.805 39.0745 111.822 38.9847C110.591 38.8725 109.421 38.7992 108.31 38.7646Z" fill="white"/>
<path d="M38.2171 44.9895C38.7915 45.5748 39.5787 46.0556 40.5788 46.4319C40.9808 46.5812 40.9877 46.7475 40.5996 46.9306C40.1391 47.1457 39.3163 46.8291 38.9034 46.5812C38.1429 46.1174 37.3943 45.6893 36.6576 45.2971C36.6279 45.2792 36.6031 45.2852 36.5833 45.315L36.5388 45.3897C36.5348 45.3937 36.5348 45.3966 36.5388 45.3986C37.3903 46.0417 38.331 46.621 39.3608 47.1367C39.6678 47.292 39.651 47.3915 39.3103 47.4353C37.9557 47.6145 36.5952 46.6469 35.5109 45.9183C35.4951 45.9083 35.4822 45.9093 35.4723 45.9212L35.4189 45.9869C35.3951 46.0168 35.3971 46.0447 35.4248 46.0706C36.1179 46.7057 36.8319 47.2422 37.5666 47.6802C37.8914 47.8753 37.8646 47.9808 37.4864 47.9968C36.5457 48.0366 35.6446 47.7091 34.7831 47.0143C32.882 45.4833 31.0461 43.9084 29.2757 42.2898C27.5616 40.722 24.6475 38.4554 22.2532 39.6977C22.0571 39.7992 21.9749 39.7395 22.0066 39.5185C22.0126 39.4787 22.0185 39.4389 22.0244 39.3991C22.0411 39.3011 22.0794 39.2082 22.1365 39.1271C22.1935 39.0459 22.2679 38.9787 22.3542 38.9302C23.4533 38.312 25.2743 38.5569 26.3496 39.0258C27.0903 39.3463 27.8438 39.7266 28.6102 40.1665C28.9568 40.3656 29.0281 40.293 28.8241 39.9485C28.2122 38.9093 26.4833 38.2433 25.3901 37.9507C25.103 37.873 25.104 37.7974 25.3931 37.7237C27.2081 37.2578 28.5271 38.5091 29.8727 39.5334C30.0648 39.6808 30.2777 39.7813 30.5114 39.8351C30.6718 39.8729 30.7035 39.8241 30.6065 39.6887C29.8074 38.5897 28.7291 37.9357 27.526 37.2996C27.3576 37.2101 27.3675 37.1513 27.5557 37.1235C28.738 36.9443 29.7569 37.2817 30.5619 38.1717C30.9263 38.5758 31.3907 38.9372 31.9551 39.2557C32.0205 39.2915 32.0759 39.2796 32.1215 39.2199L32.172 39.1572C32.1859 39.1392 32.1849 39.1223 32.169 39.1064L30.4104 37.1921C30.2837 37.0548 30.3134 36.9911 30.4995 37.001C31.9314 37.0767 33.283 37.6252 34.5544 38.6465C35.9744 39.7853 37.3785 40.9261 38.7667 42.0689C40.3441 43.3649 42.7206 44.876 44.8713 44.1055C44.8871 44.1003 44.904 44.0992 44.9204 44.1024C44.9368 44.1055 44.9521 44.1128 44.9649 44.1236C44.9777 44.1343 44.9875 44.1482 44.9935 44.1639C44.9995 44.1795 45.0014 44.1965 44.999 44.2131C44.9812 44.3365 44.9228 44.442 44.8238 44.5296C44.7089 44.6331 44.5841 44.7068 44.4495 44.7506C44.0098 44.8959 43.4702 44.9656 42.8305 44.9596C41.6927 44.9447 40.7214 44.1922 39.6817 43.8218C39.6024 43.792 39.5331 43.8099 39.4737 43.8756C39.4569 43.894 39.444 43.9157 39.4359 43.9394C39.4278 43.963 39.4246 43.9881 39.4266 44.013C39.4285 44.038 39.4356 44.0622 39.4473 44.0843C39.4589 44.1064 39.475 44.1258 39.4945 44.1414C40.4273 44.9079 41.4026 45.3389 42.4205 45.4345C42.8741 45.4763 42.9067 45.6186 42.5186 45.8615C41.0303 46.7903 39.643 45.2583 38.3894 44.7327C37.9082 44.5336 37.8508 44.6192 38.2171 44.9895Z" fill="white"/>
<path d="M24.985 44.8295C26.3037 44.8119 27.7673 44.1473 29.0049 43.6769C29.1247 43.6298 29.2387 43.6435 29.3469 43.718L29.915 44.112C30.0347 44.1944 30.028 44.264 29.8947 44.3208C27.1587 45.4715 24.5773 46.5104 22.1505 47.4376C20.8057 47.9493 19.0407 48.3668 17.7771 47.4965C17.6495 47.4102 17.6592 47.3426 17.806 47.2936C18.9364 46.927 19.8966 46.3879 20.6869 45.6763C20.7436 45.6253 20.7871 45.5609 20.8134 45.4888C20.8397 45.4166 20.8481 45.339 20.8377 45.2628C20.8274 45.1866 20.7987 45.1142 20.7542 45.052C20.7097 44.9897 20.6508 44.9396 20.5826 44.906C19.8406 44.5394 19.0165 44.1699 18.1104 43.7974C16.6902 43.2152 16.0207 41.1657 16.0004 39.7573C15.9888 39.1604 16.2178 38.5576 16.5685 38.093C16.5887 38.0662 16.6143 38.0441 16.6436 38.0281C16.6729 38.0122 16.7051 38.0027 16.7381 38.0005C16.7711 37.9983 16.8041 38.0033 16.8348 38.0152C16.8656 38.0271 16.8933 38.0456 16.9163 38.0695C17.0399 38.1989 17.1172 38.3537 17.1481 38.5341C17.2641 39.2045 17.3771 39.8729 17.4872 40.5394C17.7742 42.2596 19.3769 42.9859 20.9304 43.0006C21.0424 43.0025 21.1091 42.9467 21.1303 42.833C21.1419 42.7683 21.1255 42.7114 21.0811 42.6624C21.0424 42.6193 20.9941 42.5909 20.9362 42.5771C19.6638 42.2684 18.7016 42.089 18.0727 40.707C18.0166 40.5835 18.0485 40.5532 18.1683 40.6159C19.971 41.5627 21.8491 41.4363 23.7764 40.8952C24.301 40.7482 24.901 40.8129 25.4024 41.0011C25.7811 41.1403 25.7782 41.2716 25.3937 41.3951C24.7599 41.597 24.0827 41.7695 23.362 41.9126C23.2364 41.9381 23.1408 42.0057 23.0751 42.1155C23.0593 42.1417 23.0502 42.1715 23.0488 42.2021C23.0474 42.2328 23.0536 42.2633 23.0669 42.2908C23.0802 42.3184 23.1001 42.3421 23.1249 42.3598C23.1496 42.3775 23.1783 42.3885 23.2084 42.3919C24.3503 42.5154 26.2574 41.3422 27.1877 41.9126C27.3036 41.9832 27.3017 42.0489 27.1819 42.1096C26.3221 42.5526 25.3048 42.9408 24.13 43.274C23.6567 43.4073 23.6624 43.5181 24.1474 43.6063C24.4701 43.6651 24.7889 43.6396 25.1038 43.5298C26.0139 43.2152 27.3065 42.4478 28.2456 42.7771C28.4967 42.8653 28.5074 42.978 28.2774 43.1152C28.1364 43.1956 27.9963 43.2574 27.8572 43.3005C26.7578 43.6278 25.7685 43.9905 24.8894 44.3884C24.2247 44.6923 24.2566 44.8393 24.985 44.8295Z" fill="white"/>
<path d="M111.991 39.2166C112.698 39.2269 114.144 39.8274 113.988 40.6687C113.798 41.717 112.057 42.0379 111.111 41.9965C109.292 41.9137 107.448 41.5539 105.555 41.7247C104.342 41.8334 102.986 42.1001 101.751 41.8231C99.6897 41.3572 97.6376 40.7489 95.5191 40.6583C93.8296 40.5858 91.9228 40.5686 89.7985 40.6065C89.2982 40.6169 88.8181 40.6618 88.3582 40.7411C87.9176 40.8171 87.4866 40.8421 87.0652 40.8162C86.5341 40.7834 85.9867 40.8214 85.4229 40.9301C84.1068 41.1863 82.6982 40.8964 81.3994 40.8783C80.2757 40.8628 78.6883 41.0336 76.6371 41.3908C76.0233 41.4978 75.3132 41.5453 74.507 41.5332C73.4333 41.5177 72.3846 41.4909 71.361 41.453C69.5513 41.3857 67.7358 41.5617 65.9405 41.8386C64.5878 42.0474 63.4112 42.0448 62.4106 41.8309C61.2273 41.5798 60.575 40.5418 61.311 39.566C61.8478 38.8516 62.705 38.7688 63.5969 38.8982C66.5438 39.3201 69.2338 38.7946 72.172 38.0906C72.7695 37.9457 73.5488 37.9845 74.1549 38.1372C75.2036 38.3978 76.1656 38.5203 77.0412 38.5047C81.055 38.4288 85.0092 38.3848 88.9037 38.3727C90.8452 38.3658 93.2889 38.2994 96.2349 38.1734C97.1758 38.132 97.933 38.1467 98.5064 38.2174C99.9091 38.3857 101.424 38.5876 102.801 38.4167C103.988 38.2701 104.918 38.2899 105.589 38.4763C107.618 39.0406 109.523 39.1803 111.991 39.2166Z" fill="white"/>
<path d="M144.167 41.9279C143.886 42.2444 143.95 42.3272 144.359 42.1763C145.714 41.6721 147.009 41.2332 148.243 40.8596C148.711 40.7161 149.587 40.5587 149.952 40.9728C149.974 40.9974 149.989 41.0267 149.996 41.0581C150.003 41.0895 150.001 41.122 149.991 41.1527C149.981 41.1834 149.963 41.2112 149.939 41.2338C149.915 41.2564 149.885 41.2729 149.852 41.2819C148.31 41.7015 146.894 42.3704 145.605 43.2887C143.904 44.4996 142.147 45.7675 140.336 47.0924C138.768 48.238 137.159 49.251 135.093 48.9446C134.881 48.9133 134.87 48.8517 135.06 48.7597C136.823 47.9205 138.517 46.9848 139.817 45.635C140.061 45.3829 140.012 45.312 139.67 45.4224C139.22 45.566 138.808 45.7859 138.435 46.0822C137.28 46.9986 134.972 48.9998 133.307 48.1883C133.289 48.1797 133.274 48.1666 133.264 48.1504C133.254 48.1342 133.249 48.1156 133.249 48.0968C133.25 48.078 133.256 48.0598 133.267 48.0442C133.279 48.0287 133.294 48.0164 133.313 48.0089C135.024 47.2967 136.471 46.3803 137.654 45.2596C137.898 45.0296 137.852 44.9587 137.518 45.047C137.408 45.0746 137.313 45.1114 137.232 45.1575C136.39 45.6175 135.557 46.1254 134.733 46.6811C133.814 47.2995 132.688 47.8708 131.58 47.2332C131.425 47.143 131.433 47.0676 131.604 47.0069C133.048 46.4962 135.137 45.8337 136.101 44.7048C136.435 44.3128 136.366 44.2373 135.894 44.4784C135.242 44.8133 134.581 45.1759 133.911 45.566C133.286 45.9322 132.785 46.1631 132.408 46.2588C131.83 46.4051 130.593 46.5901 130.083 46.1705C130.004 46.1061 130.017 46.0656 130.121 46.049L132.037 45.7482C132.105 45.7371 132.16 45.7058 132.199 45.6543C132.258 45.5733 132.272 45.5191 132.24 45.4914C132.201 45.4583 132.154 45.4418 132.099 45.4418C130.784 45.4776 129.157 45.5798 128.126 44.702C127.929 44.5327 127.963 44.4618 128.226 44.4894C128.916 44.5594 129.564 44.6495 130.171 44.76C131.474 44.9974 132.461 44.9118 133.563 44.3818C135.538 43.4322 137.221 41.8947 138.901 40.5532C139.69 39.9202 140.476 39.4565 141.258 39.162C141.698 38.9964 142.205 38.9578 142.779 39.0461C142.934 39.07 142.945 39.1206 142.811 39.1979C142.161 39.5715 141.604 40.0021 141.14 40.4897C141.122 40.5091 141.109 40.5324 141.103 40.5576C141.096 40.5827 141.097 40.609 141.104 40.6343C141.111 40.6595 141.124 40.6828 141.143 40.7024C141.161 40.7219 141.185 40.737 141.211 40.7464C141.309 40.7796 141.401 40.7676 141.485 40.7106C142.797 39.8217 144.096 39.1427 145.726 39.1896C145.893 39.1951 146.055 39.2356 146.212 39.3111C146.352 39.3773 146.349 39.4362 146.203 39.4877C144.91 39.9515 143.463 40.3876 142.514 41.2709C142.427 41.3537 142.442 41.4135 142.558 41.4503C142.731 41.5074 142.9 41.4844 143.065 41.3813C144.739 40.3462 146.699 39.485 148.564 40.2027C148.755 40.2781 148.748 40.3315 148.543 40.3628C147.17 40.5781 145.072 40.9121 144.167 41.9279Z" fill="white"/>
<path d="M39.0248 40.466C39.0029 40.4228 38.9951 40.3701 39.003 40.3194C39.011 40.2688 39.034 40.2243 39.0671 40.1957L39.4325 39.8803C39.7809 39.579 40.131 39.3211 40.4061 39.163C40.6811 39.0049 40.8586 38.9595 40.8997 39.0369L40.992 39.2171C41.0304 39.2968 40.9291 39.4925 40.7104 39.7612C40.4916 40.03 40.1732 40.35 39.8248 40.6512L39.4613 40.9665C39.4449 40.981 39.4263 40.9911 39.4068 40.9962C39.3873 41.0013 39.3672 41.0013 39.3477 40.9961C39.3282 40.991 39.3096 40.9809 39.2932 40.9664C39.2767 40.9518 39.2626 40.9332 39.2517 40.9115L39.0248 40.466Z" fill="white"/>
<path d="M149.138 45.6437L149.179 45.5559C149.187 45.5403 149.191 45.5233 149.192 45.5059C149.192 45.4886 149.189 45.4713 149.182 45.4551C149.176 45.4389 149.166 45.4241 149.153 45.4117C149.141 45.3994 149.126 45.3896 149.109 45.3831C148.231 45.0435 147.343 44.7849 146.444 44.6073C146.141 44.5468 145.837 44.4179 145.532 44.2208C145.282 44.0588 145.3 43.9388 145.587 43.8607C147.479 43.3366 149.006 44.6951 150.827 44.5721C150.951 44.5643 150.982 44.5068 150.921 44.3994C150.867 44.3038 150.784 44.2452 150.675 44.2237C149.391 43.9954 148.168 43.6391 147.007 43.1551C146.833 43.0809 146.833 43.0087 147.007 42.9384C147.536 42.7198 148.096 42.6739 148.684 42.8008C149.577 42.996 150.455 43.1756 151.317 43.3395C151.366 43.3493 151.393 43.3288 151.399 43.2781L151.414 43.1756C151.418 43.1432 151.41 43.1106 151.391 43.0841C151.373 43.0576 151.345 43.0391 151.314 43.0321C150.556 42.8721 149.736 42.6437 148.854 42.347C148.465 42.2162 148.447 42.0484 148.801 41.8434C148.915 41.7771 149.036 41.7449 149.165 41.7468C149.558 41.7527 149.926 41.8132 150.27 41.9283C152.475 42.6603 154.283 42.6154 155.692 41.7937C155.843 41.7058 155.885 41.7429 155.818 41.9049C155.469 42.751 154.827 43.1317 154.068 43.5591C153.567 43.8421 153.604 44.0012 154.179 44.0364C154.727 44.0686 155.287 43.8168 155.666 43.4186C156.771 42.2709 156.824 40.7104 157.006 39.1908C157.009 39.1596 157.019 39.1294 157.036 39.1025C157.052 39.0757 157.074 39.0527 157.1 39.0354C157.126 39.018 157.156 39.0067 157.187 39.0022C157.217 38.9977 157.249 39.0001 157.278 39.0093C157.941 39.2025 158.073 40.7396 157.968 41.3311C157.528 43.8216 156.007 45.1684 153.405 45.3714C153.331 45.3771 153.26 45.3977 153.195 45.4322C153.13 45.4666 153.072 45.5141 153.026 45.5717C152.98 45.6293 152.946 45.6959 152.926 45.7671C152.907 45.8384 152.902 45.913 152.912 45.9863C153.018 46.7436 153.439 47.3643 154.176 47.8484C154.783 48.2465 155.519 48.3051 156.214 48.5188C156.535 48.6164 156.533 48.7072 156.208 48.7911C152.968 49.6226 149.992 47.7898 147.209 46.4899C146.206 46.0243 145.227 45.8574 144.206 45.5266C144.154 45.5096 144.108 45.4786 144.072 45.4369C144.036 45.3953 144.013 45.3446 144.004 45.2904C143.995 45.2363 144.001 45.1808 144.022 45.13C144.043 45.0792 144.077 45.0351 144.121 45.0025C144.663 44.6122 145.263 44.5253 145.922 44.742C146.956 45.0855 148.006 45.3968 149.071 45.6759C149.102 45.6837 149.125 45.673 149.138 45.6437ZM151.596 47.0051L151.376 47.0783C151.182 47.1447 151.188 47.1808 151.393 47.1867C151.732 47.1964 151.95 47.0393 152.05 46.7153C152.06 46.6841 152.059 46.6538 152.047 46.6245C152.008 46.5347 151.966 46.5338 151.921 46.6216L151.827 46.8061C151.804 46.8524 151.772 46.8939 151.732 46.9281C151.692 46.9622 151.646 46.9884 151.596 47.0051Z" fill="white"/>
<path d="M42.435 39.1871C42.761 39.0098 43.1016 38.9585 43.4568 39.0333C43.5603 39.0568 43.6579 39.0909 43.7496 39.1358C44.0795 39.3024 44.0834 39.4776 43.7613 39.6613C42.6429 40.2958 41.7518 40.9912 41.0881 41.7475C40.984 41.865 40.8506 41.9462 40.7047 41.981C40.5589 42.0158 40.407 42.0026 40.2683 41.9429C40.2117 41.9173 40.1648 41.8756 40.1277 41.818C39.9482 41.5531 39.9579 41.2978 40.157 41.0521C40.7485 40.3151 41.5078 39.6934 42.435 39.1871Z" fill="white"/>
<path d="M131.145 40.3109C130.94 40.1728 130.952 40.0912 131.181 40.0663L131.797 40.0018C131.889 39.9928 131.976 40.0177 132.057 40.0765C132.678 40.5385 133.323 40.9472 133.992 41.3027C134.335 41.4861 134.65 41.7635 134.938 42.1348C135.018 42.2367 135.021 42.342 134.946 42.4507L134.616 42.9228C134.549 43.0157 134.478 43.0247 134.401 42.95C133.469 42.0352 132.384 41.1555 131.145 40.3109Z" fill="white"/>
<path d="M45.8308 40.6613L42.2904 42.9271C42.2263 42.9684 42.1498 42.9933 42.0697 42.9988C41.9896 43.0044 41.9093 42.9903 41.8382 42.9584L41.2243 42.6795C41.1607 42.6507 41.1069 42.6086 41.0678 42.5571C41.0287 42.5056 41.0057 42.4465 41.0009 42.3853C40.9962 42.3241 41.0098 42.2629 41.0405 42.2074C41.0712 42.152 41.118 42.1041 41.1765 42.0684L44.4595 40.0659C44.5336 40.0214 44.6225 39.9983 44.7132 40.0001L45.5845 40.0126C45.6726 40.0139 45.758 40.0387 45.8288 40.0834C45.8997 40.1281 45.9523 40.1905 45.9795 40.262C46.0066 40.3335 46.0069 40.4104 45.9802 40.482C45.9535 40.5536 45.9013 40.6163 45.8308 40.6613Z" fill="white"/>
<path d="M130.825 42.114C130.27 41.9121 129.747 41.6875 129.256 41.4401C128.896 41.2599 128.916 41.133 129.315 41.0592C131.235 40.7043 133.627 42.0098 134.893 43.2698C135.051 43.426 135.034 43.5628 134.841 43.68L134.452 43.9176C134.354 43.9784 134.238 44.0068 134.121 43.9986C134.004 43.9904 133.893 43.9459 133.806 43.8721C132.863 43.082 131.869 42.496 130.825 42.114Z" fill="white"/>
<path d="M97.5752 43.9038L97.5693 43.792C97.5654 43.7377 97.54 43.7072 97.4932 43.7005C96.1045 43.4722 94.6856 43.1966 93.2363 42.8735C92.6816 42.7492 92.2031 42.5458 91.8008 42.2634C91.6309 42.1436 91.6445 42.077 91.8418 42.0634C95.3691 41.7968 98.7305 42.3707 101.926 43.7852C103.314 44.3987 105.397 43.7208 106.868 43.5344C108.04 43.3853 112.856 43.2463 112.988 45.3273C113.094 46.9723 112.486 47.8557 111.166 47.9777C110.199 48.0659 109.183 47.8795 108.254 47.6456C105.93 47.0604 103.62 46.7022 101.325 46.5712C99.3799 46.4627 97.5225 46.2729 95.5918 45.8459C94.2344 45.5454 92.874 45.2833 91.5108 45.0596C89.791 44.7749 88.1768 44.2699 86.5449 43.6937C86 43.5016 85.5147 43.2124 85.0889 42.826C85.0548 42.7948 85.0289 42.7533 85.0141 42.706C84.9992 42.6588 84.9961 42.6077 85.0049 42.5585C85.0137 42.5092 85.0342 42.4638 85.064 42.4273C85.0938 42.3907 85.1319 42.3645 85.1738 42.3515C87.1338 41.7652 88.8916 43.7344 90.8428 43.8394C90.9502 43.8439 91.0049 43.7841 91.0068 43.6598C91.0088 43.4655 90.9102 43.3355 90.7109 43.27C90.0527 43.0486 89.3262 42.8283 88.5313 42.6091C88.1406 42.5029 88.1338 42.3696 88.5107 42.2092C88.9482 42.0261 89.4131 42.0363 89.9053 42.2397C92.4443 43.2949 94.9551 43.9038 97.4375 44.0665C97.4561 44.0675 97.4746 44.064 97.4919 44.0561C97.5092 44.0482 97.5249 44.0362 97.5379 44.0209C97.5509 44.0055 97.5609 43.9871 97.5674 43.967C97.5738 43.9468 97.5765 43.9253 97.5752 43.9038Z" fill="white"/>
<path d="M45.6189 41.2273C46.0431 40.8983 46.4381 40.9265 46.8038 41.3119C46.8595 41.371 46.9055 41.4439 46.9389 41.5263C46.9723 41.6087 46.9925 41.699 46.9983 41.7919C47.0041 41.8848 46.9953 41.9783 46.9726 42.0671C46.9499 42.1558 46.9136 42.2379 46.866 42.3085C45.9907 43.6027 44.7437 44.1543 43.1248 43.9631C42.981 43.9474 42.9615 43.8753 43.0663 43.7469C43.9172 42.7221 44.768 41.8823 45.6189 41.2273Z" fill="white"/>
<path d="M80.4271 42.9034L80.4865 42.9946C80.5053 43.025 80.5336 43.0366 80.5712 43.0295C81.7188 42.7898 82.7929 42.5841 83.7934 42.4124C84.0648 42.3677 84.3314 42.4124 84.5933 42.5465C84.6536 42.5769 84.7007 42.6181 84.7347 42.67C84.8553 42.8542 84.8053 42.9731 84.5849 43.0268C82.9549 43.4257 81.1808 43.6672 79.2626 43.7512C79.1759 43.7548 79.125 43.7977 79.11 43.88C79.1034 43.9163 79.1122 43.9536 79.1344 43.9837C79.1566 44.0139 79.1905 44.0345 79.2287 44.041C79.6376 44.109 80.0615 44.117 80.5006 44.0652C81.8761 43.9006 83.1678 43.7208 84.3757 43.5259C85.1106 43.4078 86.2525 43.381 86.9167 43.8103C87.0373 43.8872 87.0269 43.9435 86.8856 43.9793C84.4624 44.5803 81.9383 44.896 79.3135 44.9264C78.8424 44.93 78.3732 44.9014 77.9059 44.8406C77.2416 44.7547 76.6198 44.6152 75.9386 44.7225C75.0115 44.8674 74.1269 45.1518 73.1885 45.2269C71.649 45.3486 70.1255 45.4443 68.618 45.514C67.3376 45.5731 66.077 45.8038 64.7994 45.9594C64.1493 46.0381 63.5417 46.0023 62.9764 45.8521C61.9673 45.5865 61.7355 44.5401 62.3037 43.7834C63.0385 42.8014 64.1748 42.8685 65.2997 42.9651C66.7639 43.0939 68.3382 42.7612 69.7825 42.5546C70.9075 42.3936 72.1304 42.4723 73.4513 42.7907C73.8979 42.898 74.5169 42.8068 74.972 42.7209C76.8827 42.3525 78.8085 42.1163 80.7493 42.0126C81.1789 41.9893 81.6265 41.9983 82.0919 42.0394C82.1993 42.0502 82.2295 42.1002 82.1823 42.1897C81.9562 42.6243 80.9359 42.7692 80.4751 42.8122C80.4073 42.8175 80.3913 42.8479 80.4271 42.9034Z" fill="white"/>
<path d="M129.185 42.0706C130.6 42.4377 131.854 43.0022 132.947 43.7641C132.97 43.7808 132.986 43.802 132.994 43.8252C133.002 43.8484 133.002 43.8727 132.993 43.8955C132.983 43.9182 132.966 43.9384 132.942 43.9539C132.918 43.9694 132.889 43.9794 132.858 43.983C132.486 44.0291 132.037 43.9807 131.704 43.8471C130.562 43.3832 129.394 42.9347 128.201 42.5015C128.133 42.4775 128.077 42.4377 128.042 42.3879C128.006 42.3381 127.993 42.281 128.004 42.225C128.022 42.1328 128.081 42.0752 128.179 42.0522C128.511 41.9769 128.847 41.9831 129.185 42.0706Z" fill="white"/>
<path d="M127.373 43.007C128.54 42.9318 129.908 43.4791 130.873 43.8905C131.06 43.9699 131.041 44.0061 130.815 43.9992C129.439 43.956 128.252 43.7207 127.254 43.2932C126.88 43.1316 126.919 43.0362 127.373 43.007Z" fill="white"/>
<path d="M151.721 47.3958L151.835 47.1033C151.89 46.964 151.941 46.9656 151.988 47.108C152.003 47.1544 152.004 47.2023 151.992 47.2519C151.871 47.7656 151.604 48.0148 151.193 47.9993C150.943 47.99 150.936 47.9328 151.171 47.8275L151.439 47.7115C151.5 47.6849 151.556 47.6434 151.605 47.5892C151.653 47.5351 151.693 47.4693 151.721 47.3958Z" fill="white"/>
<path d="M23.7703 70.6726C27.4154 66.9764 34.1413 67.0111 37.2485 71.4217C38.293 72.9044 38.8688 74.5732 38.976 76.4281C39.1806 79.9701 38.0786 82.788 35.67 84.882C32.1916 87.9101 26.5092 87.6701 23.402 84.2978C19.9733 80.5755 20.3212 74.1722 23.7703 70.6726ZM24.9045 81.0759C26.4742 84.6622 30.5722 86.1199 33.7496 83.5632C37.3274 80.6825 36.4855 72.5526 32.1215 70.6524C30.4144 69.9081 28.7736 69.9457 27.1991 70.7652C23.6037 72.6364 23.557 78.0015 24.9045 81.0759Z" fill="white"/>
<path d="M174 80.3867V83.1859C173.913 82.4534 173.799 82.5726 173.656 83.5435C173.634 83.6966 173.582 83.8438 173.502 83.9853C171.392 87.7264 165.673 87.5549 162.22 85.7963C162.155 85.7629 162.1 85.7128 162.062 85.6513C162.023 85.5898 162.003 85.5194 162.003 85.4474L162 81.4476C162 81.248 162.046 81.2374 162.139 81.4157C163.419 83.8836 165.335 85.2672 168.359 84.8428C169.088 84.7401 169.717 84.4552 170.248 83.9882C171.299 83.0697 171.121 81.5087 170.218 80.5611C169.645 79.9584 168.967 79.4749 168.184 79.1106C166.8 78.4633 165.6 77.8335 164.583 77.2211C162.317 75.8607 161.478 73.5266 162.456 71.1808C164.001 67.46 169.521 67.3932 172.536 68.9948C172.637 69.0476 172.721 69.1257 172.779 69.2209C172.838 69.316 172.868 69.4247 172.868 69.5355L172.871 72.7824C172.871 72.984 172.821 72.9966 172.72 72.8202C171.498 70.7011 169.213 69.6111 166.847 70.1692C165.613 70.4599 164.74 71.5499 164.937 72.794C165.199 74.4335 167.252 75.3259 168.64 75.9276C170.792 76.8578 173.433 78.2269 173.774 80.593C173.796 80.75 173.838 80.7558 173.9 80.6105L174 80.3867Z" fill="white"/>
<path d="M63.0916 84.058C64.7771 84.0867 66.4134 84.0762 68.0006 84.0265C69.31 83.9844 70.2357 83.4021 70.7776 82.2795C70.9762 81.8703 71.0418 81.8904 70.9743 82.3398L70.4507 85.8279C70.4315 85.9426 70.363 86 70.2454 86H59.1604C59.0717 86 59.0562 85.9665 59.1141 85.8996C59.6502 85.2628 59.9212 84.5294 59.927 83.6994C59.9501 79.7141 59.9549 75.2746 59.9414 70.3809C59.9376 69.4859 59.6367 68.7248 59.0389 68.0975C58.9753 68.0325 58.9897 68 59.0823 68H63.7772C63.8852 68 63.9006 68.0382 63.8235 68.1147C63.2276 68.6904 62.9277 69.375 62.9238 70.1686C62.9065 73.0104 62.9026 77.579 62.9123 83.8744C62.9123 83.9949 62.972 84.0561 63.0916 84.058Z" fill="white"/>
<path d="M104.434 81.0153C104.525 81.2409 104.614 81.24 104.701 81.0124C106.014 77.5746 107.277 74.2629 108.493 71.0774C108.857 70.1224 109.561 68.8518 108.394 68.1233C108.262 68.0411 108.274 68 108.432 68H112.898C113.019 68 113.032 68.0373 112.939 68.1119C112.139 68.7409 111.523 69.5956 111.09 70.6759C109.11 75.6338 107.102 80.6979 105.065 85.8681C105.05 85.9068 105.023 85.9402 104.989 85.9637C104.954 85.9873 104.913 85.9999 104.87 86L103.152 85.9943C103.117 85.9944 103.083 85.984 103.054 85.9646C103.025 85.9451 103.002 85.9175 102.989 85.8853C100.945 80.7304 98.9147 75.6319 96.8977 70.5899C96.5056 69.6109 95.8941 68.7868 95.0633 68.1176C94.9662 68.0392 94.9808 68 95.107 68H100.287C100.39 68 100.406 68.0363 100.334 68.109C99.8368 68.6099 99.7174 69.1845 99.9756 69.8327C101.476 73.586 102.962 77.3136 104.434 81.0153Z" fill="white"/>
<path d="M116.075 85.8967C116.719 85.4865 116.987 84.5974 116.99 83.869C117.003 79.3527 117.003 74.7543 116.99 70.0736C116.988 69.3298 116.685 68.6759 116.08 68.1119C116.001 68.0373 116.015 68 116.123 68H120.86C120.978 68 120.993 68.0402 120.906 68.1205C120.307 68.6711 120.007 69.3614 120.005 70.1912C119.99 73.6902 119.984 78.1166 119.988 83.4703C119.991 84.4024 120.179 85.3145 120.946 85.9053C121.027 85.9665 121.017 85.9971 120.914 85.9971L116.103 85.9999C115.976 86.0018 115.966 85.9674 116.075 85.8967Z" fill="white"/>
<path d="M51.0338 76.6217C53.4364 77.0457 55.0502 78.9769 54.9988 81.272C54.9384 83.9854 52.7262 85.8507 49.9247 85.9424C48.3068 85.9959 45.3975 86.0121 41.1968 85.9911C41.088 85.9892 41.0708 85.951 41.1454 85.8765C41.7417 85.2901 42.046 84.5824 42.0581 83.7533C42.1145 80.0056 42.1195 75.5214 42.0732 70.3009C42.0651 69.4356 41.7266 68.7078 41.0577 68.1176C40.9671 68.0393 40.9832 68.0001 41.1061 68.0001C43.685 68.0135 46.2387 68.0135 48.7672 68.0001C51.7591 67.9858 54.1707 69.5273 54.074 72.5931C54.0317 73.9608 53.3457 75.0964 52.016 75.9999C51.7319 76.1948 51.342 76.3237 51.0126 76.4555C50.8252 76.5319 50.8323 76.5873 51.0338 76.6217ZM45.2676 69.9657L45.2494 75.6561C45.2494 75.6814 45.2598 75.7058 45.2784 75.724C45.2971 75.7422 45.3224 75.7528 45.3492 75.7535L47.8061 75.7621C48.195 75.7636 48.5803 75.6949 48.9401 75.5597C49.2999 75.4246 49.6271 75.2258 49.903 74.9746C50.1789 74.7234 50.3981 74.4247 50.548 74.0957C50.698 73.7668 50.7758 73.4139 50.7769 73.0573V72.5989C50.7792 71.8798 50.4702 71.1891 49.9177 70.6788C49.3652 70.1684 48.6144 69.88 47.8303 69.8768L45.3733 69.8683C45.3596 69.8679 45.3459 69.8701 45.3331 69.8748C45.3203 69.8796 45.3086 69.8867 45.2987 69.8958C45.2888 69.9048 45.281 69.9157 45.2757 69.9277C45.2703 69.9397 45.2676 69.9526 45.2676 69.9657ZM45.2343 77.7993L45.2464 83.8909C45.2464 83.9395 45.2668 83.9861 45.3031 84.0205C45.3393 84.0549 45.3885 84.0742 45.4398 84.0742L48.4468 84.0685C49.3068 84.0669 50.131 83.7554 50.738 83.2025C51.3449 82.6496 51.6851 81.9006 51.6835 81.1202V80.5471C51.6828 80.1607 51.5981 79.7781 51.4344 79.4214C51.2708 79.0647 51.0312 78.7407 50.7296 78.468C50.4279 78.1952 50.07 77.9791 49.6762 77.8319C49.2825 77.6848 48.8606 77.6094 48.4347 77.6102L45.4277 77.6159C45.3764 77.6159 45.3272 77.6353 45.291 77.6696C45.2547 77.704 45.2343 77.7507 45.2343 77.7993Z" fill="white"/>
<path d="M77.7922 78.0255V83.8687C77.7922 84.0045 77.8541 84.0714 77.9779 84.0695C79.2565 84.0599 80.5324 84.057 81.8057 84.0609C83.2115 84.0647 84.2162 83.426 84.8197 82.1447C84.9854 81.7928 85.0369 81.812 84.9741 82.2021L84.4037 85.8336C84.3863 85.9445 84.3261 86 84.2232 86H74.2705C74.1781 86 74.1624 85.9627 74.2234 85.8881C74.7606 85.215 75.031 84.3774 75.0345 83.3753C75.0554 77.9653 75.0528 73.6405 75.0266 70.401C75.0179 69.4582 74.6909 68.6904 74.0455 68.0975C73.9757 68.0325 73.9862 68 74.0769 68H83.8281C83.945 68 84.0043 68.0641 84.0061 68.1922C84.013 69.2172 84.0095 70.248 83.9956 71.2845C83.9869 71.9863 83.8857 72.0035 83.6921 71.3361C83.502 70.6802 83.0502 70.2508 82.3368 70.0481C81.606 69.8416 80.1434 69.7861 77.9491 69.8818C77.8445 69.8875 77.7922 69.9468 77.7922 70.0596V75.6934C77.7922 75.8292 77.8541 75.8961 77.9779 75.8942C78.9076 75.8827 79.8321 75.8818 80.7513 75.8913C81.4071 75.899 81.9688 75.6848 82.4362 75.2488C82.5234 75.1684 82.567 75.1904 82.567 75.3147V78.341C82.567 78.4959 82.5165 78.5198 82.4153 78.4127C82.063 78.0437 81.6504 77.8543 81.1778 77.8448C80.1626 77.8257 79.0969 77.8171 77.9805 77.819C77.855 77.819 77.7922 77.8878 77.7922 78.0255Z" fill="white"/>
<path d="M139.582 79.8279C139.606 76.956 139.6 73.8853 139.565 70.6157C139.553 69.5124 139.2 68.6816 138.505 68.1233C138.406 68.0411 138.42 68 138.549 68H142.894C143.019 68 143.033 68.0392 142.938 68.1176C142.274 68.6683 141.941 69.3652 141.939 70.2084C141.924 75.4512 141.922 80.6424 141.933 85.782C141.933 85.9254 141.859 85.9971 141.711 85.9971H140.102C139.97 85.9971 139.875 85.9388 139.816 85.8222C139.141 84.4359 138.266 83.1119 137.194 81.8499C134.889 79.1424 132.407 76.2084 129.75 73.0478C129.606 72.8776 129.533 72.9034 129.531 73.1252C129.5 76.7046 129.504 80.1893 129.545 83.5794C129.557 84.566 129.958 85.347 130.748 85.9226C130.822 85.9742 130.814 86 130.722 86L126.169 85.9971C126.004 85.9952 125.989 85.9493 126.126 85.8595C127.043 85.2514 127.177 84.0354 127.177 83.0688C127.169 79.2696 127.177 75.5354 127.2 71.8662C127.212 70.108 126.818 68.9522 125.162 68.1635C124.934 68.0545 124.947 68 125.2 68H129.461C129.564 68 129.647 68.0392 129.712 68.1176L139.387 79.8939C139.515 80.0507 139.581 80.0287 139.582 79.8279Z" fill="white"/>
<path d="M150.683 75.8884C151.892 75.8999 153.09 75.8932 154.279 75.8684C154.932 75.855 155.488 75.6637 155.947 75.2947C156.058 75.2048 156.114 75.2287 156.114 75.3664V78.3382C156.114 78.4931 156.054 78.517 155.935 78.4099C155.513 78.0331 155.012 77.8419 154.433 77.8362C153.187 77.8228 151.924 77.819 150.643 77.8247C150.531 77.8247 150.476 77.8763 150.476 77.9796V83.9088C150.476 84.0312 150.542 84.0896 150.674 84.0838C151.679 84.0475 152.666 84.0418 153.636 84.0666C155.858 84.1269 157.68 84.1182 158.792 82.139C158.982 81.8024 159.042 81.8215 158.972 82.1963L158.289 85.9312C158.285 85.9503 158.274 85.9676 158.258 85.9801C158.242 85.9927 158.221 85.9997 158.199 86H146.308C146.207 86 146.191 85.9656 146.259 85.8967C146.899 85.2542 147.221 84.4969 147.223 83.6249C147.241 78.9931 147.24 74.5632 147.22 70.335C147.213 69.375 146.825 68.6253 146.055 68.0861C145.973 68.0287 145.983 68 146.086 68H157.659C157.762 68 157.813 68.0478 157.813 68.1434V71.5111C157.811 71.8572 157.743 71.8696 157.609 71.5484C157.154 70.4717 156.217 69.919 154.798 69.8904C153.235 69.8598 151.849 69.8521 150.64 69.8674C150.53 69.8693 150.476 69.921 150.476 70.0223V75.6934C150.476 75.8215 150.545 75.8865 150.683 75.8884Z" fill="white"/>
<path d="M4.52135 73.3317C4.51167 76.9427 4.51264 80.6465 4.52425 84.4432C4.52425 85.1577 4.81179 86.3748 5.50884 86.6957C5.93095 86.8875 5.91159 86.9854 5.45076 86.9894C4.01405 87.0035 2.55217 87.0035 1.06512 86.9894C0.896665 86.9894 0.883111 86.94 1.02446 86.8411C1.9103 86.2325 2.09908 85.1244 2.10199 84.0435C2.11941 79.9501 2.12329 75.7679 2.11361 71.4969C2.10973 69.969 1.46593 68.871 0.182184 68.2029C-0.0753392 68.0676 -0.0598491 68 0.228654 68H4.43422C4.48061 68 4.52631 68.0106 4.56801 68.031C4.6097 68.0514 4.64634 68.0812 4.67528 68.1181L14.3905 80.483C14.5338 80.6647 14.6054 80.6374 14.6054 80.4012C14.6132 76.6974 14.6102 73.3892 14.5967 70.4766C14.5928 69.5502 14.2598 68.769 13.5976 68.1332C13.5046 68.0444 13.5211 68 13.647 68H17.8961C18.0142 68 18.0316 68.0444 17.9484 68.1332C17.3249 68.7973 17.0131 69.5552 17.0131 70.407C17.0054 76.4421 17.0025 81.9191 17.0044 86.838C17.0044 86.945 16.9531 86.9985 16.8505 86.9985H15.1224C15.0062 86.9985 14.9249 86.944 14.8784 86.835C14.2666 85.4302 13.2781 83.8911 11.913 82.2178C9.54111 79.3093 7.12465 76.3301 4.66366 73.2802C4.56879 73.1611 4.52135 73.1783 4.52135 73.3317Z" fill="white"/>
</svg>
