<svg width="118" height="116" viewBox="0 0 118 116" fill="none" xmlns="http://www.w3.org/2000/svg">
<path d="M39.3348 0H41.7945C45.4878 0.14127 49.0918 0.765417 52.6066 1.87244C53.1753 2.05268 53.7441 2.23353 54.3129 2.41499C56.0561 2.97398 57.7347 3.16945 59.5647 3.00504C59.5659 3.10125 59.5475 3.19076 59.5093 3.27357C59.4847 3.32594 59.4865 3.3777 59.5148 3.42885C59.5875 3.55916 59.5709 3.69191 59.465 3.82709C59.4428 3.8551 59.4496 3.87215 59.4853 3.87824C59.5025 3.88189 59.5173 3.88981 59.5296 3.90198C59.5801 3.94461 59.5819 3.98967 59.5352 4.03717C59.4551 4.11511 59.4594 4.19061 59.5481 4.26369C59.5998 4.30753 59.6263 4.36355 59.6275 4.43175C59.6287 5.22091 59.6441 6.01312 59.6737 6.80838C59.6995 7.51108 59.686 8.26492 59.633 9.06992C59.5826 9.83717 59.5721 10.566 59.6016 11.2566C59.6103 11.4344 59.638 11.6104 59.6847 11.7845C59.7377 11.9794 59.7789 12.1706 59.8085 12.3581C59.8442 12.5907 59.9125 12.8605 60.0134 13.1674C60.1427 13.5583 60.1876 13.9949 60.1482 14.4772L58.3589 13.2715C58.2591 13.2045 58.1588 13.2045 58.0578 13.2715C53.6752 16.1639 50.2521 19.8771 47.7887 24.4111L47.5542 24.2449C47.5037 24.2096 47.4982 24.1682 47.5376 24.1207C47.5991 24.0464 47.6041 23.9612 47.5523 23.8649C47.5191 23.8041 47.5345 23.759 47.5985 23.7298C47.6687 23.6957 47.6915 23.6415 47.6668 23.5672C47.6533 23.5282 47.6373 23.5276 47.6188 23.5654C47.6127 23.58 47.5997 23.5903 47.58 23.5964C47.5456 23.6074 47.5283 23.5952 47.5283 23.5599V23.3224C47.5282 23.3036 47.5235 23.2851 47.5147 23.2684C47.5059 23.2517 47.4933 23.2374 47.4778 23.2265C47.4622 23.2156 47.4443 23.2085 47.4255 23.2058C47.4067 23.2031 47.3875 23.2049 47.3695 23.211C47.3412 23.2207 47.3117 23.2244 47.2809 23.2219C47.2518 23.2193 47.2245 23.2065 47.2042 23.1857C47.1838 23.1649 47.1717 23.1376 47.1701 23.1087C47.1553 22.7409 47.1529 22.3913 47.1627 22.0601C47.1719 21.7587 47.002 21.5285 47.0224 21.2326C47.0236 21.2119 47.015 21.196 46.9965 21.1851L46.9448 21.1595C46.8993 21.1351 46.8703 21.098 46.858 21.0481C46.7423 20.5743 46.6666 20.1085 46.6309 19.6506C46.6186 19.4923 46.5933 19.3309 46.5552 19.1665C46.5219 19.0264 46.5035 18.8693 46.4998 18.6952C46.4948 18.4638 46.4794 18.2415 46.4536 18.0284C46.429 17.8214 46.4117 17.6198 46.4019 17.4237C46.376 16.9378 46.2357 16.4556 46.1526 15.9824C46.107 15.7157 46.1009 15.4326 46.1341 15.133C46.1698 14.8236 46.1711 14.5033 46.1378 14.1721C46.1329 14.1295 46.1132 14.0935 46.0787 14.0643C46.043 14.0363 46.043 14.0071 46.0787 13.9766C46.1046 13.9547 46.1347 13.9474 46.1692 13.9547C46.2049 13.962 46.2234 13.9827 46.2246 14.0168C46.2258 14.0436 46.2369 14.0485 46.2579 14.0314C46.3403 13.9608 46.3428 13.8889 46.2652 13.8159C46.2517 13.8025 46.2529 13.7909 46.2689 13.7812C46.2862 13.7702 46.3046 13.7678 46.3243 13.7739C46.3773 13.7885 46.4173 13.772 46.4444 13.7245C46.4801 13.6636 46.4782 13.6253 46.4388 13.6094C46.3551 13.5766 46.3354 13.5212 46.3797 13.4432C46.4696 13.2861 46.5213 13.1406 46.5348 13.0066L49.7184 9.39326C49.7259 9.38449 49.7312 9.37415 49.7339 9.36307C49.7366 9.35198 49.7368 9.34047 49.7343 9.32945C49.7317 9.31843 49.7267 9.30822 49.7194 9.29963C49.7122 9.29104 49.703 9.28432 49.6926 9.28C45.2791 7.41669 40.524 6.9874 35.7874 7.61216C35.8453 7.57319 35.8767 7.53482 35.8816 7.49707C35.8878 7.44836 35.8662 7.42096 35.817 7.41487C35.7406 7.40512 35.7 7.32657 35.6951 7.17921C35.6939 7.16345 35.6945 7.1481 35.6969 7.13354C35.7179 7.01907 35.7068 6.90702 35.6637 6.79742C35.6428 6.74627 35.66 6.72008 35.7154 6.71887C35.7363 6.71887 35.7462 6.70303 35.745 6.67137C35.745 6.65676 35.7406 6.64397 35.732 6.63301C35.6212 6.48565 35.5972 6.32672 35.66 6.15622C35.6994 6.04661 35.7037 5.93396 35.6729 5.81827C35.6668 5.79269 35.6508 5.78112 35.6249 5.78356C35.5609 5.78721 35.5258 5.75798 35.5197 5.69587C35.484 5.33539 35.4753 4.96699 35.4938 4.59068C35.5 4.45184 35.4803 4.31849 35.4347 4.19061C35.3855 4.05178 35.3578 3.91903 35.3516 3.79238C35.2999 2.64273 35.3036 1.4876 35.3627 0.326992L39.3348 0Z" fill="#5D376E"/>
<path d="M74.0533 0H76.7032V5.79269C76.7034 5.79438 76.7039 5.79605 76.7048 5.7975C76.7057 5.79895 76.7069 5.80013 76.7083 5.80089C76.7096 5.80166 76.7111 5.80198 76.7125 5.80182C76.7139 5.80166 76.7151 5.80103 76.7161 5.8C76.7777 5.75007 76.8319 5.76468 76.8787 5.84384C76.8896 5.86194 76.8965 5.88187 76.899 5.9023C76.91 5.96806 76.8983 6.02287 76.8639 6.06671C76.8466 6.08985 76.8386 6.11603 76.8399 6.14526C76.8411 6.16962 76.8491 6.19154 76.8639 6.21102C76.902 6.26339 76.9076 6.3188 76.8805 6.37726C76.8165 6.51488 76.8085 6.65797 76.8565 6.80655C76.9538 7.1098 77.0147 7.38807 77.0393 7.64139C73.2205 7.58293 69.5007 8.10965 65.8801 9.22154C65.7927 9.24834 65.7834 9.29218 65.8524 9.35307C71.1732 13.9651 75.0523 19.513 77.4899 25.9968C78.5659 28.8612 79.3581 31.9728 79.8665 35.3316C79.8751 35.3949 79.9121 35.4266 79.9773 35.4266L86.062 35.4394C86.0226 35.5076 85.9352 35.5295 85.7997 35.5051C85.785 35.5027 85.772 35.5057 85.761 35.5143C85.745 35.524 85.7388 35.538 85.7425 35.5563C85.744 35.565 85.7473 35.5733 85.7522 35.5807C85.7571 35.5882 85.7634 35.5945 85.7708 35.5995C85.7782 35.6044 85.7866 35.6078 85.7954 35.6095C85.8041 35.6112 85.8132 35.6111 85.8219 35.6093C85.8933 35.5934 85.9389 35.6202 85.9586 35.6896C85.9635 35.7067 85.9579 35.7183 85.9419 35.7243C85.9358 35.7268 85.9296 35.728 85.9235 35.728C85.8742 35.7243 85.8736 35.7286 85.9216 35.7408C85.993 35.7591 86.0583 35.7791 86.1174 35.8011C86.1539 35.8146 86.1847 35.8399 86.2051 35.873C86.2255 35.9061 86.2343 35.945 86.23 35.9837C86.2214 36.0519 86.1832 36.0927 86.1155 36.1061C86.0466 36.1195 86.0466 36.1323 86.1155 36.1445C86.1352 36.1482 86.1531 36.1549 86.1691 36.1646C86.2269 36.1975 86.2571 36.2468 86.2596 36.3126C86.2633 36.4234 86.2454 36.5336 86.206 36.6432C86.1851 36.7005 86.1777 36.7601 86.1838 36.8222L86.3704 38.6819C86.3741 38.7148 86.3821 38.7464 86.3944 38.7769C86.4165 38.8305 86.4165 38.8822 86.3944 38.9322C86.3796 38.9687 86.3691 39.0058 86.363 39.0436C86.3039 39.4199 86.5403 39.6994 86.5513 40.0775C86.5624 40.4283 86.5809 40.7735 86.6067 41.1133C86.6092 41.1352 86.6006 41.1523 86.5809 41.1645C86.5624 41.1767 86.5519 41.1986 86.5495 41.2302C86.5483 41.2582 86.5556 41.2832 86.5716 41.3051C86.7243 41.5195 86.7612 41.7356 86.6824 41.9536C86.659 42.0206 86.6757 42.076 86.7323 42.1199L86.8394 42.1984C86.9231 42.2605 86.9207 42.3196 86.832 42.3756C86.6966 42.4621 86.5729 42.484 86.4608 42.4414C86.4599 42.4413 86.4589 42.441 86.4581 42.4405C86.4572 42.44 86.4565 42.4394 86.4559 42.4386C86.4553 42.4378 86.4548 42.437 86.4546 42.436C86.4543 42.4351 86.4543 42.4341 86.4544 42.4332C86.4545 42.4322 86.4548 42.4313 86.4553 42.4304C86.4558 42.4296 86.4564 42.4289 86.4572 42.4283C86.458 42.4277 86.4589 42.4272 86.4598 42.427C86.4607 42.4267 86.4617 42.4267 86.4627 42.4268C86.5095 42.4329 86.5581 42.4402 86.6086 42.4487C86.712 42.4657 86.7144 42.4919 86.616 42.5272L86.2429 42.6606L80.6273 42.6679C80.5645 42.6691 80.5239 42.6984 80.5054 42.7556C79.7545 44.9891 78.9992 47.314 78.2396 49.7302C77.5545 51.9095 76.7143 54.1747 75.7023 56.2481C72.4412 62.9231 67.3869 68.5003 60.9496 72.4096C60.9767 72.2488 61.0745 72.1331 61.2432 72.0625C61.301 72.0381 61.2992 72.026 61.2376 72.026C61.2155 72.026 61.205 72.015 61.2063 71.9931C61.2103 71.9545 61.2223 71.9173 61.2414 71.884C61.2604 71.8506 61.2862 71.8218 61.3171 71.7994C61.3454 71.7799 61.37 71.7927 61.3909 71.8378C61.3995 71.8548 61.3989 71.8719 61.3891 71.8889L61.3669 71.9291C61.3656 71.9318 61.3651 71.9347 61.3656 71.9376C61.366 71.9405 61.3673 71.9432 61.3693 71.9454C61.3712 71.9475 61.3738 71.9491 61.3767 71.9498C61.3796 71.9504 61.3826 71.9503 61.3854 71.9492C61.5873 71.8445 61.7424 71.6898 61.8507 71.4852C61.8778 71.4353 61.8827 71.3829 61.8655 71.3281C61.8483 71.2733 61.8243 71.2234 61.7935 71.1783C61.759 71.1296 61.7479 71.0754 61.7602 71.0157C61.8033 70.7856 61.8046 70.5365 61.7639 70.2686C61.7233 70.008 61.7079 69.7638 61.7178 69.5361C61.7276 69.3035 61.7196 69.0635 61.6938 68.8163C61.6679 68.5764 61.6568 68.3407 61.6605 68.1094C61.6679 67.5772 61.6408 67.0541 61.5793 66.5402C61.5448 66.2527 61.535 65.9385 61.5497 65.5975C61.5737 65.0678 61.3854 64.5271 61.5146 64.0009C61.5331 63.9303 61.5177 63.8676 61.4685 63.8128C61.3269 63.6545 61.3398 63.5095 61.5073 63.378C61.5503 63.3451 61.5713 63.3019 61.57 63.2483C61.57 63.1984 61.5485 63.157 61.5054 63.1241C61.5044 63.1229 61.503 63.1221 61.5014 63.1219C61.4999 63.1218 61.4983 63.1222 61.4971 63.1232C61.4959 63.1242 61.4951 63.1256 61.4949 63.1271C61.4947 63.1286 61.4952 63.1302 61.4962 63.1314C61.506 63.1533 61.4986 63.1655 61.474 63.1679C61.4661 63.1683 61.4583 63.1662 61.452 63.1619C61.4456 63.1576 61.441 63.1513 61.4389 63.1442L61.402 63.0328C61.4008 63.0291 61.4014 63.0267 61.4038 63.0255C61.4235 63.0121 61.4426 63.006 61.4611 63.0072C61.5103 63.0108 61.5485 62.9913 61.5756 62.9487L61.8581 62.5121C76.7568 50.2161 75.5195 25.8068 60.1481 14.4772C60.1875 13.9949 60.1426 13.5583 60.0133 13.1674C59.9124 12.8605 59.8441 12.5907 59.8084 12.3581C59.7788 12.1706 59.7376 11.9794 59.6846 11.7845C59.6378 11.6104 59.6101 11.4344 59.6015 11.2566C59.572 10.566 59.5824 9.83717 59.6329 9.06992C59.6859 8.26492 59.6994 7.51108 59.6735 6.80838C59.644 6.01312 59.6286 5.22091 59.6274 4.43175C59.6262 4.36355 59.5997 4.30753 59.548 4.26369C59.4593 4.19061 59.455 4.11511 59.5351 4.03717C59.5818 3.98967 59.58 3.94461 59.5295 3.90198C59.5172 3.88981 59.5024 3.88189 59.4852 3.87824C59.4495 3.87215 59.4427 3.8551 59.4649 3.82709C59.5708 3.69191 59.5874 3.55916 59.5147 3.42885C59.4864 3.3777 59.4846 3.32594 59.5092 3.27357C59.5474 3.19076 59.5658 3.10125 59.5646 3.00504C60.3937 2.89726 61.1749 2.77852 61.9892 2.49172C63.2388 2.05086 64.1812 1.73848 64.8164 1.55458C67.8314 0.685039 70.9103 0.166845 74.0533 0Z" fill="#83285B"/>
<path d="M76.7041 0H77.8029C85.4738 0.442079 92.7698 2.90091 99.0392 7.29613C98.9948 7.33023 98.9979 7.38259 99.0484 7.45323C99.1136 7.54578 99.0933 7.57075 98.9874 7.52813C98.9493 7.51229 98.9087 7.50499 98.8656 7.5062C98.851 7.50698 98.8364 7.50473 98.8227 7.49961C98.809 7.49449 98.7966 7.48661 98.7862 7.47647C98.7757 7.46633 98.7676 7.45415 98.7622 7.44072C98.7568 7.42728 98.7542 7.41288 98.7548 7.39843C98.7548 7.35945 98.7708 7.33571 98.8028 7.32718C98.852 7.315 98.86 7.29004 98.8268 7.25228C98.748 7.16094 98.6508 7.08727 98.535 7.03124C98.4882 7.00811 98.4704 7.0215 98.4815 7.07143C98.5073 7.20174 98.4519 7.29369 98.3153 7.34728C98.2965 7.35424 98.2799 7.36609 98.2672 7.38154C98.2546 7.397 98.2464 7.41547 98.2436 7.435C98.2408 7.45452 98.2433 7.47435 98.2511 7.49236C98.2588 7.51038 98.2714 7.5259 98.2876 7.53726C98.3011 7.54578 98.3091 7.5604 98.3116 7.5811C98.314 7.60059 98.3054 7.61277 98.2857 7.61764C98.2377 7.62982 98.194 7.65052 98.1546 7.67975C98.1214 7.70289 98.0986 7.73699 98.0863 7.78205C98.042 7.93428 98.0358 8.08407 98.0678 8.23143C98.0814 8.29963 98.0697 8.36357 98.0327 8.42324C97.986 8.49875 97.9773 8.58156 98.0069 8.67169C98.0254 8.72771 98.0247 8.78373 98.005 8.83975C97.8733 9.24042 97.8025 9.64535 97.7927 10.0546C97.7791 10.5612 97.7693 11.0909 97.7631 11.6438C97.7607 11.8777 97.728 12.0944 97.6653 12.2942C97.6471 12.3529 97.6446 12.4158 97.6579 12.4769C97.7157 12.7314 97.7047 12.9689 97.6246 13.1893C97.5495 13.3963 97.5058 13.6125 97.4935 13.8378C97.4824 14.0509 97.4621 14.2647 97.4326 14.479C97.424 14.5387 97.4307 14.5971 97.4529 14.6544C97.4861 14.7384 97.4597 14.8023 97.3735 14.8462C97.3476 14.8584 97.3384 14.8784 97.3458 14.9065C97.3532 14.9284 97.3655 14.9406 97.3827 14.943C97.4492 14.9503 97.4517 14.9673 97.3901 14.9941C97.3741 15.0027 97.3569 15.0081 97.3384 15.0106C97.3052 15.0167 97.2941 15.0355 97.3052 15.0672C97.3335 15.1439 97.3402 15.2188 97.3255 15.2919C97.3132 15.3528 97.3359 15.3954 97.3938 15.4198C97.4726 15.4539 97.5052 15.5044 97.4917 15.5714C91.6686 10.538 84.8515 7.8947 77.0402 7.64139C77.0156 7.38807 76.9546 7.1098 76.8574 6.80655C76.8094 6.65797 76.8174 6.51488 76.8814 6.37726C76.9085 6.3188 76.9029 6.26339 76.8648 6.21102C76.85 6.19154 76.842 6.16962 76.8408 6.14526C76.8395 6.11603 76.8475 6.08985 76.8648 6.06671C76.8992 6.02287 76.9109 5.96806 76.8998 5.9023C76.8974 5.88187 76.8905 5.86194 76.8795 5.84384C76.8328 5.76468 76.7786 5.75007 76.717 5.8C76.716 5.80103 76.7147 5.80166 76.7133 5.80182C76.712 5.80198 76.7105 5.80166 76.7091 5.80089C76.7078 5.80013 76.7066 5.79895 76.7057 5.7975C76.7048 5.79605 76.7043 5.79438 76.7041 5.79269V0Z" fill="#9C1F4E"/>
<path d="M35.3634 0.326904C35.3043 1.48751 35.3006 2.64264 35.3523 3.79229C35.3584 3.91895 35.3861 4.05169 35.4354 4.19053C35.4809 4.3184 35.5006 4.45175 35.4945 4.59059C35.476 4.9669 35.4846 5.3353 35.5203 5.69579C35.5265 5.7579 35.5616 5.78712 35.6256 5.78347C35.6514 5.78103 35.6674 5.7926 35.6736 5.81818C35.7044 5.93388 35.7001 6.04653 35.6607 6.15613C35.5979 6.32663 35.6219 6.48556 35.7327 6.63292C35.7413 6.64388 35.7456 6.65667 35.7456 6.67128C35.7469 6.70295 35.737 6.71878 35.7161 6.71878C35.6607 6.72 35.6434 6.74618 35.6644 6.79733C35.7075 6.90693 35.7185 7.01898 35.6976 7.13345C35.6952 7.14801 35.6945 7.16336 35.6958 7.17912C35.7007 7.32648 35.7413 7.40504 35.8176 7.41478C35.8669 7.42087 35.8884 7.44827 35.8823 7.49698C35.8773 7.53474 35.846 7.5731 35.7881 7.61207C27.4992 8.92247 20.6814 12.7313 15.3348 19.0385C15.352 19.002 15.3261 18.9594 15.2572 18.9107C15.2104 18.8778 15.2147 18.8668 15.2701 18.8778C15.2898 18.8814 15.3071 18.8729 15.3218 18.8522C15.3452 18.8193 15.3397 18.7913 15.3052 18.7682C15.2917 18.7572 15.2763 18.7517 15.259 18.7517C15.1716 18.7481 15.1519 18.7225 15.2 18.675L15.2387 18.6366C15.2855 18.5891 15.2892 18.5386 15.2498 18.485C15.1427 18.3352 15.1495 18.1848 15.2701 18.0338C15.2898 18.0094 15.2904 17.9839 15.272 17.9571C15.139 17.7622 15.1113 17.5199 15.1889 17.23C15.2 17.1874 15.195 17.146 15.1741 17.1058C15.1359 17.0303 15.1218 16.9499 15.1316 16.8647C15.1667 16.5632 15.0688 16.2728 15.0781 15.9677C15.1101 14.907 15.1101 13.8286 15.0781 12.7325C15.0695 12.4804 15.0313 12.235 14.9636 11.9963C14.8873 11.7333 14.8276 11.4696 14.7845 11.2053C14.7586 11.0494 14.7525 10.8899 14.766 10.7267C14.7697 10.6731 14.7605 10.6232 14.7383 10.5769C14.7124 10.5246 14.7217 10.4746 14.766 10.4271C14.8066 10.3833 14.8294 10.3321 14.8343 10.2737L14.8971 9.627C14.9033 9.56489 14.8756 9.54175 14.814 9.55758C14.7906 9.56367 14.7666 9.56793 14.742 9.57037C14.6927 9.57524 14.6817 9.55697 14.7088 9.51556C14.7186 9.49973 14.7309 9.48573 14.7457 9.47355C14.7543 9.46624 14.7642 9.46259 14.7752 9.46259C14.8072 9.46259 14.8282 9.47903 14.838 9.51191C14.8385 9.51398 14.8395 9.5159 14.841 9.51752C14.8424 9.51914 14.8442 9.52043 14.8464 9.5213C14.8485 9.52217 14.8508 9.5226 14.8532 9.52256C14.8556 9.52251 14.858 9.522 14.8602 9.52104C14.8959 9.50521 14.9267 9.48207 14.9525 9.45163C14.9759 9.42362 14.9728 9.39865 14.9433 9.37673C14.8879 9.33654 14.8829 9.28539 14.9285 9.22328C14.9315 9.21993 14.9354 9.21757 14.9398 9.2165C14.9442 9.21543 14.9488 9.21571 14.953 9.2173C14.9572 9.21888 14.9609 9.22171 14.9634 9.22539C14.966 9.22907 14.9673 9.23343 14.9673 9.2379C14.9624 9.28661 14.9864 9.31645 15.0393 9.32741C15.0535 9.33066 15.0685 9.32883 15.0819 9.32219C15.0953 9.31556 15.1063 9.30452 15.1132 9.29087C15.1366 9.24703 15.1366 9.2178 15.1132 9.20319C15.0775 9.18005 15.0756 9.15325 15.1076 9.12281C15.1729 9.0607 15.1833 8.98397 15.139 8.89264C21.0519 4.20758 27.7934 1.35233 35.3634 0.326904Z" fill="#364583"/>
<path d="M99.039 7.29614C99.3702 7.51291 99.6939 7.73882 100.01 7.97387C103.162 10.3219 105.873 13.0151 108.145 16.0537C112.732 22.1892 115.246 29.0926 115.688 36.7638C115.734 37.5542 115.688 38.3421 115.552 39.1276C115.059 41.9591 112.833 42.6935 110.287 42.6844C102.274 42.6527 94.2593 42.6448 86.2437 42.6606L86.6167 42.5273C86.7152 42.4919 86.7127 42.4658 86.6093 42.4487C86.5588 42.4402 86.5102 42.4329 86.4634 42.4268C86.4624 42.4267 86.4615 42.4267 86.4605 42.427C86.4596 42.4272 86.4587 42.4277 86.4579 42.4283C86.4571 42.4289 86.4565 42.4296 86.456 42.4305C86.4555 42.4313 86.4552 42.4322 86.4551 42.4332C86.455 42.4341 86.455 42.4351 86.4553 42.436C86.4556 42.437 86.456 42.4378 86.4566 42.4386C86.4572 42.4394 86.458 42.44 86.4588 42.4405C86.4597 42.441 86.4606 42.4413 86.4616 42.4414C86.5736 42.484 86.6973 42.4621 86.8327 42.3756C86.9214 42.3196 86.9238 42.2605 86.8401 42.1984L86.733 42.1199C86.6764 42.076 86.6598 42.0206 86.6832 41.9536C86.762 41.7357 86.725 41.5195 86.5724 41.3051C86.5564 41.2832 86.549 41.2583 86.5502 41.2302C86.5527 41.1986 86.5631 41.1767 86.5816 41.1645C86.6013 41.1523 86.6099 41.1353 86.6075 41.1133C86.5816 40.7736 86.5631 40.4283 86.5521 40.0776C86.541 39.6994 86.3046 39.4199 86.3637 39.0436C86.3698 39.0058 86.3803 38.9687 86.3951 38.9322C86.4172 38.8822 86.4172 38.8305 86.3951 38.7769C86.3828 38.7464 86.3748 38.7148 86.3711 38.6819L86.1846 36.8222C86.1784 36.7601 86.1858 36.7005 86.2067 36.6432C86.2461 36.5336 86.264 36.4234 86.2603 36.3126C86.2578 36.2468 86.2277 36.1975 86.1698 36.1646C86.1538 36.1549 86.1359 36.1482 86.1162 36.1445C86.0473 36.1323 86.0473 36.1195 86.1162 36.1061C86.184 36.0928 86.2221 36.052 86.2307 35.9838C86.235 35.945 86.2262 35.9061 86.2058 35.873C86.1855 35.8399 86.1546 35.8146 86.1181 35.8011C86.059 35.7792 85.9938 35.7591 85.9223 35.7408C85.8743 35.7286 85.8749 35.7244 85.9242 35.728C85.9303 35.728 85.9365 35.7268 85.9427 35.7244C85.9587 35.7183 85.9642 35.7067 85.9593 35.6896C85.9396 35.6202 85.894 35.5934 85.8226 35.6093C85.8139 35.6111 85.8049 35.6112 85.7961 35.6095C85.7873 35.6078 85.779 35.6044 85.7715 35.5995C85.7641 35.5945 85.7578 35.5882 85.7529 35.5807C85.7481 35.5733 85.7448 35.565 85.7432 35.5563C85.7395 35.538 85.7457 35.524 85.7617 35.5143C85.7728 35.5058 85.7857 35.5027 85.8005 35.5051C85.9359 35.5295 86.0233 35.5076 86.0627 35.4394L107.604 35.4412C107.674 35.4412 107.705 35.4071 107.696 35.3389C106.682 27.4984 103.28 20.9092 97.4915 15.5714C97.5051 15.5044 97.4724 15.4539 97.3936 15.4198C97.3358 15.3954 97.313 15.3528 97.3253 15.2919C97.3401 15.2188 97.3333 15.1439 97.305 15.0672C97.2939 15.0356 97.305 15.0167 97.3382 15.0106C97.3567 15.0082 97.374 15.0027 97.39 14.9942C97.4515 14.9674 97.449 14.9503 97.3826 14.943C97.3653 14.9406 97.353 14.9284 97.3456 14.9065C97.3383 14.8785 97.3475 14.8584 97.3733 14.8462C97.4595 14.8023 97.486 14.7384 97.4527 14.6544C97.4306 14.5971 97.4238 14.5387 97.4324 14.479C97.462 14.2647 97.4823 14.0509 97.4934 13.8378C97.5057 13.6125 97.5494 13.3963 97.6245 13.1893C97.7045 12.9689 97.7156 12.7314 97.6577 12.4769C97.6444 12.4158 97.6469 12.3529 97.6651 12.2942C97.7279 12.0945 97.7605 11.8777 97.763 11.6439C97.7691 11.091 97.779 10.5612 97.7925 10.0546C97.8024 9.64536 97.8732 9.24043 98.0049 8.83976C98.0246 8.78374 98.0252 8.72772 98.0067 8.6717C97.9772 8.58158 97.9858 8.49876 98.0326 8.42325C98.0695 8.36358 98.0812 8.29964 98.0677 8.23144C98.0357 8.08408 98.0418 7.93429 98.0861 7.78206C98.0984 7.737 98.1212 7.7029 98.1545 7.67976C98.1939 7.65053 98.2376 7.62983 98.2856 7.61765C98.3053 7.61278 98.3139 7.6006 98.3114 7.58111C98.309 7.56041 98.301 7.54579 98.2874 7.53727C98.2713 7.52591 98.2587 7.51039 98.2509 7.49237C98.2432 7.47436 98.2406 7.45453 98.2434 7.43501C98.2463 7.41548 98.2545 7.39701 98.2671 7.38155C98.2797 7.3661 98.2963 7.35426 98.3151 7.34729C98.4518 7.2937 98.5072 7.20175 98.4813 7.07144C98.4702 7.02151 98.4881 7.00812 98.5349 7.03125C98.6506 7.08728 98.7478 7.16096 98.8266 7.25229C98.8599 7.29005 98.8519 7.31501 98.8026 7.32719C98.7706 7.33572 98.7546 7.35946 98.7546 7.39844C98.7541 7.41289 98.7566 7.42729 98.762 7.44073C98.7674 7.45417 98.7756 7.46634 98.786 7.47648C98.7964 7.48662 98.8089 7.4945 98.8225 7.49962C98.8362 7.50474 98.8508 7.50699 98.8654 7.50622C98.9085 7.505 98.9491 7.5123 98.9873 7.52814C99.0932 7.57076 99.1135 7.5458 99.0482 7.45324C98.9978 7.3826 98.9947 7.33024 99.039 7.29614Z" fill="#B81440"/>
<path d="M15.1387 8.89282C15.183 8.98416 15.1725 9.06088 15.1073 9.123C15.0753 9.15344 15.0771 9.18023 15.1128 9.20337C15.1362 9.21799 15.1362 9.24722 15.1128 9.29106C15.106 9.30471 15.095 9.31575 15.0816 9.32238C15.0682 9.32901 15.0532 9.33085 15.039 9.32759C14.986 9.31663 14.962 9.2868 14.9669 9.23808C14.967 9.23362 14.9656 9.22926 14.9631 9.22558C14.9605 9.22189 14.9569 9.21907 14.9527 9.21748C14.9485 9.21589 14.9439 9.21562 14.9395 9.21668C14.9351 9.21775 14.9312 9.22012 14.9282 9.22347C14.8826 9.28558 14.8875 9.33673 14.9429 9.37692C14.9725 9.39884 14.9756 9.4238 14.9522 9.45181C14.9263 9.48226 14.8955 9.5054 14.8598 9.52123C14.8576 9.52218 14.8552 9.5227 14.8528 9.52274C14.8505 9.52279 14.8481 9.52236 14.846 9.52149C14.8439 9.52062 14.8421 9.51933 14.8406 9.51771C14.8392 9.51608 14.8382 9.51417 14.8377 9.5121C14.8278 9.47922 14.8069 9.46277 14.7749 9.46277C14.7638 9.46277 14.754 9.46643 14.7453 9.47374C14.7306 9.48591 14.7183 9.49992 14.7084 9.51575C14.6813 9.55716 14.6924 9.57543 14.7417 9.57055C14.7663 9.56812 14.7903 9.56386 14.8137 9.55777C14.8752 9.54194 14.9029 9.56507 14.8968 9.62718L14.834 10.2739C14.8291 10.3323 14.8063 10.3835 14.7657 10.4273C14.7213 10.4748 14.7121 10.5247 14.738 10.5771C14.7601 10.6234 14.7694 10.6733 14.7657 10.7269C14.7521 10.8901 14.7583 11.0496 14.7841 11.2055C14.8272 11.4698 14.8869 11.7335 14.9633 11.9965C15.031 12.2352 15.0691 12.4806 15.0777 12.7327C15.1098 13.8288 15.1098 14.9072 15.0777 15.9679C15.0685 16.273 15.1664 16.5634 15.1313 16.8649C15.1214 16.9501 15.1356 17.0305 15.1738 17.106C15.1947 17.1462 15.1996 17.1876 15.1885 17.2302C15.111 17.5201 15.1387 17.7624 15.2716 17.9573C15.2901 17.9841 15.2895 18.0096 15.2698 18.034C15.1491 18.185 15.1424 18.3354 15.2495 18.4852C15.2889 18.5388 15.2852 18.5893 15.2384 18.6368L15.1996 18.6752C15.1516 18.7227 15.1713 18.7483 15.2587 18.7519C15.2759 18.7519 15.2913 18.7574 15.3049 18.7683C15.3394 18.7915 15.3449 18.8195 15.3215 18.8524C15.3067 18.8731 15.2895 18.8816 15.2698 18.878C15.2144 18.867 15.2101 18.878 15.2569 18.9108C15.3258 18.9596 15.3517 19.0022 15.3344 19.0387C11.4196 23.9211 9.22514 29.5335 8.75117 35.8761C8.49634 39.2885 8.33937 41.9903 8.28028 43.9814C8.16087 48.0247 8.12886 52.1203 8.18426 56.2683C8.25443 61.6841 8.28151 67.0049 8.26551 72.2306C8.26181 73.4022 8.27536 74.6249 8.30613 75.8988C8.364 78.3516 8.35722 80.8768 8.28582 83.4744C8.24027 85.1368 8.14917 86.326 8.01252 87.0421C7.89557 87.6657 7.51639 88.3178 6.87499 88.9986C6.10187 89.8219 5.28935 90.6798 4.43743 91.5725C4.39311 91.6188 4.35002 91.6182 4.30817 91.5707C3.48949 90.6451 2.69236 89.7378 1.91678 88.8488C1.61393 88.5017 1.38741 88.1126 1.23721 87.6815C1.1338 87.3843 1.07656 86.9465 1.06548 86.368C0.916514 77.8492 0.802639 69.2086 0.723849 60.4461C0.641366 51.2368 0.805101 42.9621 1.21505 35.6221C1.80598 25.0214 6.83252 15.5478 15.1387 8.89282Z" fill="#155193"/>
<path d="M46.5348 13.0066C46.5213 13.1406 46.4696 13.2861 46.3797 13.4432C46.3354 13.5211 46.3551 13.5765 46.4388 13.6094C46.4782 13.6253 46.4801 13.6636 46.4444 13.7245C46.4173 13.772 46.3773 13.7885 46.3243 13.7738C46.3046 13.7677 46.2862 13.7702 46.2689 13.7811C46.2529 13.7909 46.2517 13.8025 46.2652 13.8159C46.3428 13.8889 46.3403 13.9608 46.2579 14.0314C46.2369 14.0485 46.2258 14.0436 46.2246 14.0168C46.2234 13.9827 46.2049 13.962 46.1692 13.9547C46.1347 13.9474 46.1046 13.9547 46.0787 13.9766C46.043 14.0071 46.043 14.0363 46.0787 14.0643C46.1132 14.0935 46.1329 14.1294 46.1378 14.1721C46.1711 14.5033 46.1698 14.8236 46.1341 15.133C46.1009 15.4325 46.107 15.7157 46.1526 15.9824C46.2357 16.4555 46.376 16.9378 46.4019 17.4237C46.4117 17.6198 46.429 17.8214 46.4536 18.0284C46.4794 18.2415 46.4948 18.4638 46.4998 18.6952C46.5035 18.8693 46.5219 19.0264 46.5552 19.1665C46.5933 19.3309 46.6186 19.4922 46.6309 19.6506C46.6666 20.1085 46.7423 20.5743 46.858 21.048C46.8703 21.098 46.8993 21.1351 46.9448 21.1595L46.9965 21.185C47.015 21.196 47.0236 21.2118 47.0224 21.2325C47.002 21.5285 47.1719 21.7587 47.1627 22.0601C47.1529 22.3913 47.1553 22.7408 47.1701 23.1086C47.1717 23.1375 47.1839 23.1649 47.2042 23.1857C47.2245 23.2065 47.2518 23.2193 47.2809 23.2219C47.3117 23.2243 47.3412 23.2207 47.3695 23.2109C47.3875 23.2049 47.4067 23.2031 47.4255 23.2058C47.4443 23.2085 47.4622 23.2156 47.4778 23.2265C47.4933 23.2373 47.5059 23.2517 47.5147 23.2684C47.5235 23.2851 47.5282 23.3036 47.5283 23.3224V23.5599C47.5283 23.5952 47.5456 23.6073 47.58 23.5964C47.5997 23.5903 47.6127 23.5799 47.6188 23.5653C47.6373 23.5276 47.6533 23.5282 47.6668 23.5672C47.6915 23.6414 47.6687 23.6956 47.5985 23.7297C47.5345 23.759 47.5191 23.804 47.5523 23.8649C47.6041 23.9611 47.5991 24.0464 47.5376 24.1207C47.4982 24.1682 47.5037 24.2096 47.5542 24.2449L47.7887 24.4111C43.0669 33.3587 42.7252 43.9083 47.1996 53.022C47.1258 53.0427 47.0562 53.0409 46.991 53.0165C46.9343 52.9971 46.8925 52.963 46.8654 52.9142C46.8358 52.8619 46.7928 52.8186 46.7361 52.7845C46.6758 52.748 46.6296 52.7614 46.5976 52.8247C46.5312 52.9611 46.5373 53.0823 46.6161 53.1883C46.642 53.2248 46.642 53.2607 46.6161 53.296C46.4647 53.4982 46.4554 53.6864 46.5884 53.8605C46.634 53.9214 46.658 53.989 46.6604 54.0633C46.6629 54.1339 46.6832 54.1997 46.7214 54.2606C46.7388 54.2881 46.7503 54.3188 46.755 54.3505C46.7598 54.3823 46.7578 54.4145 46.7491 54.4451C46.6924 54.6497 46.7047 54.8512 46.786 55.0497C46.802 55.0899 46.7971 55.1277 46.7712 55.163L46.7029 55.2525C46.6614 55.3063 46.6429 55.3739 46.6512 55.4407C46.6918 55.806 46.6647 56.1647 46.5699 56.5166C46.5515 56.5824 46.5589 56.6451 46.5921 56.7048C46.666 56.84 46.6992 56.9782 46.6918 57.1195C46.6881 57.2084 46.642 57.2473 46.5533 57.2364L46.4924 57.2291C46.4597 57.2249 46.4276 57.2313 46.3996 57.2477C46.3715 57.264 46.3487 57.2896 46.3335 57.3216C46.3184 57.3536 46.3116 57.3908 46.3139 57.429C46.3162 57.4671 46.3275 57.5048 46.3465 57.5378C46.5053 57.8106 46.4887 58.0061 46.2966 58.1242C46.2622 58.1461 46.2566 58.1741 46.28 58.2082C46.3711 58.3325 46.3736 58.4585 46.2874 58.5864C46.2468 58.6448 46.2412 58.7069 46.2708 58.7727C46.357 58.9615 46.3219 59.132 46.1655 59.2842C46.1335 59.3171 46.1206 59.3561 46.1267 59.4011C46.1563 59.6252 46.1126 59.8468 45.9956 60.0661C45.9685 60.1172 45.9556 60.172 45.9569 60.2305C45.9593 60.362 45.9168 60.4813 45.8294 60.5885C45.7888 60.6397 45.766 60.6975 45.7611 60.7621C45.7316 61.1091 45.6842 61.4672 45.6189 61.8362C45.614 61.8666 45.5974 61.888 45.5691 61.9001C45.5432 61.9111 45.5315 61.93 45.534 61.9568C45.5426 62.0907 45.5137 62.221 45.4472 62.3477C45.3548 62.5249 45.3973 62.7825 45.4269 62.9761C45.4293 62.9941 45.4267 63.0124 45.4195 63.0291C45.3973 63.0815 45.3739 63.09 45.3493 63.0547C45.3001 62.9828 45.2471 62.9798 45.1905 63.0455L44.9948 63.272C42.6668 60.1288 40.8189 56.8394 39.4512 53.4038C36.041 44.835 35.7074 36.2425 38.4503 27.6262C40.1049 22.426 42.7997 17.5528 46.5348 13.0066Z" fill="#513B74"/>
<path d="M109.13 62.8026C108.926 62.7064 108.833 62.5961 108.853 62.4719C108.857 62.4415 108.855 62.411 108.848 62.3806C108.781 62.1248 108.777 61.8886 108.835 61.6718C108.901 61.4221 108.866 61.1688 108.729 60.9119C108.701 60.8595 108.689 60.8035 108.692 60.7438C108.712 60.3492 108.691 59.9504 108.63 59.5473C108.592 59.3013 108.574 59.0583 108.576 58.8184C108.577 58.5224 108.564 58.2783 108.536 58.0858C108.327 56.6683 108.243 55.2397 108.283 53.8002C108.283 53.7917 108.298 53.5774 108.329 53.1572C108.35 52.8576 108.334 52.5994 108.283 52.3827C108.141 51.8005 108.098 51.2738 108.153 50.8025C109.086 50.5236 109.989 50.604 110.86 51.0436C112.57 51.9077 112.62 54.1254 112.362 55.8316C112.258 56.5099 111.956 57.3984 111.455 58.4969C110.777 59.9814 110.002 61.4167 109.13 62.8026Z" fill="#B81440"/>
<path d="M108.154 50.8025C108.099 51.2738 108.142 51.8005 108.283 52.3826C108.335 52.5994 108.35 52.8576 108.33 53.1572C108.299 53.5774 108.283 53.7917 108.283 53.8002C108.244 55.2397 108.328 56.6683 108.536 58.0858C108.565 58.2782 108.578 58.5224 108.577 58.8184C108.575 59.0583 108.592 59.3012 108.631 59.5472C108.692 59.9504 108.713 60.3492 108.693 60.7438C108.69 60.8035 108.702 60.8595 108.73 60.9118C108.867 61.1688 108.902 61.4221 108.836 61.6718C108.778 61.8886 108.782 62.1248 108.848 62.3806C108.856 62.411 108.858 62.4415 108.854 62.4719C108.834 62.5961 108.927 62.7063 109.131 62.8026C105.867 68.0734 101.657 72.4369 96.5 75.8932C96.5308 75.769 96.6077 75.6563 96.7308 75.5552C96.7702 75.5224 96.7862 75.4816 96.7788 75.4328C96.748 75.2465 96.7283 75.059 96.7197 74.8702C96.7123 74.707 96.6902 74.5389 96.6533 74.366C96.5683 73.9727 96.524 73.5866 96.5203 73.2078C96.5092 72.1775 96.4827 71.2051 96.4409 70.2905C96.4126 69.645 96.4015 68.9971 96.4076 68.3468C96.4126 67.8036 96.319 67.2611 96.127 66.7192C96.1073 66.6619 96.1146 66.6083 96.1491 66.5584C96.3042 66.3367 96.3849 66.1474 96.391 65.9903C100.328 62.5791 103.293 58.5054 105.286 53.7692C105.617 52.9812 105.919 52.4326 106.191 52.1232C106.709 51.5314 107.364 51.0911 108.154 50.8025Z" fill="#9C1F4E"/>
<path d="M47.2 53.0219C49.2018 57.0006 51.9662 60.3637 55.4932 63.1112C55.8576 63.3937 56.4621 63.6117 57.3066 63.7652C58.2484 63.9357 59.1219 63.9198 59.927 63.7177C60.6453 63.5368 61.2695 62.9833 61.8586 62.512L61.5761 62.9486C61.549 62.9912 61.5108 63.0107 61.4616 63.0071C61.4431 63.0058 61.424 63.0119 61.4043 63.0253C61.4019 63.0266 61.4012 63.029 61.4025 63.0326L61.4394 63.1441C61.4415 63.1512 61.4461 63.1575 61.4524 63.1618C61.4588 63.1661 61.4666 63.1682 61.4745 63.1678C61.4991 63.1654 61.5065 63.1532 61.4966 63.1313C61.4957 63.1301 61.4952 63.1285 61.4954 63.127C61.4956 63.1254 61.4963 63.124 61.4976 63.1231C61.4988 63.1221 61.5004 63.1216 61.5019 63.1218C61.5035 63.122 61.5049 63.1228 61.5059 63.124C61.549 63.1569 61.5705 63.1983 61.5705 63.2482C61.5717 63.3018 61.5508 63.345 61.5077 63.3779C61.3403 63.5094 61.3274 63.6544 61.469 63.8127C61.5182 63.8675 61.5336 63.9302 61.5151 64.0008C61.3859 64.5269 61.5742 65.0677 61.5502 65.5974C61.5354 65.9384 61.5453 66.2526 61.5797 66.54C61.6413 67.054 61.6684 67.577 61.661 68.1092C61.6573 68.3406 61.6684 68.5763 61.6942 68.8162C61.7201 69.0634 61.7281 69.3033 61.7182 69.5359C61.7084 69.7637 61.7238 70.0079 61.7644 70.2685C61.805 70.5364 61.8038 70.7855 61.7607 71.0156C61.7484 71.0753 61.7595 71.1295 61.794 71.1782C61.8247 71.2233 61.8487 71.2732 61.866 71.328C61.8832 71.3828 61.8783 71.4352 61.8512 71.4851C61.7429 71.6897 61.5878 71.8444 61.3859 71.9491C61.3831 71.9501 61.3801 71.9503 61.3772 71.9496C61.3743 71.9489 61.3717 71.9474 61.3697 71.9453C61.3677 71.9431 61.3665 71.9404 61.366 71.9375C61.3656 71.9346 61.3661 71.9316 61.3674 71.929L61.3895 71.8888C61.3994 71.8718 61.4 71.8547 61.3914 71.8377C61.3705 71.7926 61.3458 71.7798 61.3175 71.7993C61.2867 71.8217 61.2609 71.8505 61.2418 71.8839C61.2228 71.9172 61.2108 71.9544 61.2067 71.993C61.2055 72.0149 61.216 72.0258 61.2381 72.0258C61.2997 72.0258 61.3015 72.038 61.2437 72.0624C61.075 72.133 60.9771 72.2487 60.95 72.4095C56.608 75.0242 51.9249 76.7535 46.9008 77.5975C46.8664 77.5269 46.8701 77.4544 46.9119 77.3801C46.9365 77.335 46.9378 77.2894 46.9156 77.2431C46.8701 77.1457 46.8584 77.0379 46.8805 76.9198C46.8914 76.8575 46.8864 76.7928 46.8658 76.7316C46.7642 76.4411 46.6368 76.158 46.6571 75.8529C46.6774 75.5515 46.5241 75.367 46.5315 75.0839C46.534 74.9633 46.51 74.8494 46.4595 74.7422C46.4361 74.6923 46.4343 74.6418 46.454 74.5906C46.5217 74.4092 46.558 74.2228 46.5629 74.0316C46.5654 73.8867 46.5912 73.7327 46.6405 73.5695C46.6885 73.4136 46.7273 73.2577 46.7568 73.1018C46.795 72.8996 46.7673 72.6871 46.6737 72.4643C46.5648 72.203 46.5721 71.8742 46.6737 71.6093C46.6976 71.5457 46.6969 71.4749 46.6719 71.4102L46.4189 70.7909C46.3942 70.7313 46.3949 70.671 46.4207 70.6101C46.4552 70.5273 46.4527 70.4499 46.4133 70.3781C46.3887 70.3306 46.4029 70.3093 46.4558 70.3142C46.4681 70.3154 46.4773 70.3111 46.4835 70.3014C46.4946 70.2782 46.4958 70.2539 46.4872 70.2283C46.4835 70.2125 46.4829 70.1948 46.4854 70.1753C47.6389 69.9342 48.7536 69.5804 49.8296 69.114C49.8424 69.1083 49.8537 69.0997 49.8624 69.0888C49.8712 69.078 49.8772 69.0653 49.8799 69.0519C49.8826 69.0384 49.882 69.0245 49.8781 69.0115C49.8741 68.9984 49.867 68.9866 49.8573 68.977C48.0821 67.177 46.4613 65.2753 44.9951 63.2719L45.1909 63.0454C45.2475 62.9797 45.3004 62.9827 45.3497 63.0546C45.3743 63.0899 45.3977 63.0814 45.4198 63.029C45.4271 63.0123 45.4297 62.994 45.4272 62.976C45.3977 62.7824 45.3552 62.5248 45.4475 62.3476C45.514 62.2209 45.543 62.0906 45.5343 61.9567C45.5319 61.9299 45.5436 61.911 45.5694 61.9C45.5977 61.8879 45.6144 61.8666 45.6193 61.8361C45.6845 61.4671 45.7319 61.109 45.7615 60.762C45.7664 60.6974 45.7892 60.6396 45.8298 60.5884C45.9172 60.4813 45.9597 60.3619 45.9572 60.2304C45.956 60.1719 45.9689 60.1171 45.996 60.066C46.1129 59.8468 46.1566 59.6251 46.1271 59.401C46.1209 59.356 46.1339 59.317 46.1659 59.2841C46.3222 59.1319 46.3573 58.9614 46.2711 58.7726C46.2416 58.7068 46.2471 58.6447 46.2878 58.5863C46.3739 58.4584 46.3715 58.3324 46.2804 58.2081C46.257 58.174 46.2625 58.146 46.297 58.1241C46.489 58.006 46.5057 57.8105 46.3469 57.5377C46.3278 57.5047 46.3165 57.467 46.3143 57.4289C46.312 57.3907 46.3188 57.3535 46.3339 57.3215C46.349 57.2895 46.3719 57.2639 46.3999 57.2476C46.428 57.2312 46.4601 57.2248 46.4927 57.229L46.5537 57.2363C46.6423 57.2473 46.6885 57.2083 46.6922 57.1194C46.6996 56.9781 46.6663 56.8399 46.5925 56.7047C46.5592 56.645 46.5518 56.5823 46.5703 56.5165C46.6651 56.1646 46.6922 55.8059 46.6515 55.4406C46.6432 55.3738 46.6618 55.3062 46.7033 55.2524L46.7716 55.1629C46.7974 55.1276 46.8024 55.0898 46.7864 55.0496C46.7051 54.8511 46.6928 54.6496 46.7494 54.445C46.7581 54.4144 46.7602 54.3822 46.7554 54.3505C46.7506 54.3187 46.7391 54.288 46.7217 54.2605C46.6836 54.1996 46.6632 54.1338 46.6608 54.0632C46.6583 53.9889 46.6343 53.9213 46.5888 53.8604C46.4558 53.6863 46.465 53.4981 46.6165 53.2959C46.6423 53.2606 46.6423 53.2247 46.6165 53.1882C46.5377 53.0822 46.5315 52.961 46.598 52.8246C46.63 52.7613 46.6762 52.7479 46.7365 52.7845C46.7931 52.8186 46.8362 52.8618 46.8658 52.9142C46.8928 52.9629 46.9347 52.997 46.9913 53.0165C47.0566 53.0408 47.1261 53.0426 47.2 53.0219Z" fill="#5D376E"/>
<path d="M34.6685 70.2503L34.1607 70.6723C34.1188 70.7064 34.0985 70.7509 34.0997 70.8057C34.1059 71.126 34.1336 71.4383 34.1828 71.7428C34.2272 72.0071 34.2395 72.2884 34.2198 72.5868C34.1767 73.2347 34.1736 73.8911 34.2105 74.556C34.2241 74.802 34.2161 75.0602 34.1865 75.3306C34.1545 75.6314 34.1656 75.8908 34.2198 76.1088C34.3103 76.4796 34.2419 76.8486 34.3564 77.2103C34.3651 77.2372 34.3677 77.2655 34.3642 77.2933C34.3607 77.3211 34.3511 77.3476 34.3361 77.3711C34.3053 77.4198 34.2629 77.4472 34.2087 77.4533C34.1016 77.4655 34.0973 77.4929 34.1958 77.5355C34.3275 77.5915 34.4432 77.6506 34.5429 77.7127C30.4933 77.1135 26.4621 75.9005 22.8149 74.061C21.5839 73.4387 20.3491 72.8072 19.1106 72.1666C18.5923 71.8975 18.199 71.509 17.9306 71.0011C16.9426 69.1324 16.3203 67.0352 15.6611 65.0477C15.6583 65.0389 15.6575 65.0296 15.6588 65.0205C15.6601 65.0113 15.6634 65.0026 15.6686 64.9949C15.6737 64.9872 15.6805 64.9808 15.6885 64.976C15.6964 64.9712 15.7054 64.9682 15.7146 64.9673C16.7783 64.8796 17.8487 64.7999 18.9259 64.728C19.4307 64.6951 19.9416 64.6988 20.4586 64.739C21.2287 64.7974 21.7808 65.1043 22.4142 65.4934C26.1961 67.8219 30.2809 69.4076 34.6685 70.2503Z" fill="#364583"/>
<path d="M96.3906 65.9902C96.3844 66.1473 96.3038 66.3367 96.1487 66.5584C96.1142 66.6083 96.1068 66.6619 96.1265 66.7191C96.3186 67.2611 96.4121 67.8036 96.4072 68.3468C96.401 68.9971 96.4121 69.645 96.4404 70.2905C96.4823 71.2051 96.5088 72.1775 96.5198 73.2078C96.5235 73.5866 96.5679 73.9726 96.6528 74.366C96.6897 74.5389 96.7119 74.707 96.7193 74.8702C96.7279 75.0589 96.7476 75.2465 96.7784 75.4328C96.7858 75.4815 96.7698 75.5223 96.7304 75.5552C96.6073 75.6563 96.5303 75.7689 96.4995 75.8932C94.4399 77.2474 92.2861 78.4056 90.0382 79.3677C89.9778 79.1753 89.9809 79.0157 90.0474 78.8891C90.0856 78.8172 90.0782 78.7496 90.0252 78.6863C89.9969 78.651 89.992 78.6108 90.0105 78.5657C90.0289 78.5195 90.0357 78.4714 90.0308 78.4214C89.9618 77.7346 89.8941 77.0252 89.8276 76.2932C89.8018 76.0046 89.6818 75.7616 89.7279 75.4657C89.7587 75.2648 89.7667 75.0675 89.7519 74.8738C89.7187 74.4646 89.7125 74.0542 89.7335 73.6426C89.7507 73.2894 89.7378 72.8802 89.6947 72.415C89.6405 71.845 89.6467 71.2854 89.7132 70.7362C92.1199 69.3722 94.3457 67.7902 96.3906 65.9902Z" fill="#5D376E"/>
<path d="M46.485 70.1755C46.4826 70.195 46.4832 70.2127 46.4869 70.2285C46.4955 70.2541 46.4943 70.2784 46.4832 70.3016C46.477 70.3113 46.4678 70.3156 46.4555 70.3144C46.4026 70.3095 46.3884 70.3308 46.413 70.3783C46.4524 70.4502 46.4549 70.5275 46.4204 70.6103C46.3946 70.6712 46.3939 70.7315 46.4186 70.7912L46.6716 71.4104C46.6966 71.4752 46.6973 71.5459 46.6734 71.6096C46.5718 71.8744 46.5645 72.2033 46.6734 72.4645C46.767 72.6873 46.7947 72.8999 46.7565 73.102C46.727 73.2579 46.6882 73.4138 46.6402 73.5697C46.5909 73.7329 46.5651 73.8869 46.5626 74.0319C46.5577 74.2231 46.5214 74.4094 46.4537 74.5908C46.434 74.642 46.4358 74.6925 46.4592 74.7425C46.5097 74.8496 46.5337 74.9635 46.5312 75.0841C46.5238 75.3672 46.6771 75.5517 46.6568 75.8531C46.6365 76.1582 46.7639 76.4414 46.8655 76.7318C46.8861 76.793 46.8911 76.8577 46.8802 76.92C46.8581 77.0381 46.8698 77.1459 46.9153 77.2433C46.9375 77.2896 46.9362 77.3353 46.9116 77.3803C46.8698 77.4546 46.8661 77.5271 46.9005 77.5977C42.7825 78.2821 38.6633 78.3205 34.5429 77.7128C34.4431 77.6507 34.3274 77.5916 34.1957 77.5356C34.0972 77.493 34.1015 77.4656 34.2086 77.4534C34.2628 77.4473 34.3053 77.4199 34.336 77.3712C34.351 77.3477 34.3606 77.3211 34.3641 77.2934C34.3676 77.2656 34.365 77.2373 34.3563 77.2104C34.2419 76.8487 34.3102 76.4797 34.2197 76.1089C34.1655 75.8909 34.1544 75.6315 34.1865 75.3307C34.216 75.0603 34.224 74.8021 34.2105 74.5561C34.1735 73.8912 34.1766 73.2348 34.2197 72.5869C34.2394 72.2885 34.2271 72.0072 34.1828 71.7429C34.1335 71.4384 34.1058 71.1261 34.0997 70.8058C34.0984 70.751 34.1187 70.7065 34.1606 70.6724L34.6684 70.2504C38.6005 70.9251 42.5394 70.9002 46.485 70.1755Z" fill="#513B74"/>
<path d="M89.7129 70.7363C89.6464 71.2856 89.6403 71.8452 89.6944 72.4151C89.7375 72.8803 89.7505 73.2895 89.7332 73.6427C89.7123 74.0544 89.7184 74.4648 89.7517 74.874C89.7665 75.0676 89.7585 75.2649 89.7277 75.4658C89.6815 75.7618 89.8015 76.0047 89.8274 76.2934C89.8939 77.0253 89.9616 77.7347 90.0305 78.4216C90.0355 78.4715 90.0287 78.5196 90.0102 78.5659C89.9918 78.6109 89.9967 78.6511 90.025 78.6864C90.0779 78.7498 90.0853 78.8174 90.0472 78.8892C89.9807 79.0159 89.9776 79.1754 90.0379 79.3678C88.3944 80.0803 86.866 80.635 85.4527 81.032C84.1391 81.3998 82.772 81.4497 81.3513 81.1818C81.3686 81.1611 81.3901 81.1447 81.416 81.1325C81.4603 81.1106 81.4732 81.0765 81.4548 81.0302C81.4461 81.0095 81.4289 81.0064 81.4031 81.021C81.3907 81.0271 81.384 81.0235 81.3827 81.0101C81.3729 80.7921 81.3427 80.5637 81.2923 80.3251C81.2405 80.0815 81.2184 79.8446 81.2258 79.6144C81.2393 79.1833 81.2676 78.7419 81.3107 78.29C81.3341 78.0404 81.3464 77.7871 81.3476 77.5301C81.3501 77.2707 81.3557 77.0186 81.3643 76.7738C81.3778 76.3768 81.2941 75.9585 81.1131 75.5188C81.0713 75.419 81.1008 75.3885 81.2018 75.4275C81.2387 75.4409 81.2658 75.4348 81.283 75.4092C81.3163 75.3605 81.3224 75.3093 81.3015 75.2558C81.1784 74.9416 81.1568 74.6724 81.2369 74.4483C81.8389 74.1816 82.8748 73.7968 84.3447 73.2938C85.8984 72.7616 87.6878 71.9091 89.7129 70.7363Z" fill="#364583"/>
<path d="M81.237 74.4482C81.1569 74.6723 81.1785 74.9415 81.3016 75.2557C81.3225 75.3093 81.3164 75.3604 81.2831 75.4091C81.2659 75.4347 81.2388 75.4408 81.2019 75.4274C81.1009 75.3884 81.0714 75.4189 81.1132 75.5187C81.2942 75.9584 81.3779 76.3767 81.3644 76.7737C81.3558 77.0185 81.3502 77.2706 81.3478 77.53C81.3465 77.787 81.3342 78.0403 81.3108 78.2899C81.2677 78.7418 81.2394 79.1832 81.2259 79.6144C81.2185 79.8445 81.2407 80.0814 81.2924 80.325C81.3428 80.5637 81.373 80.792 81.3828 81.01C81.3841 81.0234 81.3908 81.0271 81.4032 81.021C81.429 81.0063 81.4462 81.0094 81.4549 81.0301C81.4733 81.0764 81.4604 81.1105 81.4161 81.1324C81.3902 81.1446 81.3687 81.161 81.3515 81.1817C79.9462 80.9479 77.6896 79.7696 77.8816 78.0488C78.0755 76.3097 79.7006 75.1114 81.237 74.4482Z" fill="#155193"/>
<path d="M115.693 96.8828C115.693 96.9022 115.686 96.9208 115.672 96.9345C115.658 96.9482 115.639 96.9559 115.62 96.9559H0.766248C0.746658 96.9559 0.72787 96.9482 0.714017 96.9345C0.700165 96.9208 0.692383 96.9022 0.692383 96.8828V95.3848C0.692383 95.3655 0.700165 95.3469 0.714017 95.3332C0.72787 95.3195 0.746658 95.3118 0.766248 95.3118H115.62C115.639 95.3118 115.658 95.3195 115.672 95.3332C115.686 95.3469 115.693 95.3655 115.693 95.3848V96.8828Z" fill="#155193"/>
<path d="M97.6221 103.461C97.5685 104.331 98.3552 104.67 99.0754 104.866C100.244 105.185 101.675 105.381 102.732 106.033C104.045 106.844 104.386 108.395 103.657 109.714C102.56 111.696 99.5979 111.809 97.7735 110.909C96.711 110.386 96.093 109.399 95.9195 107.948C95.9047 107.832 95.9564 107.774 96.0746 107.774L97.081 107.778C97.1733 107.779 97.2238 107.825 97.2324 107.915C97.4374 109.893 99.5389 110.437 101.199 110.034C101.867 109.871 102.508 109.478 102.673 108.771C102.944 107.608 102.023 107.041 101.051 106.795C100.375 106.622 99.6607 106.437 98.9073 106.24C97.3728 105.839 95.973 104.809 96.3571 103.023C96.8686 100.651 99.7586 100.248 101.701 100.957C102.907 101.397 103.582 102.299 103.727 103.662C103.728 103.674 103.727 103.686 103.723 103.698C103.72 103.709 103.714 103.72 103.706 103.729C103.698 103.738 103.688 103.745 103.677 103.75C103.666 103.755 103.654 103.757 103.642 103.757L102.534 103.762C102.469 103.762 102.431 103.731 102.421 103.667C102.276 102.774 101.767 102.228 100.894 102.031C99.7291 101.768 97.7181 101.899 97.6221 103.461Z" fill="#155193"/>
<path d="M112.366 102.042C111.301 101.795 109.373 101.855 109.105 103.209C108.878 104.36 109.929 104.762 110.85 104.963C111.702 105.148 112.508 105.363 113.269 105.607C114.835 106.112 115.777 107.326 115.389 108.96C114.83 111.314 112.139 111.769 110.067 111.238C108.468 110.827 107.562 109.695 107.349 107.842C107.348 107.833 107.351 107.828 107.36 107.825C107.51 107.778 107.937 107.768 108.64 107.798C108.654 107.798 108.662 107.804 108.664 107.818C108.75 108.756 109.183 109.412 109.962 109.787C111.022 110.299 112.747 110.366 113.694 109.502C114.252 108.992 114.351 108.077 113.847 107.515C113.591 107.228 113.267 107.029 112.874 106.915C112.091 106.691 111.325 106.489 110.577 106.309C108.843 105.891 107.445 104.9 107.825 102.938C108.263 100.684 111.175 100.332 112.953 100.889C114.283 101.305 115.027 102.239 115.184 103.689C115.185 103.698 115.184 103.707 115.182 103.716C115.179 103.725 115.174 103.733 115.168 103.739C115.162 103.746 115.154 103.751 115.146 103.755C115.138 103.759 115.129 103.761 115.12 103.761H113.943C113.925 103.761 113.908 103.754 113.895 103.743C113.881 103.731 113.872 103.714 113.869 103.697C113.749 102.798 113.248 102.246 112.366 102.042Z" fill="#155193"/>
<path d="M2.44648 107.175L2.45387 111.164C2.45387 111.218 2.42678 111.245 2.37262 111.245L1.16676 111.256C1.14521 111.256 1.12455 111.247 1.10931 111.232C1.09407 111.217 1.08551 111.197 1.08551 111.175L1.07812 100.902C1.07813 100.886 1.08435 100.871 1.09543 100.86C1.10651 100.849 1.12155 100.843 1.13722 100.843C2.70932 100.831 4.21802 100.832 5.66332 100.845C7.07969 100.858 8.30031 101.417 8.72135 102.887C9.18301 104.5 8.51637 106.411 6.76945 106.844C5.43064 107.177 3.96626 107.052 2.57205 107.051C2.48834 107.049 2.44648 107.091 2.44648 107.175ZM2.46125 102.18L2.44279 105.67C2.44279 105.691 2.45135 105.711 2.46659 105.726C2.48182 105.741 2.50249 105.75 2.52404 105.75L5.65409 105.766C5.89251 105.768 6.12884 105.725 6.34958 105.641C6.57031 105.556 6.77113 105.432 6.94055 105.275C7.10998 105.118 7.24469 104.931 7.33701 104.725C7.42932 104.519 7.47742 104.298 7.47856 104.075V103.826C7.48088 103.375 7.29192 102.942 6.95324 102.621C6.61456 102.301 6.1539 102.119 5.67255 102.116L2.54251 102.1C2.53184 102.1 2.52127 102.102 2.51141 102.106C2.50156 102.11 2.4926 102.116 2.48505 102.124C2.47751 102.131 2.47152 102.14 2.46744 102.15C2.46336 102.159 2.46125 102.17 2.46125 102.18Z" fill="#155193"/>
<path d="M12.8836 108.012L11.7442 111.197C11.7393 111.211 11.7304 111.223 11.7185 111.231C11.7066 111.24 11.6924 111.245 11.6777 111.245L10.3759 111.252C10.3641 111.252 10.3524 111.25 10.3419 111.244C10.3315 111.239 10.3224 111.231 10.3157 111.222C10.309 111.212 10.3047 111.201 10.3033 111.19C10.3018 111.178 10.3033 111.166 10.3075 111.155L14.2649 100.885C14.2702 100.872 14.2796 100.86 14.2918 100.852C14.304 100.844 14.3185 100.839 14.3332 100.84L15.5834 100.841C15.5976 100.841 15.6115 100.846 15.6233 100.853C15.6352 100.861 15.6444 100.872 15.6499 100.885L19.862 111.155C19.8666 111.166 19.8684 111.178 19.8672 111.19C19.8661 111.201 19.8621 111.213 19.8555 111.222C19.8489 111.232 19.84 111.24 19.8295 111.246C19.8191 111.251 19.8074 111.254 19.7956 111.254L18.3847 111.245C18.3703 111.245 18.3562 111.24 18.3444 111.232C18.3325 111.224 18.3234 111.213 18.3182 111.199L17.0995 108.01C17.0942 107.996 17.0848 107.984 17.0726 107.976C17.0603 107.968 17.0459 107.964 17.0311 107.964H12.9519C12.937 107.964 12.9223 107.968 12.9101 107.977C12.8978 107.985 12.8886 107.998 12.8836 108.012ZM14.9057 102.275C14.5253 103.726 13.9269 105.111 13.4007 106.583C13.3968 106.594 13.3957 106.606 13.3974 106.617C13.3991 106.629 13.4036 106.64 13.4105 106.649C13.4173 106.659 13.4264 106.666 13.4369 106.672C13.4474 106.677 13.459 106.68 13.4708 106.68L16.4698 106.682C16.5387 106.682 16.5615 106.65 16.5381 106.587L14.9352 102.274C14.9343 102.271 14.9325 102.268 14.9299 102.266C14.9274 102.265 14.9243 102.264 14.921 102.264C14.9178 102.264 14.9145 102.265 14.9118 102.267C14.909 102.269 14.9069 102.272 14.9057 102.275Z" fill="#155193"/>
<path d="M28.5068 100.843L29.9601 100.834C29.9705 100.834 29.9808 100.837 29.9897 100.843C29.9986 100.848 30.0058 100.856 30.0106 100.865C30.0154 100.874 30.0175 100.885 30.0167 100.895C30.0159 100.905 30.0123 100.915 30.0062 100.924L26.0046 106.832C25.9985 106.841 25.9953 106.852 25.9953 106.863L25.9898 111.19C25.9898 111.205 25.9838 111.22 25.973 111.23C25.9623 111.241 25.9477 111.247 25.9325 111.247H24.7138C24.6986 111.247 24.684 111.241 24.6733 111.23C24.6626 111.22 24.6565 111.205 24.6565 111.19L24.6528 106.874C24.6529 106.863 24.6497 106.852 24.6436 106.842L20.773 100.929C20.7674 100.921 20.7642 100.911 20.7637 100.901C20.7633 100.89 20.7657 100.88 20.7706 100.871C20.7755 100.862 20.7828 100.855 20.7917 100.849C20.8006 100.844 20.8107 100.842 20.8211 100.842L22.3445 100.834C22.3542 100.834 22.3637 100.837 22.3721 100.842C22.3805 100.847 22.3875 100.853 22.3925 100.862L25.3619 105.586C25.3671 105.594 25.3742 105.6 25.3826 105.605C25.391 105.609 25.4004 105.611 25.41 105.611C25.4195 105.611 25.4289 105.609 25.4373 105.605C25.4457 105.6 25.4528 105.594 25.458 105.586L28.4587 100.869C28.464 100.861 28.4711 100.855 28.4795 100.85C28.4879 100.846 28.4972 100.843 28.5068 100.843Z" fill="#155193"/>
<path d="M40.1532 106.568V109.906C40.1532 109.924 40.1604 109.941 40.1732 109.954C40.186 109.966 40.2034 109.973 40.2215 109.973L46.3394 109.97C46.3484 109.97 46.3573 109.972 46.3656 109.975C46.3739 109.978 46.3814 109.983 46.3877 109.99C46.3941 109.996 46.3991 110.003 46.4025 110.012C46.406 110.02 46.4077 110.029 46.4077 110.037L46.3967 111.183C46.3967 111.201 46.3895 111.218 46.3767 111.231C46.3638 111.243 46.3465 111.25 46.3283 111.25H38.8476C38.8295 111.25 38.8121 111.243 38.7993 111.231C38.7865 111.218 38.7793 111.201 38.7793 111.183V100.905C38.7793 100.887 38.7865 100.87 38.7993 100.858C38.8121 100.845 38.8295 100.838 38.8476 100.838L46.0864 100.836C46.0956 100.836 46.1046 100.838 46.113 100.841C46.1214 100.845 46.129 100.85 46.1354 100.856C46.1418 100.863 46.1468 100.871 46.1501 100.879C46.1534 100.887 46.155 100.896 46.1548 100.905L46.1308 102.056C46.1303 102.074 46.1229 102.091 46.1101 102.103C46.0973 102.115 46.0802 102.122 46.0624 102.122L40.2271 102.117C40.2089 102.117 40.1916 102.124 40.1787 102.136C40.1659 102.149 40.1587 102.166 40.1587 102.184L40.1477 105.154C40.1477 105.172 40.1549 105.19 40.1677 105.202C40.1805 105.215 40.1979 105.222 40.216 105.222H45.7134C45.7315 105.222 45.7489 105.229 45.7617 105.242C45.7745 105.254 45.7817 105.272 45.7817 105.29L45.7651 106.435C45.7651 106.453 45.7579 106.47 45.7451 106.483C45.7323 106.495 45.7149 106.503 45.6968 106.503L40.2215 106.501C40.2034 106.501 40.186 106.508 40.1732 106.521C40.1604 106.533 40.1532 106.55 40.1532 106.568Z" fill="#155193"/>
<path d="M56.5843 100.838L57.9324 100.836C57.9428 100.836 57.9531 100.839 57.962 100.844C57.9709 100.85 57.9781 100.858 57.9829 100.867C57.9877 100.876 57.9898 100.886 57.989 100.897C57.9882 100.907 57.9846 100.917 57.9785 100.925L54.5327 105.754C54.5258 105.763 54.5221 105.775 54.5221 105.786C54.5221 105.798 54.5258 105.81 54.5327 105.819L58.2666 111.161C58.2727 111.169 58.2763 111.179 58.2771 111.19C58.2778 111.2 58.2757 111.21 58.271 111.219C58.2662 111.229 58.259 111.236 58.2501 111.242C58.2412 111.247 58.2309 111.25 58.2204 111.25L56.684 111.249C56.675 111.248 56.6661 111.246 56.6581 111.242C56.65 111.238 56.6431 111.232 56.6379 111.225L53.722 107.005C53.7168 106.997 53.7097 106.991 53.7015 106.987C53.6933 106.983 53.6842 106.981 53.6749 106.981C53.6657 106.981 53.6565 106.983 53.6483 106.987C53.6401 106.991 53.6331 106.997 53.6278 107.005L50.6437 111.223C50.6384 111.23 50.6315 111.236 50.6235 111.24C50.6155 111.244 50.6066 111.247 50.5975 111.247L49.1036 111.249C49.093 111.249 49.0825 111.246 49.0733 111.241C49.0641 111.235 49.0566 111.228 49.0516 111.218C49.0466 111.209 49.0443 111.199 49.045 111.188C49.0457 111.178 49.0494 111.168 49.0556 111.159L52.8947 105.887C52.9019 105.878 52.906 105.866 52.9063 105.854C52.9066 105.843 52.9032 105.831 52.8966 105.821L49.4988 100.929C49.4926 100.921 49.4889 100.91 49.4882 100.9C49.4875 100.889 49.4898 100.879 49.4948 100.87C49.4998 100.86 49.5073 100.853 49.5165 100.847C49.5256 100.842 49.5361 100.839 49.5468 100.84H51.037C51.0462 100.84 51.0552 100.842 51.0633 100.847C51.0713 100.851 51.0781 100.858 51.0832 100.865L53.6906 104.647C53.6957 104.654 53.7027 104.661 53.7108 104.665C53.7189 104.669 53.728 104.672 53.7372 104.672C53.7465 104.672 53.7557 104.67 53.764 104.666C53.7722 104.662 53.7794 104.656 53.7848 104.648L56.5381 100.862C56.5434 100.854 56.5503 100.848 56.5583 100.844C56.5664 100.84 56.5753 100.838 56.5843 100.838Z" fill="#155193"/>
<path d="M62.8339 107.175V111.205C62.8339 111.236 62.8179 111.252 62.7858 111.252L61.5468 111.25C61.4914 111.25 61.4637 111.223 61.4637 111.168L61.46 100.9C61.46 100.892 61.4616 100.884 61.4647 100.876C61.4679 100.869 61.4725 100.862 61.4783 100.856C61.4842 100.85 61.4911 100.846 61.4987 100.843C61.5063 100.839 61.5145 100.838 61.5227 100.838C62.968 100.835 64.4035 100.835 65.8291 100.836C66.2668 100.838 66.6878 100.9 67.1144 100.988C68.9647 101.373 69.5722 103.311 69.094 104.944C68.5861 106.678 67.07 107.045 65.4524 107.049C64.5906 107.051 63.7615 107.05 62.965 107.045C62.8776 107.045 62.8339 107.088 62.8339 107.175ZM62.8394 102.195L62.8283 105.662C62.8283 105.686 62.8378 105.709 62.8548 105.726C62.8718 105.742 62.8948 105.752 62.9188 105.752L66.0673 105.763C66.5431 105.764 66.9999 105.583 67.3375 105.259C67.6751 104.935 67.8659 104.495 67.8678 104.035V103.859C67.8687 103.631 67.8232 103.405 67.7338 103.194C67.6443 102.983 67.5128 102.791 67.3466 102.629C67.1804 102.468 66.9829 102.339 66.7653 102.251C66.5477 102.163 66.3143 102.117 66.0784 102.117L62.9299 102.106C62.9059 102.106 62.8829 102.115 62.8659 102.132C62.8489 102.149 62.8394 102.171 62.8394 102.195Z" fill="#155193"/>
<path d="M78.4526 106.627C79.0509 106.967 79.5428 107.437 79.9281 108.039C80.5744 109.047 81.2404 110.11 81.9262 111.228C81.9271 111.23 81.9276 111.231 81.9277 111.233C81.9277 111.234 81.9272 111.236 81.9263 111.238C81.9253 111.239 81.924 111.24 81.9223 111.241C81.9207 111.242 81.9188 111.243 81.9169 111.243C80.9554 111.264 80.3824 111.255 80.1977 111.216C80.1916 111.214 80.1866 111.211 80.1829 111.205C79.4307 109.931 78.6687 108.735 77.8968 107.617C77.4881 107.026 76.9495 106.719 76.281 106.696C75.6753 106.675 75.0511 106.672 74.4085 106.687C74.3457 106.688 74.3143 106.72 74.3143 106.782L74.3088 111.144C74.3088 111.172 74.2977 111.199 74.278 111.219C74.2582 111.239 74.2314 111.25 74.2035 111.25L73.0346 111.252C73.0101 111.252 72.9866 111.242 72.9693 111.225C72.952 111.207 72.9423 111.184 72.9423 111.159L72.9404 100.891C72.9404 100.879 72.9453 100.867 72.954 100.858C72.9626 100.85 72.9744 100.845 72.9866 100.845C74.8714 100.824 76.5814 100.828 78.1165 100.856C79.3169 100.88 80.3344 101.287 80.82 102.407C81.4811 103.934 80.9253 105.675 79.2596 106.245C79.0159 106.329 78.7549 106.403 78.4766 106.466C78.3301 106.499 78.3221 106.552 78.4526 106.627ZM74.3162 102.173L74.3088 105.33C74.3085 105.338 74.31 105.346 74.313 105.354C74.3161 105.362 74.3207 105.369 74.3265 105.375C74.3324 105.381 74.3394 105.386 74.3471 105.389C74.3549 105.392 74.3632 105.394 74.3716 105.394L77.7805 105.399C78.0298 105.4 78.2768 105.36 78.5073 105.282C78.7379 105.204 78.9474 105.09 79.124 104.945C79.3007 104.801 79.4409 104.63 79.5367 104.441C79.6325 104.252 79.6821 104.049 79.6825 103.845V103.68C79.6833 103.267 79.4842 102.87 79.1289 102.577C78.7736 102.284 78.2912 102.119 77.7878 102.118L74.379 102.113C74.3626 102.113 74.3469 102.119 74.3352 102.13C74.3235 102.142 74.3167 102.157 74.3162 102.173Z" fill="#155193"/>
<path d="M86.5832 105.222H92.0511C92.0726 105.222 92.0933 105.23 92.1085 105.246C92.1238 105.261 92.1323 105.281 92.1323 105.302L92.1249 106.42C92.1249 106.442 92.1164 106.462 92.1011 106.477C92.0859 106.492 92.0652 106.501 92.0437 106.501L86.5832 106.503C86.5616 106.503 86.541 106.511 86.5257 106.526C86.5105 106.541 86.5019 106.562 86.5019 106.583V109.891C86.5019 109.913 86.5105 109.933 86.5257 109.948C86.541 109.963 86.5616 109.972 86.5832 109.972H92.6642C92.6854 109.972 92.7058 109.98 92.721 109.995C92.7361 110.009 92.7449 110.029 92.7454 110.05L92.7583 111.168C92.7586 111.179 92.7567 111.19 92.7527 111.199C92.7487 111.209 92.7428 111.219 92.7352 111.226C92.7276 111.234 92.7186 111.24 92.7086 111.244C92.6986 111.248 92.6879 111.25 92.6771 111.25H85.2111C85.1896 111.25 85.1689 111.242 85.1537 111.227C85.1384 111.212 85.1299 111.191 85.1299 111.17V100.916C85.1299 100.895 85.1384 100.875 85.1537 100.859C85.1689 100.844 85.1896 100.836 85.2111 100.836L92.4204 100.838C92.442 100.838 92.4626 100.846 92.4779 100.861C92.4931 100.876 92.5017 100.897 92.5017 100.918V102.036C92.5017 102.057 92.4931 102.078 92.4779 102.093C92.4626 102.108 92.442 102.117 92.4204 102.117L86.5813 102.12C86.5707 102.12 86.5601 102.122 86.5502 102.126C86.5404 102.13 86.5314 102.136 86.5239 102.144C86.5163 102.151 86.5104 102.16 86.5063 102.17C86.5022 102.18 86.5001 102.19 86.5001 102.201L86.5019 105.142C86.5019 105.163 86.5105 105.183 86.5257 105.198C86.541 105.214 86.5616 105.222 86.5832 105.222Z" fill="#155193"/>
</svg>
