<svg width="184" height="57" viewBox="0 0 184 57" fill="none" xmlns="http://www.w3.org/2000/svg">
<path d="M11.3657 8.83055C10.1937 7.99635 8.21751 7.75931 7.27911 9.0875C6.82647 9.72807 6.97919 10.5514 7.53487 11.0943C7.91391 11.4634 8.32975 11.7608 8.78239 11.9864C9.61897 12.4038 10.4365 12.8103 11.2351 13.206C13.2131 14.1867 14.8654 15.5059 14.5655 17.9451C14.4293 19.0616 13.6584 20.1256 12.6961 20.7227C10.9039 21.8356 8.81367 21.756 6.92583 20.8114C6.11623 20.4079 5.58447 20.7571 5.17047 21.4502C5.15324 21.4795 5.12957 21.5047 5.10123 21.5238C5.07288 21.5429 5.04057 21.5555 5.00671 21.5605C4.96255 21.5678 4.92023 21.5636 4.87975 21.5479C4.851 21.5367 4.82633 21.5172 4.80895 21.492C4.79156 21.4669 4.78225 21.4372 4.78223 21.4067L4.78591 16.6079C4.78591 16.5319 4.82393 16.4842 4.89999 16.4649C4.94905 16.4529 4.99935 16.4529 5.05087 16.4649C5.12324 16.483 5.16801 16.5277 5.18519 16.5988C5.64151 18.4391 6.61303 19.9066 8.39415 20.5617C9.51839 20.9761 11.1615 20.9019 11.8883 19.8198C12.7623 18.5169 11.8037 17.2937 10.6224 16.6748C9.73183 16.2068 8.86151 15.7634 8.01143 15.3448C6.59279 14.6464 5.16863 13.595 4.85951 11.9538C4.49335 9.99407 5.71327 8.2515 7.58087 7.64169C8.74559 7.25988 10.1918 7.35759 11.3621 7.8914C11.7178 8.05426 12.0772 8.18937 12.4403 8.29674C12.9721 8.45597 13.1579 7.97283 13.2481 7.58559C13.2628 7.52648 13.2959 7.47943 13.3474 7.44445C13.4002 7.40947 13.4584 7.3968 13.5222 7.40645C13.5872 7.4161 13.6204 7.45289 13.6216 7.51683L13.7265 11.809C13.7289 11.8826 13.6952 11.9339 13.6253 11.9628C13.4413 12.0388 13.2941 11.9357 13.2554 11.7547C12.9941 10.5146 12.3643 9.53988 11.3657 8.83055Z" fill="#357743"/>
<path d="M24.8257 21.4826C22.8551 21.6816 20.6084 21.3614 19.0904 20.1653C17.1621 18.6453 16.2286 16.6488 16.2899 14.1757C16.3513 11.6858 17.4541 9.7593 19.5983 8.39612C20.4692 7.8412 21.4794 7.52453 22.6287 7.44612C25.1974 7.2706 27.4477 7.61803 29.238 9.47822C30.0881 10.3613 30.6444 11.33 30.9069 12.3843C31.9741 16.6711 29.4901 21.0085 24.8257 21.4826ZM23.4862 8.16812C19.7436 8.39793 19.8246 14.2554 20.1668 16.6837C20.4483 18.676 21.361 20.7841 23.7272 20.8004C27.8065 20.8275 27.6078 14.7077 27.2545 11.9898C26.9895 9.9505 25.8874 8.02155 23.4862 8.16812Z" fill="#357743"/>
<path d="M51.0359 20.3662C48.5574 18.6689 47.5693 15.9148 48.0459 13.0177C48.5666 9.86556 51.3524 7.54394 54.5558 7.42451C56.5485 7.35032 58.4088 7.50775 60.0464 8.74546C61.6876 9.98559 62.5978 11.6196 62.7769 13.6475C62.9444 15.5402 62.466 17.3859 61.2718 18.9059C59.9225 20.6214 58.0193 21.499 55.5623 21.5388C53.9762 21.5659 52.311 21.2402 51.0359 20.3662ZM55.8972 8.18994C51.2916 7.62355 51.4186 14.4056 51.8823 17.0729C52.2006 18.9077 53.1372 20.7788 55.3378 20.8005C59.4907 20.8439 59.2552 14.6137 58.8982 11.9664C58.6664 10.251 57.785 8.42336 55.8972 8.18994Z" fill="#357743"/>
<path d="M74.7836 20.4332C74.8121 20.4237 74.8368 20.4057 74.8543 20.3817C74.8718 20.3576 74.8812 20.3288 74.8811 20.2993C74.8971 19.2666 74.8946 18.1942 74.8738 17.0819C74.8517 15.9727 73.9703 16.0125 73.1129 15.8714C73.0958 15.8685 73.0803 15.8599 73.0689 15.847C73.0575 15.8342 73.0509 15.8178 73.0503 15.8008L73.0466 15.7248C73.0442 15.6186 73.0969 15.5655 73.2049 15.5655L79.7222 15.5619C79.7724 15.5618 79.8211 15.5793 79.8595 15.6115C79.898 15.6436 79.9236 15.6883 79.9319 15.7375L79.9411 15.7917C79.9432 15.8054 79.9425 15.8193 79.9391 15.8328C79.9357 15.8462 79.9297 15.8588 79.9213 15.8699C79.9129 15.881 79.9024 15.8903 79.8903 15.8974C79.8782 15.9045 79.8649 15.9092 79.851 15.9112C78.3771 16.0976 78.252 16.4377 78.2649 17.8256C78.2747 18.6725 78.2753 19.5073 78.2667 20.33C78.2662 20.3547 78.2584 20.3786 78.2443 20.3989C78.2303 20.4192 78.2105 20.4348 78.1876 20.444C76.2581 21.2306 74.1678 21.5937 71.9169 21.5334C70.4866 21.4948 69.206 21.1546 68.075 20.5128C65.2855 18.9276 64.0895 16.3147 64.6507 13.2548C64.9697 11.5128 65.924 10.0531 67.5138 8.87574C69.3464 7.5186 71.9279 7.13679 74.2132 7.57288C74.8327 7.69111 75.4797 7.87809 76.1544 8.13384C76.8849 8.4125 77.4958 8.40707 77.7957 7.59098C77.8202 7.52463 77.865 7.47698 77.93 7.44803C78.0171 7.40942 78.1066 7.40279 78.1986 7.42812C78.2477 7.44139 78.2722 7.47336 78.2722 7.52403L78.2704 11.9881C78.2704 12.0629 78.2361 12.1172 78.1674 12.151C78.0349 12.2173 77.9392 12.1835 77.8803 12.0496C77.229 10.5875 76.5132 9.44212 75.078 8.71469C73.1626 7.74479 70.7558 7.95831 69.455 9.77326C68.0878 11.6805 68.0731 14.9594 68.5221 17.1688C69.1918 20.4639 71.847 21.4157 74.7836 20.4332Z" fill="#357743"/>
<path d="M90.3293 14.9756C91.4615 16.5475 92.606 18.1429 93.7627 19.7618C94.1356 20.2854 94.4815 20.6268 94.8005 20.786C96.1584 21.47 97.1483 19.9989 97.6506 18.9096C99.482 14.9322 101.22 11.1413 102.865 7.5367C102.895 7.47035 102.946 7.43476 103.018 7.42993C103.055 7.42719 103.093 7.43599 103.125 7.45511C103.158 7.47423 103.183 7.50274 103.198 7.5367C104.972 11.5345 106.677 15.3273 108.313 18.915C108.694 19.751 109.165 20.8566 110.262 20.9833C110.353 20.9941 110.398 21.0442 110.396 21.1335L110.394 21.2058C110.393 21.3144 110.337 21.3687 110.227 21.3687L103.686 21.3615C103.601 21.3615 103.553 21.3198 103.54 21.2366C103.538 21.2185 103.537 21.2004 103.539 21.1823C103.547 21.0653 103.612 21.0038 103.732 20.9977C104.315 20.9742 105.557 20.9688 105.143 19.9536C104.819 19.1611 104.486 18.3896 104.142 17.6393C104.131 17.6145 104.112 17.5935 104.089 17.5787C104.066 17.564 104.039 17.5561 104.012 17.556L99.279 17.5542C99.2189 17.5542 99.1754 17.5802 99.1484 17.632C98.6908 18.5308 98.4216 19.1906 98.3406 19.6116C98.0977 20.8783 99.1539 20.8656 100.032 20.9905C100.128 21.005 100.173 21.0599 100.166 21.1552L100.16 21.2185C100.153 21.315 100.1 21.3633 100.002 21.3633L91.183 21.3651C91.1517 21.365 91.1208 21.3576 91.093 21.3434C91.0651 21.3293 91.0411 21.3088 91.0229 21.2836C89.6282 19.3161 88.1906 17.2943 86.71 15.2181C86.5223 14.9521 86.0862 15.0082 85.801 15.0209C85.7078 15.0257 85.6606 15.074 85.6593 15.1656C85.6508 16.5891 85.6514 17.9125 85.6612 19.1357C85.6649 19.5628 85.6649 20.216 85.939 20.5381C86.2886 20.9507 87.0246 20.9941 87.5435 20.9941C87.5798 20.9946 87.6144 21.0091 87.6399 21.0345C87.6654 21.0599 87.6797 21.0942 87.6797 21.1298L87.6778 21.1805C87.6766 21.2987 87.6159 21.3578 87.4957 21.3578H80.546C80.4503 21.3578 80.4031 21.3108 80.4043 21.2167V21.1172C80.4055 21.0279 80.4515 20.9845 80.5423 20.9869C81.5617 21.0068 82.3602 20.8059 82.3602 19.6098C82.3627 16.3201 82.3633 13.0413 82.3621 9.77327C82.3621 9.18698 82.3897 8.34917 81.7052 8.12841C81.3445 8.01139 80.9594 7.95711 80.5497 7.96555C80.512 7.96607 80.4757 7.95221 80.4482 7.9269C80.4208 7.90159 80.4044 7.8668 80.4025 7.82984L80.3988 7.75565C80.3939 7.65673 80.4411 7.60727 80.5405 7.60727C83.1005 7.5952 85.6311 7.59762 88.1323 7.61451C88.5334 7.61692 89.1155 7.66939 89.8785 7.77193C91.8031 8.0307 93.2917 9.34803 93.3285 11.3059C93.3469 12.3193 92.996 13.1631 92.276 13.8375C91.7461 14.3315 91.0818 14.5884 90.3955 14.7875C90.2839 14.82 90.2618 14.8828 90.3293 14.9756ZM85.6446 8.46679V14.1632C85.6446 14.1805 85.6481 14.1977 85.6548 14.2137C85.6616 14.2298 85.6715 14.2443 85.684 14.2566C85.6964 14.2688 85.7112 14.2786 85.7275 14.2852C85.7438 14.2919 85.7613 14.2953 85.7789 14.2953H87.2325C87.9416 14.2953 88.6216 14.0234 89.123 13.5395C89.6244 13.0556 89.9061 12.3992 89.9061 11.7149V10.9151C89.9061 10.2307 89.6244 9.57439 89.123 9.09047C88.6216 8.60656 87.9416 8.3347 87.2325 8.3347H85.7789C85.7613 8.3347 85.7438 8.33811 85.7275 8.34475C85.7112 8.35139 85.6964 8.36112 85.684 8.37339C85.6715 8.38565 85.6616 8.40021 85.6548 8.41624C85.6481 8.43227 85.6446 8.44944 85.6446 8.46679ZM99.6341 16.5626C99.6301 16.5715 99.6284 16.5813 99.6293 16.591C99.6301 16.6008 99.6334 16.6101 99.6389 16.6183C99.6445 16.6264 99.652 16.633 99.6608 16.6375C99.6696 16.642 99.6794 16.6443 99.6893 16.644L103.621 16.6513C103.631 16.6515 103.641 16.6493 103.65 16.6448C103.659 16.6402 103.666 16.6336 103.672 16.6255C103.677 16.6174 103.681 16.608 103.681 16.5983C103.682 16.5885 103.681 16.5788 103.677 16.5698L101.717 12.1962C101.712 12.1861 101.705 12.1776 101.696 12.1715C101.686 12.1654 101.675 12.1621 101.664 12.1619C101.653 12.1617 101.642 12.1646 101.632 12.1704C101.623 12.1762 101.615 12.1845 101.61 12.1944L99.6341 16.5626Z" fill="#357743"/>
<path d="M177.965 8.22961C178.589 8.52095 178.938 8.12466 179.052 7.56552C179.062 7.52228 179.087 7.48331 179.122 7.45514C179.178 7.41171 179.241 7.40025 179.312 7.42076C179.378 7.43885 179.412 7.48228 179.413 7.55104L179.516 11.8089C179.517 11.8776 179.485 11.9247 179.419 11.95C179.305 11.9946 179.204 11.9808 179.117 11.9084C179.081 11.8794 179.059 11.8426 179.051 11.798C178.784 10.5205 178.145 9.52945 177.133 8.82495C176.011 8.04323 174.222 7.76818 173.222 8.8919C172.664 9.51799 172.666 10.3974 173.238 11.009C173.669 11.4669 174.208 11.8197 174.767 12.0857C175.768 12.5658 176.714 13.0454 177.604 13.5243C178.979 14.2644 180.156 15.303 180.35 16.8502C180.804 20.5109 176.741 22.2914 173.705 21.2111C172.784 20.8836 171.663 20.053 171.012 21.3939C170.975 21.4699 170.916 21.5224 170.835 21.5513C170.742 21.5851 170.664 21.561 170.601 21.4789C170.579 21.4484 170.566 21.4116 170.566 21.374L170.568 16.6041C170.568 16.5693 170.58 16.5355 170.602 16.5077C170.623 16.4799 170.653 16.4598 170.688 16.4503C170.772 16.4262 170.845 16.4455 170.905 16.5082C170.959 16.5637 170.995 16.6294 171.012 16.7054C171.51 18.913 173.131 20.7407 175.487 20.7931C176.408 20.8149 177.127 20.5 177.645 19.8486C178.578 18.6706 177.65 17.4003 176.581 16.7887C175.848 16.3689 175.018 15.9388 174.092 15.4985C172.152 14.5756 170.382 13.2185 170.601 10.8769C170.861 8.08847 173.948 6.92133 176.355 7.61618C176.876 7.76698 177.413 7.97145 177.965 8.22961Z" fill="#357743"/>
<path d="M43.8475 15.8224C43.9481 15.9443 43.999 15.9268 44.0002 15.77C44.0075 13.7421 43.9996 11.7576 43.9763 9.81662C43.9597 8.52462 43.3451 8.02519 42.059 7.94919C41.9829 7.94557 41.9455 7.90576 41.9467 7.82976L41.9486 7.73748C41.9498 7.647 41.9964 7.60176 42.0884 7.60176H46.4566C46.5029 7.60183 46.548 7.61599 46.5856 7.64226C46.6232 7.66853 46.6514 7.70561 46.6663 7.74833C46.7081 7.87259 46.6608 7.94618 46.5247 7.9691C45.8255 8.08491 45.1023 8.217 44.922 9.02043C44.8263 9.44506 44.7785 9.90529 44.7785 10.4011C44.7773 14.1227 44.781 17.793 44.7895 21.412C44.7895 21.4748 44.7589 21.5134 44.6975 21.5279C44.5356 21.5677 44.4013 21.5236 44.2946 21.3958C41.2193 17.7128 38.1576 14.0461 35.1093 10.3957C35.0087 10.2762 34.959 10.2937 34.9603 10.4481C34.9689 13.341 34.9781 16.2609 34.9879 19.208C34.9934 20.6394 35.8987 20.9253 37.0983 21.0447C37.1168 21.0464 37.1342 21.0546 37.1473 21.0678C37.1604 21.081 37.1685 21.0985 37.1701 21.1171L37.1756 21.1895C37.1774 21.2114 37.1745 21.2335 37.1671 21.2543C37.1596 21.2751 37.1479 21.2942 37.1325 21.3103C37.1171 21.3265 37.0984 21.3393 37.0777 21.3481C37.0569 21.3569 37.0345 21.3614 37.0119 21.3614L32.2647 21.3632C32.1579 21.3632 32.0978 21.3119 32.0843 21.2094L32.0733 21.1316C32.0715 21.1199 32.0721 21.108 32.075 21.0966C32.0779 21.0851 32.0831 21.0744 32.0903 21.0649C32.0975 21.0555 32.1065 21.0476 32.1169 21.0416C32.1272 21.0357 32.1387 21.0318 32.1506 21.0302C33.2877 20.8475 34.1727 20.7027 34.1764 19.2913C34.1838 16.127 34.1893 12.9248 34.193 9.68453C34.193 9.4324 34.1353 9.22189 34.02 9.053C33.5343 8.34849 32.9252 7.97754 32.1929 7.94014C32.1771 7.93946 32.1616 7.93566 32.1473 7.92896C32.1331 7.92226 32.1203 7.9128 32.1098 7.90115C32.0994 7.8895 32.0914 7.87589 32.0864 7.86114C32.0814 7.84639 32.0794 7.83079 32.0807 7.81529L32.088 7.75014C32.0966 7.65243 32.15 7.60357 32.2481 7.60357L36.9714 7.59814C37.0167 7.59815 37.0616 7.60822 37.1027 7.62764C37.1437 7.64705 37.18 7.67531 37.2087 7.71033L43.8475 15.8224Z" fill="#357743"/>
<path d="M116.378 15.0155C116.369 15.015 116.36 15.0164 116.352 15.0194C116.343 15.0225 116.335 15.0272 116.329 15.0333C116.322 15.0394 116.317 15.0467 116.314 15.0549C116.31 15.063 116.308 15.0718 116.308 15.0807C116.309 16.6501 116.316 18.2027 116.328 19.7384C116.338 20.949 117.258 20.9128 118.209 21.0159C118.235 21.0185 118.258 21.0301 118.276 21.0486C118.294 21.0672 118.305 21.0915 118.306 21.1172L118.312 21.1932C118.313 21.2147 118.31 21.2361 118.303 21.2563C118.295 21.2764 118.283 21.2949 118.268 21.3105C118.253 21.3261 118.235 21.3385 118.215 21.3469C118.195 21.3554 118.174 21.3598 118.152 21.3597L111.234 21.3633C111.137 21.3633 111.089 21.3163 111.092 21.2222L111.094 21.1154C111.094 21.0955 111.098 21.0757 111.107 21.0575C111.115 21.0393 111.127 21.0229 111.142 21.0095C111.157 20.9961 111.175 20.9859 111.194 20.9795C111.213 20.9731 111.234 20.9707 111.254 20.9725C111.82 21.0268 112.851 20.8784 112.97 20.1799C113.027 19.8494 113.056 19.5333 113.057 19.2317C113.075 15.7562 113.075 12.4659 113.055 9.36077C113.048 8.14115 112.295 7.94573 111.241 7.95658C111.204 7.95691 111.169 7.94404 111.141 7.92038C111.113 7.89673 111.095 7.86392 111.09 7.82811L111.083 7.7702C111.069 7.68093 111.109 7.63268 111.202 7.62544C111.333 7.61579 111.464 7.61036 111.592 7.60915C113.815 7.59226 115.88 7.59287 117.786 7.61096C119.158 7.62363 120.768 7.92763 121.756 8.80706C122.873 9.80049 123.17 11.382 122.538 12.7174C121.473 14.9667 118.514 15.0843 116.378 15.0155ZM116.306 8.47411V14.1488C116.306 14.1886 116.322 14.2268 116.351 14.255C116.38 14.2831 116.419 14.299 116.459 14.299H116.958C117.61 14.299 118.235 14.0414 118.696 13.5829C119.157 13.1245 119.416 12.5027 119.416 11.8543V10.7686C119.416 10.1202 119.157 9.49841 118.696 9.03994C118.235 8.58148 117.61 8.32392 116.958 8.32392H116.459C116.419 8.32392 116.38 8.33974 116.351 8.36791C116.322 8.39607 116.306 8.43427 116.306 8.47411Z" fill="#357743"/>
<path d="M129.444 14.7821C129.441 16.255 129.443 17.8975 129.449 19.7094C129.455 20.8621 130.386 21.0014 131.313 21.0032C131.346 21.0032 131.378 21.0159 131.402 21.0385C131.426 21.0612 131.439 21.092 131.44 21.1245L131.444 21.2294C131.446 21.3151 131.404 21.3579 131.317 21.3579L124.22 21.3597C124.105 21.3597 124.048 21.3036 124.051 21.1914L124.053 21.1172C124.053 21.094 124.062 21.0718 124.079 21.055C124.095 21.0382 124.117 21.0281 124.141 21.0268C125.536 20.9453 126.062 20.806 126.062 19.2932C126.064 15.9106 126.06 12.5497 126.049 9.21057C126.045 8.0561 125.068 7.94391 124.161 7.94753C124.134 7.94753 124.108 7.93666 124.088 7.91732C124.069 7.89797 124.058 7.87174 124.058 7.84438L124.06 7.77743C124.061 7.66042 124.121 7.60191 124.24 7.60191H131.273C131.359 7.60191 131.41 7.64292 131.427 7.72495L131.44 7.78105C131.445 7.80227 131.444 7.82416 131.439 7.84517C131.434 7.86618 131.424 7.88578 131.41 7.90256C131.396 7.91934 131.378 7.93289 131.359 7.94223C131.339 7.95157 131.317 7.95647 131.295 7.95657C130.115 7.95115 129.435 8.16105 129.44 9.48381C129.446 10.7541 129.447 12.1607 129.442 13.7036C129.442 13.7398 129.46 13.7579 129.497 13.7579L134.314 13.7525C134.351 13.7525 134.37 13.735 134.37 13.7C134.386 12.1474 134.382 10.6413 134.359 9.18162C134.34 8.09772 133.431 7.91495 132.519 7.96381C132.441 7.96864 132.398 7.93305 132.39 7.85705L132.379 7.772C132.366 7.6574 132.419 7.6001 132.535 7.6001L139.663 7.60553C139.755 7.60553 139.796 7.65137 139.787 7.74305L139.779 7.81C139.768 7.91978 139.706 7.97165 139.593 7.96562C138.585 7.91134 137.775 8.15019 137.772 9.31734C137.758 12.8917 137.759 16.3721 137.774 19.7583C137.779 20.7734 138.681 21.063 139.544 20.9906C139.675 20.9785 139.757 21.0352 139.79 21.1607C139.802 21.2077 139.79 21.2566 139.753 21.3072C139.742 21.324 139.727 21.3377 139.709 21.3472C139.691 21.3566 139.671 21.3616 139.65 21.3615L132.53 21.3597C132.441 21.3597 132.393 21.3163 132.384 21.2294L132.379 21.1534C132.377 21.1359 132.379 21.1182 132.384 21.1014C132.39 21.0846 132.399 21.069 132.411 21.0557C132.423 21.0423 132.437 21.0314 132.453 21.0236C132.47 21.0159 132.488 21.0114 132.506 21.0105C133.834 20.9399 134.382 20.7752 134.379 19.3421C134.373 17.6496 134.371 16.1242 134.375 14.7658C134.375 14.6946 134.339 14.659 134.267 14.659L129.571 14.6572C129.486 14.6572 129.444 14.6989 129.444 14.7821Z" fill="#357743"/>
<path d="M145.916 14.1126C147.96 14.1795 148.582 12.6758 148.716 11.0129C148.724 10.926 148.771 10.8759 148.858 10.8627L149.026 10.8355C149.044 10.8326 149.062 10.8336 149.08 10.8384C149.098 10.8431 149.114 10.8516 149.128 10.8631C149.142 10.8746 149.153 10.889 149.161 10.9052C149.169 10.9213 149.173 10.9389 149.173 10.9568V18.0139C149.173 18.1068 149.126 18.1478 149.031 18.137L148.86 18.1152C148.829 18.1117 148.801 18.0979 148.779 18.0762C148.757 18.0545 148.743 18.0261 148.74 17.9958C148.553 16.3256 147.907 14.7278 145.898 14.8653C145.826 14.8702 145.791 14.9076 145.791 14.9775C145.788 16.4818 145.799 18.0579 145.824 19.7058C145.835 20.417 146.415 20.6033 147.057 20.6232C147.831 20.645 148.641 20.6359 149.399 20.4694C151.056 20.1039 152.166 18.9941 152.729 17.1399C152.765 17.0229 152.845 16.9626 152.969 16.959C152.99 16.9577 153.01 16.9577 153.031 16.959C153.05 16.9605 153.068 16.9658 153.085 16.9744C153.101 16.9831 153.116 16.995 153.127 17.0094C153.139 17.0238 153.148 17.0404 153.153 17.0582C153.158 17.0759 153.159 17.0945 153.156 17.1128L152.571 21.2584C152.56 21.3284 152.518 21.3633 152.446 21.3633L140.582 21.3597C140.466 21.3597 140.408 21.303 140.407 21.1896L140.405 21.1335C140.405 21.0996 140.418 21.0668 140.441 21.0421C140.465 21.0174 140.498 21.0028 140.532 21.0014C141.526 20.9707 142.387 20.9164 142.394 19.6787C142.415 16.4215 142.426 13.1644 142.427 9.90724C142.427 9.57188 142.404 9.22988 142.357 8.88124C142.245 8.02353 141.233 7.93848 140.497 7.94753C140.483 7.94784 140.469 7.94524 140.456 7.93988C140.443 7.93453 140.432 7.92655 140.422 7.91647C140.413 7.90638 140.405 7.89443 140.401 7.88138C140.396 7.86833 140.395 7.85449 140.396 7.84076L140.403 7.76657C140.412 7.6568 140.472 7.60191 140.584 7.60191L152.115 7.6001C152.128 7.6001 152.141 7.60525 152.15 7.61441C152.159 7.62357 152.165 7.636 152.165 7.64895C152.171 8.9687 152.172 10.286 152.168 11.601C152.168 11.6806 152.133 11.7379 152.062 11.7729C152.035 11.7862 152.005 11.7936 151.975 11.7942C151.945 11.7949 151.915 11.789 151.887 11.7769C151.86 11.7647 151.835 11.7467 151.816 11.7241C151.796 11.7015 151.782 11.6749 151.774 11.6462C151.69 11.3241 151.598 11.0062 151.498 10.6926C151.096 9.43073 150.163 8.72683 148.7 8.58086C147.867 8.49762 146.927 8.48013 145.879 8.52838C145.857 8.52932 145.837 8.5385 145.822 8.55401C145.807 8.56952 145.798 8.59016 145.798 8.61162L145.796 13.9913C145.796 14.0697 145.836 14.1102 145.916 14.1126Z" fill="#357743"/>
<path d="M159.874 15.0298C159.86 15.0311 159.847 15.0376 159.837 15.048C159.828 15.0584 159.822 15.0719 159.822 15.0859C159.788 16.6819 159.795 18.2538 159.843 19.8015C159.874 20.8565 160.812 21.0012 161.675 20.994C161.77 20.994 161.821 21.0398 161.828 21.1315L161.833 21.2129C161.835 21.2324 161.832 21.2519 161.826 21.2703C161.82 21.2887 161.809 21.3056 161.796 21.3199C161.783 21.3342 161.767 21.3455 161.749 21.3533C161.731 21.361 161.711 21.365 161.692 21.3649L154.696 21.3595C154.598 21.3595 154.55 21.3112 154.553 21.2147L154.556 21.1225C154.559 21.0368 154.603 20.9934 154.691 20.9922C156.207 20.9813 156.514 20.5651 156.518 19.1374C156.528 15.3169 156.523 12.038 156.505 9.30084C156.496 8.01607 155.588 7.99436 154.626 7.93283C154.561 7.92922 154.533 7.89604 154.542 7.83331L154.549 7.76817C154.562 7.66201 154.623 7.60893 154.731 7.60893C157.09 7.59687 159.46 7.59566 161.841 7.60531C163.311 7.61074 165.096 7.71931 166.251 8.70731C168.005 10.2092 167.904 13.0429 165.87 14.2499C165.458 14.4948 165.014 14.6739 164.536 14.7873C164.433 14.8114 164.412 14.8663 164.472 14.952C165.792 16.8134 167.05 18.559 168.248 20.1887C168.578 20.6363 169.011 20.9011 169.549 20.9831C169.634 20.9964 169.681 21.0452 169.688 21.1297L169.696 21.2184C169.703 21.3185 169.656 21.3685 169.554 21.3685L165.324 21.3559C165.26 21.3559 165.21 21.3299 165.173 21.2781L160.833 15.1709C160.797 15.1208 160.744 15.0854 160.683 15.0714C160.441 15.0171 160.171 15.0032 159.874 15.0298ZM159.811 8.39969L159.8 14.2155C159.8 14.2323 159.807 14.2484 159.819 14.2603C159.831 14.2722 159.848 14.2788 159.865 14.2788L161.368 14.2806C161.72 14.2814 162.068 14.2164 162.394 14.0894C162.719 13.9624 163.015 13.7758 163.264 13.5404C163.513 13.305 163.711 13.0253 163.846 12.7174C163.982 12.4094 164.052 12.0791 164.053 11.7455V10.8842C164.054 10.2104 163.773 9.56363 163.272 9.08617C162.77 8.6087 162.089 8.33964 161.379 8.33817L159.876 8.33636C159.859 8.33636 159.842 8.34303 159.83 8.35491C159.818 8.36679 159.811 8.38289 159.811 8.39969Z" fill="#357743"/>
<path d="M98.1399 28.4671C98.144 28.6222 98.115 28.7766 98.0545 28.9216C97.994 29.0666 97.9031 29.1992 97.7872 29.312C97.6712 29.4247 97.5324 29.5154 97.3787 29.5787C97.2249 29.6421 97.0592 29.6769 96.8911 29.6813C96.5516 29.69 96.2227 29.5739 95.9767 29.3586C95.7307 29.1433 95.5878 28.8463 95.5795 28.533C95.5754 28.3779 95.6044 28.2234 95.6649 28.0785C95.7254 27.9335 95.8163 27.8009 95.9322 27.6881C96.0482 27.5754 96.187 27.4847 96.3407 27.4214C96.4945 27.358 96.6601 27.3231 96.8282 27.3188C97.1678 27.3101 97.4967 27.4261 97.7427 27.6415C97.9887 27.8568 98.1315 28.1538 98.1399 28.4671Z" fill="black"/>
<path d="M90.8301 31.8767C90.8191 30.8477 90.8148 29.7825 90.8173 28.6811C90.8191 27.9573 90.3407 27.8451 89.7519 27.8415C89.7276 27.8414 89.704 27.8329 89.6852 27.8174C89.6664 27.8019 89.6536 27.7803 89.6489 27.7564L89.6378 27.7021C89.6332 27.6781 89.6341 27.6535 89.6403 27.6298C89.6465 27.6062 89.6579 27.5842 89.6737 27.5654C89.6895 27.5465 89.7093 27.5314 89.7317 27.5209C89.7541 27.5105 89.7786 27.505 89.8034 27.5049H93.0933C93.1571 27.5049 93.189 27.5362 93.189 27.599C93.1952 30.6703 93.1958 33.866 93.1909 37.1858C93.1909 37.7142 93.4656 37.9881 94.0152 38.0074C94.0692 38.0086 94.1182 38.0267 94.1624 38.0616C94.2544 38.1316 94.2299 38.2257 94.0888 38.3439C94.0551 38.3724 94.0137 38.3911 93.9692 38.3982L90.9203 38.8814C90.8516 38.8922 90.8179 38.8639 90.8191 38.7963L90.8265 37.9151C90.8277 37.7486 90.7756 37.7305 90.6701 37.8608C89.8838 38.8271 88.9441 39.1305 87.8512 38.771C84.7986 37.7649 85.0286 32.1101 87.98 31.0986C89.0748 30.724 90.0555 31.0262 90.7326 31.9093C90.7989 31.9949 90.8314 31.9841 90.8301 31.8767ZM90.8154 33.2465C90.8117 32.5987 90.0003 31.4478 89.2937 31.4714C87.9689 31.5166 88.1069 34.6398 88.1529 35.5337C88.1824 36.0814 88.275 36.5881 88.4308 37.0537C88.8687 38.3656 89.9193 38.21 90.6369 37.2347C90.7657 37.0598 90.8295 36.8511 90.8283 36.6086C90.8246 35.4481 90.8203 34.3274 90.8154 33.2465Z" fill="black"/>
<path d="M116.477 28.1237C116.317 27.9705 116.107 27.8813 115.85 27.8559C115.822 27.8526 115.797 27.8413 115.776 27.8235C115.756 27.8057 115.742 27.7822 115.736 27.7564L115.717 27.6786C115.69 27.5628 115.737 27.5049 115.857 27.5049H118.917C118.94 27.5049 118.961 27.5137 118.977 27.5293C118.993 27.5449 119.002 27.566 119.002 27.5881C118.999 30.75 118.999 33.9993 119 37.336C119.001 37.6424 119.072 37.9048 119.212 38.1232C119.25 38.1823 119.302 38.2227 119.368 38.2444L119.902 38.4181C119.918 38.4233 119.934 38.432 119.946 38.4436C119.959 38.4552 119.97 38.4695 119.977 38.4854C119.984 38.5013 119.987 38.5185 119.987 38.5359C119.987 38.5534 119.983 38.5706 119.975 38.5864C119.932 38.6793 119.86 38.7257 119.758 38.7257C118.506 38.7245 117.208 38.7233 115.866 38.7221C115.778 38.7221 115.733 38.6787 115.732 38.5918V38.5303C115.731 38.4193 115.787 38.3602 115.9 38.353C116.391 38.3168 116.639 38.0182 116.641 37.4573C116.653 34.4655 116.657 31.6155 116.652 28.9073C116.652 28.7287 116.624 28.52 116.567 28.2812C116.553 28.2196 116.523 28.1672 116.477 28.1237Z" fill="black"/>
<path d="M61.458 33.3442C61.458 33.3615 61.4545 33.3787 61.4478 33.3947C61.441 33.4107 61.4311 33.4253 61.4186 33.4376C61.4062 33.4498 61.3914 33.4596 61.3751 33.4662C61.3588 33.4728 61.3413 33.4762 61.3237 33.4762H3.99662C3.961 33.4762 3.92684 33.4623 3.90165 33.4376C3.87646 33.4128 3.8623 33.3792 3.8623 33.3442V28.9036C3.8623 28.8685 3.87646 28.8349 3.90165 28.8102C3.92684 28.7854 3.961 28.7715 3.99662 28.7715H61.3237C61.3413 28.7715 61.3588 28.7749 61.3751 28.7815C61.3914 28.7882 61.4062 28.7979 61.4186 28.8102C61.4311 28.8224 61.441 28.837 61.4478 28.853C61.4545 28.8691 61.458 28.8862 61.458 28.9036V33.3442Z" fill="black"/>
<path d="M180.5 33.3532C180.5 33.3858 180.487 33.4171 180.464 33.4402C180.44 33.4633 180.408 33.4762 180.375 33.4762H123.037C123.004 33.4762 122.972 33.4633 122.949 33.4402C122.925 33.4171 122.912 33.3858 122.912 33.3532V28.8945C122.912 28.8619 122.925 28.8306 122.949 28.8075C122.972 28.7844 123.004 28.7715 123.037 28.7715H180.375C180.408 28.7715 180.44 28.7844 180.464 28.8075C180.487 28.8306 180.5 28.8619 180.5 28.8945V33.3532Z" fill="black"/>
<path d="M67.057 32.0738C67.6918 31.3464 68.5254 30.8885 69.4711 30.9428C70.3494 30.9935 70.9652 31.4169 71.3185 32.2131C71.359 32.3048 71.4123 32.3126 71.4786 32.2366C72.244 31.3626 73.2597 30.7691 74.4262 30.9826C75.6719 31.2088 76.062 32.2584 76.0712 33.3694C76.0822 34.6976 76.0865 36.065 76.0841 37.4716C76.0841 37.708 76.1411 37.9276 76.2552 38.1303C76.2709 38.1584 76.2922 38.1831 76.3178 38.203C76.3434 38.2229 76.3728 38.2375 76.4042 38.2461L76.7833 38.3474C76.8581 38.3667 76.9059 38.4131 76.9268 38.4867C76.9501 38.5676 76.9323 38.6333 76.8734 38.684C76.8415 38.7117 76.8047 38.7256 76.763 38.7256L72.9616 38.722C72.9357 38.722 72.9109 38.7119 72.8926 38.6939C72.8744 38.6759 72.8641 38.6515 72.8641 38.6261V38.5537C72.8628 38.4331 72.9223 38.3619 73.0426 38.3402C73.4694 38.2618 73.6902 38.0392 73.705 37.6724C73.7565 36.2827 73.7614 34.7808 73.7197 33.1667C73.6755 31.4748 72.4188 31.9381 71.6938 32.7885C71.5614 32.943 71.4951 33.1185 71.4951 33.3151C71.4939 34.6674 71.4976 36.068 71.5062 37.5168C71.5098 38.038 71.7478 38.3166 72.2201 38.3528C72.3329 38.3613 72.3906 38.421 72.393 38.532L72.3949 38.5899C72.3954 38.6073 72.3924 38.6246 72.386 38.6409C72.3797 38.6571 72.3701 38.6719 72.3579 38.6844C72.3458 38.6969 72.3312 38.7068 72.3151 38.7135C72.299 38.7203 72.2817 38.7238 72.2642 38.7238C71.0621 38.7238 69.8078 38.7244 68.5014 38.7256C68.4426 38.7256 68.3935 38.7039 68.3542 38.6604C68.3113 38.6134 68.2966 38.5591 68.3101 38.4976C68.3159 38.4688 68.3306 38.4425 68.3523 38.4218C68.3739 38.4012 68.4015 38.3872 68.4315 38.3818C69.2393 38.237 69.1399 37.6507 69.1491 36.898C69.1626 35.647 69.1577 34.3858 69.1344 33.1143C69.1289 32.7867 69.0663 32.347 68.7646 32.1516C68.0985 31.7209 67.3735 32.4502 66.989 32.9568C66.9509 33.0075 66.9319 33.0648 66.9319 33.1287C66.927 34.5028 66.9264 35.8822 66.9301 37.2671C66.9301 37.5591 66.9841 37.8389 67.092 38.1067C67.1153 38.1671 67.1576 38.2069 67.219 38.2262L67.69 38.3818C67.7477 38.4011 67.7857 38.4385 67.8041 38.494C67.8262 38.5567 67.8145 38.614 67.7691 38.6659C67.7372 38.7033 67.6967 38.722 67.6477 38.722L63.8922 38.7238C63.8642 38.7238 63.8367 38.7166 63.8124 38.7029C63.7882 38.6893 63.7681 38.6696 63.7542 38.646C63.7236 38.5893 63.723 38.532 63.7524 38.4741C63.7769 38.427 63.8137 38.3938 63.8628 38.3745C64.0063 38.3166 64.1511 38.2636 64.297 38.2153C64.3608 38.1936 64.4093 38.1538 64.4424 38.0959C64.5234 37.9547 64.5651 37.7991 64.5675 37.629C64.5982 35.7278 64.5927 33.9062 64.551 32.1643C64.5436 31.8802 64.4387 31.6467 64.1425 31.5744C64.0137 31.5442 63.9297 31.514 63.8904 31.4839C63.6021 31.2583 63.6432 31.1425 64.0137 31.1364C64.8907 31.1196 65.8291 31.1153 66.8289 31.1238C66.8927 31.125 66.9246 31.157 66.9246 31.2197L66.9264 32.0267C66.9264 32.157 66.9699 32.1727 67.057 32.0738Z" fill="black"/>
<path d="M80.1887 34.6597C80.2733 35.778 80.7756 37.0863 81.9404 37.4011C82.9395 37.6707 83.6571 37.0374 84.1465 36.2521C84.1527 36.2422 84.161 36.2337 84.1708 36.2271C84.1805 36.2206 84.1916 36.216 84.2034 36.2138C84.2151 36.2116 84.2272 36.2118 84.2389 36.2143C84.2507 36.2169 84.2618 36.2217 84.2716 36.2285L84.3434 36.281C84.4244 36.3377 84.4446 36.4107 84.4041 36.5C83.5816 38.3511 82.082 39.4459 79.9752 38.6678C79.1902 38.3783 78.6253 37.7926 78.2806 36.9107C77.5869 35.1374 77.8574 32.7959 79.5373 31.5871C80.9376 30.581 82.7518 30.7421 83.7712 32.1463C84.2042 32.7434 84.4323 33.5161 84.4556 34.4643C84.4581 34.5294 84.4262 34.562 84.36 34.562H80.2807C80.2132 34.562 80.1826 34.5945 80.1887 34.6597ZM80.1887 33.992L82.358 34.0481C82.3638 34.0483 82.3696 34.0474 82.3751 34.0455C82.3805 34.0435 82.3856 34.0405 82.3898 34.0366C82.3941 34.0328 82.3976 34.0281 82.4 34.0229C82.4024 34.0178 82.4038 34.0122 82.404 34.0065L82.4169 33.5269C82.424 33.2615 82.4027 32.9979 82.3544 32.7513C82.306 32.5047 82.2315 32.2798 82.1352 32.0896C82.0388 31.8994 81.9224 31.7475 81.7927 31.6427C81.663 31.5378 81.5225 31.482 81.3792 31.4785L81.3019 31.4767C81.0126 31.4693 80.7296 31.675 80.5149 32.0487C80.3003 32.4223 80.1717 32.9332 80.1574 33.469L80.1445 33.9485C80.1445 33.9543 80.1457 33.9599 80.1479 33.9652C80.1501 33.9704 80.1534 33.9752 80.1575 33.9793C80.1616 33.9833 80.1664 33.9865 80.1718 33.9887C80.1771 33.9909 80.1829 33.992 80.1887 33.992Z" fill="black"/>
<path d="M103.193 31.4839C102.604 31.5039 102.253 32.2675 102.175 32.7542C101.933 34.2561 102.166 35.5765 102.875 36.7153C103.651 37.9602 105.05 37.8951 105.993 36.86C106.035 36.8142 106.087 36.7913 106.148 36.7913C106.201 36.7913 106.246 36.8124 106.282 36.8546C106.34 36.921 106.346 36.9927 106.301 37.0699C105.8 37.9084 105.173 38.4476 104.418 38.6877C102.726 39.2281 101.406 38.7806 100.461 37.345C99.5111 35.9046 99.6381 33.7911 100.685 32.3344C101.496 31.2071 102.875 30.7583 104.225 31.0044C105.074 31.1576 105.67 31.5593 106.012 32.2096C106.418 32.984 106.019 33.8852 105.05 33.8399C103.384 33.7621 104.372 31.4441 103.193 31.4839Z" fill="black"/>
<path d="M111.709 37.7303C110.89 38.3528 109.637 39.2937 108.562 38.7671C107.862 38.4245 107.574 37.8726 107.699 37.1114C107.843 36.2374 108.524 35.6638 109.278 35.2277C110.039 34.7874 110.845 34.3821 111.696 34.0117C111.752 33.9864 111.781 33.9435 111.782 33.8832C111.79 33.4345 111.787 32.9694 111.773 32.4881C111.746 31.4313 110.623 31.2703 109.86 31.7209C109.488 31.9398 109.659 32.3089 109.88 32.546C110.178 32.8645 110.274 33.2626 110.055 33.6643C109.466 34.7518 107.471 34.0986 107.889 32.783C108.085 32.1666 108.519 31.7118 109.19 31.4187C111.065 30.6026 114.138 30.6261 114.126 33.3295C114.122 34.6481 114.123 35.9346 114.132 37.1892C114.133 37.3195 114.144 37.4474 114.165 37.5729C114.173 37.6199 114.191 37.6646 114.22 37.7033C114.248 37.742 114.285 37.7737 114.328 37.7959C114.371 37.818 114.418 37.83 114.467 37.8309C114.515 37.8317 114.563 37.8215 114.607 37.8008C114.715 37.749 114.827 37.7086 114.943 37.6796C115.142 37.6277 115.186 37.6869 115.074 37.8569C114.506 38.7135 113.757 39.0464 112.827 38.8558C112.314 38.749 111.845 38.3238 111.83 37.7882C111.828 37.6893 111.787 37.67 111.709 37.7303ZM111.657 34.6161C110.822 35.1137 109.503 36.2302 110.112 37.2453C110.515 37.9167 111.339 37.6289 111.718 37.1313C111.762 37.0734 111.784 37.0071 111.784 36.9323L111.78 34.683C111.78 34.5889 111.739 34.5666 111.657 34.6161Z" fill="black"/>
<path d="M98.32 38.2154L98.8793 38.4054C98.9035 38.4138 98.9251 38.4281 98.9422 38.4471C98.9593 38.4661 98.9712 38.4891 98.9768 38.514C98.9928 38.5779 98.9725 38.6334 98.9161 38.6804C98.8793 38.7094 98.8376 38.7239 98.791 38.7239C97.4846 38.7239 96.1745 38.7239 94.8608 38.7239C94.8427 38.7239 94.8249 38.7203 94.8083 38.7132C94.7917 38.7061 94.7768 38.6957 94.7644 38.6827C94.752 38.6697 94.7424 38.6542 94.7362 38.6373C94.73 38.6205 94.7273 38.6025 94.7283 38.5845L94.732 38.5031C94.7336 38.4686 94.7479 38.4358 94.7723 38.4108C94.7967 38.3859 94.8294 38.3704 94.8644 38.3674C95.3833 38.3252 95.644 38.0459 95.6464 37.5296C95.6526 35.638 95.6513 33.8846 95.6428 32.2693C95.6403 31.8085 95.376 31.5437 94.8497 31.4749C94.8136 31.47 94.7806 31.452 94.7572 31.4242C94.7337 31.3965 94.7214 31.361 94.7228 31.3247L94.7246 31.2505C94.7283 31.1673 94.7724 31.1257 94.8571 31.1257L97.9409 31.1221C97.952 31.1221 97.963 31.1242 97.9733 31.1284C97.9836 31.1326 97.9929 31.1387 98.0008 31.1464C98.0086 31.1542 98.0149 31.1634 98.0191 31.1735C98.0234 31.1836 98.0256 31.1944 98.0256 31.2053C98.0219 33.2694 98.0231 35.3684 98.0292 37.5025C98.0305 37.7256 98.093 37.9361 98.2169 38.134C98.2406 38.1725 98.2771 38.2013 98.32 38.2154Z" fill="black"/>
<path d="M61.3605 39.6285H3.96902C3.94267 39.6285 3.9174 39.6182 3.89877 39.5998C3.88013 39.5815 3.86966 39.5567 3.86966 39.5307L3.8623 37.5547C3.8623 37.5288 3.87277 37.504 3.89141 37.4857C3.91004 37.4673 3.93531 37.457 3.96166 37.457H61.3568C61.3698 37.457 61.3828 37.4596 61.3948 37.4645C61.4069 37.4694 61.4178 37.4766 61.427 37.4857C61.4363 37.4947 61.4436 37.5055 61.4486 37.5174C61.4536 37.5292 61.4562 37.5419 61.4562 37.5547L61.4598 39.5307C61.4598 39.5567 61.4494 39.5815 61.4307 39.5998C61.4121 39.6182 61.3868 39.6285 61.3605 39.6285Z" fill="black"/>
<path d="M180.504 39.5289C180.504 39.5553 180.493 39.5806 180.474 39.5993C180.455 39.618 180.43 39.6285 180.403 39.6285H123.013C122.986 39.6285 122.961 39.618 122.942 39.5993C122.923 39.5806 122.912 39.5553 122.912 39.5289V37.5566C122.912 37.5302 122.923 37.5048 122.942 37.4862C122.961 37.4675 122.986 37.457 123.013 37.457H180.403C180.43 37.457 180.455 37.4675 180.474 37.4862C180.493 37.5048 180.504 37.5302 180.504 37.5566V39.5289Z" fill="black"/>
<path d="M34.5199 42.4586L33.0958 49.8559C33.0916 49.878 33.0797 49.8979 33.0623 49.9124C33.0449 49.9269 33.0229 49.9351 33.0001 49.9355L32.3267 49.9482C32.3119 49.9485 32.2973 49.9455 32.2839 49.9395C32.2704 49.9335 32.2585 49.9246 32.249 49.9135C32.2395 49.9024 32.2326 49.8894 32.2289 49.8754C32.2251 49.8613 32.2246 49.8467 32.2273 49.8324L33.6275 42.4315C33.6314 42.4091 33.643 42.3887 33.6605 42.3738C33.678 42.359 33.7001 42.3505 33.7232 42.35L34.4206 42.3428C34.4353 42.3425 34.45 42.3455 34.4634 42.3515C34.4768 42.3575 34.4887 42.3664 34.4982 42.3775C34.5078 42.3886 34.5146 42.4016 34.5184 42.4156C34.5222 42.4297 34.5227 42.4443 34.5199 42.4586Z" fill="#357743"/>
<path d="M63.5023 49.8524L64.9173 42.4026C64.9208 42.3838 64.9311 42.3668 64.9463 42.3549C64.9615 42.3429 64.9806 42.3367 65.0001 42.3375L65.7232 42.3574C65.7349 42.3577 65.7464 42.3605 65.7568 42.3656C65.7673 42.3707 65.7765 42.378 65.7839 42.3869C65.7912 42.3959 65.7965 42.4063 65.7994 42.4174C65.8022 42.4285 65.8026 42.4402 65.8005 42.4515L64.3745 49.8759C64.3711 49.8942 64.3613 49.9106 64.3468 49.9225C64.3324 49.9344 64.3142 49.941 64.2954 49.9411L63.5814 49.9465C63.5696 49.9464 63.5579 49.9438 63.5472 49.9388C63.5365 49.9338 63.5271 49.9266 63.5195 49.9176C63.512 49.9087 63.5066 49.8982 63.5036 49.8869C63.5006 49.8756 63.5002 49.8639 63.5023 49.8524Z" fill="#357743"/>
<path d="M70.943 45.5873C71.4269 44.9721 72.1187 44.612 72.8621 44.7188C73.9937 44.8834 74.0581 45.9547 73.887 46.854C73.6944 47.8577 73.5067 48.8596 73.3239 49.8596C73.3129 49.9151 73.2792 49.9429 73.2227 49.9429L72.4978 49.9447C72.486 49.9447 72.4743 49.9421 72.4637 49.937C72.4531 49.932 72.4437 49.9246 72.4363 49.9154C72.4289 49.9062 72.4236 49.8954 72.4209 49.8839C72.4182 49.8724 72.418 49.8604 72.4205 49.8488C72.6462 48.8004 72.8486 47.7425 73.0277 46.6749C73.0657 46.4481 73.0639 46.2225 73.0222 45.9981C72.9191 45.4462 72.3193 45.2888 71.8556 45.5059C71.1208 45.8509 70.6615 46.4993 70.4775 47.4511C70.3278 48.2304 70.1837 49.0164 70.0451 49.8089C70.0291 49.8958 69.977 49.9392 69.8887 49.9392L69.2263 49.9465C69.1588 49.9465 69.1312 49.9139 69.1435 49.8488L70.5455 42.4731C70.5615 42.3851 70.6155 42.3404 70.7075 42.3392L71.3036 42.3374C71.4042 42.3362 71.4453 42.3845 71.4269 42.4822L70.8473 45.5439C70.8191 45.6887 70.851 45.7031 70.943 45.5873Z" fill="#357743"/>
<path d="M6.00574 44.1561C5.39302 45.4752 7.1999 45.8353 7.83654 46.5863C8.30513 47.1388 8.40633 47.7769 8.14014 48.5007C7.55686 50.0823 5.53838 50.2325 4.17494 49.5376C4.14453 49.5222 4.12099 49.4961 4.10879 49.4644C4.09658 49.4328 4.09655 49.3976 4.1087 49.3657L4.30374 48.8554C4.33441 48.7758 4.38716 48.7571 4.46198 48.7993C5.38382 49.3259 7.24774 49.4652 7.35446 47.9615C7.47222 46.2768 4.4767 46.5284 5.0379 44.2882C5.4243 42.7356 7.25878 42.4171 8.61854 42.9745C8.64042 42.9831 8.66031 42.996 8.67707 43.0124C8.69384 43.0287 8.70714 43.0482 8.7162 43.0698C8.72527 43.0913 8.72993 43.1144 8.7299 43.1378C8.72988 43.1612 8.72518 43.1844 8.71606 43.2061L8.53206 43.6313C8.4879 43.7314 8.41614 43.758 8.31678 43.7109C7.56974 43.3617 6.40318 43.2965 6.00574 44.1561Z" fill="#357743"/>
<path d="M25.5466 43.8075C25.4134 43.7564 25.3079 43.6513 25.2533 43.5153C25.1987 43.3792 25.1995 43.2234 25.2555 43.0822C25.2832 43.0122 25.3237 42.9479 25.3745 42.8929C25.4254 42.838 25.4857 42.7934 25.552 42.7618C25.6182 42.7303 25.6891 42.7123 25.7607 42.7088C25.8323 42.7054 25.903 42.7167 25.969 42.742C26.1022 42.7931 26.2077 42.8982 26.2623 43.0342C26.3169 43.1702 26.3161 43.326 26.2601 43.4673C26.2323 43.5373 26.1919 43.6016 26.141 43.6565C26.0902 43.7115 26.0299 43.7561 25.9636 43.7876C25.8974 43.8192 25.8264 43.8372 25.7549 43.8406C25.6833 43.844 25.6125 43.8328 25.5466 43.8075Z" fill="#357743"/>
<path d="M35.9779 43.7789C35.8496 43.7135 35.7548 43.5975 35.7141 43.4564C35.6734 43.3153 35.6903 43.1606 35.7611 43.0264C35.8318 42.8921 35.9506 42.7894 36.0913 42.7407C36.232 42.692 36.3831 42.7014 36.5113 42.7668C36.6396 42.8322 36.7345 42.9482 36.7751 43.0893C36.8158 43.2304 36.7989 43.3851 36.7281 43.5193C36.6574 43.6536 36.5386 43.7563 36.3979 43.805C36.2572 43.8536 36.1061 43.8443 35.9779 43.7789Z" fill="#357743"/>
<path d="M51.0697 46.5481L47.9656 46.5517C47.9429 46.5517 47.921 46.5595 47.9035 46.5737C47.8861 46.5879 47.8742 46.6076 47.8699 46.6295L47.2682 49.8613C47.2639 49.8832 47.2521 49.9029 47.2346 49.9171C47.2171 49.9313 47.1952 49.9391 47.1725 49.9391L46.4936 49.9446C46.4794 49.9445 46.4654 49.9414 46.4526 49.9355C46.4398 49.9296 46.4284 49.921 46.4193 49.9103C46.4102 49.8996 46.4035 49.8871 46.3999 49.8736C46.3962 49.8602 46.3955 49.8461 46.3979 49.8324L47.7264 42.7825C47.7307 42.7606 47.7425 42.7408 47.76 42.7266C47.7775 42.7124 47.7994 42.7047 47.8221 42.7046L48.5047 42.6992C48.5191 42.6992 48.5332 42.7024 48.5462 42.7084C48.5592 42.7144 48.5707 42.7232 48.5798 42.7341C48.589 42.745 48.5955 42.7577 48.5991 42.7714C48.6026 42.7851 48.6031 42.7994 48.6004 42.8132L48.0649 45.6686C48.0622 45.6825 48.0627 45.6968 48.0662 45.7105C48.0698 45.7242 48.0764 45.7369 48.0855 45.7478C48.0946 45.7587 48.1061 45.7675 48.1191 45.7735C48.1321 45.7795 48.1463 45.7826 48.1606 45.7826L51.2592 45.7772C51.2818 45.7772 51.3038 45.7694 51.3212 45.7552C51.3387 45.741 51.3506 45.7213 51.3549 45.6994L51.8921 42.7843C51.8964 42.7624 51.9083 42.7427 51.9258 42.7285C51.9432 42.7143 51.9652 42.7065 51.9878 42.7065L52.687 42.7046C52.7014 42.7047 52.7156 42.7078 52.7285 42.7138C52.7415 42.7198 52.753 42.7286 52.7621 42.7395C52.7713 42.7504 52.7779 42.7631 52.7814 42.7768C52.785 42.7905 52.7854 42.8048 52.7827 42.8186L51.4542 49.8559C51.45 49.8775 51.4384 49.897 51.4213 49.9111C51.4042 49.9253 51.3827 49.9333 51.3604 49.9337L50.6667 49.9518C50.6524 49.952 50.6382 49.9491 50.6251 49.9433C50.6121 49.9375 50.6005 49.9289 50.5912 49.9182C50.5818 49.9075 50.575 49.8949 50.5712 49.8813C50.5675 49.8677 50.5667 49.8535 50.5692 49.8396L51.1653 46.6621C51.1681 46.6482 51.1676 46.6339 51.1641 46.6202C51.1605 46.6066 51.1539 46.5938 51.1448 46.5829C51.1356 46.572 51.1242 46.5633 51.1112 46.5572C51.0982 46.5512 51.084 46.5481 51.0697 46.5481Z" fill="#357743"/>
<path d="M98.5137 46.6332C98.9234 46.9082 99.1466 47.3395 99.1834 47.927C99.2215 48.541 99.2822 49.1641 99.3656 49.7962C99.3791 49.8939 99.3362 49.9428 99.2368 49.9428L98.5891 49.9446C98.5533 49.9446 98.5188 49.9311 98.4928 49.9069C98.4667 49.8827 98.4512 49.8495 98.4493 49.8143C98.41 49.1448 98.3524 48.4885 98.2763 47.8455C98.1494 46.7725 97.3269 46.8467 96.497 46.8738C96.4689 46.8749 96.4419 46.8854 96.4206 46.9034C96.3992 46.9215 96.3846 46.9461 96.3793 46.9733L95.8512 49.8034C95.8439 49.8427 95.8229 49.8781 95.7919 49.9036C95.761 49.9291 95.7221 49.9429 95.6819 49.9428L95.0784 49.9464C94.9803 49.9464 94.9398 49.8987 94.957 49.8034L96.2726 42.9236C96.2764 42.9038 96.2864 42.8856 96.3011 42.8714C96.3159 42.8572 96.3348 42.8476 96.3554 42.844C97.3398 42.6757 99.0307 42.4857 99.7336 43.3778C100.659 44.5486 99.7741 46.0288 98.5266 46.5192C98.4505 46.5493 98.4462 46.5873 98.5137 46.6332ZM99.1669 44.7277C99.3325 43.4773 98.0868 43.2403 97.1245 43.4339C97.1006 43.4386 97.0787 43.4503 97.0616 43.4674C97.0446 43.4845 97.0331 43.5062 97.0288 43.5298L96.5596 46.0903C96.5583 46.0984 96.5585 46.1067 96.5604 46.1147C96.5623 46.1227 96.5657 46.1302 96.5705 46.1367C96.5753 46.1433 96.5814 46.1488 96.5884 46.153C96.5953 46.1571 96.6031 46.1598 96.6111 46.1609C97.7354 46.3328 98.9994 45.9781 99.1669 44.7277Z" fill="#357743"/>
<path d="M121.077 43.2729C121.077 43.4192 121.018 43.5596 120.913 43.6631C120.808 43.7666 120.665 43.8248 120.516 43.8248C120.367 43.8248 120.225 43.7666 120.119 43.6631C120.014 43.5596 119.955 43.4192 119.955 43.2729C119.955 43.1265 120.014 42.9861 120.119 42.8826C120.225 42.7791 120.367 42.7209 120.516 42.7209C120.665 42.7209 120.808 42.7791 120.913 42.8826C121.018 42.9861 121.077 43.1265 121.077 43.2729Z" fill="#357743"/>
<path d="M149.335 49.9393L148.599 49.9537C148.582 49.954 148.566 49.9499 148.551 49.942C148.536 49.9341 148.524 49.9226 148.515 49.9086C148.506 49.8946 148.501 49.8785 148.5 49.862C148.499 49.8455 148.503 49.8291 148.511 49.8144L152.122 42.7609C152.131 42.7452 152.143 42.732 152.158 42.7227C152.173 42.7134 152.191 42.7085 152.209 42.7084L153.112 42.7012C153.136 42.701 153.159 42.7093 153.177 42.7246C153.195 42.74 153.207 42.7612 153.21 42.7844L154.18 49.8325C154.181 49.846 154.18 49.8597 154.176 49.8727C154.172 49.8857 154.166 49.8977 154.157 49.908C154.148 49.9183 154.136 49.9265 154.124 49.9322C154.111 49.9379 154.098 49.9409 154.084 49.9411L153.364 49.9483C153.34 49.9485 153.317 49.9399 153.299 49.9242C153.281 49.9085 153.27 49.8868 153.267 49.8633L153.006 47.8077C153.003 47.7845 152.991 47.7632 152.973 47.7479C152.955 47.7326 152.932 47.7242 152.908 47.7244L150.562 47.728C150.544 47.7279 150.526 47.733 150.51 47.7426C150.494 47.7522 150.482 47.766 150.474 47.7823L149.42 49.885C149.412 49.9008 149.4 49.9142 149.385 49.9238C149.37 49.9333 149.353 49.9387 149.335 49.9393ZM152.422 43.6837C151.973 44.7731 151.398 45.8497 150.88 46.9807C150.877 46.988 150.876 46.9961 150.876 47.0041C150.877 47.0121 150.879 47.0199 150.884 47.0267C150.888 47.0335 150.894 47.0391 150.901 47.0431C150.908 47.0471 150.916 47.0493 150.925 47.0495L152.794 47.0458C152.809 47.046 152.823 47.043 152.837 47.0371C152.85 47.0311 152.862 47.0224 152.872 47.0114C152.882 47.0004 152.889 46.9875 152.893 46.9735C152.898 46.9594 152.899 46.9446 152.897 46.93L152.514 43.6946C152.5 43.5752 152.469 43.5716 152.422 43.6837Z" fill="#357743"/>
<path d="M42.8739 45.4751C42.6875 46.3859 42.509 47.3389 42.3385 48.3341C42.2262 48.991 42.3698 49.2552 43.0929 49.2118C43.1604 49.2069 43.1941 49.2383 43.1941 49.3059L43.1959 49.7202C43.1959 49.8047 43.1536 49.8553 43.069 49.8722C42.1398 50.0659 41.2253 49.789 41.4185 48.6273C41.5865 47.6164 41.7804 46.5801 41.9999 45.5185C42.022 45.4148 41.9791 45.3641 41.8711 45.3665L41.4277 45.3774C41.3136 45.381 41.2694 45.3279 41.2952 45.2181L41.4001 44.7839C41.4053 44.7633 41.4145 44.7439 41.4273 44.7269C41.4401 44.7098 41.4562 44.6954 41.4746 44.6845C41.4931 44.6736 41.5136 44.6663 41.5349 44.6632C41.5562 44.6601 41.5779 44.6611 41.5988 44.6662C41.762 44.7073 41.9239 44.7109 42.0846 44.6771C42.1042 44.6729 42.1222 44.6631 42.1362 44.6489C42.1503 44.6348 42.1598 44.6169 42.1637 44.5975L42.3054 43.8899C42.3213 43.8067 42.371 43.7518 42.4544 43.7253L43.0966 43.5208C43.2192 43.4822 43.2671 43.525 43.2401 43.6493L43.0432 44.5613C43.0236 44.6493 43.0598 44.694 43.1518 44.6952L44.1601 44.697C44.2202 44.6982 44.246 44.7278 44.2374 44.7857L44.1582 45.2724C44.1531 45.3013 44.1377 45.3275 44.1148 45.3464C44.0919 45.3653 44.063 45.3756 44.0331 45.3756L43.0064 45.3701C42.9328 45.3701 42.8886 45.4051 42.8739 45.4751Z" fill="#357743"/>
<path d="M66.6959 45.3666L66.2819 45.3775C66.1457 45.3799 66.096 45.3165 66.1328 45.1875L66.2193 44.8798C66.2537 44.758 66.3352 44.6965 66.464 44.6953L66.8854 44.6916C66.948 44.6916 66.986 44.6609 66.9995 44.5994L67.1577 43.8538C67.1737 43.7839 67.2166 43.7392 67.2865 43.7199L67.9912 43.5227C68.0746 43.4986 68.1072 43.5287 68.0888 43.6132L67.8845 44.5125C67.8795 44.5342 67.8796 44.5567 67.8847 44.5784C67.8898 44.6001 67.8998 44.6204 67.9139 44.6378C67.928 44.6551 67.946 44.6692 67.9664 44.6788C67.9868 44.6884 68.0091 44.6935 68.0317 44.6935L69.0492 44.6971C69.0824 44.6971 69.0958 44.7134 69.0897 44.7459L68.9628 45.3304C68.9566 45.3606 68.9382 45.3756 68.9076 45.3756L67.8422 45.3666C67.8137 45.3667 67.7861 45.3763 67.764 45.3938C67.7419 45.4112 67.7266 45.4355 67.7208 45.4625C67.4766 46.5916 67.2884 47.6315 67.1559 48.5821C67.0841 49.0834 67.465 49.3041 67.9176 49.21C67.9961 49.1943 68.0348 49.2251 68.0336 49.3023V49.7674C68.0331 49.7931 68.0237 49.8179 68.0069 49.8374C67.9901 49.8569 67.967 49.8699 67.9416 49.8741C66.9204 50.0352 66.0648 49.8144 66.2616 48.5948C66.4346 47.5368 66.6278 46.5187 66.8412 45.5403C66.867 45.4221 66.8185 45.3642 66.6959 45.3666Z" fill="#357743"/>
<path d="M122.103 45.3739L121.656 45.3775C121.545 45.3787 121.501 45.3263 121.523 45.2201L121.615 44.7967C121.63 44.7255 121.674 44.6905 121.748 44.6917L122.277 44.6953C122.358 44.6953 122.401 44.6555 122.406 44.5759C122.42 44.3491 122.461 44.1235 122.531 43.8992C122.565 43.7918 122.639 43.7218 122.754 43.6893C122.765 43.6868 122.955 43.6338 123.323 43.53C123.433 43.4999 123.477 43.5397 123.455 43.6494L123.28 44.5452C123.261 44.6441 123.302 44.6935 123.405 44.6935L124.416 44.699C124.465 44.699 124.485 44.7231 124.476 44.7713L124.375 45.2943C124.365 45.3462 124.333 45.3721 124.279 45.3721L123.231 45.3703C123.156 45.3703 123.111 45.4065 123.096 45.4789C122.902 46.4331 122.723 47.394 122.557 48.3614C122.52 48.5762 122.532 48.7837 122.592 48.9839C122.612 49.0479 122.652 49.0961 122.712 49.1287C122.901 49.2312 123.107 49.2535 123.332 49.1956C123.393 49.1787 123.423 49.2017 123.422 49.2644L123.413 49.724C123.412 49.7988 123.374 49.8453 123.301 49.8633C122.421 50.0877 121.473 49.8 121.635 48.6908C121.784 47.6799 121.982 46.6267 122.231 45.5313C122.256 45.4252 122.213 45.3727 122.103 45.3739Z" fill="#357743"/>
<path d="M144.716 45.3684L144.259 45.3775C144.144 45.3787 144.103 45.3256 144.138 45.2182L144.243 44.8744C144.279 44.755 144.361 44.6953 144.487 44.6953H144.936C145 44.6953 145.033 44.6639 145.036 44.6012C145.048 44.3346 145.1 44.0825 145.192 43.8448C145.22 43.7724 145.272 43.7254 145.349 43.7037L146.005 43.5209C146.085 43.4992 146.116 43.5281 146.099 43.6078L145.902 44.5378C145.898 44.5567 145.898 44.5762 145.903 44.5949C145.908 44.6137 145.916 44.6312 145.929 44.6461C145.941 44.661 145.957 44.6731 145.974 44.6813C145.992 44.6895 146.012 44.6936 146.031 44.6935L147.045 44.6971C147.095 44.6971 147.116 44.7212 147.106 44.7695L146.99 45.3141C146.981 45.3539 146.956 45.3738 146.914 45.3738L145.829 45.3666C145.809 45.3662 145.789 45.3726 145.773 45.3848C145.758 45.397 145.747 45.4143 145.742 45.4336C145.52 46.4758 145.33 47.5175 145.17 48.5586C145.093 49.0635 145.472 49.3096 145.928 49.21C146.012 49.1907 146.053 49.2233 146.051 49.3078L146.048 49.7638C146.048 49.8132 146.023 49.844 145.974 49.856C145.117 50.0822 144.125 49.8524 144.27 48.7432C144.39 47.8239 144.588 46.7575 144.863 45.5439C144.867 45.5225 144.867 45.5004 144.862 45.4791C144.857 45.4578 144.847 45.4379 144.832 45.421C144.818 45.4041 144.8 45.3906 144.78 45.3815C144.76 45.3724 144.738 45.3679 144.716 45.3684Z" fill="#357743"/>
<path d="M10.8243 45.6362C11.3193 44.9993 12.0571 44.6157 12.8612 44.7206C13.6248 44.8183 14.0922 45.524 14.1455 46.2279C14.3148 48.4935 12.4914 50.5129 10.0736 49.7656C10.0233 49.7499 9.99327 49.7674 9.98346 49.818L9.61178 51.8103C9.59706 51.8936 9.54615 51.9352 9.45906 51.9352H8.84818C8.83268 51.9351 8.81736 51.9318 8.80334 51.9254C8.78932 51.9189 8.77694 51.9096 8.76709 51.898C8.75723 51.8864 8.75015 51.8729 8.74636 51.8583C8.74256 51.8438 8.74214 51.8286 8.74514 51.8139L10.0534 44.831C10.0602 44.7934 10.0803 44.7593 10.1102 44.7345C10.14 44.7097 10.1779 44.6959 10.2171 44.6953L10.7139 44.6917C10.8096 44.6917 10.8507 44.7381 10.8372 44.831L10.7231 45.5928C10.7023 45.7351 10.736 45.7496 10.8243 45.6362ZM12.2927 45.4245C11.3119 45.4082 10.6532 46.5699 10.4674 47.3842C10.3545 47.8836 10.2637 48.3879 10.1951 48.897C10.1803 49.0056 10.2245 49.0797 10.3275 49.1196C12.9606 50.1383 14.2615 45.4589 12.2927 45.4245Z" fill="#357743"/>
<path d="M15.7722 47.8348C15.7814 49.4417 17.1835 49.4815 18.3096 49.0038C18.4347 48.9507 18.5095 48.9899 18.5341 49.1214L18.5764 49.3458C18.6034 49.4881 18.5488 49.587 18.4126 49.6425C17.8987 49.85 17.3454 49.9471 16.7529 49.9339C13.3563 49.8561 15.1172 43.9516 18.3206 44.7894C19.3087 45.0464 19.524 46.2044 18.9407 46.9228C18.3317 47.6702 16.8376 47.7444 15.8937 47.7172C15.8127 47.716 15.7722 47.7552 15.7722 47.8348ZM15.9525 46.8758C15.9084 46.9916 15.9495 47.0495 16.0758 47.0495C16.718 47.0477 17.8293 47.0477 18.2525 46.4867C18.6297 45.9855 18.2875 45.3721 17.6601 45.3666C16.7953 45.3576 16.2285 46.1393 15.9525 46.8758Z" fill="#357743"/>
<path d="M20.9005 46.6748C20.0909 48.2092 20.9613 49.8541 22.8914 49.0072C23.0165 48.9517 23.0877 48.9903 23.1049 49.123L23.1453 49.4488C23.1625 49.5863 23.1042 49.6768 22.9705 49.7202C22.2799 49.9446 21.6911 50.0025 21.2041 49.8939C20.0903 49.6466 19.596 48.9017 19.7211 47.6591C19.9198 45.6813 21.7745 44.1812 23.8133 44.8634C23.8276 44.868 23.8409 44.8755 23.8523 44.8853C23.8637 44.8951 23.873 44.9071 23.8797 44.9206C23.8864 44.934 23.8903 44.9487 23.8912 44.9638C23.8921 44.9788 23.89 44.9939 23.885 45.0082L23.7139 45.4913C23.7059 45.5134 23.6897 45.5317 23.6685 45.5425C23.6473 45.5532 23.6228 45.5556 23.5998 45.5492C22.3793 45.2018 21.4795 45.577 20.9005 46.6748Z" fill="#357743"/>
<path d="M24.0818 49.8126L25.0294 44.793C25.0345 44.7667 25.0486 44.7431 25.0694 44.7259C25.0902 44.7088 25.1164 44.6992 25.1435 44.6989L25.7857 44.688C25.8032 44.6877 25.8205 44.6912 25.8365 44.6984C25.8524 44.7055 25.8666 44.716 25.8778 44.7292C25.8891 44.7424 25.8973 44.7579 25.9017 44.7745C25.9061 44.7912 25.9067 44.8086 25.9034 44.8255L24.9632 49.847C24.9584 49.8738 24.9442 49.8981 24.923 49.9157C24.9018 49.9332 24.875 49.9428 24.8473 49.9429L24.1996 49.9483C24.1823 49.9485 24.1651 49.945 24.1493 49.938C24.1335 49.931 24.1195 49.9206 24.1083 49.9077C24.097 49.8947 24.0888 49.8795 24.0842 49.863C24.0797 49.8466 24.0789 49.8294 24.0818 49.8126Z" fill="#357743"/>
<path d="M30.0101 48.7214C29.5888 49.3022 29.2042 49.7492 28.4664 49.9102C27.5335 50.1129 26.7754 49.4217 26.7 48.5278C26.5896 47.2611 27.2189 45.9564 28.3008 45.2417C29.1509 44.6807 30.1948 44.554 31.4325 44.8617C31.5318 44.8858 31.5705 44.9467 31.5484 45.0444C31.346 45.9769 31.1534 46.9613 30.9706 47.9976C30.8553 48.6478 30.805 49.2588 30.8197 49.8306C30.8222 49.8982 30.7885 49.9332 30.7185 49.9356L30.1242 49.9591C30.0126 49.9627 29.9635 49.9096 29.977 49.7999L30.1058 48.7594C30.123 48.6219 30.0911 48.6092 30.0101 48.7214ZM30.4057 45.4118C28.6412 45.068 27.4213 46.9661 27.6292 48.4843C27.7138 49.0978 28.31 49.4144 28.8712 49.1231C30.0911 48.4916 30.3597 46.8467 30.5253 45.5746C30.5298 45.5377 30.52 45.5004 30.4978 45.4703C30.4757 45.4401 30.4428 45.4192 30.4057 45.4118Z" fill="#357743"/>
<path d="M36.397 44.7947L35.4421 49.8668C35.4382 49.887 35.4273 49.9054 35.4111 49.9186C35.395 49.9318 35.3747 49.9391 35.3537 49.9391H34.6582C34.645 49.9391 34.6319 49.9362 34.62 49.9306C34.608 49.9251 34.5975 49.917 34.5891 49.907C34.5806 49.897 34.5745 49.8853 34.5712 49.8727C34.5679 49.8601 34.5675 49.847 34.5699 49.8342L35.523 44.7711C35.5268 44.7512 35.5375 44.7331 35.5532 44.7199C35.569 44.7067 35.5888 44.6992 35.6095 44.6988L36.3069 44.6897C36.3202 44.6895 36.3335 44.6922 36.3457 44.6976C36.3578 44.7031 36.3686 44.7111 36.3773 44.7211C36.3859 44.7312 36.3921 44.743 36.3956 44.7557C36.399 44.7684 36.3995 44.7817 36.397 44.7947Z" fill="#357743"/>
<path d="M39.1259 48.745C39.3283 48.3686 39.1314 47.9144 38.7671 47.7027C38.2004 47.3752 37.5104 46.8902 37.5895 46.1447C37.7293 44.8147 39.2068 44.4564 40.3384 44.8708C40.3769 44.8848 40.4086 44.9124 40.4274 44.9482C40.4461 44.9841 40.4505 45.0255 40.4396 45.0644L40.3329 45.4426C40.3023 45.5475 40.2348 45.5807 40.1305 45.5421C39.4117 45.2743 38.9039 45.334 38.607 45.7213C38.0992 46.3817 38.9106 46.8486 39.3982 47.1417C40.4801 47.7895 40.2538 49.1756 39.2216 49.6986C38.5567 50.0352 37.8201 50.0231 37.0117 49.6624C36.9752 49.6462 36.9464 49.6169 36.931 49.5803C36.9157 49.5437 36.9149 49.5025 36.9289 49.4652L37.0504 49.1413C37.0592 49.1183 37.0726 49.0972 37.0898 49.0794C37.1069 49.0615 37.1274 49.0473 37.1501 49.0375C37.1728 49.0277 37.1972 49.0225 37.2218 49.0223C37.2464 49.0221 37.2707 49.0269 37.2932 49.0363C38.2071 49.4151 38.818 49.318 39.1259 48.745Z" fill="#357743"/>
<path d="M53.868 47.8312C53.8386 49.4145 55.2517 49.4869 56.3796 48.9947C56.4011 48.9853 56.4244 48.9807 56.4478 48.9811C56.4713 48.9815 56.4944 48.987 56.5155 48.9972C56.5365 49.0074 56.5551 49.022 56.5697 49.0401C56.5844 49.0581 56.5949 49.0791 56.6004 49.1015L56.674 49.4001C56.6998 49.505 56.6618 49.5774 56.5599 49.6172C55.7221 49.9465 54.969 50.0256 54.3004 49.8543C53.2884 49.5955 52.8818 48.5948 53.0161 47.6285C53.2001 46.313 54.0723 44.9595 55.4762 44.7261C56.168 44.6121 57.0807 44.8419 57.2812 45.5946C57.8075 47.5815 55.2443 47.7444 53.9766 47.7263C53.9054 47.7251 53.8693 47.76 53.868 47.8312ZM54.0299 46.9011C53.9907 47.0073 54.0287 47.0598 54.144 47.0585C54.8119 47.0513 56.6299 47.0368 56.49 45.9185C56.4606 45.6893 56.3355 45.5349 56.1147 45.4553C55.1027 45.0898 54.3483 46.0398 54.0299 46.9011Z" fill="#357743"/>
<path d="M61.3809 48.7993C61.403 48.6195 61.3643 48.6057 61.265 48.7577C60.962 49.2245 60.6044 49.5617 60.1923 49.7692C59.5188 50.1076 58.6743 49.961 58.2566 49.3204C57.4286 48.0501 58.3927 46.0687 59.5078 45.2924C60.3775 44.6844 61.4539 44.5421 62.737 44.8654C62.8143 44.8847 62.8449 44.9323 62.829 45.0083C62.5015 46.5609 62.0783 48.2347 62.0985 49.8144C62.099 49.8463 62.0867 49.877 62.0644 49.9001C62.042 49.9231 62.0113 49.9365 61.9789 49.9375L61.403 49.9519C61.383 49.9523 61.3631 49.9485 61.3448 49.9407C61.3264 49.9329 61.3099 49.9214 61.2965 49.9068C61.2831 49.8922 61.273 49.875 61.2669 49.8562C61.2608 49.8375 61.2589 49.8177 61.2613 49.7981L61.3809 48.7993ZM59.1471 46.9318C58.9288 47.4071 58.8478 47.9066 58.9043 48.4301C58.9852 49.1775 59.7378 49.4579 60.3376 49.0291C61.403 48.2673 61.6624 46.7871 61.8096 45.5657C61.8122 45.544 61.8102 45.522 61.804 45.5011C61.7977 45.4801 61.7872 45.4606 61.7732 45.4437C61.7591 45.4269 61.7417 45.4129 61.722 45.4028C61.7024 45.3927 61.6809 45.3865 61.6587 45.3847C60.502 45.287 59.6648 45.8027 59.1471 46.9318Z" fill="#357743"/>
<path d="M76.0101 46.8758C75.6329 47.7317 75.6808 49.0346 76.8657 49.2011C77.2828 49.2602 77.736 49.1787 78.2255 48.9568C78.2275 48.9559 78.2297 48.9554 78.232 48.9554C78.2342 48.9554 78.2364 48.9558 78.2385 48.9567C78.2406 48.9575 78.2424 48.9587 78.244 48.9603C78.2455 48.9619 78.2468 48.9638 78.2476 48.9658C78.3187 49.1528 78.3482 49.3748 78.3359 49.6317C78.3347 49.6474 78.3267 49.6583 78.312 49.6643C77.56 49.9478 76.8633 50.0129 76.2217 49.8597C75.2631 49.6299 74.8068 48.6817 74.8969 47.7625C75.1048 45.658 76.8804 44.2176 79.0535 44.8727C79.0608 44.8747 79.0676 44.8782 79.0735 44.8829C79.0794 44.8876 79.0843 44.8934 79.0879 44.9C79.0915 44.9065 79.0937 44.9138 79.0944 44.9212C79.0952 44.9286 79.0944 44.9361 79.0921 44.9432L78.921 45.5151C78.91 45.5512 78.886 45.5645 78.8492 45.5549C77.506 45.1905 76.5597 45.6309 76.0101 46.8758Z" fill="#357743"/>
<path d="M82.7186 48.7178C82.7346 48.5646 82.7045 48.5549 82.6285 48.6888C82.185 49.4741 81.3349 50.1599 80.4002 49.8885C78.9797 49.4741 79.184 47.6556 79.7047 46.6241C80.5456 44.9594 82.2181 44.3912 84.0913 44.8725C84.1192 44.8794 84.1433 44.8966 84.1588 44.9205C84.1742 44.9444 84.1796 44.9732 84.1741 45.001C83.8594 46.5753 83.4546 48.2165 83.4325 49.8161C83.4313 49.8982 83.389 49.9398 83.3056 49.941L82.7462 49.9464C82.6432 49.9476 82.5966 49.8982 82.6064 49.798L82.7186 48.7178ZM80.5345 46.8268C80.245 47.4119 80.1622 48.0048 80.2861 48.6056C80.3781 49.0507 80.8124 49.3167 81.2632 49.2009C82.6873 48.8336 82.9909 46.7255 83.1529 45.5746C83.1559 45.5528 83.1545 45.5306 83.1486 45.5093C83.1427 45.4881 83.1324 45.4682 83.1185 45.451C83.1046 45.4337 83.0872 45.4194 83.0675 45.4089C83.0478 45.3985 83.0261 45.392 83.0038 45.39C81.8777 45.2959 81.0546 45.7749 80.5345 46.8268Z" fill="#357743"/>
<path d="M86.4229 45.7557C86.824 45.1477 87.3116 44.6628 88.0973 44.6972C88.1574 44.6996 88.1826 44.7303 88.1728 44.7894L88.0568 45.4553C88.0458 45.5132 88.0102 45.5422 87.9501 45.5422C86.9234 45.5458 86.3604 46.5501 86.169 47.4404C86.0132 48.1702 85.8709 48.9387 85.7421 49.7457C85.7225 49.8676 85.6507 49.9315 85.5268 49.9375L85.0172 49.9629C84.881 49.9701 84.8246 49.9074 84.8479 49.7747L85.7256 44.7894C85.7366 44.7267 85.774 44.6953 85.8378 44.6953H86.3935C86.4609 44.6941 86.4898 44.7261 86.48 44.7912L86.3456 45.7286C86.3285 45.8504 86.3542 45.8595 86.4229 45.7557Z" fill="#357743"/>
<path d="M89.0006 47.8674C89.0318 49.3802 90.3658 49.5087 91.4662 49.0183C91.6232 48.9483 91.7213 48.9954 91.7606 49.1595L91.8102 49.3657C91.8446 49.5081 91.7912 49.604 91.6502 49.6534C89.9942 50.2397 87.9426 49.9936 88.156 47.7372C88.2958 46.2479 89.4072 44.6519 91.0853 44.7026C92.5738 44.7496 93.0467 46.5175 91.7845 47.2522C91.0448 47.6811 89.9776 47.7426 89.1478 47.7209C89.0472 47.7185 88.9981 47.7673 89.0006 47.8674ZM89.1974 46.8396C89.1386 46.988 89.1901 47.0604 89.352 47.0568C89.9997 47.0387 91.8581 47.017 91.617 45.8806C91.5704 45.6622 91.4404 45.5151 91.227 45.4391C90.2775 45.0953 89.5231 46.0217 89.1974 46.8396Z" fill="#357743"/>
<path d="M101.331 47.8403C101.359 49.4363 102.691 49.4797 103.859 49.0074C103.976 48.9604 104.048 48.9972 104.076 49.1178L104.139 49.3892C104.15 49.4367 104.144 49.4866 104.121 49.5301C104.098 49.5736 104.06 49.6077 104.014 49.6263C103.216 49.9436 102.474 50.0208 101.785 49.8579C100.83 49.6317 100.376 48.6799 100.475 47.7661C100.628 46.371 101.5 44.9595 102.991 44.7243C103.686 44.6139 104.59 44.8853 104.768 45.6508C105.223 47.6087 102.693 47.739 101.447 47.7245C101.368 47.7233 101.33 47.7619 101.331 47.8403ZM101.519 46.8939C101.487 46.994 101.524 47.0459 101.631 47.0495C102.293 47.0658 103.647 47.035 103.92 46.2895C104.057 45.9131 103.958 45.6429 103.622 45.4789C102.648 45.0084 101.784 46.0724 101.519 46.8939Z" fill="#357743"/>
<path d="M108.865 49.648C107.527 50.2017 105.595 50.0425 105.465 48.2981C105.295 46.0579 107.181 44.1507 109.52 44.851C109.607 44.8763 109.64 44.9324 109.618 45.0193L109.509 45.4336C109.482 45.5362 109.417 45.573 109.314 45.544C108.261 45.2424 107.433 45.5145 106.83 46.3601C106.267 47.1509 105.996 48.7632 107.169 49.1413C107.646 49.2958 108.174 49.2318 108.755 48.9495C108.756 48.9486 108.758 48.9479 108.76 48.9477C108.762 48.9474 108.764 48.9476 108.766 48.9481C108.768 48.9486 108.77 48.9495 108.771 48.9506C108.773 48.9518 108.774 48.9533 108.775 48.955C108.871 49.1516 108.905 49.376 108.88 49.6281C108.878 49.6378 108.874 49.6444 108.865 49.648Z" fill="#357743"/>
<path d="M111.493 45.705C111.859 45.0988 112.396 44.6555 113.127 44.6971C113.187 44.6995 113.212 44.7297 113.202 44.7876L113.084 45.4643C113.073 45.5234 113.037 45.5518 112.976 45.5494C111.883 45.5168 111.336 46.6984 111.156 47.5977C111.012 48.3143 110.876 49.0466 110.747 49.7945C110.731 49.8886 110.675 49.9369 110.578 49.9393L109.991 49.9556C109.973 49.9561 109.955 49.9527 109.939 49.9455C109.922 49.9384 109.908 49.9277 109.896 49.9142C109.884 49.9007 109.876 49.8847 109.871 49.8675C109.866 49.8502 109.865 49.8321 109.868 49.8144L110.751 44.7677C110.76 44.7194 110.789 44.6953 110.838 44.6953L111.414 44.6917C111.481 44.6917 111.509 44.7248 111.498 44.7912C111.447 45.0891 111.412 45.3841 111.395 45.676C111.388 45.8136 111.42 45.8232 111.493 45.705Z" fill="#357743"/>
<path d="M116.675 49.0923C116.705 48.9017 116.662 48.8836 116.544 49.038C116.027 49.7184 115.05 50.1871 114.205 49.8053C113.504 49.4886 113.46 48.5278 113.58 47.8637C113.77 46.8141 113.95 45.8207 114.119 44.8834C114.142 44.7543 114.221 44.6904 114.354 44.6916L114.857 44.6934C114.983 44.6934 115.034 44.7543 115.009 44.8761C114.778 46.0173 114.579 47.0952 114.413 48.1098C114.207 49.3746 115.466 49.485 116.159 48.7648C116.787 48.1134 116.886 47.433 117.052 46.5662C117.163 45.9836 117.273 45.3967 117.381 44.8056C117.397 44.7235 117.447 44.6837 117.53 44.6861L118.165 44.7006C118.246 44.703 118.279 44.7434 118.264 44.8219L117.355 49.8143C117.339 49.9024 117.286 49.9458 117.195 49.9446L116.715 49.9428C116.694 49.9428 116.673 49.9382 116.653 49.9294C116.634 49.9206 116.616 49.9078 116.602 49.8918C116.588 49.8758 116.578 49.8571 116.572 49.8369C116.566 49.8166 116.565 49.7954 116.568 49.7745L116.675 49.0923Z" fill="#357743"/>
<path d="M120.669 44.8003L119.718 49.8633C119.714 49.8833 119.703 49.9014 119.688 49.9146C119.672 49.9278 119.652 49.9352 119.631 49.9357L118.927 49.9465C118.913 49.9468 118.9 49.9441 118.888 49.9386C118.876 49.9332 118.865 49.9252 118.856 49.9151C118.848 49.9051 118.841 49.8933 118.838 49.8805C118.835 49.8678 118.834 49.8545 118.836 49.8416L119.793 44.7695C119.797 44.7492 119.808 44.7309 119.824 44.7177C119.84 44.7045 119.861 44.6972 119.882 44.6971L120.581 44.6953C120.594 44.6954 120.607 44.6983 120.619 44.7038C120.631 44.7094 120.642 44.7174 120.65 44.7274C120.658 44.7375 120.664 44.7492 120.668 44.7618C120.671 44.7743 120.672 44.7875 120.669 44.8003Z" fill="#357743"/>
<path d="M126.377 45.6379C126.9 45.0353 127.382 44.6408 128.247 44.7096C128.817 44.7554 129.151 45.0613 129.249 45.627C129.273 45.7621 129.325 45.7742 129.408 45.6632C129.841 45.0842 130.371 44.7669 130.999 44.7114C132.169 44.6065 132.569 45.5275 132.407 46.4902C132.222 47.5916 132.027 48.6815 131.822 49.76C131.8 49.8806 131.726 49.9421 131.601 49.9446L131.099 49.9518C130.972 49.9542 130.922 49.8945 130.948 49.7726C131.17 48.7195 131.366 47.6627 131.537 46.6024C131.566 46.4214 131.568 46.2405 131.544 46.0595C131.472 45.5203 130.913 45.2742 130.438 45.4913C129.771 45.7953 129.346 46.4021 129.165 47.3117C129.002 48.1248 128.84 48.9602 128.679 49.8179C128.663 49.9011 128.612 49.9427 128.524 49.9427H127.923C127.834 49.9415 127.799 49.8981 127.816 49.8125C128.042 48.6893 128.228 47.7086 128.375 46.8702C128.401 46.7242 128.418 46.4974 128.427 46.1898C128.449 45.3665 127.584 45.2145 127.054 45.6487C126.474 46.1228 126.118 46.7351 125.987 47.4854C125.836 48.3395 125.695 49.1134 125.562 49.807C125.545 49.8951 125.49 49.9403 125.398 49.9427L124.808 49.9536C124.789 49.954 124.771 49.9503 124.754 49.9427C124.737 49.935 124.722 49.9238 124.71 49.9097C124.698 49.8956 124.69 49.879 124.685 49.8612C124.681 49.8435 124.68 49.8249 124.684 49.807C125.046 48.0084 125.351 46.3255 125.599 44.7585C125.606 44.7126 125.634 44.6897 125.682 44.6897L126.3 44.6969C126.349 44.6981 126.371 44.7223 126.366 44.7693L126.276 45.5945C126.262 45.7175 126.296 45.732 126.377 45.6379Z" fill="#357743"/>
<path d="M134.445 47.7136C134.098 47.6979 133.982 47.8517 134.096 48.175C134.114 48.2245 134.161 48.3536 134.235 48.5623C134.354 48.8964 134.588 49.1087 134.935 49.1992C135.538 49.3548 136.068 49.1956 136.635 49.0002C136.753 48.9592 136.821 48.9996 136.841 49.1214L136.883 49.3965C136.902 49.5062 136.858 49.5828 136.753 49.6263C135.137 50.2813 133.131 50.028 133.236 47.8258C133.285 46.7787 133.733 45.9083 134.578 45.2146C135.196 44.708 136.131 44.5325 136.883 44.8871C137.724 45.2852 137.777 46.4397 137.163 47.0278C136.532 47.6286 135.26 47.7498 134.445 47.7136ZM134.289 46.8016C134.219 46.9801 134.281 47.0652 134.475 47.0567C135.086 47.0332 137.089 46.9753 136.675 45.8172C136.462 45.2201 135.597 45.3142 135.19 45.6091C134.784 45.9047 134.484 46.3022 134.289 46.8016Z" fill="#357743"/>
<path d="M139.821 45.6543C139.911 45.553 140.002 45.4553 140.094 45.3612C141.234 44.1995 143.286 44.5505 142.94 46.5102C142.73 47.6912 142.519 48.8053 142.307 49.8524C142.295 49.9115 142.257 49.9417 142.195 49.9429L141.499 49.9447C141.488 49.9446 141.476 49.942 141.466 49.9372C141.455 49.9324 141.446 49.9254 141.439 49.9168C141.431 49.9081 141.426 49.898 141.423 49.8872C141.42 49.8764 141.42 49.8652 141.422 49.8542C141.708 48.4223 141.91 47.336 142.029 46.5953C142.105 46.1248 142.003 45.5385 141.455 45.4354C140.785 45.3123 140.123 45.9366 139.838 46.4596C139.641 46.819 139.505 47.2256 139.429 47.6792C139.305 48.415 139.174 49.125 139.034 49.809C139.015 49.8958 138.961 49.9399 138.87 49.9411L138.272 49.9447C138.175 49.9447 138.135 49.8983 138.152 49.8054L139.07 44.793C139.083 44.7266 139.123 44.6935 139.192 44.6935L139.716 44.6917C139.824 44.6917 139.87 44.7441 139.852 44.8491L139.731 45.6145C139.714 45.7291 139.744 45.7424 139.821 45.6543Z" fill="#357743"/>
<path d="M158.377 49.0309C158.2 49.1901 158.093 49.4091 157.895 49.5412C156.77 50.2921 155.407 49.999 155.157 48.5495C154.991 47.5905 155.368 46.4487 156.034 45.7375C157.018 44.6844 158.305 44.4311 159.896 44.9775C159.995 45.0113 160.034 45.0789 160.016 45.1802C159.762 46.5723 159.502 47.9657 159.236 49.3602C159.022 50.4785 158.59 51.4412 157.398 51.794C156.657 52.0136 155.863 51.9786 155.015 51.6891C154.901 51.6493 154.865 51.5739 154.906 51.4629L155.043 51.1046C155.082 50.9996 155.154 50.9695 155.258 51.0141C155.587 51.1529 155.933 51.2319 156.296 51.2512C157.806 51.3326 158.235 50.2722 158.452 49.0725C158.468 48.9856 158.443 48.9718 158.377 49.0309ZM156.285 46.8395C155.97 47.5272 155.775 49.0906 156.86 49.2589C157.722 49.391 158.459 48.3071 158.638 47.6321C158.808 46.9928 158.941 46.3238 159.035 45.6254C159.04 45.5906 159.032 45.5551 159.011 45.526C158.991 45.4969 158.96 45.4762 158.925 45.4679C157.709 45.1893 156.829 45.6465 156.285 46.8395Z" fill="#357743"/>
<path d="M161.506 47.8294C161.486 49.4398 162.912 49.476 164.04 48.9983C164.062 48.989 164.087 48.9848 164.111 48.9861C164.136 48.9874 164.159 48.9941 164.181 49.0058C164.202 49.0175 164.221 49.0338 164.235 49.0535C164.249 49.0732 164.258 49.0958 164.262 49.1196L164.305 49.3874C164.322 49.4996 164.278 49.578 164.172 49.6226C162.632 50.274 160.483 49.9954 160.641 47.8475C160.735 46.5717 161.497 45.1947 162.801 44.7984C163.719 44.5216 164.858 44.8057 164.98 45.8859C165.171 47.614 162.79 47.7606 161.622 47.7208C161.546 47.7184 161.507 47.7546 161.506 47.8294ZM161.675 46.9065C161.642 47.0018 161.676 47.0495 161.778 47.0495C162.363 47.0477 163.327 47.0368 163.819 46.6514C164.327 46.2533 164.209 45.4716 163.521 45.3847C162.597 45.2707 161.938 46.1338 161.675 46.9065Z" fill="#357743"/>
<path d="M166.987 45.5078C166.964 45.6972 167.014 45.7183 167.138 45.5711C168.362 44.1253 170.579 44.413 170.135 46.7509C169.926 47.8559 169.73 48.8934 169.548 49.8633C169.545 49.8849 169.533 49.9046 169.516 49.9189C169.499 49.9332 169.477 49.941 169.455 49.9411L168.772 49.9447C168.684 49.9447 168.647 49.9025 168.663 49.8181C168.885 48.7022 169.083 47.6448 169.256 46.646C169.39 45.8679 168.945 45.0717 168.041 45.5277C167.367 45.8691 166.94 46.4373 166.763 47.2323C166.674 47.6267 166.511 48.4826 166.273 49.8C166.256 49.8941 166.199 49.9411 166.102 49.9411L165.504 49.9429C165.41 49.9441 165.37 49.8983 165.386 49.8054L166.312 44.7496C166.318 44.7134 166.339 44.6953 166.376 44.6953L167.031 44.6917C167.07 44.6917 167.088 44.7104 167.083 44.7478L166.987 45.5078Z" fill="#357743"/>
<path d="M172.057 48.0898C172.138 49.0145 172.938 49.3764 173.788 49.1665C174.003 49.1134 174.209 49.0567 174.406 48.9964C174.473 48.9759 174.514 48.9988 174.53 49.0651C174.575 49.2569 174.584 49.4385 174.557 49.6098C174.55 49.6568 174.524 49.6876 174.478 49.7021C173.88 49.9048 173.315 49.9777 172.784 49.921C171.496 49.7853 170.962 48.6417 171.159 47.4872C171.494 45.5293 173.249 44.2355 175.26 44.8652C175.272 44.8688 175.283 44.8745 175.292 44.8821C175.301 44.8897 175.309 44.8991 175.314 44.9095C175.32 44.92 175.323 44.9314 175.324 44.9431C175.325 44.9547 175.323 44.9664 175.319 44.9774L175.144 45.5094C175.141 45.5199 175.136 45.5296 175.128 45.538C175.121 45.5464 175.112 45.5534 175.102 45.5584C175.093 45.5635 175.082 45.5665 175.071 45.5674C175.059 45.5683 175.048 45.5671 175.038 45.5637C174.075 45.2681 173.301 45.4521 172.716 46.1156C172.211 46.6862 171.992 47.3443 172.057 48.0898Z" fill="#357743"/>
<path d="M177.613 48.6743C177.639 48.8589 177.691 48.8655 177.768 48.6942L179.51 44.8146C179.547 44.7338 179.61 44.6934 179.7 44.6934L180.364 44.697C180.459 44.697 180.486 44.7386 180.445 44.8218C179.759 46.2465 179.034 47.7334 178.268 49.2823C177.652 50.5309 176.842 51.6763 175.591 52.2409C175.381 52.3362 175.248 52.2735 175.192 52.0527L175.14 51.8464C175.094 51.6606 175.16 51.5291 175.339 51.4519C175.851 51.233 177.181 50.2341 177.028 49.5103C176.717 48.0386 176.386 46.4673 176.036 44.7965C176.022 44.7277 176.051 44.6934 176.123 44.6934L176.822 44.6988C176.851 44.6987 176.88 44.7086 176.902 44.7267C176.925 44.7449 176.94 44.7702 176.945 44.7983C177.209 46.1144 177.432 47.4064 177.613 48.6743Z" fill="#357743"/>
</svg>
