<svg width="194" height="62" viewBox="0 0 194 62" fill="none" xmlns="http://www.w3.org/2000/svg">
<g clip-path="url(#clip0_342_740)">
<path d="M36.9491 52.8844C36.8246 52.8583 36.7011 52.82 36.5786 52.7697C32.0912 50.9112 28.3821 47.589 26.8226 42.9847C25.8921 40.2356 25.8964 37.5069 26.8355 34.7984C27.7603 32.1268 29.5653 29.6337 31.6001 27.6111C33.5377 25.6848 35.7443 23.9564 38.2199 22.426C39.1514 21.85 40.0919 21.2944 41.0416 20.7591C42.9419 19.6875 44.7234 18.2259 46.3863 16.3741C49.1309 13.3191 50.9077 9.76707 51.7166 5.71795C52.0976 3.81294 52.2164 1.966 52.0728 0.177151C52.0584 0.00775199 52.0909 -0.00241195 52.1704 0.146659C54.422 4.40244 56.0102 9.42343 55.8551 14.2803C55.667 20.1391 53.0262 25.391 48.4254 29.0442C47.9573 29.4159 47.2895 29.8374 46.4222 30.3089C45.216 30.9642 44.0126 31.712 42.8122 32.5522C39.3189 34.9964 36.2057 37.5925 33.4726 40.3407C33.0629 40.7521 32.6656 41.3149 32.2807 42.0293C29.7103 46.7948 33.0705 50.7093 37.0295 52.8655C37.0869 52.8965 37.0831 52.9091 37.018 52.9033C37.0113 52.9023 37.0046 52.9009 36.9979 52.8989C36.9816 52.8922 36.9654 52.8873 36.9491 52.8844Z" fill="#134964"/>
<path d="M24.2478 24.9293C24.2554 24.9095 24.2571 24.8878 24.2528 24.8669C24.2485 24.846 24.2383 24.8269 24.2234 24.8117C22.9099 23.4614 21.8176 21.8419 20.9465 19.9534C18.5254 14.703 18.5412 8.79482 20.2443 3.23951C20.2721 3.14755 20.297 3.14803 20.319 3.24096C20.3491 3.37309 20.2701 3.51539 20.2759 3.64461C20.5152 9.05667 22.662 13.3546 26.7162 16.5383C29.5867 18.7932 33.2973 20.1567 36.9748 20.8159C36.9871 20.8178 36.9986 20.8235 37.0078 20.832C37.0169 20.8406 37.0234 20.8517 37.0263 20.864C37.0292 20.8763 37.0285 20.8891 37.0242 20.901C37.0199 20.9128 37.0122 20.9231 37.0021 20.9306C33.8162 23.3699 31.1184 26.0648 28.909 29.0152C27.2045 31.292 25.8317 33.833 25.2142 36.522C24.6053 39.1772 24.8906 41.6921 26.07 44.0666C26.2079 44.3454 26.1672 44.3754 25.948 44.1566C24.4833 42.7046 23.4566 40.698 22.9267 38.6739C21.7506 34.18 22.5734 29.3158 24.2478 24.9293Z" fill="#134964"/>
<path d="M8.78711 9.72397L8.79573 6.68785C8.79573 6.6659 8.80435 6.64485 8.8197 6.62933C8.83505 6.61381 8.85587 6.60509 8.87758 6.60509L10.9727 6.60219C10.9834 6.60219 10.9941 6.60004 11.004 6.59589C11.0139 6.59173 11.0229 6.58563 11.0305 6.57794C11.0381 6.57026 11.0442 6.56114 11.0483 6.55109C11.0524 6.54105 11.0545 6.53029 11.0545 6.51942L11.0531 3.99731C11.0531 3.98645 11.0552 3.97568 11.0593 3.96564C11.0634 3.9556 11.0694 3.94648 11.077 3.93879C11.0846 3.93111 11.0937 3.92501 11.1036 3.92085C11.1135 3.91669 11.1242 3.91455 11.1349 3.91455L13.7369 3.916C13.7586 3.916 13.7794 3.92472 13.7948 3.94024C13.8101 3.95576 13.8188 3.97682 13.8188 3.99877L13.8202 6.52523C13.8202 6.54718 13.8288 6.56823 13.8442 6.58375C13.8595 6.59927 13.8803 6.60799 13.902 6.60799L16.0057 6.60654C16.0275 6.60654 16.0483 6.61526 16.0636 6.63078C16.079 6.6463 16.0876 6.66735 16.0876 6.6893L16.0847 9.72397C16.0847 9.73483 16.0826 9.7456 16.0785 9.75564C16.0744 9.76568 16.0684 9.7748 16.0608 9.78249C16.0532 9.79017 16.0441 9.79627 16.0342 9.80043C16.0243 9.80459 16.0136 9.80673 16.0029 9.80673L13.8963 9.80528C13.8746 9.80528 13.8538 9.814 13.8384 9.82952C13.8231 9.84504 13.8145 9.86609 13.8145 9.88804L13.8202 12.4072C13.8202 12.4292 13.8116 12.4502 13.7962 12.4658C13.7809 12.4813 13.7601 12.49 13.7383 12.49L11.1378 12.4929C11.127 12.4929 11.1164 12.4908 11.1065 12.4866C11.0965 12.4825 11.0875 12.4764 11.0799 12.4687C11.0723 12.461 11.0663 12.4519 11.0622 12.4418C11.0581 12.4318 11.0559 12.421 11.0559 12.4101V9.88514C11.0559 9.86319 11.0473 9.84213 11.032 9.82661C11.0166 9.81109 10.9958 9.80237 10.9741 9.80237L8.86896 9.80673C8.85821 9.80673 8.84757 9.80459 8.83764 9.80043C8.82771 9.79627 8.81868 9.79017 8.81108 9.78249C8.80348 9.7748 8.79745 9.76568 8.79334 9.75564C8.78923 9.7456 8.78711 9.73483 8.78711 9.72397Z" fill="#42B6B3"/>
<path d="M139.932 7.62166C140.367 7.11201 141.445 5.4974 140.215 5.13585C140.194 5.12982 140.175 5.11769 140.161 5.10093C140.146 5.08417 140.137 5.06352 140.134 5.04147C140.114 4.90402 140.167 4.80625 140.294 4.74817C140.583 4.61749 140.859 4.44132 141.124 4.21965C141.428 3.9641 141.819 4.1514 141.906 4.51295C141.977 4.80335 141.957 5.12521 141.846 5.47852C141.443 6.77176 140.643 7.77993 139.445 8.50302C139.289 8.59691 139.241 8.55723 139.3 8.38396C139.41 8.05726 139.718 7.87431 139.932 7.62166Z" fill="#134964"/>
<path d="M122.352 15.8803C122.341 15.9026 122.346 15.9205 122.367 15.9341L122.398 15.9544C122.403 15.9573 122.407 15.9563 122.411 15.9515C123 15.0483 123.74 14.2798 124.631 13.6457C125.187 13.2493 126.192 13.0257 126.634 13.7154C126.842 14.0397 126.898 14.3867 126.801 14.7565C126.688 15.1935 126.446 15.9442 126.004 16.117C125.992 16.1215 125.979 16.1227 125.967 16.1205C125.954 16.1184 125.942 16.1129 125.932 16.1047C125.922 16.0965 125.915 16.0858 125.91 16.0737C125.906 16.0616 125.904 16.0485 125.906 16.0357C125.988 15.5115 126.037 14.4951 125.404 14.2991C124.817 14.1176 123.992 14.8857 123.597 15.301C121.992 16.9867 121.11 18.6551 120.411 20.7764C120.373 20.8926 120.296 20.9681 120.18 21.003L119.229 21.289C119.08 21.3345 119.034 21.2842 119.093 21.138L121.532 15.0425C121.579 14.9244 121.56 14.9128 121.475 15.0077C120.534 16.0492 119.661 17.1232 118.856 18.2297C117.967 19.4493 116.512 20.82 114.959 21.0073C114.437 21.0697 113.955 20.926 114.064 20.2682C114.175 19.5974 114.436 18.944 114.847 18.3081C114.861 18.2858 114.861 18.2635 114.847 18.2413C114.843 18.2355 114.837 18.2321 114.831 18.2311C114.815 18.2292 114.802 18.234 114.791 18.2456C114.011 19.0597 113.253 19.7465 112.515 20.306C112.058 20.653 110.082 21.6651 110.214 20.3075C110.259 19.838 110.357 19.3796 110.507 18.9324C110.571 18.7427 110.541 18.7257 110.417 18.8816C109.505 20.0127 108.188 21.3877 106.626 21.1351C105.119 20.8926 105.313 19.1038 105.668 18.0583C105.961 17.1973 106.29 16.3217 106.679 15.4854C107.55 13.6075 108.46 11.7586 109.409 9.93879C109.448 9.86232 109.438 9.85554 109.38 9.91846C106.982 12.4749 104.574 15.044 102.157 17.6256C101.865 17.9364 101.782 18.3719 101.383 18.5651C101.002 18.75 100.673 19.0418 100.396 19.4406C100.31 19.5655 100.172 19.6424 100.019 19.596C100.001 19.5909 99.9849 19.5816 99.9715 19.569C99.9581 19.5564 99.9478 19.5407 99.9415 19.5233C99.9352 19.5059 99.933 19.4872 99.9352 19.4688C99.9374 19.4504 99.9439 19.4328 99.9541 19.4174C100.403 18.7359 100.636 17.9247 100.653 16.9838C100.707 14.0053 100.763 11.2872 100.821 8.82947C100.833 8.33579 100.965 7.84308 101.216 7.35134C101.219 7.3463 101.22 7.34053 101.219 7.33499C101.218 7.32944 101.215 7.32447 101.21 7.3209C101.206 7.31733 101.2 7.31537 101.194 7.31536C101.188 7.31535 101.182 7.31729 101.178 7.32085C100.51 7.88325 100.011 8.58795 99.6798 9.43495C98.6014 12.1966 97.5761 14.861 96.1014 17.3164C95.7223 17.9475 95.2963 18.551 94.8234 19.127C93.7464 20.4367 91.5881 21.6273 89.9497 21.0596C88.373 20.5136 87.7828 19.0239 87.8977 17.4282C87.8992 17.4079 87.9051 17.3882 87.9149 17.3704C87.9246 17.3526 87.9381 17.3372 87.9544 17.3252C87.9706 17.3132 87.9892 17.3049 88.0089 17.3009C88.0286 17.2968 88.049 17.2972 88.0686 17.3018L88.1159 17.3134C88.1338 17.3177 88.1498 17.3276 88.1617 17.3417C88.1735 17.3558 88.1807 17.3734 88.182 17.3919C88.2538 18.2819 88.3457 19.0907 89.0594 19.6773C89.8506 20.3278 91.0525 20.1869 91.9328 19.7383C92.3808 19.5089 92.7771 19.233 93.1218 18.9106C95.7352 16.4655 97.3392 13.1012 98.7881 9.82844C99.4099 8.42291 100.125 7.36586 101.511 6.78216C101.625 6.73473 101.62 6.71053 101.496 6.70956C100.112 6.70375 94.5764 6.39157 95.0172 9.06904C95.1053 9.60628 95.3628 10.0012 95.7898 10.2539C95.8118 10.2668 95.8302 10.2852 95.8434 10.3072C95.8566 10.3292 95.8641 10.3542 95.8652 10.3799C95.8663 10.4056 95.8611 10.4312 95.8499 10.4544C95.8388 10.4775 95.822 10.4974 95.8013 10.5123C95.3705 10.8187 94.5247 9.67162 94.315 9.38122C93.7062 8.53907 93.7435 7.38474 94.6568 6.8112C94.967 6.6176 95.4207 6.46659 96.0181 6.35818C98.4205 5.92258 100.873 5.99954 103.314 6.03293C103.397 6.0339 103.421 6.07214 103.388 6.14764C103.333 6.27154 103.233 6.35431 103.089 6.39593C102.224 6.64567 101.771 7.2647 101.728 8.25303C101.696 8.97515 101.69 9.72631 101.709 10.5065C101.767 12.8084 101.831 14.9762 101.901 17.01C101.902 17.0203 101.905 17.0303 101.911 17.0388C101.917 17.0472 101.925 17.0537 101.934 17.0574C101.944 17.0612 101.954 17.062 101.964 17.0597C101.974 17.0575 101.983 17.0523 101.99 17.0448C105.105 13.7314 108.072 10.5651 110.89 7.54591C111.548 6.84217 112.182 6.23137 112.792 5.71349C113.364 5.22756 114.027 4.97056 114.779 4.94249C114.793 4.94185 114.806 4.94413 114.819 4.94918C114.832 4.95423 114.843 4.96193 114.853 4.97179C114.863 4.98165 114.87 4.99344 114.875 5.00641C114.88 5.01937 114.882 5.03321 114.881 5.04703C114.874 5.17384 114.804 5.25999 114.669 5.30548C114.401 5.39551 114.114 5.40567 113.866 5.54361C113.352 5.8282 112.912 6.25267 112.548 6.81701C111.961 7.72595 111.403 8.6983 110.875 9.73406C109.551 12.3259 108.22 15.1021 107.286 17.8696C107.15 18.2718 106.351 20.7982 107.456 20.5674C108.187 20.4144 108.902 19.9677 109.6 19.2272C110.254 18.5312 110.806 17.8497 111.255 17.1828C112.184 15.8034 113.237 14.09 114.937 13.5789C115.326 13.4618 115.824 13.409 116.432 13.4207C117.315 13.4371 118.13 13.44 118.879 13.4294C119.028 13.4265 119.106 13.5054 119.113 13.666C119.114 13.6869 119.107 13.7075 119.094 13.7238C119.081 13.7401 119.062 13.7511 119.041 13.7546C118.653 13.8195 118.328 14.0624 118.066 14.4835C117.408 15.5357 116.755 16.7331 116.107 18.0757C115.885 18.536 115.384 19.5103 115.55 19.9749C115.578 20.0539 115.635 20.1193 115.709 20.1578C115.783 20.1963 115.868 20.2051 115.948 20.1826C116.364 20.0664 116.761 19.8351 117.138 19.4885C117.671 18.9997 118.164 18.4726 118.619 17.9073C119.751 16.5008 120.842 15.0663 121.891 13.6036C121.918 13.5661 121.952 13.5344 121.992 13.5107C122.031 13.487 122.074 13.4717 122.12 13.4657C122.597 13.4018 123.358 13.3205 123.707 12.9575C123.717 12.9463 123.73 12.9376 123.744 12.9317C123.759 12.9259 123.774 12.9231 123.789 12.9235C123.804 12.9239 123.819 12.9275 123.833 12.9341C123.847 12.9407 123.859 12.9502 123.869 12.9618C123.917 13.018 123.921 13.0785 123.882 13.1433C123.322 14.062 122.812 14.9743 122.352 15.8803ZM112.058 18.2297C111.893 18.5752 111.494 19.5466 111.643 19.8878C111.665 19.9385 111.705 19.9789 111.756 20.0009C111.806 20.023 111.863 20.0251 111.914 20.0069C112.288 19.8762 112.626 19.6657 112.93 19.3753C114.033 18.3192 115.023 17.1532 115.899 15.8774C116.158 15.4985 117.187 13.9216 116.113 13.8388C114.354 13.7038 112.678 16.9229 112.058 18.2297Z" fill="#134964"/>
<path d="M68.9759 21.2992C68.0094 20.8839 67.201 20.1608 66.9023 19.143C66.5419 17.919 66.9971 16.1911 68.0396 15.407C68.0516 15.398 68.0654 15.3916 68.08 15.3882C68.0947 15.3848 68.1099 15.3846 68.1247 15.3874C68.1395 15.3903 68.1536 15.3962 68.1662 15.4048C68.1787 15.4134 68.1894 15.4246 68.1976 15.4375C68.2722 15.5551 68.2708 15.7178 68.1832 15.8296C67.5772 16.6122 67.6849 17.6416 68.0956 18.4911C69.3851 21.1555 74.5546 22.4187 75.7522 18.9136C76.15 17.7505 75.8054 16.3421 75.2568 15.2662C74.7935 14.3572 74.287 13.4623 73.7375 12.5815C73.2445 11.7925 72.9248 11.1411 72.7783 10.6271C72.4059 9.32222 72.652 8.1737 73.5164 7.1815C75.0299 5.44492 78.0182 4.85541 79.7887 6.56441C80.2497 7.00726 80.0975 7.94089 79.7658 8.41715C79.4498 8.87017 79.1995 9.34594 79.0148 9.84445C78.9573 10.0022 78.8458 10.086 78.6802 10.0956L78.5883 10.1C78.4495 10.1077 78.4112 10.0487 78.4734 9.92286C78.8218 9.21332 78.9726 8.45683 78.9257 7.6534C78.9071 7.32525 78.795 7.07551 78.5366 6.86787C77.1882 5.78614 74.8892 5.87907 73.8639 7.47916C73.1933 8.52459 73.3742 9.63972 74.0089 10.6358C74.4675 11.355 75.0084 12.0931 75.6316 12.8501C76.5765 13.9971 77.5587 15.4172 77.629 16.8445C77.7324 18.947 76.1026 20.5689 74.2832 21.3123C72.4825 22.048 70.7134 22.0436 68.9759 21.2992Z" fill="#134964"/>
<path d="M81.4356 14.7404L78.8436 17.9319C78.7479 18.05 78.6962 18.033 78.6885 17.881C78.678 17.6787 78.7469 17.4827 78.8953 17.293C79.7052 16.2572 80.4912 15.2515 81.2532 14.2758C81.26 14.2671 81.2641 14.2566 81.265 14.2456C81.266 14.2346 81.2637 14.2235 81.2585 14.2138C81.2533 14.2041 81.2454 14.1961 81.2358 14.1909C81.2262 14.1856 81.2153 14.1833 81.2044 14.1843L79.9378 14.3208C79.9151 14.3229 79.8923 14.3183 79.8721 14.3075C79.852 14.2968 79.8353 14.2803 79.8242 14.2602C79.8131 14.24 79.808 14.217 79.8096 14.194C79.8112 14.171 79.8193 14.149 79.833 14.1306C80.0647 13.8256 80.3471 13.588 80.6802 13.4176C80.7095 13.4033 80.741 13.3964 80.7721 13.3973L81.6926 13.4394C81.752 13.4423 81.7984 13.4196 81.8319 13.3712C82.593 12.2647 83.2592 11.0591 83.8308 9.75425C83.8425 9.72723 83.8597 9.70287 83.8811 9.68265C83.9026 9.66244 83.928 9.64679 83.9557 9.63664C84.5856 9.4111 85.1409 9.06359 85.6214 8.59411C85.6308 8.58493 85.642 8.5779 85.6543 8.57352C85.6665 8.56914 85.6796 8.56752 85.6925 8.56877C85.7053 8.57001 85.7177 8.5741 85.7288 8.58074C85.7398 8.58738 85.7493 8.5964 85.7564 8.60718C85.7708 8.62848 85.7775 8.65122 85.7765 8.67542C85.7746 8.70059 85.7665 8.72286 85.7521 8.74222C84.7058 10.1903 83.7901 11.7309 83.0051 13.3639C83.0016 13.3713 83.0001 13.3794 83.0005 13.3875C83.0009 13.3956 83.0033 13.4035 83.0075 13.4103C83.0116 13.4172 83.0174 13.4228 83.0243 13.4266C83.0312 13.4304 83.0389 13.4323 83.0467 13.4321C83.7925 13.4273 84.5033 13.4278 85.1791 13.4336C85.497 13.4355 85.5247 13.527 85.2624 13.708C84.9982 13.891 84.2745 13.9273 83.9428 13.9563C83.4287 13.9999 82.6863 14.0855 82.4149 14.5632C82.2847 14.7936 82.1569 15.0477 82.0315 15.3255C81.6151 16.2432 80.2609 19.1646 80.663 19.9937C81.19 21.0783 84.1926 17.3482 84.4884 16.9619C84.4947 16.9538 84.503 16.9475 84.5125 16.9438C84.5221 16.94 84.5324 16.939 84.5425 16.9408C84.5525 16.9426 84.5619 16.9472 84.5696 16.9539C84.5773 16.9607 84.583 16.9695 84.5861 16.9794C84.6454 17.1797 84.6167 17.3646 84.4999 17.534C83.6757 18.7305 82.4321 20.0982 81.0708 20.724C80.574 20.9535 78.9901 21.4108 79.1753 20.3189C79.2424 19.9192 79.3601 19.5344 79.5286 19.1646C80.2581 17.5655 80.9114 16.1019 81.4887 14.7738C81.55 14.6325 81.5323 14.6213 81.4356 14.7404Z" fill="#134964"/>
<path d="M0 16.0299V13.7023L1.52931 13.6718C1.58867 13.6709 1.61834 13.6399 1.61834 13.5789L1.61691 11.9048C1.61691 11.8759 1.62825 11.8482 1.64845 11.8278C1.66865 11.8073 1.69604 11.7959 1.7246 11.7959L3.48654 11.793C3.56504 11.793 3.60381 11.8322 3.60286 11.9106L3.59281 13.5775C3.59262 13.5917 3.59522 13.6058 3.60048 13.619C3.60573 13.6322 3.61353 13.6443 3.62342 13.6544C3.6333 13.6645 3.64508 13.6726 3.65807 13.678C3.67106 13.6835 3.68499 13.6864 3.69907 13.6864L5.16663 13.6791C5.18682 13.6791 5.20617 13.6871 5.22045 13.7012C5.23472 13.7154 5.24274 13.7346 5.24274 13.7546L5.2413 15.8992C5.2413 15.9377 5.22617 15.9746 5.19924 16.0019C5.17231 16.0291 5.13579 16.0444 5.09771 16.0444L3.6603 16.0473C3.65106 16.0473 3.64191 16.0491 3.63337 16.0527C3.62483 16.0563 3.61708 16.0615 3.61054 16.0681C3.60401 16.0747 3.59883 16.0826 3.59529 16.0912C3.59175 16.0999 3.58993 16.1091 3.58993 16.1184V17.8986C3.58993 17.9186 3.58207 17.9378 3.56806 17.952C3.55406 17.9661 3.53507 17.9741 3.51526 17.9741L1.68727 17.9697C1.66746 17.9697 1.64847 17.9619 1.63447 17.948C1.62047 17.9342 1.6126 17.9153 1.6126 17.8957L1.61834 16.1533C1.61834 16.1209 1.60563 16.0899 1.58301 16.0671C1.56039 16.0442 1.52971 16.0313 1.49772 16.0313L0 16.0299Z" fill="#42B6B3"/>
<path d="M141.76 15.9267L140.426 17.6357C140.415 17.6492 140.401 17.6595 140.385 17.6654C140.369 17.6713 140.352 17.6726 140.335 17.6691C140.251 17.6527 140.214 17.5999 140.223 17.5109C140.241 17.3415 140.302 17.1909 140.405 17.0593C141.033 16.2626 141.665 15.3668 142.301 14.3717C142.936 13.3756 143.893 12.9995 145.058 13.3233C146.263 13.6602 145.749 15.1659 145.271 15.8498C145.251 15.8784 145.221 15.8989 145.188 15.9074C145.154 15.9159 145.119 15.912 145.088 15.8963C145.036 15.8691 145.014 15.8246 145.025 15.7627C145.138 15.1199 145.019 14.558 144.667 14.0769C144.311 13.589 143.445 13.7778 143.078 14.1495C142.041 15.1949 143.547 16.326 144.143 17.0651C144.862 17.9566 144.952 18.883 144.412 19.8442C143.445 21.5648 141.135 21.8073 139.65 20.7503C138.901 20.2188 139.1 19.156 139.465 18.443C139.552 18.2707 139.688 18.1696 139.873 18.1396C139.887 18.1371 139.902 18.1384 139.916 18.1435C139.93 18.1486 139.943 18.1573 139.952 18.1687C139.962 18.1801 139.969 18.1938 139.972 18.2086C139.975 18.2233 139.974 18.2386 139.969 18.2528C139.777 18.8293 139.663 19.4202 140.071 19.9473C140.764 20.8398 141.65 21.1186 142.727 20.7837C143.855 20.4337 143.957 19.0761 143.289 18.2456C142.725 17.5428 142.024 16.8604 141.84 15.9456C141.828 15.8808 141.801 15.8745 141.76 15.9267Z" fill="#134964"/>
<path d="M132.964 17.1146C133.056 16.8513 133.021 16.8329 132.859 17.0594C132.358 17.766 131.771 18.4751 131.097 19.1866C130.213 20.1187 129.051 21.0146 127.767 21.0088C127.232 21.0069 127.028 20.7431 127.154 20.2175C127.289 19.6551 127.503 19.0709 127.794 18.4649C128.324 17.3624 128.886 16.2119 129.482 15.0135C129.515 14.9458 129.524 14.8771 129.509 14.8074C129.506 14.7946 129.5 14.7826 129.492 14.7726C129.484 14.7626 129.473 14.7547 129.461 14.7497C129.449 14.7447 129.436 14.7427 129.423 14.7439C129.41 14.7451 129.398 14.7494 129.387 14.7565C128.197 15.5377 127.178 16.8024 126.363 17.9742C126.354 17.9865 126.342 17.9961 126.328 18.0018C126.314 18.0075 126.299 18.0091 126.284 18.0064C126.269 18.0036 126.256 17.9967 126.245 17.9863C126.234 17.976 126.226 17.9627 126.222 17.948C126.174 17.7641 126.207 17.5918 126.321 17.4311C126.995 16.4786 127.813 15.4637 128.774 14.3863C129.39 13.6937 130.082 13.2247 131.011 13.3873C131.476 13.4686 131.379 14.0683 131.202 14.3572C130.354 15.7424 129.619 17.1063 128.996 18.449C128.796 18.8807 128.655 19.2848 128.571 19.6614C128.491 20.0258 128.804 20.2901 129.144 20.1362C129.356 20.0413 129.544 19.93 129.709 19.8022C130.878 18.901 131.872 17.767 132.69 16.4002C133.05 15.7962 133.432 15.1708 133.836 14.5242C133.961 14.3229 134.117 14.1665 134.302 14.0552C134.924 13.6835 135.6 13.3176 136.341 13.3989C136.384 13.4038 136.41 13.427 136.422 13.4686C136.443 13.5441 136.448 13.6187 136.436 13.6922C136.426 13.7619 136.385 13.7958 136.316 13.7939C135.455 13.775 135.142 14.5199 134.803 15.1965C134.551 15.7037 134.315 16.211 134.097 16.7182C133.012 19.2379 131.99 21.6216 131.031 23.8692C130.28 25.629 129.234 27.1677 127.894 28.4851C126.258 30.0939 124.008 31.0101 121.858 30.1738C120.146 29.5088 119.7 28.0669 119.815 26.3652C119.819 26.3126 119.838 26.2625 119.87 26.2212C119.902 26.18 119.946 26.1498 119.996 26.1343L120.075 26.1097C120.184 26.0758 120.232 26.1159 120.218 26.2302C120.116 27.0999 120.19 27.9842 120.819 28.6201C122.072 29.8906 124.23 29.4318 125.638 28.626C127.265 27.6952 128.408 26.4436 129.404 24.8914C130.479 23.2158 131.375 21.425 132.092 19.5191C132.417 18.6556 132.707 17.8541 132.964 17.1146Z" fill="#134964"/>
<path d="M55.1889 38.0449C55.1918 38.0362 55.1889 38.0304 55.1803 38.0275L55.1458 38.013C55.1372 38.0091 55.1305 38.0115 55.1257 38.0202C53.7654 40.8952 52.0431 43.486 49.9591 45.7928C48.1943 47.7457 45.9886 49.4808 43.4958 50.185C40.002 51.1709 35.7401 50.156 35.1958 45.8842C35.1011 45.1306 35.3926 44.3422 35.7444 43.6932C37.0224 41.325 39.5152 39.6973 42.0066 38.6678C43.7336 37.9544 45.4233 37.18 47.0756 36.3447C48.0205 35.8665 48.8448 35.3994 49.5484 34.9435C54.2699 31.8841 57.5468 26.7906 58.2418 21.167C58.5471 18.7034 58.4567 16.2365 57.9704 13.7662C57.9196 13.5126 57.9761 13.4855 58.1398 13.6849C58.8798 14.5871 59.5404 15.6068 60.1215 16.7442C63.2074 22.7903 63.249 29.7076 60.8983 36.0847C60.5355 37.0721 60.099 38.1316 59.5887 39.2632C59.1359 40.267 58.684 41.1459 58.2331 41.9C54.1851 48.675 46.8961 52.8886 39.3113 54.5454C38.8863 54.6373 38.8695 54.5879 39.2611 54.3973C42.156 52.982 44.9049 51.1632 47.5079 48.9407C50.9441 46.0076 53.6955 42.3936 55.1889 38.0449Z" fill="#42B6B3"/>
<path d="M11.3084 28.4925L7.07082 28.4968C7.05254 28.4968 7.03501 28.4895 7.02208 28.4764C7.00916 28.4634 7.00189 28.4456 7.00189 28.4271L6.99902 23.2668C6.99902 23.2483 7.00629 23.2306 7.01921 23.2175C7.03214 23.2044 7.04967 23.1971 7.06795 23.1971H11.3069C11.316 23.1971 11.325 23.1953 11.3333 23.1918C11.3417 23.1883 11.3493 23.1831 11.3557 23.1767C11.3621 23.1702 11.3672 23.1625 11.3706 23.154C11.3741 23.1456 11.3759 23.1365 11.3759 23.1274L11.3816 18.8324C11.3816 18.8139 11.3889 18.7962 11.4018 18.7831C11.4147 18.77 11.4323 18.7627 11.4505 18.7627L16.5526 18.7656C16.5708 18.7656 16.5884 18.7729 16.6013 18.786C16.6142 18.7991 16.6215 18.8168 16.6215 18.8353L16.6229 23.1274C16.6229 23.1459 16.6302 23.1636 16.6431 23.1767C16.656 23.1897 16.6736 23.1971 16.6918 23.1971L20.9308 23.1956C20.9491 23.1956 20.9666 23.203 20.9796 23.216C20.9925 23.2291 20.9998 23.2468 20.9998 23.2653L21.0012 28.4257C21.0012 28.4442 20.9939 28.4619 20.981 28.475C20.9681 28.488 20.9506 28.4954 20.9323 28.4954L16.689 28.4968C16.6799 28.4968 16.671 28.4986 16.6626 28.5021C16.6542 28.5056 16.6466 28.5108 16.6402 28.5173C16.6338 28.5237 16.6288 28.5314 16.6253 28.5399C16.6218 28.5483 16.62 28.5574 16.62 28.5665L16.6244 32.8543C16.6244 32.8727 16.6171 32.8905 16.6042 32.9035C16.5912 32.9166 16.5737 32.924 16.5554 32.924H11.4491C11.4308 32.924 11.4133 32.9166 11.4004 32.9035C11.3874 32.8905 11.3802 32.8727 11.3802 32.8543L11.3773 28.5622C11.3773 28.553 11.3755 28.544 11.3721 28.5355C11.3686 28.5271 11.3635 28.5194 11.3571 28.5129C11.3507 28.5064 11.3431 28.5013 11.3348 28.4978C11.3264 28.4943 11.3174 28.4925 11.3084 28.4925Z" fill="#42B6B3"/>
<path d="M122.092 45.3572C121.294 46.2032 120.469 46.9592 119.615 47.6252C119.051 48.0646 118.406 48.3342 117.679 48.4339C117.221 48.4964 116.911 48.235 116.96 47.7471C117.023 47.1305 117.147 46.5686 117.333 46.0614C117.447 45.7516 117.392 45.7173 117.168 45.9583C116.426 46.7569 115.514 47.4379 114.432 48.0012C113.358 48.5617 112.275 48.7461 111.101 48.524C110.54 48.4175 110.174 48.1169 110.002 47.6223C109.831 47.1271 110.03 46.526 110.176 46.0425C110.201 45.9612 110.181 45.9481 110.116 46.0033C109.92 46.1688 109.787 46.3823 109.606 46.5638C108.71 47.4771 107.462 48.3976 106.185 48.4601C104.808 48.5269 105.364 47.1242 105.671 46.4534C106.363 44.9511 107.055 43.4783 107.746 42.035C107.919 41.6759 107.876 41.6473 107.619 41.9493C106.659 43.0761 105.741 44.1878 104.864 45.2846C103.713 46.7235 102.135 48.4514 100.144 48.4673C98.6064 48.4804 100.021 45.9902 100.292 45.4312C100.375 45.2618 100.352 45.2463 100.225 45.3848C99.6206 46.0411 98.9845 46.6485 98.3163 47.207C97.7333 47.6949 97.1287 48.0555 96.5027 48.2887C96.0963 48.4397 95.1888 48.6445 95.1457 47.9475C95.1083 47.3493 95.3151 46.6727 95.5047 46.0875C95.5736 45.8755 95.5319 45.8508 95.3797 46.0135C93.8073 47.6847 91.7367 48.945 89.4046 48.5283C87.9644 48.2713 87.9026 46.8992 88.3004 45.7753C88.31 45.7492 88.3047 45.7269 88.2846 45.7085C88.2731 45.6989 88.2592 45.695 88.243 45.6969C88.2286 45.6989 88.2171 45.7056 88.2085 45.7173C87.176 47.0937 85.4169 49.1019 83.4712 48.5559C83.0998 48.4523 82.8317 48.267 82.6671 47.9998C82.1961 47.2375 82.3669 45.938 82.6312 45.167C83.0275 44.0039 83.4841 42.8641 84.0241 41.7374C84.7124 40.298 85.3677 38.95 85.9899 37.6936C86.2331 37.2028 86.4978 36.6989 86.784 36.182C86.9046 35.9642 86.8812 35.9473 86.7136 36.1312C84.1002 38.9945 81.4752 41.7214 78.7325 44.6689C78.5171 44.9012 78.3979 45.1524 78.2213 45.4065C77.9815 45.7536 77.5019 45.8886 77.1974 46.1964C77.0692 46.3271 76.9418 46.4626 76.8155 46.603C76.7666 46.6582 76.7092 46.7172 76.6432 46.7801C76.5082 46.9089 76.3943 46.9437 76.3014 46.8847C76.2737 46.8673 76.2539 46.8395 76.2463 46.8074C76.2388 46.7753 76.2441 46.7415 76.2612 46.7133C76.759 45.9051 77.0165 45.0164 77.0337 44.0475C77.0941 40.7437 77.1558 37.6999 77.219 34.9159C77.2324 34.3312 77.3702 33.7863 77.6325 33.281C77.713 33.1271 77.6881 33.1072 77.5579 33.2214C76.7322 33.9431 76.2095 34.8244 75.8132 35.8466C74.4389 39.388 73.0231 43.2271 70.6537 46.2008C69.4963 47.6557 67.1973 49.0859 65.3119 48.5835C63.4221 48.0826 62.6395 46.3721 62.8047 44.441C62.8075 44.4071 62.8227 44.3755 62.8471 44.3524C62.8715 44.3293 62.9035 44.3164 62.9368 44.3161C62.9559 44.3161 62.9746 44.319 62.9928 44.3248C63.0933 44.3616 63.1417 44.4342 63.1378 44.5426C63.0818 45.8668 63.6979 47.0981 64.9773 47.4074C66.857 47.8633 68.6304 46.2806 69.749 44.9738C72.1141 42.2107 73.6305 38.9524 75.1828 35.4894C75.7658 34.1899 76.6805 33.1024 78.0059 32.584C78.1399 32.5317 78.1351 32.5032 77.9915 32.4983C76.2081 32.4359 74.2278 32.4388 72.4874 32.9441C71.4722 33.2389 70.5877 33.8197 70.7313 35.0524C70.8031 35.6661 71.0941 36.1259 71.6043 36.4318C71.8504 36.578 71.8346 36.6859 71.5569 36.7556C70.9122 36.9153 70.0176 35.5954 69.762 35.1293C69.1517 34.0084 69.6141 32.7887 70.8059 32.3851C71.252 32.2331 71.758 32.1136 72.3237 32.0264C74.9128 31.6271 77.4372 31.7085 80.0421 31.7331C80.0567 31.7333 80.071 31.7374 80.0834 31.7452C80.0957 31.753 80.1058 31.7642 80.1124 31.7775C80.1191 31.7907 80.122 31.8056 80.121 31.8206C80.12 31.8356 80.1151 31.85 80.1067 31.8624C79.9215 32.131 79.4835 32.2515 79.1906 32.372C78.0576 32.8352 78.1595 34.9929 78.1883 36.0252C78.2658 38.724 78.3376 41.2969 78.4037 43.744C78.4056 43.8118 78.4142 43.8776 78.4295 43.9415C78.4544 44.0489 78.5042 44.0625 78.5788 43.9821C82.164 40.1576 85.7467 36.3393 89.3271 32.5274C90.035 31.7738 90.9612 30.965 91.9004 30.6587C92.1722 30.5706 92.3953 30.5333 92.5695 30.5469C93.0836 30.5866 93.1037 30.7095 92.6298 30.9157C92.5322 30.9583 92.4283 30.9907 92.3182 31.013C91.9219 31.0904 91.5524 31.284 91.2097 31.5938C90.3553 32.3648 89.7737 33.432 89.228 34.4309C87.5317 37.5382 86.0651 40.6784 84.8282 43.8515C84.6243 44.3727 83.0935 48.3439 84.7377 47.9475C85.7013 47.7152 86.4853 47.056 87.1818 46.3024C87.9955 45.4235 88.635 44.6162 89.1002 43.8805C89.5818 43.1158 90.0326 42.5098 90.4529 42.0626C91.1565 41.3114 91.9592 40.7132 92.861 40.2679C93.6637 39.873 95.598 39.4577 95.8005 40.7703C95.9757 41.9116 95.5913 42.7678 94.6474 43.3389C93.2344 44.1946 91.7506 44.6631 90.1959 44.7444C90.1604 44.7464 90.1365 44.7643 90.1241 44.7982C89.8819 45.4409 89.7407 46.1016 89.7005 46.7801C89.6272 48.0041 90.7703 48.0651 91.6132 47.8125C92.2881 47.6107 92.9443 47.3261 93.5259 46.9079C94.8025 45.9902 95.934 44.923 96.7425 43.5959C97.6184 42.1613 99.0199 40.4465 100.667 40.0835C101.332 39.9369 102.047 40.0138 102.739 39.9979C102.792 39.9965 102.844 39.9809 102.89 39.9526C102.935 39.9243 102.972 39.8843 102.998 39.8367C103.954 38.0343 104.913 36.23 105.874 34.4237C106.093 34.0123 106.495 33.415 107.08 32.6319C108.298 31.0042 109.968 29.6626 112.077 29.6815C113.26 29.6916 113.09 30.8707 112.985 31.6547C112.954 31.8871 112.872 31.9074 112.739 31.7157C112.654 31.5923 112.619 31.4239 112.527 31.2975C111.849 30.3508 110.371 30.5265 109.553 31.1088C108.632 31.7607 107.887 32.8265 107.32 33.808C106.341 35.4982 105.5 37.0929 104.797 38.5923C103.846 40.6203 102.932 42.5611 102.056 44.4148C101.654 45.2638 101.338 46.042 101.106 46.7496C101.037 46.9645 101.049 47.1925 101.145 47.4335C101.164 47.4829 101.2 47.51 101.253 47.5148C101.908 47.5787 102.729 46.8382 103.184 46.3997C105.108 44.5484 106.721 42.3341 108.26 40.2186C108.326 40.1305 108.414 40.0758 108.525 40.0545C109.131 39.9398 109.772 39.8745 110.291 39.4969C110.34 39.4606 110.432 39.449 110.488 39.4708C110.498 39.4748 110.507 39.4808 110.514 39.4886C110.521 39.4964 110.527 39.5058 110.531 39.516C110.535 39.5263 110.536 39.5373 110.535 39.5483C110.534 39.5592 110.531 39.5699 110.526 39.5797C109.716 41.1004 108.879 42.6749 108.013 44.303C107.586 45.1074 107.26 45.831 107.033 46.4738C106.959 46.6848 106.918 46.9205 106.911 47.1809C106.908 47.2623 106.936 47.3418 106.988 47.4038C107.04 47.4658 107.114 47.5059 107.193 47.5163C107.633 47.5744 108.146 47.1983 108.472 46.9108C109.615 45.9031 110.546 44.8669 111.267 43.8021C111.778 43.05 112.18 42.5229 112.475 42.2209C113.519 41.1493 114.702 40.4039 116.022 39.9848C116.937 39.6944 118.373 39.7641 118.159 41.1725C118.098 41.5636 118.004 41.9184 117.876 42.2368C117.789 42.4537 117.717 42.5863 117.66 42.6347C117.384 42.8738 117.273 42.8113 117.329 42.4474C117.438 41.7345 117.151 40.1721 116.048 40.4509C114.913 40.7384 114.204 41.4876 113.433 42.4895C112.453 43.7614 111.662 45.3543 111.503 46.9689C111.476 47.2404 111.53 47.541 111.82 47.647C112.807 48.0056 114.138 47.4713 115.057 46.9006C116.302 46.1282 117.656 45.0043 118.495 43.6758C119.365 42.292 120.611 40.6556 122.241 40.1649C122.661 40.038 123.182 39.98 123.803 39.9906C124.73 40.0071 125.622 40.0095 126.48 39.9979C126.592 39.9959 126.704 40.0148 126.815 40.0545C126.866 40.0739 126.905 40.1063 126.93 40.1518C126.956 40.1992 126.953 40.2447 126.919 40.2883C126.891 40.326 126.852 40.3502 126.805 40.3609C126.369 40.4577 126.017 40.7244 125.748 41.1609C124.593 43.0282 123.676 44.802 122.995 46.4825C122.881 46.7612 122.863 47.0531 122.94 47.358C122.946 47.3825 122.957 47.4053 122.973 47.4246C122.989 47.444 123.009 47.4595 123.031 47.4698C123.834 47.8531 125.417 46.1238 125.864 45.5938C126.887 44.3809 127.864 43.2256 128.793 42.1279C128.901 42.0017 128.992 41.8621 129.065 41.7127C130.4 38.9897 131.518 36.7556 132.419 35.0103C132.988 33.9058 133.612 32.8091 134.29 31.7201C134.489 31.3997 134.706 31.1649 134.941 31.0159C135.437 30.6984 135.946 30.3736 136.469 30.0416C136.919 29.755 137.362 29.6253 137.8 29.6524C138.305 29.6829 138.469 30.3145 138.422 30.7327C138.256 32.2007 137.326 33.6469 136.5 34.8694C134.595 37.6834 132.329 40.1315 129.88 42.3603C129.656 42.5655 129.478 42.8065 129.345 43.0834C128.985 43.8394 128.69 44.6505 128.46 45.5169C128.239 46.3547 128.113 47.4858 129.306 47.5627C130.135 47.6165 130.907 47.0066 131.476 46.4578C132.245 45.7144 132.996 44.8649 133.732 43.9095C133.743 43.894 133.758 43.8858 133.776 43.8848C133.865 43.881 133.917 43.9371 133.933 44.0533C133.938 44.0974 133.929 44.142 133.905 44.1796C132.869 45.8697 130.238 49.2616 127.965 48.2699C126.542 47.6484 127.613 44.8838 128.041 43.9284C128.121 43.7484 128.096 43.7314 127.965 43.8776C127.327 44.5862 126.667 45.332 125.983 46.1151C124.883 47.3769 123.543 48.476 121.876 48.4659C120.479 48.4572 121.892 45.8828 122.142 45.3935C122.21 45.2618 122.193 45.2497 122.092 45.3572ZM134.812 32.8236C133.18 35.4793 131.684 38.3252 130.245 41.0912C130.165 41.2461 130.19 41.2664 130.32 41.1522C133.048 38.7593 135.264 35.9613 136.767 32.7074C137 32.205 137.561 30.8082 137.327 30.3407C137.303 30.2934 137.264 30.2564 137.215 30.2366C137.166 30.2168 137.112 30.2156 137.063 30.2332C136.811 30.3233 136.59 30.4743 136.398 30.6863C135.835 31.3067 135.306 32.0192 134.812 32.8236ZM90.4443 44.0141C90.4146 44.0818 90.4366 44.1167 90.5103 44.1186C92.2823 44.1578 94.3731 43.3258 94.5986 41.2771C94.6775 40.5598 94.0831 40.3347 93.5029 40.5075C92.0138 40.9489 91.0804 42.5882 90.4443 44.0141ZM97.2724 45.212C96.9765 45.8334 96.6836 46.5188 96.7166 47.1939C96.7187 47.2316 96.7346 47.2672 96.7611 47.2937C96.7876 47.3203 96.8229 47.3359 96.8602 47.3377C97.3858 47.3624 97.9975 46.8266 98.3551 46.481C99.5891 45.2875 100.709 43.9274 101.715 42.4009C101.981 41.9987 102.672 40.7573 101.932 40.5162C100.047 39.9006 97.9114 43.8674 97.2724 45.212ZM119.083 45.2512C118.798 45.8523 118.499 46.5464 118.548 47.2172C118.55 47.248 118.563 47.2769 118.584 47.2987C118.606 47.3206 118.634 47.3339 118.664 47.3362C119.669 47.4292 121.616 44.9826 122.26 44.1854C122.693 43.6453 124.941 40.8545 123.755 40.5177C121.8 39.963 119.754 43.8384 119.083 45.2512Z" fill="#42B6B3"/>
<path d="M174.756 41.4444C174.592 41.6288 174.463 41.8597 174.297 42.06C173.249 43.3407 172.2 44.603 171.148 45.8468C170.428 46.6996 169.984 47.2064 169.814 47.3671C169.144 48.0045 168.101 48.7232 167.141 48.594C165.565 48.3791 166.934 45.5898 167.283 44.8885C167.874 43.695 168.43 42.5353 168.948 41.4095C168.978 41.3457 168.996 41.2784 169.003 41.2077C169.022 41.0112 168.947 40.9623 168.778 41.0611C166.222 42.5624 164.408 45.2907 163.386 48.0858C163.312 48.2862 163.175 48.4198 162.975 48.4865L162.066 48.79C161.863 48.8578 161.802 48.7915 161.882 48.5911L164.572 41.8321C164.644 41.6491 164.617 41.6317 164.488 41.7798C164.036 42.3035 163.573 42.8417 163.1 43.3944C162.988 43.5251 162.619 44.011 161.993 44.8522C161.509 45.5017 160.964 46.098 160.357 46.6411C158.874 47.9653 157.24 48.835 155.221 48.5591C154.239 48.4246 153.736 47.9048 153.711 46.9997C153.697 46.4973 153.856 46.0051 153.996 45.51C154.018 45.4316 154 45.4214 153.943 45.4795C150.944 48.4909 146.918 49.7367 142.776 49.0804C142.234 48.9943 141.695 48.8326 141.16 48.5954C138.997 47.6371 138.219 45.767 138.431 43.4162C138.551 42.0939 138.866 40.8893 139.376 39.8022C141.306 35.6887 144.996 32.2722 149.551 31.6638C150.959 31.475 152.498 31.5651 153.76 32.1749C154.823 32.6874 155.356 33.5615 154.685 34.7072C154.319 35.3335 153.991 35.9428 153.7 36.5352C153.638 36.664 153.536 36.7346 153.395 36.7472L153.324 36.7545C153.166 36.769 153.121 36.7036 153.189 36.5584C153.668 35.5333 153.785 34.4908 153.436 33.3946C153.192 32.6308 152.514 32.2272 151.764 32.1517C150.71 32.0471 149.713 32.1507 148.773 32.4624C147.521 32.8767 146.415 33.4914 145.456 34.3064C143.069 36.3315 141.429 38.8434 140.535 41.8422C140.163 43.0871 140.127 44.3314 140.426 45.5753C140.806 47.1536 142.16 48.1265 143.71 48.3225C145.065 48.4948 146.374 48.4382 147.634 48.1526C150.192 47.5732 152.759 46.1547 154.468 44.1291C154.761 43.7816 155.053 43.3964 155.344 42.9733C156.085 41.895 157.075 41.019 158.315 40.3452C159.058 39.9426 159.802 39.8056 160.547 39.9343C161.855 40.1594 161.569 41.9236 161.015 42.6829C160.646 43.1868 160.005 43.5149 159.441 43.7908C158.316 44.3435 157.112 44.6625 155.829 44.7477C155.811 44.749 155.794 44.7555 155.779 44.7665C155.765 44.7776 155.753 44.7927 155.746 44.8101C155.455 45.57 155.315 46.2965 155.327 46.9895C155.343 48.0016 156.474 48.0263 157.198 47.8288C158.13 47.5732 159.036 47.0728 159.916 46.3274C160.673 45.6866 161.28 45.0778 161.737 44.5008C162.885 43.0498 163.976 41.6104 165.01 40.1826C165.041 40.1393 165.081 40.1034 165.128 40.0774C165.174 40.0513 165.225 40.0357 165.278 40.0316C165.931 39.9784 166.539 39.793 167.102 39.4755C167.121 39.4645 167.143 39.4608 167.165 39.465C167.187 39.4693 167.207 39.4812 167.221 39.4987C167.254 39.5404 167.257 39.5829 167.232 39.6265C166.62 40.67 165.856 42.0465 164.942 43.756C164.933 43.7744 164.937 43.7898 164.955 43.8024H164.956C164.969 43.8111 164.98 43.8092 164.99 43.7966C166.035 42.4559 167.249 41.3307 168.633 40.4207C169.161 40.0723 170.081 39.7107 170.683 40.0534C171.044 40.2596 170.802 40.8883 170.639 41.1511C169.636 42.7667 168.782 44.4287 168.075 46.1372C167.967 46.3986 167.905 46.6604 167.887 46.9228C167.841 47.6386 168.64 47.4063 168.976 47.1769C169.652 46.7151 170.324 46.1358 170.822 45.5056C171.214 45.011 171.615 44.5415 172.026 44.0972C172.182 43.9288 172.323 43.7681 172.449 43.6151C173.145 42.7749 173.843 41.8892 174.543 40.958C174.612 40.865 174.589 40.8254 174.476 40.8389L173.149 40.9914C172.902 41.0194 172.858 40.9367 173.017 40.7431C173.193 40.5292 173.388 40.3394 173.602 40.1739C173.803 40.021 174.028 39.9532 174.277 39.9706C174.512 39.988 174.745 40.0006 174.977 40.0084C175.105 40.0132 175.206 39.96 175.28 39.8487C176.117 38.5999 176.792 37.3149 177.408 35.9849C177.515 35.754 177.785 35.6727 178.007 35.5754C178.553 35.3373 179.043 35.0063 179.476 34.5823C179.485 34.5729 179.498 34.5676 179.512 34.5673C179.525 34.567 179.539 34.5719 179.549 34.5808L179.578 34.6055C179.621 34.6442 179.625 34.6873 179.592 34.7347C178.441 36.3484 177.421 38.0617 176.532 39.8748C176.525 39.8896 176.521 39.906 176.522 39.9225C176.523 39.9389 176.528 39.9548 176.537 39.9687C176.546 39.9826 176.558 39.9939 176.573 40.0016C176.587 40.0093 176.603 40.0132 176.619 40.0127C177.402 39.9943 178.211 39.9953 179.048 40.0156C179.124 40.0166 179.171 40.0524 179.188 40.1231C179.197 40.1612 179.191 40.2012 179.172 40.235C179.152 40.2688 179.121 40.2937 179.084 40.3046C178.571 40.4546 178.01 40.5529 177.401 40.5993C176.698 40.6531 176.046 40.8055 175.71 41.517C174.994 43.0387 174.244 44.6954 173.881 46.3318C173.814 46.6348 173.806 46.9431 173.858 47.2567C173.869 47.3225 173.901 47.3828 173.949 47.4283C173.997 47.4737 174.058 47.5017 174.124 47.5079C174.698 47.566 175.363 46.9707 175.781 46.5902C176.429 46.0007 176.998 45.3899 177.487 44.7578C178.76 43.1142 179.912 41.5925 180.943 40.1928C180.998 40.1163 181.081 40.0644 181.173 40.0476C181.8 39.9271 182.455 39.9009 182.979 39.49C183.041 39.4416 183.1 39.4421 183.159 39.4915C183.19 39.5166 183.195 39.5462 183.176 39.58L181.388 42.7904C181.379 42.8059 181.382 42.8185 181.397 42.8281L181.431 42.8514C181.434 42.8523 181.436 42.8519 181.437 42.8499C182.045 41.9787 182.761 41.2077 183.584 40.5369C183.884 40.293 184.207 40.0974 184.553 39.9503C185.706 39.461 186.71 40.3147 186.397 41.5402C186.274 42.0223 186.011 42.7715 185.543 42.9777C185.53 42.9832 185.517 42.9854 185.503 42.984C185.49 42.9827 185.477 42.9778 185.465 42.97C185.454 42.9621 185.445 42.9514 185.44 42.9391C185.434 42.9267 185.431 42.913 185.432 42.8993C185.466 42.378 185.515 41.6782 185.247 41.2643C184.776 40.5427 183.773 41.2063 183.325 41.6259C181.961 42.9027 180.908 44.3276 180.165 45.9006C179.822 46.6265 179.579 47.3859 179.295 48.1279C179.228 48.3031 179.106 48.4193 178.929 48.4764L177.976 48.7799C177.796 48.837 177.742 48.7779 177.813 48.6027L180.522 41.8117C180.592 41.6356 180.566 41.6201 180.445 41.7653C179.981 42.3219 179.525 42.8519 179.079 43.3552C178.802 43.6688 178.565 43.9839 178.37 44.3005C178.152 44.6528 177.919 44.9771 177.673 45.2733C176.487 46.7064 174.957 48.3849 172.963 48.4604C172.392 48.4817 172.155 48.215 172.254 47.6604C172.344 47.1493 172.504 46.6503 172.734 46.1634C173.411 44.7269 174.108 43.1694 174.826 41.4909C174.896 41.3292 174.872 41.3137 174.756 41.4444ZM156.062 44.0159C156.035 44.0749 156.054 44.1054 156.118 44.1073C157.989 44.1553 159.946 43.3378 160.222 41.2716C160.297 40.7053 159.879 40.3772 159.358 40.457C157.772 40.6966 156.678 42.6554 156.062 44.0159Z" fill="#42B6B3"/>
<path d="M112.24 35.2906C112.364 35.467 112.399 35.6966 112.337 35.9289C112.275 36.1612 112.121 36.3772 111.909 36.5293C111.804 36.6047 111.688 36.6621 111.568 36.6982C111.448 36.7344 111.325 36.7487 111.208 36.7402C111.09 36.7317 110.98 36.7006 110.883 36.6487C110.786 36.5968 110.705 36.5252 110.643 36.4378C110.519 36.2614 110.485 36.0318 110.547 35.7995C110.609 35.5672 110.762 35.3512 110.974 35.199C111.079 35.1237 111.195 35.0663 111.315 35.0301C111.436 34.994 111.558 34.9797 111.676 34.9882C111.793 34.9967 111.903 35.0278 112 35.0797C112.097 35.1315 112.179 35.2032 112.24 35.2906Z" fill="#42B6B3"/>
<path d="M32.9029 52.9191C26.352 52.6316 20.2463 49.5781 16.1336 44.438C15.1792 43.2445 14.287 41.867 13.457 40.3057C12.571 38.6373 12.9487 36.8717 14.6388 35.9352C15.2955 35.5702 15.935 35.503 16.5573 35.7333C16.9517 35.8785 17.36 36.2294 17.7821 36.786C18.3077 37.4782 18.6782 38.1514 18.8936 38.8058C20.0232 42.2363 21.7785 45.211 24.1593 47.7297C26.3793 50.079 28.9751 51.6728 31.9466 52.5111C32.4348 52.649 32.9374 52.7434 33.4228 52.8843C33.4993 52.9065 33.4979 52.9191 33.4184 52.922C33.2528 52.9278 33.081 52.9268 32.9029 52.9191Z" fill="#42B6B3"/>
<path d="M194 43.9955V44.434C193.826 44.7466 193.552 45.1203 193.178 45.5549C192.316 46.5548 191.34 47.3544 190.248 47.9536C189.317 48.4647 188.303 48.6796 187.207 48.5983C186.373 48.5373 185.564 48.183 185.474 47.2247C185.435 46.8278 185.46 46.475 185.547 46.1662C186.249 43.693 187.635 41.8151 189.707 40.5325C190.601 39.9778 193.08 39.1908 193.201 41.0073C193.281 42.2255 192.732 42.9515 191.722 43.5134C190.38 44.2578 189.003 44.6677 187.59 44.7432C187.526 44.7471 187.483 44.7795 187.46 44.8405C187.193 45.583 187.063 46.3128 187.069 47.0301C187.076 47.9391 188.116 48.0088 188.759 47.8592C189.837 47.6075 190.841 47.0538 191.77 46.1981C192.695 45.3463 193.438 44.6121 194 43.9955ZM187.801 44.0405C187.782 44.0869 187.797 44.1107 187.847 44.1116C188.895 44.1465 189.84 43.8967 190.685 43.3624C191.335 42.951 191.754 42.3112 191.943 41.4429C192.063 40.8853 191.759 40.3771 191.154 40.4584C189.533 40.6777 188.406 42.5885 187.801 44.0405Z" fill="#42B6B3"/>
<path d="M44.6684 12.1787C44.6684 15.9698 41.6294 19.043 37.8806 19.043C34.1318 19.043 31.0928 15.9698 31.0928 12.1787C31.0928 8.3877 34.1318 5.31445 37.8806 5.31445C41.6294 5.31445 44.6684 8.3877 44.6684 12.1787Z" fill="#134964"/>
</g>
<defs>
<clipPath id="clip0_342_740">
<rect width="194" height="62" fill="white"/>
</clipPath>
</defs>
</svg>
