<svg width="58" height="63" viewBox="0 0 58 63" fill="none" xmlns="http://www.w3.org/2000/svg">
<path d="M31.1685 57.9692C29.7315 58.0897 28.2866 58.0897 26.834 57.9692C26.7588 57.9627 26.7212 57.9971 26.7212 58.0723L26.7232 62.6556C26.7232 62.7606 26.6707 62.8137 26.5657 62.815C22.6445 62.85 19.0434 62.8474 15.7623 62.8072C15.5044 62.8034 15.2521 62.7281 15.0334 62.5895C14.4775 62.2377 13.7233 61.6118 13.0489 61.6138C11.709 61.6177 10.3457 61.6209 8.9592 61.6235C8.87497 61.6248 8.83155 61.5827 8.82896 61.4971C8.816 60.8453 8.80305 60.178 8.79009 59.4951C8.78491 59.2139 8.8633 58.9541 9.02528 58.7156C9.70754 57.7204 10.8019 57.3336 11.5016 56.3987C12.147 55.5356 12.699 54.5819 13.1577 53.5375C13.1992 53.4416 13.1771 53.3638 13.0916 53.3042C6.98564 49.1653 2.94781 43.6088 0.978142 36.6346C0.616603 35.3595 0.361323 34.0436 0.212302 32.6868C-0.203662 28.9179 -0.0364996 25.0673 0.964534 21.4616C3.92682 10.7982 12.4852 2.72578 23.3333 0.544892C26.3616 -0.0641509 29.5481 -0.162634 32.8926 0.249442C38.9338 0.9939 44.6504 3.83373 48.9966 7.97781C53.5917 12.359 56.4723 17.7251 57.6386 24.076C57.6969 24.3922 57.7351 24.7083 57.7533 25.0245C57.7785 25.458 57.8874 25.874 57.9146 26.3035C58.1167 29.5515 57.9943 32.9939 57.174 36.1428C55.6462 42.0155 52.579 46.9702 47.9723 51.0067C46.9888 51.8684 45.932 52.6563 44.802 53.3703C44.7476 53.4053 44.7346 53.4513 44.7632 53.5083C45.3502 54.6862 46.1043 56.2859 47.0587 57.0382C47.7157 57.5552 49.2007 58.4416 49.1813 59.4368C49.1696 60.1326 49.1651 60.7929 49.1677 61.4174C49.169 61.5483 49.1042 61.6138 48.9733 61.6138L44.8487 61.6215C44.6292 61.6228 44.4134 61.679 44.2208 61.7848C43.7893 62.022 43.3682 62.2921 42.9574 62.5954C42.6561 62.817 42.2868 62.8267 41.9292 62.8286C38.8515 62.8545 35.367 62.8448 31.4756 62.7995C31.3603 62.7982 31.2923 62.7411 31.2716 62.6284C31.2392 62.4444 31.2243 62.2448 31.2268 62.0297C31.2424 60.752 31.2567 59.4303 31.2696 58.0645C31.2709 57.9945 31.2372 57.9627 31.1685 57.9692ZM31.2754 44.6914C31.3027 44.5891 31.3694 44.5379 31.4756 44.5379L41.5326 44.5321C41.7309 44.5308 41.8553 44.626 41.9058 44.8178C42.4669 46.952 43.1071 49.0623 43.8263 51.1486C43.8298 51.1582 43.8355 51.1668 43.8429 51.1739C43.8503 51.1809 43.8591 51.1863 43.8688 51.1894C43.8786 51.1926 43.8889 51.1936 43.899 51.1922C43.9091 51.1909 43.9188 51.1872 43.9273 51.1816C51.2359 46.1104 55.4791 38.3237 55.724 29.4427C55.759 28.1831 55.6423 26.8769 55.4791 25.6213C54.2739 16.3146 48.3299 8.3238 39.7405 4.58985C33.9857 2.08888 28.032 1.66061 21.8793 3.30502C12.0284 5.93881 4.60907 14.2503 2.77222 24.1693C2.44308 25.9459 2.28953 27.5728 2.31155 29.05C2.40874 35.8713 4.69265 41.8069 9.16329 46.8568C10.5187 48.3885 12.1437 49.8113 14.0382 51.1253C14.0952 51.1641 14.1341 51.1512 14.1548 51.0864C14.8714 48.9314 15.5084 46.8024 16.0656 44.6992C16.0784 44.6503 16.1069 44.607 16.1466 44.5761C16.1863 44.5452 16.2351 44.5283 16.2852 44.5282L26.383 44.5321C26.6085 44.5321 26.7212 44.6441 26.7212 44.8683V55.5493C26.7212 55.6115 26.7523 55.6438 26.8145 55.6464C28.2581 55.7164 29.7055 55.7229 31.1569 55.6659C31.223 55.6633 31.256 55.6283 31.256 55.5609C31.2469 52.1464 31.245 48.5848 31.2502 44.8761C31.2502 44.8126 31.2586 44.751 31.2754 44.6914Z" fill="#FCFFFF"/>
<path d="M19.9337 24.5464C19.9039 24.4194 19.911 24.2956 19.9551 24.1751C19.9758 24.1194 20.014 24.0792 20.0697 24.0546C20.1164 24.0352 20.163 24.0319 20.2097 24.0449C20.2758 24.063 20.3082 24.1071 20.3069 24.1771L20.2933 24.5503C20.2905 24.6277 20.3139 24.7038 20.3598 24.7662C20.4057 24.8287 20.4713 24.8738 20.546 24.8943L22.2079 25.3433C22.3051 25.3705 22.3491 25.3336 22.34 25.2325L22.2895 24.6999C22.2873 24.6788 22.2896 24.6574 22.2963 24.6371C22.3029 24.6169 22.3137 24.5983 22.328 24.5825C22.3423 24.5668 22.3598 24.5542 22.3793 24.5456C22.3988 24.537 22.4198 24.5327 22.4411 24.5328L24.5948 24.5561C24.6739 24.5574 24.7127 24.5192 24.7114 24.4414L24.6978 19.0533C24.6971 18.9637 24.7219 18.8755 24.7694 18.7989C24.8168 18.7223 24.8849 18.6602 24.9661 18.6199C25.5181 18.3465 26.0235 18.0251 26.4822 17.6558C26.5037 17.6385 26.5296 17.6277 26.557 17.6245C26.5845 17.6214 26.6122 17.6261 26.637 17.6381C26.6618 17.6501 26.6828 17.669 26.6973 17.6924C26.7119 17.7158 26.7195 17.7429 26.7193 17.7705L26.7213 31.6994C26.7213 31.7654 26.6951 31.8287 26.6484 31.8753C26.6017 31.922 26.5385 31.9482 26.4725 31.9482L18.9812 31.9424C18.9572 31.9424 18.9335 31.9372 18.9117 31.9271C18.8898 31.9171 18.8705 31.9024 18.8549 31.884C18.8394 31.8657 18.828 31.8442 18.8217 31.8211C18.8153 31.7979 18.814 31.7736 18.818 31.7499C18.9715 30.8189 19.1445 29.8839 19.1445 28.9354C19.1458 27.497 19.149 26.0832 19.1542 24.6941C19.1543 24.6731 19.1591 24.6524 19.1682 24.6335C19.1774 24.6146 19.1906 24.598 19.2071 24.585C19.2235 24.5719 19.2426 24.5627 19.2631 24.558C19.2836 24.5534 19.3048 24.5534 19.3253 24.558L19.8151 24.6669C19.9188 24.6902 19.9583 24.6501 19.9337 24.5464Z" fill="#FCFFFF"/>
<path d="M35.7634 25.3512C36.309 25.1581 36.8597 25.0097 37.4156 24.9061C37.477 24.8949 37.5328 24.8634 37.5741 24.8169C37.6153 24.7704 37.6396 24.7114 37.6431 24.6495L37.6761 24.1266C37.677 24.1038 37.6847 24.0817 37.6982 24.0633C37.7117 24.0448 37.7304 24.0308 37.7519 24.0231C37.7734 24.0154 37.7968 24.0142 37.819 24.0199C37.8411 24.0255 37.8611 24.0376 37.8763 24.0547C37.989 24.1765 38.0247 24.3249 37.9832 24.4998C37.9599 24.5957 37.9975 24.6502 38.0959 24.6631C38.2605 24.6851 38.4167 24.6489 38.5644 24.5543C38.5899 24.5384 38.6191 24.5296 38.6491 24.5287C38.6792 24.5279 38.7089 24.5351 38.7352 24.5495C38.7615 24.564 38.7835 24.5852 38.7989 24.611C38.8143 24.6367 38.8226 24.6661 38.8229 24.6962C38.8229 25.9894 38.8249 27.2943 38.8287 28.6109C38.8307 29.6994 38.9687 30.7257 39.132 31.7909C39.1348 31.8091 39.1335 31.8277 39.1284 31.8454C39.1232 31.8631 39.1142 31.8795 39.1021 31.8936C39.0899 31.9076 39.0748 31.9189 39.0578 31.9266C39.0409 31.9344 39.0224 31.9385 39.0037 31.9386L31.5436 31.9366C31.3595 31.9366 31.2675 31.8446 31.2675 31.6606L31.2578 17.7783C31.2578 17.7612 31.2615 17.7442 31.2685 17.7285C31.2755 17.7127 31.2858 17.6986 31.2986 17.687C31.3401 17.6533 31.3861 17.641 31.4366 17.65C31.4677 17.6552 31.4956 17.6675 31.5202 17.687C32.0321 18.0809 32.5543 18.4133 33.0869 18.6841C33.1366 18.7098 33.1784 18.7488 33.2075 18.7968C33.2366 18.8448 33.2521 18.8999 33.2521 18.9562L33.2463 24.4532C33.2463 24.5309 33.2852 24.5692 33.3629 24.5679L35.5146 24.5232C35.5372 24.5228 35.5596 24.5272 35.5803 24.536C35.601 24.5448 35.6197 24.5579 35.6351 24.5744C35.6505 24.5909 35.6622 24.6104 35.6696 24.6317C35.677 24.653 35.6798 24.6756 35.6779 24.6981L35.6293 25.2462C35.6203 25.3499 35.665 25.3849 35.7634 25.3512Z" fill="#FCFFFF"/>
<path d="M42.4851 33.1437H16.0267C15.8914 33.1437 15.7818 33.2533 15.7818 33.3886V35.2857C15.7818 35.421 15.8914 35.5306 16.0267 35.5306H42.4851C42.6203 35.5306 42.73 35.421 42.73 35.2857V33.3886C42.73 33.2533 42.6203 33.1437 42.4851 33.1437Z" fill="#FCFFFF"/>
<path d="M18.0171 36.7434L26.5152 36.7357C26.5659 36.7357 26.6145 36.7557 26.6505 36.7913C26.6866 36.827 26.7071 36.8754 26.7076 36.9261L26.7426 39.523C26.7428 39.5484 26.738 39.5737 26.7285 39.5972C26.7189 39.6208 26.7048 39.6423 26.6869 39.6603C26.669 39.6784 26.6477 39.6928 26.6242 39.7025C26.6008 39.7123 26.5756 39.7174 26.5501 39.7174L17.502 39.7154C17.4736 39.7154 17.4456 39.7091 17.4199 39.6969C17.3943 39.6848 17.3716 39.6671 17.3536 39.6452C17.3356 39.6233 17.3227 39.5976 17.3157 39.5701C17.3088 39.5426 17.308 39.5139 17.3134 39.4861L17.8285 36.8989C17.8371 36.8552 17.8605 36.8158 17.8949 36.7874C17.9293 36.759 17.9725 36.7435 18.0171 36.7434Z" fill="#FCFFFF"/>
<path d="M40.4791 39.7174L31.4348 39.7135C31.3846 39.713 31.3366 39.6927 31.3013 39.6571C31.266 39.6214 31.2462 39.5732 31.2462 39.523L31.2579 36.932C31.2579 36.9068 31.2629 36.8819 31.2726 36.8587C31.2823 36.8354 31.2965 36.8143 31.3144 36.7966C31.3323 36.7789 31.3535 36.7649 31.3768 36.7555C31.4002 36.746 31.4251 36.7413 31.4503 36.7415L39.9445 36.7454C39.9883 36.7454 40.0308 36.7604 40.0648 36.7881C40.0988 36.8157 40.1222 36.8542 40.1311 36.897L40.6657 39.4881C40.6714 39.5158 40.671 39.5444 40.6643 39.572C40.6576 39.5995 40.6448 39.6252 40.6269 39.6471C40.6091 39.6691 40.5865 39.6868 40.5609 39.699C40.5354 39.7111 40.5074 39.7174 40.4791 39.7174Z" fill="#FCFFFF"/>
<path d="M46.1956 40.9439H10.5549C10.4293 40.9439 10.3275 41.0457 10.3275 41.1713V43.0879C10.3275 43.2135 10.4293 43.3153 10.5549 43.3153H46.1956C46.3212 43.3153 46.423 43.2135 46.423 43.0879V41.1713C46.423 41.0457 46.3212 40.9439 46.1956 40.9439Z" fill="#FCFFFF"/>
</svg>
